<svg width="149" height="35" viewBox="0 0 149 35" fill="none" xmlns="http://www.w3.org/2000/svg">
<g clip-path="url(#clip0_4_367)">
<path d="M131.888 33.9916L146.579 13.2205C149 9.78595 148.266 4.98845 144.919 2.48066C141.573 -0.0271305 136.894 0.763368 134.446 4.19795L131.888 7.79608L129.331 4.19795C126.91 0.763368 122.231 0.000128031 118.884 2.48066C115.538 4.96119 114.777 9.78595 117.225 13.2205L131.888 33.9916Z" fill="#79E777"/>
<path d="M131.888 35.0001C131.562 35.0001 131.235 34.8366 131.045 34.564L116.354 13.793C113.607 9.92224 114.45 4.47052 118.259 1.63563C120.081 0.272704 122.339 -0.272468 124.57 0.0818936C126.828 0.436255 128.814 1.69015 130.147 3.57099L131.861 5.997L133.575 3.57099C134.908 1.66289 136.894 0.436255 139.152 0.0818936C141.383 -0.272468 143.641 0.272704 145.463 1.63563C149.245 4.44326 150.088 9.89498 147.368 13.793L132.677 34.564C132.514 34.8366 132.215 35.0001 131.888 35.0001ZM123.264 2.04451C121.904 2.04451 120.598 2.48065 119.483 3.2984C116.572 5.45183 115.919 9.64965 118.041 12.6208L131.888 32.2197L145.735 12.6208C147.83 9.64965 147.205 5.45183 144.294 3.2984C142.906 2.26258 141.192 1.8537 139.506 2.12629C137.792 2.39887 136.295 3.35292 135.262 4.79763L132.704 8.39576C132.324 8.94093 131.426 8.94093 131.045 8.39576L128.488 4.79763C127.454 3.35292 125.958 2.39887 124.244 2.12629C123.917 2.07177 123.591 2.04451 123.264 2.04451Z" fill="black"/>
<path d="M74.4864 33.9915L89.177 13.2204C91.5982 9.78586 90.8636 4.98835 87.5175 2.48056C84.1441 3.24249e-05 79.4649 0.763272 77.0437 4.19785L74.4864 7.79598L71.9292 4.19785C69.508 0.763272 64.8288 3.24249e-05 61.4826 2.48056C58.1364 4.96109 57.3747 9.78586 59.8231 13.2204L74.4864 33.9915Z" fill="#79E777"/>
<path d="M74.4864 35.0001C74.16 35.0001 73.8335 34.8366 73.6431 34.564L58.9526 13.793C56.2049 9.92224 57.0482 4.47052 60.8569 1.63563C62.6796 0.272704 64.9376 -0.272468 67.1684 0.0818936C69.4264 0.436255 71.4123 1.69015 72.7453 3.57099L74.4592 5.997L76.1731 3.57099C77.5062 1.66289 79.4921 0.436255 81.7501 0.0818936C83.9809 -0.272468 86.2389 0.272704 88.0616 1.63563C91.843 4.44326 92.6864 9.89498 89.9659 13.793L75.2754 34.564C75.1394 34.8366 74.8129 35.0001 74.4864 35.0001ZM65.8626 2.04451C64.5023 2.04451 63.1965 2.48065 62.0811 3.2984C59.1702 5.45183 58.5173 9.64965 60.6393 12.6208L74.4864 32.2197L88.3336 12.6208C90.4284 9.64965 89.8027 5.45183 86.8918 3.2984C85.5043 2.26258 83.7904 1.8537 82.1038 2.12629C80.3899 2.39887 78.8936 3.35292 77.8598 4.79763L75.3026 8.39576C74.9217 8.94093 74.024 8.94093 73.6431 8.39576L71.0859 4.79763C70.0521 3.35292 68.5558 2.39887 66.8419 2.12629C66.5427 2.07177 66.189 2.04451 65.8626 2.04451Z" fill="black"/>
<path d="M17.1117 33.9916L31.8022 13.2205C34.2234 9.78595 33.4889 4.98845 30.1427 2.48066C26.7965 -0.0271305 22.0901 0.763368 19.6689 4.19795L17.1117 7.79608L14.5816 4.19795C12.1332 0.763368 7.45402 0.000128031 4.10785 2.48066C0.761671 4.98845 -5.97239e-05 9.78595 2.44836 13.2205L17.1117 33.9916Z" fill="#79E777"/>
<path d="M17.1117 35.0001C16.7852 35.0001 16.4588 34.8366 16.2683 34.564L1.57782 13.793C-1.16986 9.92224 -0.326512 4.47052 3.48214 1.63563C5.30486 0.272704 7.56284 -0.272468 9.79363 0.0818936C12.0516 0.436255 14.0376 1.69015 15.3706 3.57099L17.0845 5.997L18.7984 3.57099C20.1314 1.66289 22.1173 0.436255 24.3753 0.0818936C26.6061 -0.272468 28.8641 0.272704 30.6868 1.63563C34.5227 4.47052 35.366 9.92224 32.6456 13.8202L17.955 34.5912C17.7646 34.8366 17.4653 35.0001 17.1117 35.0001ZM8.4878 2.04451C7.12757 2.04451 5.82174 2.48065 4.70635 3.2984C1.82266 5.47909 1.16975 9.64965 3.26451 12.6208L17.1117 32.2197L30.9589 12.6208C33.0536 9.64965 32.4279 5.45183 29.517 3.2984C28.1296 2.26258 26.4429 1.8537 24.7562 2.12629C23.0423 2.39887 21.546 3.35292 20.5123 4.79763L17.955 8.39576C17.5742 8.94093 16.6764 8.94093 16.2955 8.39576L13.7383 4.79763C12.7317 3.35292 11.2083 2.39887 9.49438 2.12629C9.16792 2.07177 8.84146 2.04451 8.4878 2.04451Z" fill="black"/>
</g>
<defs>
<clipPath id="clip0_4_367">
<rect width="149" height="35" fill="white"/>
</clipPath>
</defs>
</svg>
