<svg width="153" height="166" viewBox="0 0 153 166" fill="none" xmlns="http://www.w3.org/2000/svg">
<g clip-path="url(#clip0_4_401)">
<path d="M0.887451 71.4531C22.2776 50.9045 44.8119 29.1417 66.202 8.61644C70.1251 4.85698 74.632 0.840665 80.0729 0.887366C83.3888 0.910717 86.4946 2.49856 89.3201 4.27322C115.007 20.3618 135.206 57.0925 151.599 70.2389C151.319 95.5043 133.198 121.634 114.563 138.703C108.095 144.611 100.949 150.122 92.6127 152.807C86.3778 154.815 79.6759 155.165 73.1842 154.278C54.0825 151.663 37.713 138.563 26.7377 122.708C15.7625 106.853 8.24322 89.62 0.887451 71.4531Z" fill="#ACD4F7"/>
<path d="M73.0673 155.142C55.5769 152.76 38.4368 141.108 26.0371 123.198C14.7115 106.876 7.00549 88.8493 0.0700549 71.7799C-0.0700549 71.453 0 71.056 0.28022 70.8225C10.9519 60.5716 21.9272 50.0171 32.8791 39.4392C43.8777 28.838 54.8764 18.2602 65.5714 7.9625C69.7981 3.89949 74.375 -0.0467792 80.0494 -7.78417e-05C83.6923 0.0466235 87.0082 1.79792 89.7404 3.52588C105.176 13.1931 118.556 30.1223 130.372 45.0901C138.172 54.9674 145.551 64.3077 152.113 69.5616C152.323 69.7251 152.44 69.9819 152.44 70.2621C152.159 96.2748 132.964 123.011 115.124 139.38C109.543 144.494 101.977 150.729 92.8461 153.671C88.783 154.978 84.3228 155.656 79.7225 155.656C77.5508 155.609 75.3091 155.469 73.0673 155.142ZM129.018 46.1642C117.295 31.3132 104.008 14.5007 88.8297 4.99697C86.2843 3.40912 83.2486 1.77457 80.0494 1.75122C80.0261 1.75122 79.9794 1.75122 79.956 1.75122C75.0055 1.75122 70.7321 5.44063 66.7857 9.24679C56.0907 19.5211 45.092 30.1223 34.0934 40.7002C23.2816 51.1146 12.4464 61.5523 1.91484 71.6632C8.75687 88.4757 16.3695 106.199 27.4615 122.217C39.581 139.73 56.3008 151.079 73.3008 153.414C79.9794 154.325 86.5646 153.834 92.3324 151.966C101.136 149.117 108.515 143.046 113.956 138.049C131.446 122.031 150.221 95.9479 150.712 70.6357C144.08 65.2184 136.771 55.9482 129.018 46.1642Z" fill="black"/>
<path d="M28.6758 15.1312C30.4739 55.668 31.5714 96.2281 31.9217 136.812C31.9217 136.812 124.184 134.78 124.254 133.659C123.25 93.6129 122.993 53.5664 123.507 13.52L28.6758 15.1312Z" fill="#79E777"/>
<path d="M31.3145 137.442C31.1511 137.279 31.0576 137.045 31.0576 136.812C30.7074 96.415 29.6098 55.4812 27.8118 15.1546C27.8118 14.9211 27.8818 14.6876 28.0453 14.5241C28.2087 14.3607 28.4423 14.2439 28.6758 14.2439L123.53 12.6094C123.74 12.6094 123.997 12.7028 124.161 12.8662C124.324 13.0297 124.418 13.2632 124.418 13.4967C123.904 53.333 124.161 93.753 125.165 133.613C125.165 133.636 125.165 133.659 125.165 133.683C125.095 134.71 125.095 134.85 109.869 135.481C102.21 135.784 91.5151 136.134 78.1112 136.508C55.2967 137.139 32.2019 137.652 31.9684 137.652H31.945C31.6881 137.699 31.478 137.606 31.3145 137.442ZM122.643 14.384L29.5865 15.9952C31.3379 55.7614 32.412 96.0881 32.7857 135.924C66.9725 135.177 117.272 133.799 123.367 132.982C122.386 93.6362 122.152 53.7299 122.643 14.384Z" fill="black"/>
<path d="M0.887451 71.453C3.36273 93.7996 3.7597 116.356 2.00833 138.773C1.51795 144.984 1.12097 151.826 2.91904 157.734C4.22674 162.007 8.19652 164.902 12.6567 164.786L29.8902 164.389C36.7089 164.225 43.5042 164.062 50.3229 163.898C79.9094 163.198 109.496 162.497 139.059 161.82C141.791 161.75 144.594 161.68 147.115 160.629C149.637 159.602 151.879 157.36 151.739 154.862C152.206 126.444 152.323 98.0261 151.576 70.2388C132.287 89.5498 112.508 108.394 92.3092 126.747C89.11 129.643 84.8833 132.749 80.7501 131.558C68.6306 127.284 58.5894 118.785 48.805 110.449C32.8092 96.7651 16.8133 83.105 0.887451 71.453Z" fill="#79E777"/>
<path d="M2.07837 157.967C0.280292 152.083 0.607215 145.498 1.1443 138.68C2.84897 116.38 2.47535 93.7996 7.22376e-05 71.5464C-0.0466311 71.1962 0.140182 70.8693 0.420402 70.6825C0.723973 70.519 1.0976 70.519 1.37782 70.7292C17.3503 82.4045 33.6264 96.2982 49.3655 109.748C58.5193 117.571 68.9108 126.444 80.9836 130.694C84.8366 131.815 88.9699 128.592 91.7253 126.094C111.831 107.833 131.773 88.8259 150.968 69.6083C151.225 69.3515 151.599 69.2814 151.903 69.4215C152.229 69.5616 152.44 69.8652 152.463 70.2155C153.117 94.29 153.164 121.213 152.626 154.838C152.767 157.874 150.128 160.349 147.442 161.447C144.734 162.567 141.721 162.637 139.083 162.684L12.68 165.65C12.5866 165.65 12.5166 165.65 12.4232 165.65C7.70612 165.65 3.45612 162.521 2.07837 157.967ZM92.9163 127.401C89.8339 130.203 85.2102 133.753 80.4699 132.375C68.0468 127.985 57.5385 119.018 48.2679 111.103C33.0427 98.1195 17.3503 84.7162 1.96161 73.3211C4.25007 95.0372 4.55364 117.057 2.87233 138.82C2.35859 145.451 2.03167 151.849 3.73634 157.454C4.92727 161.33 8.54678 163.992 12.61 163.898L139.036 160.933C141.651 160.863 144.36 160.816 146.789 159.812C148.843 158.971 150.992 157.08 150.875 154.838C151.389 122.124 151.365 95.8312 150.758 72.2703C132.007 91.0443 112.532 109.561 92.9163 127.401Z" fill="black"/>
<path d="M46.5631 36.3103L107.347 34.8392C107.838 34.8158 108.212 34.4189 108.212 33.9519C108.188 33.4615 107.815 33.0879 107.324 33.0879L46.5398 34.559C46.0494 34.5823 45.6758 34.9793 45.6758 35.4463C45.6991 35.9133 46.0728 36.3103 46.5631 36.3103Z" fill="black"/>
<path d="M107.581 54.8741C108.071 54.8741 108.445 54.4771 108.468 54.0101C108.468 53.5197 108.071 53.1228 107.604 53.1228L46.1195 52.9126C45.6292 52.9126 45.2555 53.3096 45.2322 53.7766C45.2322 54.2669 45.6292 54.6639 46.0962 54.6639L107.581 54.8741Z" fill="black"/>
<path d="M90.2309 73.8815C95.7886 73.8815 101.346 73.8581 106.881 73.8114C107.371 73.8114 107.745 73.4145 107.745 72.9241C107.745 72.4337 107.348 72.0601 106.857 72.0601C86.9617 72.2469 66.7859 72.1068 46.8903 71.6165C46.3999 71.5931 46.0029 71.9901 46.0029 72.4804C46.0029 72.9708 46.3766 73.3678 46.8669 73.3678C61.2516 73.718 75.7763 73.8815 90.2309 73.8815Z" fill="black"/>
<path d="M46.7267 91.7449H107.091C107.581 91.7449 107.978 91.3479 107.978 90.8575C107.978 90.3672 107.581 89.9702 107.091 89.9702H46.7267C46.2363 89.9702 45.8394 90.3672 45.8394 90.8575C45.8394 91.3479 46.2363 91.7449 46.7267 91.7449Z" fill="black"/>
<g opacity="0.1294">
<path d="M30.5441 86.6777C26.948 81.8908 22.0441 78.3181 17.0235 75.1191C15.1087 73.8114 13.0537 72.8074 11.0222 71.7099C8.92051 70.5657 6.81886 69.3748 4.50704 68.6976C0.607319 67.7403 -0.957241 73.4145 2.89578 74.582C6.95897 75.913 8.00979 76.5902 11.0689 77.7811C11.0689 77.7811 11.0922 77.7811 11.0922 77.8044C11.4191 77.9445 11.7461 78.108 12.0496 78.2714C11.6994 79.1821 11.9562 80.3496 12.9136 80.8633C16.2996 82.5446 18.2612 83.6421 20.3161 85.6969C21.437 86.8411 22.5112 88.0087 23.6787 89.1061C24.1458 89.6199 24.7296 90.0635 25.4535 90.0402C25.8738 90.0402 26.2708 89.9001 26.5977 89.6666C26.6678 89.7366 26.7378 89.7833 26.8079 89.8534C27.0881 90.0869 27.8353 90.9508 27.9755 91.1376C27.9988 91.161 27.9988 91.1844 28.0222 91.2077C28.1623 91.4646 28.3491 91.6747 28.6059 91.8382C29.7735 92.8656 31.8051 92.1417 32.1554 90.6473C32.5057 89.1528 31.3147 87.8685 30.5441 86.6777Z" fill="black"/>
</g>
<g opacity="0.1294">
<path d="M148.703 69.8418C147.909 70.052 147.419 70.7525 146.765 71.2195C147.722 70.4723 145.481 72.2236 144.523 72.9942C140.997 75.4927 137.635 78.2247 134.272 80.9334C131.96 82.7781 130.302 84.039 127.126 86.6309C126.099 87.4949 125.048 88.3355 124.091 89.2696C123.647 89.7132 123.087 90.1102 122.9 90.7407C121.685 93.4026 125.258 95.7844 127.29 93.6829C131.446 89.6665 135.907 85.9304 140.25 82.1009C143.566 79.2054 145.177 78.3415 148.867 75.2825C149.684 74.4652 150.922 73.9749 151.389 72.8774C152.183 71.2428 150.431 69.3047 148.703 69.8418Z" fill="black"/>
</g>
<g opacity="0.1294">
<path d="M117.622 99.1468C115.451 101.085 112.088 104.237 110.734 105.358C109.426 106.432 106.087 108.861 102.467 111.593C98.4273 115.025 96.6992 116.45 92.5426 119.765C90.2775 121.423 87.1017 124.459 82.8517 125.23C79.3256 125.323 79.0687 125.159 75.7762 124.482C73.2075 123.735 73.1608 123.572 70.4286 122.101C67.8132 120.606 65.2913 118.948 62.6992 117.407C61.6951 116.847 60.7143 115.866 59.4767 116.263C57.6086 116.707 57.2583 119.462 58.9396 120.373C63.0495 122.871 66.9959 125.697 71.3627 127.775C73.7913 128.896 76.3833 129.503 78.9987 129.993C85.724 131.558 91.6086 127.448 96.3023 123.081C100.692 119.345 104.802 115.282 109.216 111.569C112.462 108.721 115.661 105.802 118.837 102.86C119.397 102.252 120.214 101.832 120.541 101.062C121.289 99.357 118.93 97.7691 117.622 99.1468Z" fill="black"/>
</g>
<g opacity="0.1294">
<path d="M94.5275 9.69035C89.4134 9.80711 84.3228 9.59695 79.2321 9.24669C75.4025 9.03653 71.5728 9.43349 67.7665 9.90051C66.7156 10.0406 65.6648 10.1807 64.614 10.3208C63.5398 10.3909 62.3956 10.6944 61.8585 11.7219C60.831 13.4265 62.1621 15.7615 64.147 15.7148C70.9423 14.6407 77.831 14.8275 84.6964 15.061C88.2459 15.0143 91.8187 14.7575 95.3681 14.6407C96.6525 14.4305 98.0302 14.6874 99.2445 14.2437C100.155 13.9402 100.762 12.9361 100.739 12.0021C100.552 8.68627 96.7692 9.667 94.5275 9.69035Z" fill="black"/>
</g>
<g opacity="0.1294">
<path d="M149.918 153.437C149.334 153.484 148.75 153.647 148.33 154.091C148.306 154.114 148.306 154.114 148.283 154.138C147.979 154.371 147.652 154.581 147.326 154.768C146.251 155.609 143.146 156.216 142.679 156.239C139.059 156.66 135.44 156.426 131.82 156.356C127.944 156.286 124.067 156.076 120.191 155.796C109.543 155.702 98.8709 155.352 88.2225 156.379C79.7225 156.986 71.1758 156.683 62.6525 156.893C58.9162 157.08 55.1566 157.033 51.4203 157.197C46.1896 157.524 40.9821 158.084 35.7981 158.714C32.5055 159.345 22.7678 159.742 16.4162 159.088C12.4698 158.714 15.0151 159.158 11.6058 158.458C10.0178 157.921 10.3448 158.177 8.28982 156.776C8.26647 156.753 8.24312 156.73 8.19641 156.706C7.54257 156.099 6.79531 155.469 5.8379 155.515C3.59614 155.445 2.3118 158.458 3.96976 160.022C5.97801 161.89 8.33652 163.431 10.9753 164.272C13.3571 165.042 15.8558 165.253 18.3077 165.58C28.1854 166.724 38.0398 165.206 47.8942 164.716C58.706 164.155 69.5412 164.412 80.353 163.595C87.4753 163.081 94.5508 162.31 101.696 162.077C107.044 161.82 112.391 162.17 117.716 161.843C122.386 161.657 127.08 161.376 131.75 161.26C137.681 161.33 141.441 161.353 146.298 160.139C147.699 159.742 149.007 159.041 150.221 158.224C150.852 157.734 151.646 157.337 151.926 156.543C152.65 155.165 151.435 153.39 149.918 153.437Z" fill="black"/>
</g>
</g>
<defs>
<clipPath id="clip0_4_401">
<rect width="153" height="166" fill="white"/>
</clipPath>
</defs>
</svg>
