<svg width="90" height="51" viewBox="0 0 90 51" fill="none" xmlns="http://www.w3.org/2000/svg">
<g clip-path="url(#clip0_4_474)">
<path d="M107.987 8.14503H1.01346C0.453389 8.14503 0 7.69252 0 7.16016C0 6.60119 0.453389 6.14868 1.01346 6.14868H108.013C108.573 6.14868 109.027 6.60119 109.027 7.16016C109 7.69252 108.547 8.14503 107.987 8.14503Z" fill="black"/>
<path d="M107.987 44.9045H1.01346C0.453389 44.9045 0 44.452 0 43.9197C0 43.3607 0.453389 42.9082 1.01346 42.9082H108.013C108.573 42.9082 109.027 43.3607 109.027 43.9197C109 44.452 108.547 44.9045 107.987 44.9045Z" fill="black"/>
<path d="M107.987 8.14503H1.01346C0.453389 8.14503 0 7.69252 0 7.16016C0 6.60119 0.453389 6.14868 1.01346 6.14868H108.013C108.573 6.14868 109.027 6.60119 109.027 7.16016C109 7.69252 108.547 8.14503 107.987 8.14503Z" fill="black"/>
<path d="M107.987 44.9045H1.01346C0.453389 44.9045 0 44.452 0 43.9197C0 43.3607 0.453389 42.9082 1.01346 42.9082H108.013C108.573 42.9082 109.027 43.3607 109.027 43.9197C109 44.452 108.547 44.9045 107.987 44.9045Z" fill="black"/>
<path d="M80.0364 7.16022C80.0364 3.75312 77.2894 1.01147 73.8756 1.01147C70.4619 1.01147 67.7148 3.75312 67.7148 7.16022C67.7148 10.5673 70.4619 13.309 73.8756 13.309C77.2894 13.309 80.0364 10.5407 80.0364 7.16022Z" fill="white"/>
<path d="M73.8756 14.2938C69.9285 14.2938 66.7014 11.0731 66.7014 7.13361C66.7014 3.22077 69.9285 0 73.8756 0C77.8228 0 81.0498 3.22077 81.0498 7.16023C81.0498 11.0997 77.8228 14.2938 73.8756 14.2938ZM73.8756 1.99635C71.0219 1.99635 68.7017 4.31211 68.7017 7.16023C68.7017 10.0084 71.0219 12.3241 73.8756 12.3241C76.7293 12.3241 79.0496 10.0084 79.0496 7.16023C79.0496 4.31211 76.7293 1.99635 73.8756 1.99635Z" fill="black"/>
<path d="M31.6305 49.9884C35.033 49.9884 37.7912 47.2355 37.7912 43.8397C37.7912 40.4438 35.033 37.6909 31.6305 37.6909C28.228 37.6909 25.4697 40.4438 25.4697 43.8397C25.4697 47.2355 28.228 49.9884 31.6305 49.9884Z" fill="#ACD4F7"/>
<path d="M31.6305 50.9999C27.6834 50.9999 24.4563 47.7791 24.4563 43.8397C24.4563 39.9002 27.6834 36.6794 31.6305 36.6794C35.5777 36.6794 38.8047 39.9002 38.8047 43.8397C38.8047 47.7791 35.5777 50.9999 31.6305 50.9999ZM31.6305 38.7024C28.7768 38.7024 26.4565 41.0182 26.4565 43.8663C26.4565 46.7144 28.7768 49.0302 31.6305 49.0302C34.4842 49.0302 36.8045 46.7144 36.8045 43.8663C36.8045 41.0182 34.4842 38.7024 31.6305 38.7024Z" fill="black"/>
</g>
<defs>
<clipPath id="clip0_4_474">
<rect width="109" height="51" fill="white"/>
</clipPath>
</defs>
</svg>
