<svg width="100" height="101" viewBox="0 0 100 101" fill="none" xmlns="http://www.w3.org/2000/svg">
<g clip-path="url(#clip0_4_526)">
<path d="M25.4723 57.7684C27.5653 64.8601 35.0253 68.5533 42.1343 65.987L76.3584 53.676L79.9545 65.861L44.7132 78.5353C30.8673 83.5153 16.3293 76.3508 12.2529 62.5241C8.17644 48.6974 16.0896 33.4427 29.9356 28.4627L65.1769 15.7885L68.773 27.9736L34.5488 40.2846C27.4471 42.841 23.37 50.6698 25.4723 57.7684Z" fill="#79E777"/>
<path d="M16.4882 38.0082C19.7756 33.5732 24.3436 30.0109 29.8181 28.039L65.0502 15.3579C65.1645 15.3201 65.2827 15.3159 65.3828 15.3748C65.4903 15.4239 65.5611 15.5223 65.5988 15.6268L69.1949 27.8119C69.2648 28.0474 69.1336 28.3021 68.8977 28.3874L34.6735 40.6984C31.3549 41.8963 28.6024 44.3095 26.9505 47.5081C25.2894 50.6999 24.9203 54.283 25.8942 57.6067C27.9172 64.4629 35.1418 68.0275 42.0076 65.5564L76.2317 53.2453C76.4676 53.16 76.7104 53.2787 76.7803 53.5143L80.3764 65.6993C80.4068 65.8137 80.4039 65.934 80.34 66.0396C80.2853 66.1521 80.1842 66.2303 80.0793 66.2749L44.8379 78.9491C38.0292 81.4014 30.8505 81.0542 24.6157 77.9783C18.3809 74.9025 13.8442 69.4582 11.8363 62.6591C9.30116 54.1071 11.3264 44.9717 16.4882 38.0082ZM64.8797 16.364L30.0622 28.8933C16.4688 33.785 8.67221 48.8047 12.6767 62.3791C16.6812 75.9536 30.995 83.0131 44.5885 78.1215L79.3967 65.5853L76.052 54.2446L42.2517 66.4107C34.9214 69.0426 27.2021 65.2337 25.0411 57.9232C23.9992 54.3808 24.398 50.5442 26.1611 47.1372C27.9315 43.7205 30.8603 41.147 34.4148 39.8638L68.2151 27.6978L64.8797 16.364Z" fill="black"/>
<path d="M69.5577 69.5978L79.946 65.8601L76.3519 53.6742L65.9635 57.4119L69.5577 69.5978Z" fill="#ACD4F7"/>
<path d="M65.6259 57.1528C65.6845 57.0738 65.7543 57.0184 65.852 56.9837L76.2318 53.2453C76.4676 53.1599 76.7104 53.2787 76.7804 53.5142L80.3764 65.6992C80.4068 65.8136 80.4039 65.9339 80.34 66.0395C80.2853 66.1521 80.1842 66.2302 80.0793 66.2748L69.6995 70.0132C69.5852 70.051 69.467 70.0552 69.3668 69.9962C69.2594 69.9472 69.1885 69.8488 69.1509 69.7443L65.5548 57.5592C65.5244 57.4449 65.5273 57.3246 65.5913 57.219C65.5966 57.1923 65.6113 57.1726 65.6259 57.1528ZM76.052 54.2445L66.518 57.6763L69.8626 69.0169L79.3967 65.5852L76.052 54.2445Z" fill="black"/>
<path d="M58.389 31.703L68.7773 27.9653L65.1831 15.7795L54.7948 19.5171L58.389 31.703Z" fill="#ACD4F7"/>
<path d="M54.4445 19.2653C54.5031 19.1863 54.5729 19.1309 54.6705 19.0962L65.0504 15.3578C65.2862 15.2724 65.529 15.3912 65.5989 15.6267L69.195 27.8117C69.265 28.0473 69.1337 28.302 68.8979 28.3873L58.518 32.1257C58.4038 32.1635 58.2856 32.1677 58.1854 32.1087C58.078 32.0597 58.0071 31.9613 57.9695 31.8568L54.3734 19.6717C54.343 19.5574 54.3459 19.4371 54.4098 19.3315C54.4152 19.3048 54.4298 19.2851 54.4445 19.2653ZM64.8799 16.3639L55.3458 19.7957L58.6905 31.1363L68.2153 27.6977L64.8799 16.3639Z" fill="black"/>
<path d="M11.724 61.6269C11.7826 61.5478 11.8524 61.4925 11.9501 61.4577L25.1734 56.7355C25.4093 56.6502 25.6521 56.769 25.722 57.0045C25.792 57.24 25.6607 57.4947 25.4248 57.58L12.2015 62.3022C11.9656 62.3875 11.7228 62.2688 11.6529 62.0333C11.602 61.8884 11.6435 61.7355 11.724 61.6269Z" fill="black"/>
<path d="M18.705 70.6431C18.7416 70.5937 18.806 70.565 18.8671 70.5796L43.4462 76.9074C43.5166 76.9289 43.5688 77.0136 43.5435 77.0866C43.5181 77.1596 43.4317 77.218 43.3614 77.1965L18.7822 70.8687C18.7119 70.8472 18.6596 70.7625 18.685 70.6895C18.6923 70.6796 18.6903 70.6628 18.705 70.6431Z" fill="black"/>
<path d="M16.3225 67.4538C16.3591 67.4044 16.4236 67.3757 16.4846 67.3903L47.6032 75.4128C47.6735 75.4343 47.7258 75.519 47.7005 75.592C47.6751 75.665 47.5887 75.7234 47.5183 75.7019L16.3998 67.6794C16.3294 67.6579 16.2771 67.5732 16.3025 67.5002C16.3005 67.4834 16.3152 67.4637 16.3225 67.4538Z" fill="black"/>
<path d="M14.9694 64.2926C15.006 64.2433 15.0704 64.2145 15.1315 64.2292L51.9919 73.7223C52.0622 73.7439 52.1145 73.8285 52.0891 73.9016C52.0638 73.9746 51.9774 74.033 51.907 74.0114L15.0466 64.5183C14.9763 64.4967 14.924 64.4121 14.9494 64.339C14.9474 64.3223 14.962 64.3025 14.9694 64.2926Z" fill="black"/>
<path d="M16.7045 61.9517C16.7411 61.9023 16.8055 61.8736 16.8666 61.8883L27.6614 64.5946C27.7391 64.6063 27.7841 64.7008 27.7587 64.7739C27.7426 64.8538 27.6469 64.9053 27.5766 64.8837L16.7817 62.1774C16.7041 62.1657 16.6591 62.0712 16.6845 61.9981C16.6825 61.9814 16.6898 61.9715 16.7045 61.9517Z" fill="black"/>
<path d="M20.9612 60.4391C20.9978 60.3898 21.0622 60.361 21.1233 60.3757L24.7481 61.2873C24.8258 61.2989 24.8707 61.3935 24.8454 61.4665C24.8293 61.5464 24.7336 61.5979 24.6633 61.5764L21.0384 60.6648C20.9608 60.6531 20.9158 60.5586 20.9412 60.4855C20.9392 60.4688 20.9538 60.449 20.9612 60.4391Z" fill="black"/>
<path d="M23.9747 74.6716C24.0113 74.6223 24.0757 74.5935 24.1368 74.6082L36.6716 77.839C36.7419 77.8606 36.7942 77.9452 36.7688 78.0183C36.7435 78.0913 36.657 78.1497 36.5867 78.1281L24.0519 74.8973C23.9816 74.8757 23.9293 74.7911 23.9547 74.718C23.962 74.7081 23.9673 74.6815 23.9747 74.6716Z" fill="black"/>
<path d="M41.4813 68.0129C41.518 67.9635 41.5824 67.9348 41.6527 67.9563C46.6434 69.5283 51.7479 70.9857 56.8327 72.2755C56.903 72.2971 56.9553 72.3818 56.93 72.4548C56.9046 72.5278 56.8182 72.5862 56.7478 72.5647C51.661 71.2581 46.5493 69.8106 41.5586 68.2385C41.479 68.2101 41.436 68.1323 41.4687 68.0494C41.4594 68.0425 41.474 68.0228 41.4813 68.0129Z" fill="black"/>
<path d="M45.8683 66.3826C45.9049 66.3332 45.9693 66.3044 46.0397 66.326L60.6536 70.8073C60.7333 70.8357 60.7763 70.9135 60.7436 70.9964C60.7109 71.0793 60.6318 71.1278 60.5522 71.0994L45.9382 66.6181C45.8586 66.5897 45.8156 66.5119 45.8483 66.429C45.8536 66.4023 45.861 66.3924 45.8683 66.3826Z" fill="black"/>
<path d="M50.0753 64.879C50.1119 64.8296 50.1763 64.8008 50.2467 64.8224L65.0804 69.2982C65.16 69.3266 65.203 69.4044 65.1703 69.4873C65.1377 69.5702 65.0586 69.6187 64.9789 69.5903L50.1452 65.1145C50.0656 65.0861 50.0226 65.0083 50.0552 64.9254C50.0606 64.8987 50.0679 64.8889 50.0753 64.879Z" fill="black"/>
<path d="M54.5235 63.2634C54.5601 63.214 54.6245 63.1853 54.6949 63.2068C58.629 64.516 62.6769 65.7106 66.7145 66.7445C66.7849 66.7661 66.8372 66.8507 66.8118 66.9238C66.7864 66.9968 66.7 67.0552 66.6297 67.0336C62.5994 65.9899 58.5442 64.8052 54.6007 63.489C54.5211 63.4606 54.4854 63.3729 54.5108 63.2999C54.5088 63.2832 54.5162 63.2733 54.5235 63.2634Z" fill="black"/>
<path d="M58.8596 61.4884C58.8962 61.439 58.9607 61.4103 59.031 61.4318C61.2027 62.1693 63.4277 62.8544 65.6375 63.4823C65.7079 63.5038 65.7602 63.5885 65.7275 63.6714C65.6948 63.7543 65.6157 63.8028 65.5361 63.7744C63.3189 63.1564 61.0847 62.4644 58.9129 61.7269C58.8333 61.6985 58.7976 61.6108 58.823 61.5378C58.8376 61.5181 58.8449 61.5082 58.8596 61.4884Z" fill="black"/>
<path d="M62.5915 60.1988C62.6281 60.1494 62.6926 60.1207 62.7536 60.1354L64.6615 60.6466C64.7319 60.6682 64.7842 60.7528 64.7588 60.8259C64.7335 60.8989 64.647 60.9573 64.5767 60.9357L62.6688 60.4245C62.5984 60.4029 62.5461 60.3182 62.5715 60.2452C62.5788 60.2353 62.5842 60.2087 62.5915 60.1988Z" fill="black"/>
<g opacity="0.1294">
<path d="M63.5478 16.0652C64.1894 15.6072 65.5441 15.4483 65.915 17.0241C66.0718 18.0739 64.9845 18.9973 64.0414 18.8339C63.3684 19.0238 63.156 19.0193 62.8723 19.1304C61.0572 19.7746 59.3002 20.5536 57.5003 21.2549C52.6811 23.177 47.665 24.9379 44.5353 25.9391C39.9074 27.4673 35.4924 28.786 30.3662 31.1998C26.8509 32.8182 22.2218 36.0749 20.17 38.319C19.7317 38.7746 20.0836 38.3773 19.2372 39.4028C18.4 40.4352 17.6762 41.5668 16.9412 42.6749C16.314 43.618 15.7147 44.5818 15.0338 45.5004C14.7955 45.7829 14.6189 46.157 14.2747 46.3304C13.0794 47.1279 11.7151 45.6116 12.6123 44.4401C14.5052 41.9252 15.9657 39.1205 17.8215 36.5781C19.3494 34.711 21.2345 33.2157 23.2055 31.876C28.7921 27.8904 35.2688 25.7889 41.6504 23.8159C44.974 22.8054 52.919 19.8486 56.2699 18.7818C58.3898 18.134 60.6878 17.3428 62.8779 16.4257C62.9975 16.3613 63.1264 16.3038 63.2461 16.2395C63.3086 16.194 63.3179 16.2008 63.2866 16.2236C63.2866 16.2236 63.2866 16.2236 63.2939 16.2137C63.2939 16.2137 63.2866 16.2236 63.2773 16.2167C63.27 16.2266 63.2534 16.2296 63.2461 16.2395C63.3511 16.1948 63.4448 16.1266 63.5478 16.0652Z" fill="black"/>
</g>
</g>
<defs>
<clipPath id="clip0_4_526">
<rect width="75" height="68" fill="white" transform="translate(99.2905 40.4937) rotate(126.548)"/>
</clipPath>
</defs>
</svg>
