<svg width="306" height="322" viewBox="0 0 306 322" fill="none" xmlns="http://www.w3.org/2000/svg">
<g clip-path="url(#clip0_4_13)">
<path d="M208.681 123.728C204.431 133.221 206.183 145.483 213.921 152.45C218.14 156.238 223.654 158.277 228.148 161.715C232.657 165.153 236.206 171.132 234.043 176.365C233.494 177.689 232.611 178.891 232.322 180.305C231.56 184.093 235.246 187.09 237.897 189.89C243.852 196.203 245.284 207.369 238.932 213.287C233.921 217.958 226.244 217.943 219.42 217.364C210.159 216.589 200.639 215.235 192.718 210.382C184.904 205.589 179.314 197.679 176.145 189.083C172.977 180.488 172.093 171.208 172.2 162.05C172.337 151.507 173.967 140.478 180.212 131.973C186.473 123.469 198.415 118.434 208.681 123.728Z" fill="#CBE7FF"/>
<path d="M224.797 218.186C222.969 218.186 221.156 218.079 219.39 217.927C210.128 217.151 200.456 215.767 192.444 210.853C185.056 206.32 179.085 198.667 175.643 189.266C172.84 181.629 171.53 172.714 171.667 162.019C171.835 148.586 174.424 138.926 179.786 131.608C183.045 127.166 187.661 123.789 192.794 122.1C198.415 120.259 204.005 120.624 208.971 123.195C209.245 123.332 209.351 123.652 209.23 123.941C204.888 133.632 207.036 145.437 214.332 152.009C216.632 154.078 219.405 155.66 222.086 157.181C224.264 158.414 226.503 159.692 228.529 161.243C233.068 164.712 236.907 170.995 234.606 176.563C234.393 177.065 234.15 177.552 233.891 178.023C233.464 178.83 233.068 179.575 232.916 180.397C232.322 183.348 234.789 185.858 237.165 188.277C237.562 188.688 237.958 189.083 238.338 189.479C241.842 193.191 243.837 198.47 243.67 203.581C243.533 207.689 242.04 211.173 239.359 213.683C235.505 217.258 230.159 218.186 224.797 218.186ZM199.786 122.146C192.17 122.146 184.873 126.603 180.684 132.323C175.46 139.443 172.946 148.89 172.794 162.065C172.657 172.623 173.937 181.401 176.694 188.901C180.06 198.044 185.863 205.513 193.023 209.91C200.821 214.702 210.342 216.056 219.466 216.817C226.549 217.41 233.769 217.334 238.536 212.892C241.004 210.595 242.36 207.385 242.482 203.581C242.634 198.835 240.715 193.754 237.47 190.3C237.105 189.905 236.709 189.509 236.328 189.114C233.86 186.604 231.057 183.759 231.773 180.199C231.971 179.225 232.428 178.358 232.87 177.521C233.114 177.05 233.342 176.609 233.54 176.152C235.612 171.132 232.032 165.396 227.828 162.171C225.863 160.665 223.655 159.418 221.522 158.201C218.795 156.649 215.962 155.036 213.571 152.876C206.046 146.106 203.731 134.042 207.981 124.002C205.269 122.709 202.512 122.146 199.786 122.146Z" fill="black"/>
<path d="M165.97 80.021C163.03 94.8233 159.557 110.615 148.605 121.02C145.041 124.398 140.822 127.06 137.531 130.696C133.617 135.031 131.241 140.523 129.474 146.076C126.138 156.573 124.797 168.226 128.88 178.48C132.947 188.718 143.533 196.888 154.47 195.458C164.066 194.21 171.652 186.041 174.911 176.944C178.171 167.846 177.882 157.897 177.227 148.252C175.658 125.052 172.139 102.019 165.97 80.021Z" fill="#CBE7FF"/>
<path d="M152.063 196.173C142.345 196.173 132.474 189.038 128.362 178.678C124.736 169.55 124.934 158.52 128.941 145.894C131.134 139.017 133.723 134.058 137.12 130.315C139.055 128.17 141.34 126.345 143.548 124.565C145.117 123.302 146.747 121.994 148.225 120.594C158.613 110.736 162.147 96.3293 165.422 79.8992C165.467 79.6405 165.696 79.4428 165.955 79.4428C166.214 79.4276 166.458 79.6101 166.534 79.8535C172.337 100.589 176.13 123.576 177.821 148.175C178.476 157.684 178.826 167.755 175.475 177.111C171.789 187.41 163.579 194.834 154.576 196.005C153.723 196.127 152.901 196.173 152.063 196.173ZM166.061 82.4854C162.878 98.1244 159.131 111.816 149.017 121.416C147.509 122.846 145.864 124.169 144.264 125.447C142.086 127.181 139.847 128.992 137.973 131.061C134.698 134.681 132.185 139.504 130.037 146.228C126.107 158.596 125.894 169.367 129.428 178.237C133.708 189.007 144.462 196.157 154.424 194.864C163.015 193.739 170.86 186.619 174.409 176.715C177.684 167.557 177.333 157.638 176.694 148.252C175.048 124.656 171.484 102.536 166.061 82.4854Z" fill="black"/>
<path d="M160.883 162.674C163.442 155.219 165.163 147.506 166.915 138.637C170.418 138.044 174.028 137.983 177.562 138.454C179.146 138.667 180.882 139.093 181.766 140.356C182.314 141.147 182.436 142.136 182.543 143.079C183.243 149.575 183.959 156.086 184.66 162.582C184.721 163.084 184.767 163.602 184.584 164.073C184.325 164.743 183.67 165.199 183.015 165.564C176.206 169.398 166.762 168.394 160.883 162.674Z" fill="#79E777"/>
<path d="M174.013 168.455C169.062 168.455 164.097 166.614 160.487 163.084C160.334 162.932 160.273 162.704 160.349 162.491C162.848 155.189 164.569 147.628 166.366 138.53C166.412 138.302 166.595 138.12 166.823 138.074C170.403 137.465 174.043 137.405 177.653 137.891C179.253 138.104 181.202 138.546 182.253 140.036C182.908 140.964 183.03 142.105 183.137 143.033L185.254 162.537C185.315 163.054 185.376 163.678 185.147 164.286C184.828 165.138 184.051 165.671 183.32 166.081C180.441 167.679 177.227 168.455 174.013 168.455ZM161.538 162.521C167.082 167.694 176.13 168.804 182.741 165.077C183.289 164.773 183.868 164.393 184.051 163.875C184.188 163.525 184.142 163.069 184.096 162.643L181.979 143.14C181.888 142.303 181.781 141.375 181.309 140.675C180.517 139.55 178.857 139.2 177.501 139.017C174.15 138.561 170.753 138.606 167.417 139.139C165.65 147.962 163.959 155.356 161.538 162.521Z" fill="black"/>
<path d="M161.431 82.0443C159.497 89.1488 157.882 96.7706 153.327 102.734C150.845 105.99 143.107 124.595 155.795 136.142C162.467 142.212 171.713 145.422 181.857 143.916C188.742 142.897 199.755 135.366 202.741 124.565C206.747 127.729 212.52 126.558 214.302 122.496C215.323 120.153 213.967 116.122 211.164 115.102C209.001 114.311 208.742 114.235 206.61 114.783C207.524 109.519 208.925 104.331 211.347 98.8396C208.575 91.0048 201.522 84.6306 193.769 79.9145C191.21 78.3628 188.499 76.9175 185.589 76.1112C177.212 73.7836 163.411 74.7573 161.431 82.0443Z" fill="#79E777"/>
<path d="M176.861 144.874C168.849 144.874 161.37 142.014 155.399 136.568C142.726 125.021 149.809 106.37 152.855 102.399C156.8 97.2421 158.506 90.7765 160.167 84.5088C160.395 83.6264 160.624 82.7592 160.867 81.9073C161.431 79.8688 162.848 78.1953 165.087 76.9326C170.555 73.8292 179.801 73.9357 185.726 75.5939C188.956 76.5067 191.88 78.1345 194.058 79.4732C200.456 83.3678 208.758 89.8638 211.865 98.7025C211.911 98.8395 211.911 98.9916 211.85 99.1285C209.778 103.845 208.331 108.606 207.31 114.083C208.834 113.748 209.397 113.916 211.347 114.631C212.718 115.133 213.906 116.335 214.591 117.932C215.307 119.59 215.384 121.446 214.805 122.785C213.952 124.747 212.17 126.193 209.946 126.755C207.63 127.334 205.102 126.892 203.061 125.554C199.649 136.416 188.727 143.535 181.949 144.54C180.228 144.737 178.537 144.874 176.861 144.874ZM161.979 82.1964C161.751 83.0635 161.507 83.9307 161.279 84.7978C159.588 91.1721 157.851 97.7593 153.769 103.084C152.063 105.32 143.244 123.956 156.176 135.731C163.137 142.075 172.231 144.783 181.781 143.368C188.255 142.41 199.237 135.123 202.192 124.428C202.238 124.245 202.39 124.093 202.558 124.032C202.741 123.971 202.939 124.002 203.091 124.124C204.965 125.599 207.432 126.162 209.671 125.599C211.56 125.128 213.053 123.911 213.769 122.283C214.226 121.233 214.15 119.727 213.556 118.343C212.992 117.034 212.048 116.045 210.966 115.665C208.849 114.889 208.727 114.844 206.747 115.361C206.564 115.407 206.366 115.361 206.214 115.224C206.077 115.087 206.001 114.904 206.031 114.707C207.052 108.865 208.544 103.814 210.707 98.8395C207.646 90.4266 199.649 84.1893 193.449 80.4164C191.332 79.1233 188.499 77.5412 185.407 76.674C179.71 75.0766 170.845 74.9702 165.635 77.9063C163.685 79.0168 162.452 80.4621 161.979 82.1964Z" fill="black"/>
<path d="M89.2304 134.058C89.3523 133.373 88.9562 132.689 88.4079 132.263C87.8595 131.837 87.174 131.639 86.5038 131.471C78.6288 129.387 70.3424 129.007 62.2389 129.813C61.4468 129.889 60.4415 130.209 60.4263 131C60.4263 131.365 60.6548 131.684 60.8832 131.958C62.3912 133.662 64.6304 134.514 66.8238 135.168C73.0842 137.009 79.8473 137.709 86.1383 135.959C87.235 135.625 88.9867 135.396 89.2304 134.058Z" fill="#79E777"/>
<path d="M187.219 122.1C186.351 122.1 185.498 121.979 184.645 121.75C179.085 120.214 175.932 113.976 177.623 107.861C179.314 101.73 185.224 98.0027 190.783 99.5392C193.495 100.285 195.703 102.156 197.029 104.788C198.339 107.404 198.613 110.477 197.79 113.429C196.968 116.38 195.155 118.875 192.687 120.457C190.997 121.537 189.108 122.1 187.219 122.1ZM188.24 100.33C184.02 100.33 180.029 103.464 178.72 108.165C177.196 113.687 179.984 119.286 184.934 120.655C187.326 121.309 189.854 120.898 192.078 119.499C194.317 118.084 195.947 115.817 196.694 113.14C197.44 110.462 197.196 107.678 196.008 105.32C194.835 102.977 192.87 101.319 190.479 100.665C189.748 100.422 188.986 100.33 188.24 100.33Z" fill="black"/>
<path d="M159.74 111.999C158.872 111.999 158.019 111.877 157.166 111.649C151.606 110.112 148.453 103.875 150.144 97.7592C151.835 91.6283 157.745 87.9011 163.305 89.4377C166.016 90.1831 168.225 92.0543 169.55 94.6862C170.86 97.3028 171.134 100.376 170.311 103.327C169.489 106.279 167.676 108.773 165.209 110.356C163.518 111.451 161.629 111.999 159.74 111.999ZM160.761 90.2439C156.542 90.2439 152.551 93.3778 151.241 98.0787C149.718 103.601 152.505 109.199 157.455 110.569C159.847 111.223 162.375 110.812 164.599 109.412C166.839 107.998 168.468 105.731 169.215 103.053C169.961 100.376 169.717 97.5919 168.529 95.2186C167.356 92.8758 165.391 91.2176 163 90.5634C162.269 90.3352 161.507 90.2439 160.761 90.2439Z" fill="black"/>
<path d="M64.813 115.985C66.0011 114.692 67.1893 113.368 68.3469 112.044C70.388 109.747 72.3834 107.404 74.3484 105.046C74.5616 105.092 74.7901 105.077 74.9272 105.214C76.161 104.179 78.126 103.723 79.8777 104.042C80.8221 105.016 81.9493 105.883 83.0917 106.75C83.5334 107.07 83.9447 107.404 84.4321 107.693C84.7368 107.876 85.0414 108.059 85.3308 108.241L85.3461 108.256C85.4374 108.332 85.5288 108.393 85.6202 108.424C85.6964 108.469 85.7726 108.515 85.8335 108.561C86.8083 109.215 87.7375 109.899 88.6971 110.554C88.9409 110.721 89.2455 110.782 89.4892 110.706C89.4892 110.706 89.4892 111.056 89.4892 111.071C89.7482 111.908 90.2356 115.574 87.9203 120.67C85.6812 125.584 84.8129 131.319 84.6911 136.294C80.0148 137.755 76.4657 136.142 71.5457 135.275C69.6873 134.94 67.8138 134.605 66.3058 133.89C64.874 128.611 63.7772 123.287 63.0156 117.932C63.6249 117.278 64.219 116.624 64.813 115.985Z" fill="#79E777"/>
<path d="M235.003 64.5794C236.054 54.3714 228.635 45.2284 218.399 44.1787C208.179 43.129 199.024 50.5377 197.973 60.7609C196.922 70.9689 204.34 80.112 214.576 81.1617C224.812 82.2266 233.951 74.8026 235.003 64.5794Z" fill="#CBE7FF"/>
<path d="M216.511 81.8312C215.856 81.8312 215.185 81.8007 214.515 81.7247C203.99 80.6445 196.313 71.1972 197.409 60.7002C198.491 50.188 207.95 42.5206 218.46 43.6159C228.986 44.696 236.663 54.1434 235.566 64.6404C234.561 74.4832 226.214 81.8312 216.511 81.8312ZM216.48 44.6504C207.356 44.6504 199.512 51.5571 198.552 60.8219C197.531 70.7104 204.751 79.5796 214.637 80.5989C224.538 81.6182 233.418 74.4072 234.439 64.5339C235.46 54.6454 228.239 45.7762 218.354 44.7569C217.729 44.6808 217.105 44.6504 216.48 44.6504Z" fill="black"/>
<path d="M205.711 115.239C204.188 106.659 203.563 100.665 205.589 91.8564C185.498 94.5948 170.905 86.5471 155.734 79.473C156.511 76.7194 158.187 74.2549 160.319 72.2316C165.544 67.2721 171.088 63.408 182.132 63.1798C189.87 63.0124 199.466 64.7772 206.092 68.763C212.687 72.7184 217.12 79.047 220.121 85.6495C222.512 90.9132 223.319 98.2307 222.01 104.575C220.898 110.006 218.11 113.2 213.708 117.369C212.733 116.152 211.834 114.965 210.25 114.63C208.651 114.296 207.387 114.646 205.711 115.239Z" fill="#CBE7FF"/>
<path d="M213.693 117.947C213.678 117.947 213.662 117.947 213.647 117.947C213.495 117.932 213.342 117.856 213.236 117.734L213.114 117.582C212.2 116.456 211.423 115.482 210.098 115.193C208.605 114.874 207.417 115.239 205.879 115.787C205.726 115.848 205.544 115.832 205.406 115.741C205.254 115.65 205.163 115.513 205.132 115.345C203.761 107.602 202.939 101.395 204.828 92.5259C186.671 94.747 172.779 88.1749 159.329 81.8006C158.049 81.1921 156.755 80.5836 155.475 79.9751C155.216 79.8534 155.094 79.5795 155.171 79.3057C155.917 76.6282 157.562 74.042 159.908 71.8057C164.676 67.2874 170.327 62.8452 182.101 62.6017C189.047 62.4496 199.055 63.8644 206.366 68.261C212.276 71.8056 217.074 77.5866 220.623 85.4061C223.122 90.9133 223.868 98.3068 222.558 104.681C221.37 110.508 218.156 113.915 214.089 117.764C213.982 117.886 213.845 117.947 213.693 117.947ZM209.016 113.931C209.443 113.931 209.885 113.976 210.357 114.068C211.911 114.402 212.87 115.437 213.754 116.517C218.156 112.303 220.441 109.336 221.446 104.453C222.695 98.3829 221.964 91.0958 219.588 85.8777C216.13 78.2712 211.499 72.6728 205.787 69.2346C198.674 64.9598 188.91 63.5906 182.132 63.7427C170.753 63.9861 165.3 68.2762 160.7 72.6424C158.628 74.6049 157.166 76.8412 156.404 79.1536C157.547 79.686 158.689 80.2337 159.816 80.7662C173.312 87.1556 187.28 93.7581 205.483 91.2784C205.665 91.248 205.848 91.324 205.985 91.4609C206.107 91.5979 206.168 91.7956 206.122 91.9782C204.097 100.802 204.828 106.948 206.138 114.478C207.128 114.174 208.026 113.931 209.016 113.931Z" fill="black"/>
<path d="M83.3202 111.923C83.4573 109.869 82.8328 107.769 81.599 106.126C80.8221 105.092 79.8168 104.225 79.2227 103.069C78.6287 101.912 78.6287 100.3 79.6797 99.5392C80.3347 99.0524 81.2334 99.0524 82.0255 99.2197C84.1275 99.6609 85.8183 101.152 87.3111 102.688C88.2402 103.647 89.1542 104.651 89.7177 105.853C90.2204 106.933 90.4337 108.119 90.5403 109.291C90.6012 110.021 90.6317 110.782 90.327 111.466C89.9158 112.394 88.9866 112.972 88.0727 113.429C87.1283 113.9 86.0772 114.326 85.0262 114.144C83.9904 113.976 83.2593 112.988 83.3202 111.923Z" fill="#79E777"/>
<path d="M174.835 133.571C172.733 133.571 168.286 130.772 167.28 128.809C167.189 128.642 167.189 128.444 167.28 128.292C167.372 128.125 167.524 128.018 167.707 127.988C171.347 127.47 176.861 127.44 180.852 127.896C181.081 127.927 181.263 128.079 181.324 128.292C181.4 128.505 181.324 128.733 181.172 128.885C180.685 129.326 180.228 129.828 179.725 130.376C178.293 131.943 176.785 133.571 174.835 133.571ZM168.819 128.992C170.205 130.528 173.388 132.415 174.835 132.43C176.282 132.43 177.608 131 178.887 129.6C179.1 129.372 179.314 129.144 179.527 128.916C176.13 128.627 171.957 128.657 168.819 128.992Z" fill="black"/>
<path d="M200.669 245.357C201.918 230.478 203.182 219.859 204.431 204.981C206.244 215.067 211.697 234.905 213.952 245.691C192.535 246.376 178.582 247.06 160.075 249.434C163.64 252.248 166.503 255.945 168.133 259.961C169.763 263.977 170.296 268.344 170.738 272.664C193.586 271.903 216.038 271.523 238.475 272.238C240.989 272.314 243.654 272.375 245.802 271.082C247.417 270.108 248.529 268.45 249.214 266.701C251.088 261.878 249.945 256.477 248.772 251.427C245.315 236.487 238.643 208.13 232.489 194.089C229.839 188.034 226.655 182.101 222.07 177.324C212.505 167.329 198.278 163.617 184.523 160.376C183.929 163.799 180.319 165.838 176.922 166.568C173.891 167.222 170.662 167.237 167.798 166.051C164.934 164.864 162.528 162.384 161.157 158.292C150.616 157.334 143.96 157.364 139.314 158.049C133.175 158.946 127.219 163.404 123.107 167.876C114.546 177.202 110.098 185.052 101.096 195.868C93.3582 176.32 88.8647 155.478 89.2759 133.708C87.3414 138.135 62.6195 137.694 59.9844 130.68C61.7208 156.634 63.503 182.876 71.3933 207.659C73.9371 215.63 77.1815 223.571 82.6347 229.931C88.0878 236.29 96.0543 240.914 104.432 240.686C112.81 240.458 118.171 238.161 123.579 227.816C124.508 229.292 125.437 230.767 125.894 232.502C125.955 243.561 124.919 256.477 124.767 267.339C149.458 271.249 175.368 267.933 200.182 266.351C200.243 259.003 200.136 251.655 200.669 245.357Z" fill="#79E777"/>
<path d="M187.691 108.134C187.935 107.252 187.372 106.324 186.442 106.065C185.513 105.807 184.554 106.324 184.295 107.206C184.051 108.089 184.614 109.017 185.544 109.275C186.488 109.519 187.448 109.017 187.691 108.134Z" fill="black"/>
<path d="M163.381 99.6913C163.624 98.809 163.061 97.881 162.132 97.6224C161.202 97.3637 160.243 97.881 159.984 98.7633C159.725 99.6457 160.304 100.574 161.233 100.832C162.177 101.091 163.137 100.574 163.381 99.6913Z" fill="black"/>
<path d="M127.707 265.97C127.692 265.97 127.692 265.97 127.707 265.97L124.889 265.909C124.721 265.909 124.569 265.833 124.462 265.696C124.356 265.575 124.31 265.407 124.341 265.24C125.163 260.402 125.148 254.758 125.133 248.795C125.117 243.622 125.102 238.282 125.574 232.623C125.605 232.304 125.879 232.076 126.199 232.106C126.519 232.136 126.747 232.41 126.717 232.73C126.245 238.343 126.26 243.653 126.275 248.795C126.29 254.56 126.321 260.007 125.574 264.784L127.722 264.829C128.042 264.829 128.286 265.103 128.286 265.407C128.27 265.712 128.012 265.97 127.707 265.97Z" fill="black"/>
<path d="M33.3433 0.578125V321.437H305.436V0.578125H33.3433ZM284.126 259.322H53.1299V33.8187H284.126V259.322Z" fill="#79E777"/>
<path d="M305.436 322H33.3432C33.0234 322 32.7644 321.741 32.7644 321.422V0.578097C32.7644 0.258622 33.0234 0 33.3432 0H305.436C305.756 0 306.015 0.258622 306.015 0.578097V321.437C306 321.741 305.756 322 305.436 322ZM33.9068 320.859H304.857V1.14098H33.9068V320.859ZM284.126 259.9H53.1299C52.81 259.9 52.5511 259.642 52.5511 259.322V33.8187C52.5511 33.4992 52.81 33.2406 53.1299 33.2406H284.126C284.446 33.2406 284.705 33.4992 284.705 33.8187V259.322C284.705 259.642 284.446 259.9 284.126 259.9ZM53.7087 258.759H283.563V34.3816H53.7087V258.759Z" fill="black"/>
<path d="M166.732 117.232C166.595 117.232 166.442 117.186 166.336 117.08L164.508 115.33C164.295 115.117 163.883 114.737 163.899 114.174C163.914 113.49 164.523 113.14 164.858 112.942C167.448 111.421 169.215 108.773 169.58 105.853C169.626 105.533 169.9 105.32 170.22 105.351C170.54 105.396 170.753 105.67 170.723 105.989C170.311 109.245 168.346 112.212 165.452 113.916C165.361 113.961 165.102 114.128 165.056 114.22C165.071 114.235 165.117 114.311 165.315 114.494L167.158 116.243C167.387 116.456 167.402 116.821 167.174 117.049C167.036 117.186 166.884 117.232 166.732 117.232Z" fill="black"/>
<path d="M172.749 268.115C168.164 268.131 163.579 268.693 159.131 269.819C157.577 270.215 156.039 270.671 154.653 271.477C151.713 273.181 149.794 276.315 148.804 279.571C148.56 280.347 148.377 281.153 147.935 281.838C147.509 282.522 146.778 283.1 145.97 283.1C145.163 283.1 144.356 282.34 144.66 281.701C144.203 282.324 143.975 283.07 143.625 283.754C143.259 284.439 142.711 285.078 141.964 285.23C140.624 285.489 139.573 284.074 139.192 282.766C138.552 280.575 138.75 278.217 139.146 275.965C139.695 272.831 140.593 269.758 142.086 266.761C139.39 267.765 137.669 270.458 136.831 273.197C135.993 275.935 135.841 278.856 135.171 281.64C134.927 282.69 134.272 283.967 133.191 283.861C132.353 283.77 131.865 282.872 131.622 282.066C130.433 278.186 131.195 274.018 131.957 270.032C129.641 272.208 128.133 275.068 126.504 277.776C126.184 278.323 125.833 278.871 125.315 279.236C124.798 279.601 124.066 279.753 123.533 279.419C122.894 279.023 122.741 278.156 122.741 277.395C122.741 272.573 125.666 268.268 128.895 264.692C131.713 261.589 134.881 258.759 138.522 256.69C142.162 254.621 146.321 253.343 150.418 253.389C155.094 252.765 159.771 252.126 164.447 251.503C165.27 251.396 166.153 251.29 166.899 251.67C167.372 251.913 167.722 252.324 168.057 252.735C171.515 257.101 173.282 262.806 172.749 268.115Z" fill="#79E777"/>
<path d="M179.527 104.712C179.314 104.712 179.116 104.59 179.009 104.392C178.034 102.415 175.947 100.908 173.693 100.574C172.551 100.406 171.195 100.68 170.845 101.547C170.723 101.836 170.388 101.989 170.098 101.867C169.809 101.745 169.656 101.41 169.778 101.121C170.372 99.6305 172.246 99.2046 173.845 99.448C176.465 99.8435 178.887 101.578 180.014 103.89C180.151 104.179 180.03 104.514 179.755 104.651C179.695 104.696 179.603 104.712 179.527 104.712Z" fill="black"/>
<path d="M205.193 115.011C205.117 115.011 205.041 114.996 204.965 114.965L197.531 111.618C197.242 111.481 197.12 111.147 197.242 110.858C197.379 110.569 197.714 110.447 198.004 110.569L205.437 113.916C205.726 114.052 205.848 114.387 205.726 114.676C205.62 114.889 205.407 115.011 205.193 115.011Z" fill="black"/>
<path d="M146.092 283.8C146.031 283.8 145.955 283.8 145.894 283.785C145.3 283.724 144.767 283.45 144.386 282.963C143.624 282.005 143.503 280.468 143.64 279.327C144.097 275.722 145.315 272.147 147.158 269.013C147.311 268.739 147.661 268.648 147.935 268.815C148.209 268.967 148.301 269.317 148.148 269.591C146.397 272.603 145.224 276.026 144.782 279.48C144.66 280.408 144.767 281.625 145.285 282.248C145.483 282.492 145.711 282.613 146.001 282.644C147.097 282.75 147.783 281.046 148.027 280.316L148.148 279.966C148.941 277.578 149.778 275.113 151.5 273.197C153.175 271.341 155.673 269.956 158.902 269.089C162.391 268.146 166.473 268.009 169.169 267.918C170.037 267.887 170.783 267.857 171.301 267.811C171.606 267.781 171.895 268.009 171.926 268.328C171.956 268.648 171.728 268.922 171.408 268.952C170.86 268.998 170.098 269.028 169.215 269.059C166.564 269.15 162.573 269.287 159.207 270.2C156.191 271.006 153.891 272.284 152.353 273.972C150.784 275.707 149.992 278.065 149.23 280.331L149.108 280.681C148.423 282.705 147.356 283.8 146.092 283.8Z" fill="black"/>
<path d="M141.142 285.778C140.776 285.778 140.411 285.686 140.06 285.473C139.299 284.987 139.055 284.089 138.918 283.283C138.05 278.293 138.628 273.12 140.593 268.222C139.177 269.424 137.989 271.112 137.166 273.12C136.115 275.676 135.719 278.475 135.445 281.122C135.384 281.746 135.308 282.446 134.973 283.07C134.607 283.739 133.83 284.348 132.916 284.195C132.079 284.059 131.469 283.344 131.119 282.081C129.276 275.57 130.769 268.739 135.095 263.795C135.308 263.551 135.658 263.536 135.902 263.734C136.146 263.947 136.161 264.297 135.963 264.54C131.881 269.195 130.494 275.646 132.231 281.777C132.383 282.324 132.673 283.009 133.13 283.085C133.449 283.146 133.815 282.842 133.983 282.537C134.211 282.127 134.272 281.594 134.318 281.046C134.607 278.308 135.018 275.418 136.115 272.71C137.334 269.743 139.299 267.415 141.66 266.138C141.873 266.016 142.147 266.062 142.33 266.229C142.513 266.396 142.558 266.67 142.452 266.883C139.954 272.116 139.131 277.73 140.06 283.115C140.152 283.678 140.304 284.287 140.7 284.53C141.081 284.774 141.675 284.621 142.056 284.332C142.543 283.952 143.259 282.659 143.625 280.21C143.67 279.905 143.96 279.677 144.28 279.723C144.584 279.768 144.813 280.058 144.767 280.377C144.249 283.785 143.198 284.911 142.772 285.245C142.299 285.549 141.721 285.778 141.142 285.778Z" fill="black"/>
<path d="M124.127 280.362C123.655 280.362 123.183 280.149 122.711 279.723C121.903 278.993 121.873 277 121.995 276.3C123.229 269.241 128.012 263.992 134.79 258.272C137.075 256.356 139.222 255.032 141.37 254.241C143.701 253.389 146.153 253.085 148.545 252.796C151.195 252.476 153.906 252.218 156.526 251.989C159.131 251.746 161.842 251.503 164.477 251.183C164.797 251.137 165.072 251.366 165.117 251.685C165.148 252.005 164.934 252.278 164.615 252.324C161.964 252.644 159.253 252.902 156.633 253.13C154.028 253.374 151.317 253.617 148.682 253.937C146.366 254.226 143.975 254.515 141.766 255.321C139.74 256.066 137.699 257.329 135.521 259.155C128.925 264.707 124.28 269.789 123.107 276.498C122.985 277.197 123.152 278.597 123.457 278.886C123.64 279.053 123.914 279.251 124.158 279.221C124.447 279.19 124.706 278.795 124.813 278.627C124.843 278.582 124.858 278.551 124.874 278.536C125.529 277.608 126.108 276.802 126.625 276.087C128.849 272.938 129.977 271.356 131.652 269.469C131.865 269.241 132.216 269.211 132.459 269.424C132.688 269.637 132.718 269.986 132.505 270.23C130.86 272.071 129.824 273.531 127.555 276.741C127.037 277.471 126.473 278.278 125.803 279.206L125.757 279.266C125.574 279.54 125.102 280.27 124.295 280.362C124.264 280.362 124.188 280.362 124.127 280.362Z" fill="black"/>
<path d="M129.916 237.233C129.748 237.233 129.581 237.157 129.459 237.005C125.239 231.482 121.035 225.823 116.953 220.179C116.466 219.494 115.795 218.566 115.734 217.486C115.689 216.634 116.024 215.828 116.283 215.189L127.844 187.227C127.966 186.938 128.301 186.801 128.59 186.923C128.88 187.045 129.017 187.38 128.895 187.669L117.334 215.63C117.105 216.193 116.831 216.832 116.877 217.425C116.923 218.186 117.456 218.916 117.882 219.525C121.949 225.154 126.153 230.813 130.373 236.32C130.571 236.563 130.51 236.928 130.266 237.126C130.144 237.202 130.022 237.233 129.916 237.233Z" fill="black"/>
<path d="M170.159 248.034C176.145 247.471 182.132 247.03 188.133 246.497C191.043 246.239 193.937 245.889 196.846 245.691C198.125 245.6 199.405 245.509 200.669 245.417C200.654 245.661 200.639 245.919 200.624 246.163C204.782 245.995 209.184 245.843 213.967 245.691C213.51 243.546 212.931 241.021 212.291 238.313C213.815 238.313 215.338 238.298 216.861 238.282C226.488 238.237 236.13 238.298 245.757 238.571C246.914 243.379 247.95 247.79 248.788 251.411C249.946 256.447 251.103 261.863 249.23 266.685C248.544 268.45 247.432 270.093 245.818 271.066C243.67 272.36 241.004 272.314 238.491 272.223C216.176 271.508 193.815 271.888 171.073 272.649C171.378 269.926 171.241 267.233 170.449 264.571C169.733 262.167 168.819 259.794 167.707 257.557C166.641 255.427 165.148 253.48 163.533 251.731C162.634 250.757 161.675 249.814 160.7 248.931C163.838 248.612 166.991 248.338 170.159 248.034Z" fill="#79E777"/>
<path d="M170.723 273.212C170.525 273.212 170.342 273.105 170.235 272.953C170.129 272.786 170.113 272.573 170.205 272.39C171.515 269.804 170.464 264.175 168.742 259.946L168.621 259.626C167.036 255.701 165.239 251.259 159.923 249.966C159.649 249.905 159.466 249.662 159.481 249.373C159.496 249.099 159.71 248.871 159.984 248.84C173.982 247.045 185.087 246.209 200.136 245.585C200.09 245.493 200.075 245.387 200.075 245.281C200.7 237.841 201.339 231.361 201.964 225.078C202.573 218.81 203.213 212.329 203.837 204.89C203.868 204.601 204.096 204.388 204.386 204.373C204.675 204.357 204.919 204.555 204.98 204.844C206 210.503 208.163 219.281 210.281 227.755C211.941 234.464 213.525 240.808 214.5 245.524C214.53 245.691 214.5 245.859 214.393 245.996C214.287 246.132 214.134 246.209 213.967 246.209C192.215 246.908 179.222 247.593 162.512 249.647C166.656 251.655 168.316 255.762 169.687 259.17L169.809 259.49C171.408 263.43 172.535 268.815 171.56 272.01C198.567 271.112 219.222 270.991 238.46 271.614C240.791 271.69 243.426 271.766 245.467 270.534C247.188 269.5 248.148 267.735 248.651 266.427C250.524 261.604 249.229 255.991 248.194 251.487C245.498 239.834 238.354 208.891 231.941 194.241C228.696 186.817 225.513 181.69 221.644 177.643C212.596 168.181 199.679 164.469 184.949 161C184.005 164.393 180.304 166.355 177.029 167.07C173.541 167.831 170.266 167.648 167.554 166.522C164.432 165.229 162.071 162.552 160.715 158.764C151.058 157.912 144.264 157.836 139.375 158.551C132.078 159.616 125.848 165.655 123.503 168.211C118.735 173.414 115.232 178.176 111.515 183.211C108.545 187.243 105.483 191.396 101.507 196.173C101.386 196.325 101.172 196.401 100.974 196.37C100.776 196.34 100.609 196.203 100.533 196.021C92.5052 175.726 88.4991 155.295 88.6514 135.26C86.1076 137.1 80.3651 137.252 78.4001 137.237C72.6119 137.222 64.0362 135.959 60.6698 132.719C62.3301 157.608 64.2189 183.272 71.9112 207.43C74.0589 214.155 77.2577 222.75 83.046 229.489C88.8951 236.305 96.8616 240.26 104.402 240.047C112.429 239.819 117.699 237.735 122.558 227.344C122.695 227.055 123.031 226.934 123.32 227.07C123.609 227.207 123.731 227.542 123.594 227.831C118.507 238.708 112.718 240.96 104.432 241.188C96.5722 241.416 88.2554 237.309 82.1777 230.235C76.2524 223.328 72.9927 214.596 70.8145 207.765C62.848 182.77 61.0811 156.269 59.3751 130.65C59.3599 130.361 59.5579 130.102 59.8321 130.057C60.1215 129.996 60.3956 130.163 60.487 130.437C61.599 133.936 70.4641 136.051 78.3849 136.081C84.0208 136.111 88.164 135.047 88.6819 133.464C88.7733 133.191 89.0322 133.038 89.3216 133.084C89.5958 133.13 89.8091 133.373 89.7938 133.662C89.4283 153.774 93.2668 174.312 101.233 194.712C104.889 190.27 107.783 186.345 110.586 182.542C114.318 177.476 117.836 172.684 122.65 167.435C125.072 164.788 131.545 158.536 139.192 157.425C144.234 156.695 151.225 156.771 161.172 157.668C161.4 157.684 161.583 157.836 161.659 158.049C162.893 161.7 165.071 164.271 167.981 165.473C171.134 166.766 174.5 166.446 176.77 165.96C179.862 165.29 183.381 163.419 183.944 160.224C183.975 160.072 184.066 159.935 184.188 159.844C184.325 159.753 184.477 159.722 184.63 159.768C199.77 163.328 213.068 167.07 222.451 176.867C226.427 181.02 229.671 186.239 232.977 193.799C239.42 208.541 246.594 239.56 249.29 251.244C250.372 255.899 251.697 261.695 249.702 266.853C249.138 268.313 248.041 270.321 246.046 271.523C243.7 272.938 240.776 272.847 238.415 272.771C218.993 272.147 198.125 272.284 170.723 273.197C170.738 273.212 170.738 273.212 170.723 273.212ZM204.645 209.028C204.127 214.839 203.609 220.088 203.106 225.214C202.497 231.482 201.857 237.963 201.233 245.402C201.233 245.463 201.217 245.509 201.202 245.554C204.934 245.402 208.925 245.265 213.251 245.128C212.261 240.504 210.768 234.449 209.169 228.059C207.508 221.335 205.802 214.444 204.645 209.028Z" fill="black"/>
<path d="M158.72 252.72C158.445 252.72 158.202 252.522 158.156 252.233C158.019 251.32 158.263 250.362 158.796 249.616C159.253 248.977 159.908 248.688 160.502 248.84C160.806 248.916 160.989 249.236 160.898 249.54C160.822 249.844 160.502 250.027 160.197 249.936C160.106 249.905 159.892 250.027 159.71 250.27C159.344 250.772 159.177 251.427 159.268 252.05C159.314 252.355 159.1 252.659 158.78 252.704C158.765 252.72 158.735 252.72 158.72 252.72Z" fill="black"/>
<path d="M169.352 273.729C169.245 273.729 169.154 273.729 169.062 273.714C167.752 273.577 166.716 272.694 165.879 271.858C165.071 271.051 164.31 270.184 163.609 269.271C163.411 269.028 163.457 268.663 163.716 268.465C163.959 268.267 164.325 268.313 164.523 268.572C165.193 269.439 165.924 270.276 166.701 271.036C167.402 271.736 168.24 272.451 169.199 272.557C169.672 272.603 170.25 272.451 170.418 272.04C170.54 271.751 170.875 271.599 171.164 271.721C171.454 271.842 171.591 272.177 171.484 272.466C171.103 273.364 170.174 273.729 169.352 273.729Z" fill="black"/>
<path d="M89.3368 134.103C89.3216 134.103 89.2911 134.103 89.2759 134.103C88.956 134.073 88.7275 133.784 88.758 133.48C88.7732 133.343 88.7123 133.16 88.5752 132.993C88.4229 132.795 88.1944 132.643 87.9659 132.506C87.1129 131.958 85.6963 131.593 83.7618 131.411C83.442 131.38 83.2135 131.106 83.2439 130.787C83.2744 130.467 83.5486 130.239 83.8685 130.27C86.0162 130.483 87.5547 130.893 88.5752 131.547C88.8646 131.73 89.1997 131.958 89.4587 132.293C89.7786 132.688 89.9309 133.16 89.8852 133.601C89.8699 133.89 89.6262 134.103 89.3368 134.103Z" fill="black"/>
<path d="M60.0302 131.426C59.7255 131.426 59.4666 131.182 59.4666 130.863C59.4514 130.422 59.6646 129.98 60.0454 129.661C60.35 129.402 60.7156 129.265 61.005 129.174C61.7666 128.931 62.5435 128.824 63.3356 128.855C63.6554 128.87 63.8992 129.129 63.8839 129.448C63.8687 129.767 63.6097 130.011 63.2899 129.996C62.6349 129.98 61.9799 130.057 61.3401 130.269C61.1421 130.33 60.9136 130.422 60.7613 130.543C60.6547 130.635 60.5785 130.756 60.5938 130.848C60.609 131.152 60.3653 131.426 60.0302 131.426C60.0454 131.426 60.0302 131.426 60.0302 131.426Z" fill="black"/>
<path d="M175.673 172.942C175.323 172.942 174.957 172.927 174.607 172.897C174.287 172.866 174.058 172.592 174.089 172.273C174.119 171.954 174.394 171.725 174.713 171.756C179.481 172.167 184.401 169.519 186.671 165.305C186.823 165.032 187.173 164.925 187.448 165.077C187.722 165.229 187.828 165.579 187.676 165.853C185.346 170.143 180.532 172.942 175.673 172.942Z" fill="black"/>
<path d="M187.219 173.627C186.991 173.627 186.777 173.49 186.686 173.262C186.579 172.973 186.716 172.638 187.006 172.532C188.864 171.817 190.296 170.097 190.662 168.15C190.722 167.846 191.027 167.633 191.332 167.694C191.636 167.755 191.85 168.044 191.789 168.363C191.347 170.691 189.641 172.744 187.417 173.596C187.371 173.627 187.295 173.627 187.219 173.627Z" fill="black"/>
<path d="M220.182 78.2408C219.938 78.2408 219.709 78.0887 219.633 77.8453C218.978 75.7002 217.653 73.6464 215.703 71.7144C213.906 69.9345 211.789 68.4588 209.748 67.1352C209.489 66.9679 209.412 66.6028 209.58 66.3442C209.748 66.0855 210.113 66.0095 210.372 66.1768C212.459 67.5308 214.637 69.0521 216.511 70.9081C218.582 72.9771 219.999 75.1982 220.73 77.5106C220.821 77.8148 220.654 78.1343 220.349 78.2256C220.288 78.2256 220.227 78.2408 220.182 78.2408Z" fill="black"/>
<path d="M104.31 201.664C104.143 201.664 103.975 201.588 103.853 201.436C102.254 199.383 100.974 197.405 99.9079 194.423C99.8013 194.134 99.9536 193.799 100.258 193.693C100.563 193.586 100.883 193.738 100.989 194.043C102.01 196.888 103.229 198.774 104.767 200.752C104.965 200.995 104.919 201.36 104.66 201.558C104.554 201.619 104.432 201.664 104.31 201.664Z" fill="black"/>
<path d="M222.116 246.893C222.086 246.893 222.055 246.893 222.025 246.893C218.552 246.36 215.521 246.193 211.56 246.33C211.24 246.345 210.981 246.102 210.966 245.782C210.951 245.463 211.195 245.204 211.515 245.189C215.551 245.052 218.643 245.22 222.192 245.752C222.497 245.798 222.726 246.087 222.665 246.406C222.634 246.68 222.39 246.893 222.116 246.893Z" fill="black"/>
<path d="M204.31 121.126C204.233 121.126 204.157 121.111 204.081 121.081C203.792 120.959 203.655 120.624 203.776 120.335C204.614 118.403 205.056 116.274 205.041 114.159C205.041 113.839 205.3 113.581 205.604 113.581C205.924 113.581 206.168 113.839 206.183 114.144C206.183 116.41 205.711 118.692 204.812 120.777C204.751 121.005 204.538 121.126 204.31 121.126Z" fill="black"/>
<g opacity="0.1294">
<path d="M200.959 61.111C201.553 61.0045 202.116 61.2479 202.68 61.4153C203.563 61.7196 204.447 62.0695 205.285 62.4954C210.357 64.747 214.592 68.535 217.943 72.9012C218.811 74.0726 219.557 75.3353 220.334 76.5523C220.745 77.313 221.385 78.0888 221.385 78.9864C221.522 81.2379 218.323 81.9682 217.394 79.9144C215.962 76.8261 212.383 72.2926 209.58 70.102C206.914 67.9113 206.199 67.5462 203.502 66.2378C202.741 65.8423 201.964 65.4924 201.157 65.1729C200.456 64.9599 199.74 64.61 199.451 63.895C198.902 62.754 199.694 61.2936 200.959 61.111Z" fill="black"/>
</g>
<g opacity="0.1294">
<path d="M162.36 83.5806C162.848 83.185 163.548 83.1394 164.097 83.4284C164.295 83.5045 165.285 83.9913 165.498 84.1283C167.036 84.8889 168.544 85.7256 170.129 86.3798C173.19 87.5664 176.191 88.966 179.374 89.8179C183.152 91.0502 186.655 91.7196 191.286 92.3281C195.414 92.7693 198.735 92.4194 203.304 91.5674C204.066 91.4762 204.949 91.0654 205.635 91.5522C206.503 92.1455 206.153 93.606 205.117 93.7581C200.121 94.6709 195.033 95.5837 189.961 94.9143C186.991 94.5948 184.051 94.0472 181.157 93.3626C178.872 92.7389 176.633 91.9173 174.394 91.1415C171.012 89.8788 167.615 88.7074 164.371 87.11C163.838 86.8666 163.335 86.5776 162.817 86.3037C162.528 86.1212 162.208 85.9386 162.055 85.6191C161.568 84.965 161.781 84.0522 162.36 83.5806Z" fill="black"/>
</g>
<g opacity="0.1294">
<path d="M163.655 151.948C163.823 151.34 164.005 150.731 164.173 150.123C164.584 148.982 164.919 147.826 165.148 146.639C165.452 145.544 165.742 144.433 166.046 143.338C166.077 143.201 166.062 143.094 166.016 143.003C166.046 142.927 166.077 142.836 166.107 142.76C166.199 142.501 166.107 142.318 165.94 142.197C166.717 141.649 167.707 142.394 168.529 142.775C169.108 143.033 169.778 143.338 171.073 143.642C172.109 143.916 175.414 144.068 176.389 144.281C176.724 144.372 176.953 144.585 177.09 144.829C177.669 144.585 178.232 144.326 178.811 144.083C179.177 143.916 179.557 143.764 179.923 143.581C180.806 143.581 181.69 143.551 182.573 143.475C182.573 143.581 182.573 143.688 182.573 143.794C182.573 143.931 182.573 144.068 182.589 144.19C182.604 144.281 182.634 144.387 182.665 144.479C182.771 144.844 182.909 145.194 183.015 145.544C182.939 145.604 182.863 145.665 182.771 145.726C179.466 147.4 176.084 148.906 172.84 150.686C171.225 151.583 169.596 152.45 167.966 153.317C167.25 153.637 166.549 154.078 165.772 154.245C165.788 154.245 165.788 154.245 165.803 154.245C165.788 154.245 165.772 154.245 165.757 154.261C165.727 154.261 165.696 154.276 165.666 154.276C165.605 154.291 165.544 154.291 165.483 154.306C165.391 154.321 165.315 154.337 165.224 154.337C165.209 154.337 165.193 154.337 165.193 154.337H165.209C165.056 154.337 164.904 154.321 164.752 154.291C164.173 154.154 163.807 153.713 163.655 153.211C163.564 153.104 163.487 152.968 163.427 152.846C163.503 152.526 163.579 152.237 163.655 151.948Z" fill="black"/>
</g>
<g opacity="0.1294">
<path d="M92.2614 235.757C92.9621 235.681 92.7793 235.833 93.2363 235.955C95.643 236.776 96.9225 236.761 99.512 236.761C102.497 236.883 106.229 235.696 108.301 234.829C108.438 234.753 109.489 234.236 109.672 234.068C109.946 233.916 110.982 233.156 111.256 232.958C112.033 232.334 112.794 231.68 113.419 230.889C113.434 230.874 113.434 230.874 113.434 230.859C114.805 228.835 115.841 226.599 116.846 224.378C116.861 224.317 116.892 224.256 116.922 224.195C117.166 223.693 117.212 223.069 117.577 222.643C117.745 222.4 117.958 222.233 118.187 222.126C118.369 222.324 118.552 222.522 118.735 222.72C118.75 222.826 118.811 222.948 118.918 223.039C119.131 223.237 119.36 223.45 119.573 223.663C120.73 225.032 121.812 226.462 122.833 227.953C122.817 228.12 122.756 228.288 122.665 228.455C122.101 229.383 121.462 230.265 120.791 231.117C119.238 234.51 117.044 237.72 113.328 238.785C110.845 239.5 108.255 239.819 105.696 240.123C104.143 240.26 102.604 239.986 101.05 239.91C99.8928 239.88 98.7351 239.819 97.5775 239.865C96.8768 239.819 96.1304 239.956 95.4754 239.697C94.8966 239.5 94.592 238.906 94.6072 238.328C94.0436 238.191 93.48 238.024 92.9469 237.811C92.5661 237.613 92.0482 237.552 91.7892 237.187C91.378 236.731 91.6674 235.894 92.2614 235.757Z" fill="black"/>
</g>
<g opacity="0.1294">
<path d="M60.0453 130.604C60.1519 130.178 60.5023 129.874 60.9135 129.737C60.9897 129.707 61.0811 129.707 61.1573 129.692C61.3705 128.977 62.3454 128.733 62.8633 129.266C63.3202 129.844 63.8077 130.407 64.3408 130.924C64.4779 131.061 64.615 131.198 64.7673 131.319C65.5441 131.608 66.5038 131.928 67.6766 132.247C68.9866 132.704 70.3118 133.206 71.6827 133.419C73.2516 133.647 73.3887 133.647 75.3232 133.845C76.9835 134.073 80.1214 134.925 82.5433 134.986C85.4831 135.746 81.6446 130.133 84.1122 130.665C84.7672 130.802 86.4732 130.924 87.4633 131.532C87.8289 131.761 88.2097 131.989 88.4382 132.354C88.4686 132.399 88.4838 132.46 88.4991 132.506C88.5448 132.506 88.6057 132.506 88.6514 132.506C89.7329 132.597 90.0528 134.164 89.0931 134.681C86.5341 136.02 83.6552 136.796 80.7611 136.857C79.771 136.857 78.7809 136.705 77.7908 136.72C76.8464 136.705 75.8868 136.766 74.9424 136.659C72.9775 136.446 71.0277 136.066 69.0932 135.685C69.0628 135.685 69.0323 135.67 69.0018 135.67C69.0628 135.685 69.1542 135.685 69.2303 135.701C69.1542 135.685 69.0628 135.685 68.9866 135.67C68.8648 135.655 68.8952 135.655 68.9714 135.67C68.0727 135.549 67.1587 135.427 66.2905 135.123C63.7772 134.24 61.1573 133.236 60.487 132.05C60.3652 131.882 60.2586 131.715 60.1672 131.532V131.548C59.9996 131.274 59.9539 130.909 60.0453 130.604Z" fill="black"/>
</g>
<g opacity="0.1294">
<path d="M69.6112 110.675C69.3218 110.447 69.3979 110.508 69.6112 110.675V110.675Z" fill="black"/>
</g>
<g opacity="0.1294">
<path d="M79.1619 114.996C79.238 114.98 79.3447 114.965 79.3751 114.965C79.299 114.98 79.2228 114.996 79.1619 114.996Z" fill="black"/>
</g>
<g opacity="0.1294">
<path d="M79.0095 115.026C79.0552 115.026 79.1009 115.011 79.1466 115.011C79.0552 115.011 78.979 115.026 79.0095 115.026Z" fill="black"/>
</g>
<path d="M96.1915 96.6489C89.2304 104.286 82.8328 112.455 77.0903 121.051C74.0438 125.599 70.8603 130.559 65.7575 132.552C64.6456 132.978 63.4422 133.267 62.2846 133.054C60.5481 132.749 59.1163 131.396 58.3851 129.783C57.654 128.17 57.5473 126.345 57.6844 124.595C57.7911 123.241 58.05 121.872 58.7202 120.67C59.3295 119.56 60.1825 118.586 61.1726 117.795C64.082 115.498 62.9852 114.387 63.5641 111.968C65.2548 104.94 75.5975 104.94 79.7255 98.9156C78.6897 98.2006 77.6539 97.4856 76.8009 96.5576C75.9631 95.6296 75.3233 94.4582 75.2776 93.2107C75.2015 91.3091 76.4353 89.6356 77.5016 88.0078C63.9906 83.2005 49.9008 80.0666 35.7043 78.3475C38.8117 72.2927 41.3403 65.9489 43.8384 59.6202C47.2351 51.0248 50.6472 42.4447 54.3181 34.3057C63.2899 43.3118 74.1809 50.1273 84.9653 56.8514C92.3834 61.4762 99.8167 66.101 107.738 69.7978C111.957 71.7603 116.694 73.8292 118.598 78.0737C119.801 80.7512 119.588 83.9003 118.659 86.6843C117.715 89.4683 116.085 91.9632 114.455 94.4125C113.114 96.4207 111.485 98.5809 108.971 99.1894C104.508 99.3111 100.015 98.3527 96.1915 96.6489Z" fill="#79E777"/>
<path d="M37.9435 41.3187C35.7653 48.4689 32.9321 55.4213 29.4896 62.0694C27.3571 61.7043 25.6664 59.9396 24.8286 57.9466C23.9908 55.9537 23.869 53.7326 23.8385 51.5724C23.8233 50.6748 23.8233 49.7772 24.067 48.9253C24.2955 48.1646 24.722 47.48 25.1485 46.8259C26.2147 45.1981 27.4028 43.6007 28.987 42.4749C31.5765 40.6646 35.1256 40.3451 37.9435 41.3187Z" fill="#79E777"/>
<path d="M36.07 79.0473C42.1172 63.8343 48.1644 48.6212 54.2116 33.1495C50.8605 30.0308 48.2101 26.1058 46.5193 21.8005C46.5193 21.8005 22.0716 80.4013 22.0564 80.1579C26.5347 78.6062 31.3633 78.1346 36.07 79.0473Z" fill="#CBE7FF"/>
<path d="M85.6661 91.4915C85.6051 91.4915 85.529 91.4763 85.468 91.4611C85.0111 91.2938 39.6648 74.2855 22.559 80.9641C22.361 81.0401 22.1325 80.9945 21.9802 80.8728C21.8431 80.9184 21.706 80.9184 21.5689 80.8576C21.2795 80.7359 21.1424 80.4012 21.2642 80.1121L46.0623 20.8116C46.1537 20.5986 46.3669 20.4617 46.6106 20.4617C46.8544 20.4617 47.0524 20.6138 47.1285 20.842C52.4141 35.9638 70.2815 46.8564 87.5548 57.399C90.5404 59.2246 93.6325 61.111 96.6028 62.9822C96.816 63.1191 96.9227 63.393 96.8465 63.6364C93.8914 73.0076 90.2966 82.2724 86.184 91.1568C86.0926 91.3698 85.8793 91.4915 85.6661 91.4915ZM33.054 78.2561C52.3989 78.2561 81.0202 88.601 85.3614 90.2136C89.2913 81.6487 92.749 72.7338 95.6127 63.7277C92.7643 61.9325 89.8092 60.1374 86.9456 58.3879C70.0073 48.0582 52.5207 37.3938 46.5497 22.5915L22.6656 79.7014C25.5597 78.6821 29.1241 78.2561 33.054 78.2561Z" fill="black"/>
<path d="M36.3442 78.4082C36.268 78.4082 36.2071 78.393 36.1309 78.3626C35.8415 78.2409 35.6892 77.9062 35.8111 77.6172L53.2976 34.2295C53.4195 33.9404 53.7546 33.8035 54.044 33.91C54.3334 34.0317 54.4858 34.3664 54.3639 34.6554L36.8773 78.0431C36.7859 78.2713 36.5727 78.4082 36.3442 78.4082Z" fill="black"/>
<path d="M28.8195 62.8757C28.7129 62.8757 28.6062 62.8452 28.5148 62.7844C25.8492 61.0501 23.8842 58.1292 23.2597 54.9649C22.6352 51.8005 23.3207 48.332 25.1028 45.6849C25.9711 44.407 27.083 43.2812 28.4387 42.338C30.8149 40.6798 34.4706 39.4932 37.6389 41.121C37.9131 41.2579 38.035 41.6078 37.8827 41.8968C37.7456 42.1707 37.3952 42.2924 37.1058 42.1402C34.3945 40.7406 31.1805 41.8208 29.0784 43.2812C27.8446 44.1332 26.8241 45.1676 26.0472 46.3238C24.4326 48.7123 23.8081 51.8614 24.3717 54.7367C24.9505 57.6119 26.7174 60.259 29.1241 61.826C29.3831 61.9933 29.4592 62.3584 29.2917 62.617C29.1851 62.7844 29.0023 62.8757 28.8195 62.8757Z" fill="black"/>
<path d="M106.61 100.011C103.777 100.011 100.837 98.7937 98.1869 97.5614C95.8716 96.4813 93.7695 95.462 91.7284 94.4732C89.7025 93.4843 87.6005 92.4651 85.3004 91.4001C85.011 91.2632 84.8891 90.9285 85.0262 90.6395C85.1633 90.3504 85.4984 90.2287 85.7878 90.3657C88.1031 91.4458 90.2052 92.4651 92.2463 93.4539C94.2722 94.4428 96.3742 95.462 98.6895 96.5269C102.376 98.246 106.275 99.7825 109.626 98.246C112.094 97.1203 113.663 94.534 115.171 91.75C116.435 89.4224 117.882 86.7906 118.461 83.9457C119.085 80.9031 118.583 78.0431 117.075 76.0958C115.856 74.5136 113.937 73.4791 112.414 72.6576C107.128 69.828 101.873 67.0592 95.6888 64.1839C95.3994 64.047 95.2775 63.7123 95.4146 63.4233C95.5517 63.1342 95.8868 63.0125 96.1762 63.1495C102.391 66.0247 107.661 68.8087 112.962 71.6384C114.592 72.5055 116.633 73.6008 118.004 75.3808C119.71 77.6019 120.289 80.7966 119.603 84.1587C118.979 87.1557 117.501 89.8788 116.207 92.2673C114.592 95.2186 112.932 97.9722 110.144 99.2501C108.956 99.7978 107.798 100.011 106.61 100.011Z" fill="black"/>
<path d="M63.6249 134.103C62.9547 134.103 62.2693 134.012 61.5686 133.784C57.334 132.43 55.6585 127.045 56.8161 123.059C57.8214 119.605 60.152 117.78 63.1223 115.452C63.6554 115.026 64.219 114.585 64.813 114.113L64.9958 113.977C69.3218 110.508 73.8305 105.883 78.4002 100.254C79.5121 98.8851 80.6241 96.6336 81.797 94.2452C82.4672 92.8912 83.1526 91.4764 83.8685 90.2289C84.0209 89.9551 84.3712 89.8638 84.6454 90.0159C84.9196 90.168 85.011 90.5179 84.8586 90.7918C84.1732 92.024 83.4877 93.4084 82.8175 94.7472C81.6142 97.1965 80.4718 99.5089 79.2836 100.969C74.6683 106.674 70.0986 111.345 65.6965 114.874L65.529 115.011C64.9349 115.483 64.3713 115.924 63.8229 116.35C60.9136 118.617 58.8115 120.26 57.9128 123.363C56.9075 126.832 58.4155 131.563 61.9189 132.689C65.8031 133.936 69.596 130.452 71.0278 128.901C73.5411 126.193 75.567 122.952 77.5167 119.803C77.9737 119.073 78.4306 118.343 78.8876 117.612C83.7924 109.915 89.5045 102.719 95.8715 96.2533C96.1 96.0251 96.4503 96.0251 96.6788 96.2533C96.9073 96.4815 96.9073 96.8314 96.6788 97.0596C90.3727 103.464 84.7063 110.584 79.8472 118.221C79.3903 118.936 78.9333 119.666 78.4763 120.396C76.4961 123.576 74.4398 126.877 71.8503 129.661C70.5403 131.137 67.3264 134.103 63.6249 134.103Z" fill="black"/>
<path d="M79.2075 99.4783C79.0704 99.4783 78.9181 99.4175 78.8115 99.311L76.2982 96.8617C75.9326 96.5118 75.5366 96.1162 75.2319 95.6294C74.5312 94.5036 74.4551 92.9519 75.0035 91.461C75.4756 90.1831 76.3286 89.0878 77.075 88.1294C77.273 87.8859 77.6234 87.8403 77.8823 88.0381C78.1261 88.2358 78.1718 88.5857 77.989 88.8444C77.2578 89.7876 76.4962 90.7612 76.0849 91.8718C75.6584 93.028 75.7041 94.2146 76.2068 95.0513C76.4353 95.4164 76.7704 95.7511 77.1055 96.0706L79.6188 98.5199C79.8473 98.7329 79.8473 99.098 79.634 99.3262C79.5122 99.4327 79.3599 99.4783 79.2075 99.4783Z" fill="black"/>
<path d="M112.521 80.4012C112.429 80.4012 112.338 80.386 112.262 80.3403C107.692 77.9519 102.939 75.7764 98.1566 73.8596C97.8672 73.7379 97.7148 73.4184 97.8367 73.1141C97.9586 72.8251 98.2937 72.6729 98.5831 72.7947C103.396 74.7115 108.179 76.9174 112.795 79.3211C113.069 79.4732 113.176 79.8079 113.038 80.0969C112.917 80.2795 112.719 80.4012 112.521 80.4012Z" fill="black"/>
<path d="M109.763 86.2277C109.687 86.2277 109.611 86.2125 109.535 86.1821C104.813 84.1131 99.9844 82.1202 95.2015 80.249C94.9121 80.1273 94.7598 79.8078 94.8816 79.5035C95.0035 79.2145 95.3234 79.0624 95.628 79.1841C100.441 81.0705 105.27 83.0634 110.007 85.1324C110.297 85.2541 110.434 85.5888 110.297 85.8778C110.19 86.106 109.992 86.2277 109.763 86.2277Z" fill="black"/>
<path d="M107.052 92.5717C106.961 92.5717 106.885 92.5565 106.793 92.5108C102.163 90.1985 97.3644 88.1447 92.5206 86.38C92.2311 86.2735 92.0788 85.9388 92.1854 85.6497C92.2921 85.3607 92.6272 85.1934 92.9166 85.3151C97.8061 87.095 102.635 89.1792 107.311 91.4916C107.6 91.6285 107.707 91.9784 107.57 92.2522C107.463 92.45 107.265 92.5717 107.052 92.5717Z" fill="black"/>
<path d="M24.1127 39.1281C23.9756 39.1281 23.8386 39.0825 23.7167 38.976C19.1623 34.6859 16.0549 28.8897 14.9582 22.6524C14.8972 22.3481 15.1105 22.0438 15.4151 21.9982C15.7198 21.9373 16.0244 22.1503 16.0701 22.4546C17.1364 28.4638 20.1219 34.0317 24.4935 38.1545C24.722 38.3675 24.7373 38.7326 24.524 38.9608C24.4174 39.0673 24.2651 39.1281 24.1127 39.1281Z" fill="black"/>
<path d="M19.6649 45.0307C19.5583 45.0307 19.4517 45.0003 19.345 44.9395C15.9787 42.7336 12.3687 40.8776 8.6368 39.4323C8.34739 39.3106 8.19507 38.9911 8.31692 38.6869C8.43878 38.3978 8.75866 38.2457 9.0633 38.3674C12.8714 39.8431 16.5423 41.7447 19.9848 43.981C20.2437 44.1484 20.3199 44.5135 20.1524 44.7721C20.0305 44.9395 19.8477 45.0307 19.6649 45.0307Z" fill="black"/>
<path d="M0.578882 55.178C0.365631 55.178 0.167612 55.0563 0.0609869 54.8586C-0.0761031 54.5695 0.0457546 54.2348 0.319935 54.0979C5.55982 51.5421 11.409 50.3555 17.2125 50.6597C17.5323 50.675 17.7761 50.9488 17.7608 51.253C17.7456 51.5725 17.4714 51.8007 17.1668 51.7855C11.5613 51.4965 5.91016 52.6374 0.83783 55.1172C0.746437 55.1476 0.655043 55.178 0.578882 55.178Z" fill="black"/>
<path d="M43.4727 75.6091C43.4423 75.6091 43.4118 75.6091 43.3813 75.5939C43.2899 75.5483 43.2595 75.4266 43.3052 75.3353L48.4384 65.6141C48.4841 65.5228 48.606 65.4924 48.6974 65.5381C48.7888 65.5837 48.8192 65.7054 48.7735 65.7967L43.6403 75.5178C43.5946 75.5787 43.5337 75.6091 43.4727 75.6091Z" fill="black"/>
<path d="M47.9359 76.8413C47.9054 76.8413 47.8749 76.8413 47.8445 76.8261C47.7531 76.7804 47.7226 76.6587 47.7683 76.5674L50.3883 71.7145C50.4339 71.6232 50.5558 71.5928 50.6472 71.6384C50.7386 71.684 50.7691 71.8057 50.7234 71.897L48.1034 76.75C48.0577 76.8108 47.9968 76.8413 47.9359 76.8413Z" fill="black"/>
<path d="M52.9168 78.6973C52.8864 78.6973 52.8559 78.6973 52.8254 78.6669C52.734 78.6212 52.7036 78.4995 52.7493 78.4083L54.7295 74.7723C54.7751 74.6811 54.897 74.6506 54.9884 74.6963C55.0798 74.7419 55.1103 74.8636 55.0646 74.9549L53.0844 78.5908C53.0539 78.6517 52.993 78.6973 52.9168 78.6973Z" fill="black"/>
<path d="M58.4309 79.8382C58.4004 79.8382 58.37 79.8382 58.3395 79.823C58.2481 79.7773 58.2024 79.6556 58.2633 79.5644L59.7104 76.7651C59.7561 76.6739 59.878 76.6282 59.9693 76.6891C60.0607 76.7347 60.1064 76.8564 60.0455 76.9477L58.5984 79.7469C58.568 79.7926 58.4918 79.8382 58.4309 79.8382Z" fill="black"/>
<g opacity="0.1294">
<path d="M23.4423 52.5917C23.6556 51.755 24.798 51.4659 25.4225 52.0288C25.8033 52.3331 25.849 52.8503 26.0471 53.2611C26.5954 54.7671 27.8292 56.4862 28.7889 57.3382C29.9008 58.4183 29.6266 57.7946 30.632 58.8138C31.683 60.3808 29.6723 62.1911 28.2253 60.9741C25.6967 59.255 25.0722 57.4751 23.9602 55.3148C23.7013 54.6911 23.488 54.0369 23.4271 53.3523C23.3662 53.1089 23.3205 52.8503 23.4423 52.5917Z" fill="black"/>
</g>
<g opacity="0.1294">
<path d="M22.163 78.8038C22.559 79.3667 23.3968 79.6253 24.0061 79.2602C24.0518 79.245 24.067 79.2146 24.1127 79.1994C24.1736 79.1842 24.2346 79.1537 24.2955 79.1233C26.0167 78.4083 26.9459 78.4996 29.3221 78.3474C32.2467 78.0888 34.5315 78.1497 36.8621 78.3018C36.8773 78.3322 36.8925 78.3627 36.9078 78.3931C37.0449 78.6973 37.319 78.9408 37.6389 79.0168C38.1416 79.169 38.172 79.0472 39.2535 79.1537C40.5178 79.2298 41.7668 79.4276 43.0159 79.5797C46.9763 80.0209 50.8452 80.9641 54.7752 81.6639C57.6388 82.3181 58.8269 82.9722 62.3151 83.8242C67.8139 85.1173 71.5611 86.2278 76.4201 87.6883C76.9533 87.886 78.4765 88.4641 80.1977 89.1183C79.6798 88.9966 79.1772 88.8749 78.644 88.7988C78.5831 88.7836 78.507 88.7684 78.446 88.7532C78.446 88.7532 78.446 88.7532 78.4308 88.7532C77.1208 87.9469 75.4453 89.3161 75.9936 90.7461C76.2831 91.598 77.2884 92.0696 78.1261 91.7502C78.1414 91.7502 78.1414 91.735 78.1566 91.735C80.2739 91.9632 80.5176 92.2066 82.5435 92.8303C82.3302 93.1498 82.1475 93.4236 81.919 93.8039C82.1322 93.9713 82.2388 94.2603 82.0713 94.5798C80.4871 97.6985 78.446 100.559 76.2069 103.236C75.0949 104.575 73.8307 105.807 72.5664 107.009C71.9266 107.617 71.2717 108.196 70.6167 108.774C70.4796 108.895 70.3273 109.032 70.1749 109.154C70.1445 109.595 70.3425 110.051 70.7385 110.28C71.4087 110.797 72.2008 110.325 72.7035 109.823C73.3889 109.245 74.44 108.302 74.4704 108.272C75.0949 107.739 75.8261 107.07 76.542 106.431C77.0751 106.005 77.593 105.579 78.0804 105.107C78.1566 105.031 78.2328 104.955 78.3089 104.879C78.8268 104.423 79.2533 104.088 79.4818 103.936C80.213 103.358 80.7918 102.628 81.4163 101.943C82.6044 100.711 83.8687 99.5697 85.0568 98.3374C85.3158 98.1244 85.5747 97.9267 85.8489 97.7441C86.3363 97.4703 86.1078 97.4551 87.2502 97.1356C87.5092 97.09 87.8748 97.09 88.0119 97.09C89.398 97.1964 89.5808 97.3182 90.3881 97.5616C91.3934 97.8962 92.3835 98.307 93.3127 98.8242C93.8306 99.0829 94.3637 98.9764 94.775 98.6873C95.3995 98.7634 96.0697 98.52 96.4048 97.9419C97.136 96.953 96.4048 95.7208 95.3995 95.2948C94.8664 94.9601 94.3332 94.6406 93.8001 94.3364C94.1657 94.5037 94.5312 94.6711 94.9121 94.8384C98.5373 96.5119 102.086 98.7786 106.199 98.8699C108.027 98.9916 109.794 98.4287 111.591 98.1701C112.627 98.1092 113.328 96.8618 112.795 95.9794C112.444 95.1427 111.454 95.0666 110.677 95.234C108.271 95.4926 107.54 95.6599 105.879 95.3861C102.376 94.8536 100.03 93.4692 96.2525 91.4915C90.4947 88.4641 84.7065 85.4367 78.5527 83.2613C72.7187 81.1467 66.5801 80.097 60.6091 78.4692C58.5984 77.9367 56.5878 77.3586 54.5162 77.1152C52.1095 76.8414 49.6876 76.7044 47.3114 76.172C41.9192 75.3505 36.4356 74.9245 30.9824 75.1527C28.6214 75.3961 26.1691 75.1679 23.9299 76.0807C22.7266 76.5067 21.31 77.3738 22.163 78.8038ZM84.219 90.9743C84.3257 90.9134 84.4171 90.8526 84.5237 90.807C84.3714 90.7461 84.219 90.6853 84.0515 90.6244C84.1276 90.7309 84.1733 90.8526 84.219 90.9743Z" fill="black"/>
</g>
<g opacity="0.1294">
<path d="M158.08 250.772C158.384 250.24 159.039 250.118 159.603 250.073C160.547 249.996 161.507 249.89 162.451 249.981C162.924 249.996 163.426 250.072 163.761 250.438C164.173 250.818 164.264 251.366 164.127 251.852C164.584 252.218 165.01 252.613 165.391 253.039C167.432 255.275 168.895 257.999 169.961 260.828C170.616 262.851 170.555 263.11 170.966 265.042C171.484 267.735 171.652 270.139 170.89 271.903C169.778 273.744 167.798 272.816 166.503 271.705C166.305 271.553 166.107 271.401 165.909 271.249C165.178 270.732 164.645 269.986 165.117 269.104C165.452 268.526 166.122 268.374 166.747 268.48C167.311 268.511 167.95 268.435 168.362 268.891C168.483 269.028 168.575 269.165 168.636 269.302C168.651 269.256 168.651 269.211 168.666 269.18C168.666 269.15 168.666 269.134 168.681 269.104C168.788 267.248 168.575 267.142 168.24 265.225C167.646 262.243 166.854 260.463 165.726 258.394C164.508 256.234 164.112 255.701 162.512 254.013C161.583 253.237 162.025 253.48 161.05 253.085C160.654 252.917 160.197 252.856 159.816 252.689C159.603 252.674 159.39 252.659 159.177 252.644C159.146 252.644 159.131 252.628 159.116 252.628C158.217 252.613 157.608 251.533 158.08 250.772Z" fill="black"/>
</g>
<g opacity="0.1294">
<path d="M208.087 216.071C209.108 216.071 209.199 217.212 209.428 217.958C209.869 219.494 210.235 221.046 210.692 222.582C211.834 226.903 213.556 230.721 214.546 233.034C214.911 234.053 217.287 238.769 218.536 241.051C218.902 241.736 219.268 242.436 219.679 243.105C219.938 243.546 220.303 243.972 220.303 244.505C220.395 245.067 220.273 245.554 220.014 245.935C218.506 245.615 216.952 245.585 215.414 245.569C215.322 245.509 215.231 245.448 215.155 245.356C213.251 243.774 212.535 241.295 211.987 238.967C211.834 238.343 211.712 237.72 211.575 237.096C211.469 236.731 211.423 236.32 211.636 235.97C211.743 235.787 211.88 235.666 212.048 235.574C210.966 232.456 209.961 229.337 208.94 226.203C208.24 223.921 207.859 221.563 207.417 219.22C207.31 218.49 207.036 217.745 207.051 216.999C207.097 216.467 207.585 216.087 208.087 216.071Z" fill="black"/>
</g>
<g opacity="0.1294">
<path d="M154.561 271.842C156.206 271.203 158.217 269.804 160.989 269.56C160.898 269.576 160.822 269.576 160.761 269.591C160.974 269.56 161.401 269.53 161.614 269.56C162.33 269.576 163.076 269.713 163.67 270.123C164.904 271.082 166.29 272.816 166.671 272.877C166.686 272.892 166.686 272.892 166.701 272.892C166.869 272.999 167.052 273.09 167.234 273.181C167.6 273.318 167.981 273.425 168.377 273.485C170.311 273.607 172.246 273.288 174.18 273.12C176.206 272.907 178.247 272.892 180.273 272.755C182.558 272.603 184.843 272.36 187.128 272.162C191.225 271.69 195.353 271.827 199.451 271.629C202.71 271.401 205.97 271.584 209.23 271.523C214.835 271.493 220.639 271.751 226.244 272.101C229.991 272.421 238.14 272.74 241.385 271.706C242.268 271.538 243.182 270.838 244.051 271.295C244.949 271.797 244.782 273.272 243.761 273.516C241.202 274.429 238.567 275.083 235.856 275.296C233.754 275.615 229.184 275.722 225.787 275.478C222.619 275.25 219.435 275.296 216.267 275.113C212.855 274.855 209.443 275.022 206.046 275.159C204.005 275.189 201.964 275.128 199.908 275.235C197.029 275.387 194.135 275.296 191.256 275.402C187.28 275.646 183.32 276.102 179.344 276.3C177.425 276.376 175.506 276.406 173.586 276.635C171.012 276.908 168.301 277.091 165.848 276.102C164.219 275.554 163.167 274.14 162.01 272.953C161.964 272.953 161.934 272.953 161.888 272.953C160.822 273.181 161.187 272.999 159.512 273.485C155.978 274.459 153.83 275.63 151.393 277.897C150.51 278.856 150.86 278.384 150.342 279.266C150.174 279.601 150.053 279.981 149.717 280.164C148.743 281.031 147.067 280.179 147.113 278.901C147.585 275.98 152.078 273.12 154.561 271.842Z" fill="black"/>
</g>
<path d="M62.0103 116.715C61.4924 115.802 61.4467 116.669 61.142 115.665C60.8526 114.661 60.8069 113.55 61.2182 112.577C61.6295 111.618 62.5739 110.843 63.6097 110.797C64.8892 110.751 65.9554 111.755 66.8237 112.699C68.3164 114.311 69.733 116.015 70.7993 117.932C71.1953 118.647 71.5152 119.605 70.9668 120.214C70.6774 120.533 70.2204 120.64 69.7787 120.655C68.5449 120.716 67.2806 120.183 66.4581 119.255C66.0925 118.845 65.8183 118.373 65.4223 117.993C65.0415 117.612 64.4322 117.126 64.2342 116.624C63.6858 115.148 63.701 114.159 62.0103 116.715Z" fill="#79E777"/>
<path d="M65.1329 112.531C64.615 111.618 64.0818 110.706 63.7924 109.686C63.503 108.682 63.4573 107.572 63.8686 106.598C64.2799 105.64 65.2243 104.864 66.26 104.818C67.5396 104.773 68.6058 105.777 69.474 106.72C70.9668 108.332 72.3834 110.036 73.4497 111.953C73.8457 112.668 74.1656 113.627 73.6172 114.235C73.3278 114.555 72.8708 114.661 72.4291 114.676C71.18 114.737 70.0376 115.117 69.1999 114.189C68.8495 113.794 65.2547 110.569 65.1329 112.531Z" fill="#79E777"/>
<path d="M67.9966 107.602C67.4787 106.689 66.9456 105.777 66.6562 104.757C66.3668 103.753 66.3211 102.643 66.7324 101.669C67.1436 100.711 68.088 99.9348 69.1238 99.8892C70.4033 99.8436 71.4696 100.848 72.3378 101.791C73.8306 103.403 75.2472 105.107 76.3134 107.024C76.7095 107.739 77.0293 108.698 76.481 109.306C76.1916 109.626 75.7346 110.767 75.2929 110.782C74.0438 110.843 72.7795 109.276 71.957 108.348C71.6067 107.952 68.1337 105.64 67.9966 107.602Z" fill="#79E777"/>
<path d="M69.1389 99.9043C68.0879 99.9043 69.1084 96.0858 69.5349 95.1274C69.9462 94.169 70.8906 93.3931 71.9264 93.3474C73.2059 93.3018 74.2722 94.3059 75.1404 95.2491C76.6332 96.8617 78.0497 98.5655 79.116 100.482C79.512 101.197 79.8319 102.156 79.2836 102.764C78.9941 103.084 79.8167 107.207 79.3749 107.222C78.1259 107.283 76.6027 106.765 75.7649 105.837C75.3993 105.442 71.9264 99.9043 69.1389 99.9043Z" fill="#79E777"/>
<path d="M82.1777 104.423C80.5021 102.308 76.6179 97.6984 78.8266 96.4661C79.9538 95.8424 82.6499 97.1812 83.5181 98.1396C85.0109 99.7522 88.0269 101.273 89.0931 103.19C89.4892 103.905 91.0124 107.998 90.464 108.591C90.1746 108.91 90.4488 112.759 90.0071 112.79C88.758 112.851 83.64 114.265 82.8174 113.337C82.4671 112.911 85.7116 108.865 82.1777 104.423Z" fill="#79E777"/>
<path d="M69.7788 121.735C67.3569 121.735 64.9654 118.145 63.6554 116.167C63.5336 115.985 63.4117 115.802 63.3203 115.665C63.1375 115.406 63.2137 115.057 63.4726 114.874C63.7316 114.691 64.0819 114.768 64.2647 115.026C64.3713 115.178 64.478 115.346 64.615 115.543C65.6813 117.156 68.1946 120.929 70.0225 120.579C70.647 120.457 70.7993 120.199 70.8603 120.016C71.2563 118.875 69.4894 115.985 67.5244 113.718C66.4734 112.501 65.3157 111.299 63.8382 111.116C62.6653 110.979 61.7514 111.923 61.4772 112.896C61.1269 114.113 61.8123 115.498 62.4064 116.715L62.4521 116.806C62.5892 117.095 62.4673 117.43 62.1931 117.567C61.9037 117.704 61.5686 117.582 61.4315 117.308L61.3858 117.217C60.7308 115.878 59.9083 114.22 60.3805 112.577C60.8679 110.888 62.3759 109.793 63.9753 109.975C65.8641 110.204 67.2502 111.634 68.3926 112.957C69.4132 114.144 72.7034 118.175 71.9417 120.381C71.7742 120.868 71.3477 121.476 70.2357 121.689C70.0834 121.72 69.9311 121.735 69.7788 121.735Z" fill="black"/>
<path d="M76.1153 113.885C75.9782 113.885 75.8411 113.87 75.7041 113.839C74.6378 113.642 73.404 112.698 73.008 111.77C72.8861 111.481 73.0232 111.147 73.3126 111.025C73.602 110.903 73.9371 111.04 74.059 111.329C74.2722 111.831 75.1709 112.577 75.9173 112.714C76.0392 112.744 76.2676 112.759 76.3743 112.653C76.6637 112.333 77.1207 110.112 75.9935 107.556C74.7597 104.788 72.3987 101.578 70.2662 100.802C69.1237 100.391 68.225 100.437 67.5853 100.954C66.7323 101.639 66.3362 103.205 66.5647 105.061C66.6104 105.381 66.3819 105.655 66.0621 105.7C65.7574 105.746 65.468 105.518 65.4223 105.198C65.1329 102.932 65.6813 101.015 66.8541 100.056C67.5244 99.5239 68.7277 99.0371 70.647 99.7369C73.1907 100.665 75.7498 104.21 77.0293 107.1C78.3545 110.097 77.8518 112.79 77.1816 113.459C76.9226 113.748 76.5418 113.885 76.1153 113.885Z" fill="black"/>
<path d="M72.7034 119.271C71.8656 119.271 71.0583 118.951 70.7842 118.708C70.5404 118.495 70.5252 118.145 70.7385 117.901C70.9517 117.658 71.3021 117.643 71.5458 117.856C71.759 118.023 73.0233 118.373 73.526 117.871C73.8306 117.567 73.9829 117.08 74.0286 116.38C74.1048 114.98 73.7544 113.429 72.9471 111.618C71.8809 109.215 70.251 107.328 68.2556 106.142C67.4635 105.67 65.788 105.427 64.6608 106.172C63.6555 106.841 63.2747 108.226 63.5336 110.173C63.5793 110.493 63.3508 110.766 63.0462 110.812C62.7263 110.858 62.4521 110.629 62.4064 110.325C61.9799 107.267 63.0614 105.853 64.0363 105.214C65.6357 104.149 67.8139 104.544 68.8497 105.153C71.0583 106.461 72.8405 108.53 73.9982 111.147C74.8816 113.124 75.2624 114.859 75.171 116.441C75.1101 117.445 74.8359 118.175 74.3333 118.677C73.8763 119.118 73.2822 119.271 72.7034 119.271Z" fill="black"/>
<path d="M83.5182 136.385C83.2136 136.385 82.9546 136.142 82.9546 135.838C82.6957 129.646 84.6302 125.69 86.5037 121.872C87.4786 119.864 88.4078 117.962 88.9866 115.802L89.1541 115.163C90.0376 111.831 90.9515 108.378 89.7177 105.351C88.9104 103.373 87.2806 101.852 85.5441 100.345L85.3004 100.132C84.2798 99.2349 82.8632 98.0179 81.7513 97.4246C80.3956 96.6943 79.6035 96.6335 79.3294 96.8008C79.2075 96.8769 79.1466 97.0442 79.1466 97.3181C79.1466 99.9043 79.7254 100.574 81.1268 102.186C81.4466 102.551 81.8122 102.977 82.2082 103.479C84.5692 106.4 84.8434 111.086 82.848 114.631C82.6957 114.904 82.3453 114.996 82.0712 114.844C81.797 114.691 81.7056 114.342 81.8579 114.068C83.6248 110.919 83.4116 106.75 81.3248 104.194C80.9287 103.708 80.5784 103.297 80.2585 102.932C78.8115 101.258 78.0042 100.33 78.0042 97.3181C78.0042 96.4509 78.4002 96.025 78.7353 95.8272C79.4969 95.3708 80.685 95.5686 82.2844 96.4205C83.5182 97.0747 84.9805 98.3526 86.0468 99.2806L86.2905 99.4935C88.0574 101.03 89.87 102.719 90.7688 104.925C92.1549 108.302 91.1496 112.105 90.2509 115.452L90.0833 116.091C89.4892 118.358 88.5296 120.305 87.5243 122.359C85.7117 126.056 83.8533 129.874 84.097 135.777C84.1123 136.096 83.8686 136.355 83.5487 136.37C83.5334 136.385 83.5334 136.385 83.5182 136.385Z" fill="black"/>
<path d="M78.3392 109.154C78.0954 109.154 77.8213 109.124 77.5319 109.017C76.8312 108.758 76.2828 108.196 75.8715 107.313C75.7345 107.024 75.8715 106.689 76.1457 106.552C76.4351 106.416 76.7702 106.553 76.9073 106.826C77.1815 107.42 77.5166 107.785 77.9127 107.937C78.3696 108.104 78.7961 107.937 78.9637 107.861C80.1061 107.328 79.7862 105.351 79.4359 104.255L79.2379 103.647C78.5219 101.487 77.7756 99.2654 76.5418 97.3942C75.5364 95.8729 72.886 93.3323 70.982 94.0473C69.4283 94.6254 69.4131 96.451 69.5502 98.6113C69.5806 99.1589 69.6111 99.6153 69.5959 100.011C69.5806 100.33 69.3065 100.559 68.9866 100.543C68.6667 100.528 68.4382 100.254 68.4535 99.9348C68.4687 99.6153 68.4382 99.1589 68.4078 98.6721C68.2859 96.7705 68.0879 93.8952 70.5707 92.9672C73.1602 92.0088 76.1914 94.7776 77.4862 96.7705C78.7961 98.7786 79.573 101.076 80.3041 103.297L80.5021 103.905C81.0962 105.701 81.1876 108.074 79.4359 108.895C79.2531 108.987 78.8418 109.154 78.3392 109.154Z" fill="black"/>
<path d="M54.8054 16.0498C54.8054 11.3794 58.5982 7.59131 63.2745 7.59131C67.9508 7.59131 71.7436 11.3794 71.7436 16.0498C71.7436 20.7202 67.9508 24.5083 63.2745 24.5083C58.5982 24.5235 54.8054 20.7354 54.8054 16.0498Z" fill="#79E777"/>
<path d="M63.2745 25.0863C58.2936 25.0863 54.2266 21.0396 54.2266 16.0498C54.2266 11.0751 58.2783 7.01318 63.2745 7.01318C68.2554 7.01318 72.3224 11.0599 72.3224 16.0498C72.3224 21.0396 68.2707 25.0863 63.2745 25.0863ZM63.2745 8.16938C58.9181 8.16938 55.369 11.714 55.369 16.065C55.369 20.4159 58.9181 23.9606 63.2745 23.9606C67.6309 23.9606 71.18 20.4159 71.18 16.065C71.18 11.6988 67.6309 8.16938 63.2745 8.16938Z" fill="black"/>
<path d="M153.388 16.6279H82.7109C82.391 16.6279 82.1321 16.3693 82.1321 16.0498C82.1321 15.7303 82.391 15.4717 82.7109 15.4717H153.388C153.708 15.4717 153.967 15.7303 153.967 16.0498C153.952 16.3693 153.708 16.6279 153.388 16.6279Z" fill="black"/>
<path d="M282.222 280.833H211.545C211.225 280.833 210.966 280.575 210.966 280.255C210.966 279.936 211.225 279.677 211.545 279.677H282.222C282.542 279.677 282.801 279.936 282.801 280.255C282.786 280.575 282.542 280.833 282.222 280.833Z" fill="black"/>
<path d="M282.223 292.776H232.581C232.261 292.776 232.002 292.517 232.002 292.197C232.002 291.878 232.261 291.619 232.581 291.619H282.223C282.542 291.619 282.801 291.878 282.801 292.197C282.786 292.517 282.542 292.776 282.223 292.776Z" fill="black"/>
</g>
<defs>
<clipPath id="clip0_4_13">
<rect width="306" height="322" fill="white"/>
</clipPath>
</defs>
</svg>
