<svg width="90" height="75" viewBox="0 0 90 75" fill="none" xmlns="http://www.w3.org/2000/svg">
<g clip-path="url(#clip0_4_506)">
<path d="M44.9847 88.8324C69.2011 88.8324 88.8324 69.2011 88.8324 44.9847C88.8324 20.7683 69.2011 1.13696 44.9847 1.13696C20.7683 1.13696 1.13696 20.7683 1.13696 44.9847C1.13696 69.2011 20.7683 88.8324 44.9847 88.8324Z" fill="#79E777"/>
<path d="M44.9846 90C20.1878 90 0 69.8122 0 44.9846C0 20.1878 20.1878 0 44.9846 0C69.7815 0 89.9693 20.1878 89.9693 44.9846C90 69.8122 69.8122 90 44.9846 90ZM44.9846 2.30454C21.4476 2.30454 2.30454 21.4476 2.30454 44.9846C2.30454 68.5217 21.4476 87.6647 44.9846 87.6647C68.5217 87.6647 87.6647 68.5217 87.6647 44.9846C87.6955 21.4476 68.5217 2.30454 44.9846 2.30454Z" fill="black"/>
<path d="M44.4314 71.6558H44.4007C43.9398 71.6251 43.5404 71.3486 43.3867 70.9491L25.6571 27.8696C25.5035 27.4701 25.5649 27.0092 25.8722 26.6712C26.1795 26.3332 26.6404 26.2103 27.0399 26.3332L71.8094 39.3308C72.2396 39.4537 72.5776 39.8224 72.639 40.2834C72.7005 40.7443 72.5161 41.1744 72.1167 41.4203L54.4792 52.7586L45.4762 71.0106C45.2611 71.41 44.8616 71.6558 44.4314 71.6558ZM28.6991 29.2216L44.5236 67.7228L52.5434 51.4681C52.6356 51.2837 52.7893 51.1301 52.9429 51.0072L68.7367 40.8672L28.6991 29.2216Z" fill="black"/>
<path d="M53.5882 53.0966C53.3116 53.0966 53.0351 53.0045 52.82 52.7894L28.4226 30.5121C27.931 30.082 27.9002 29.3752 28.3304 28.8836C28.7606 28.4227 29.4981 28.392 29.959 28.8221L54.3564 51.0994C54.8173 51.5296 54.848 52.267 54.4178 52.7279C54.2027 52.9737 53.8955 53.0966 53.5882 53.0966Z" fill="black"/>
</g>
<defs>
<clipPath id="clip0_4_506">
<rect width="90" height="90" fill="white"/>
</clipPath>
</defs>
</svg>
