<svg width="181" height="166" viewBox="0 0 181 166" fill="none" xmlns="http://www.w3.org/2000/svg">
<g clip-path="url(#clip0_4_431)">
<path d="M147.061 0.992676H37.9386C17.5221 0.992676 0.990723 17.5822 0.990723 38.0122V88.4078C0.990723 105.389 12.3854 119.68 27.9259 124.043L20.3642 165.007L54.4178 125.427H147.061C167.478 125.427 184.009 108.838 184.009 88.4078V38.0122C184.009 17.5561 167.478 0.992676 147.061 0.992676Z" fill="#79E777"/>
<path d="M20.3643 166C20.234 166 20.0775 165.974 19.9471 165.896C19.556 165.713 19.3214 165.268 19.3996 164.824L26.7787 124.722C10.9775 119.863 0 105.05 0 88.4079V38.0123C0 17.0598 17.0268 0 37.9387 0H147.061C167.973 0 185 17.0598 185 38.0123V88.4079C185 109.36 167.973 126.42 147.061 126.42H54.8872L21.1205 165.66C20.9119 165.869 20.6512 166 20.3643 166ZM37.9387 1.9594C18.0958 1.9594 1.9556 18.1309 1.9556 38.0123V88.4079C1.9556 104.501 12.7505 118.766 28.1868 123.102C28.6822 123.233 28.969 123.729 28.8908 124.226L21.981 161.637L53.6878 124.774C53.8703 124.565 54.1311 124.435 54.4179 124.435H147.061C166.904 124.435 183.044 108.263 183.044 88.3818V38.0123C183.044 18.1309 166.904 1.9594 147.061 1.9594H37.9387Z" fill="black"/>
<path d="M39.0861 45.4058L42.9712 58.0504H55.5913L45.3961 65.8619L49.2813 78.5065L39.0861 70.695L28.8648 78.5065L32.776 65.8619L22.5547 58.0504H35.1748L39.0861 45.4058Z" fill="#ACD4F7"/>
<path d="M28.8647 79.4732C28.6822 79.4732 28.4736 79.421 28.3171 79.2903C27.9782 79.0552 27.8217 78.6111 27.9521 78.1931L31.6547 66.2016L21.981 58.8081C21.642 58.5469 21.5116 58.1027 21.642 57.7108C21.7724 57.319 22.1374 57.0577 22.5807 57.0577H34.4708L38.1473 45.1185C38.2777 44.7005 38.6427 44.4392 39.086 44.4392C39.5032 44.4392 39.8943 44.7266 40.0247 45.1185L43.7012 57.0577H55.5913C56.0085 57.0577 56.3735 57.319 56.53 57.7108C56.6864 58.1027 56.53 58.5469 56.191 58.8081L46.5173 66.2016L50.2199 78.1931C50.3503 78.6111 50.1938 79.0552 49.8548 79.2903C49.5159 79.5255 49.0465 79.5255 48.7076 79.2642L39.086 71.8969L29.4644 79.2642C29.2819 79.421 29.0733 79.4732 28.8647 79.4732ZM25.4489 59.0432L33.3496 65.1043C33.6625 65.3656 33.8189 65.7836 33.6885 66.1754L30.6899 75.894L38.4602 69.9375C38.7992 69.6762 39.2946 69.6762 39.6596 69.9375L47.4299 75.894L44.4313 66.1754C44.3009 65.7836 44.4574 65.3656 44.7703 65.1043L52.6709 59.0432H42.945C42.5279 59.0432 42.1367 58.7559 42.0064 58.364L39.0338 48.7499L36.0613 58.364C35.931 58.782 35.5659 59.0432 35.1226 59.0432H25.4489Z" fill="black"/>
<path d="M92.487 45.4058L96.3982 58.0504H109.018L98.7971 65.8619L102.708 78.5065L92.487 70.695L82.2918 78.5065L86.203 65.8619L75.9817 58.0504H88.6018L92.487 45.4058Z" fill="#ACD4F7"/>
<path d="M82.2917 79.4732C82.1092 79.4732 81.9006 79.421 81.7441 79.2903C81.4052 79.0552 81.2487 78.6111 81.3791 78.1931L85.0817 66.2016L75.408 58.8081C75.069 58.5469 74.9387 58.1027 75.069 57.7108C75.1994 57.319 75.5644 57.0577 76.0077 57.0577H87.8978L91.5743 45.1185C91.7047 44.7005 92.0697 44.4392 92.513 44.4392C92.9302 44.4392 93.3213 44.7266 93.4517 45.1185L97.1282 57.0577H109.018C109.435 57.0577 109.801 57.319 109.957 57.7108C110.087 58.1027 109.957 58.5469 109.618 58.8081L99.9443 66.2016L103.647 78.1931C103.777 78.6111 103.621 79.0552 103.282 79.2903C102.943 79.5255 102.474 79.5255 102.135 79.2642L92.513 71.8969L82.8914 79.2642C82.7089 79.421 82.5003 79.4732 82.2917 79.4732ZM78.8759 59.0432L86.7766 65.1043C87.0895 65.3656 87.2459 65.7836 87.1155 66.1754L84.1169 75.894L91.8872 69.9375C92.2262 69.6762 92.7216 69.6762 93.0866 69.9375L100.857 75.894L97.8583 66.1754C97.7279 65.7836 97.8844 65.3656 98.1973 65.1043L106.098 59.0432H96.3721C95.9549 59.0432 95.5637 58.7559 95.4334 58.364L92.4608 48.7499L89.4883 58.364C89.358 58.782 88.9929 59.0432 88.5496 59.0432H78.8759Z" fill="black"/>
<path d="M145.914 45.4058L149.825 58.0504H162.445L152.224 65.8619L156.135 78.5065L145.914 70.695L135.719 78.5065L139.604 65.8619L129.409 58.0504H142.029L145.914 45.4058Z" fill="#ACD4F7"/>
<path d="M135.719 79.4732C135.51 79.4732 135.328 79.421 135.171 79.2903C134.832 79.0552 134.676 78.6111 134.806 78.1931L138.509 66.2016L128.835 58.8081C128.496 58.5469 128.366 58.1027 128.496 57.7108C128.626 57.319 128.991 57.0577 129.435 57.0577H141.325L145.001 45.1185C145.132 44.7005 145.497 44.4392 145.94 44.4392C146.357 44.4392 146.748 44.7266 146.879 45.1185L150.555 57.0577H162.445C162.862 57.0577 163.228 57.319 163.384 57.7108C163.514 58.1027 163.384 58.5469 163.045 58.8081L153.371 66.2016L157.074 78.1931C157.204 78.6111 157.048 79.0552 156.709 79.2903C156.37 79.5255 155.901 79.5255 155.562 79.2642L145.94 71.8969L136.318 79.2642C136.136 79.421 135.927 79.4732 135.719 79.4732ZM132.303 59.0432L140.204 65.1043C140.516 65.3656 140.673 65.7836 140.543 66.1754L137.544 75.894L145.314 69.9375C145.653 69.6762 146.149 69.6762 146.514 69.9375L154.284 75.894L151.285 66.1754C151.155 65.7836 151.311 65.3656 151.624 65.1043L159.525 59.0432H149.799C149.382 59.0432 148.991 58.7559 148.86 58.364L145.888 48.7499L142.915 58.364C142.785 58.782 142.42 59.0432 141.977 59.0432H132.303Z" fill="black"/>
<path d="M39.0861 45.4058L42.9712 58.0504H55.5913L45.3961 65.8619L49.2813 78.5065L39.0861 70.695L28.8648 78.5065L32.776 65.8619L22.5547 58.0504H35.1748L39.0861 45.4058Z" fill="#ACD4F7"/>
<path d="M28.8647 79.4732C28.6822 79.4732 28.4736 79.421 28.3171 79.2903C27.9782 79.0552 27.8217 78.6111 27.9521 78.1931L31.6547 66.2016L21.981 58.8081C21.642 58.5469 21.5116 58.1027 21.642 57.7108C21.7724 57.319 22.1374 57.0577 22.5807 57.0577H34.4708L38.1473 45.1185C38.2777 44.7005 38.6427 44.4392 39.086 44.4392C39.5032 44.4392 39.8943 44.7266 40.0247 45.1185L43.7012 57.0577H55.5913C56.0085 57.0577 56.3735 57.319 56.53 57.7108C56.6864 58.1027 56.53 58.5469 56.191 58.8081L46.5173 66.2016L50.2199 78.1931C50.3503 78.6111 50.1938 79.0552 49.8548 79.2903C49.5159 79.5255 49.0465 79.5255 48.7076 79.2642L39.086 71.8969L29.4644 79.2642C29.2819 79.421 29.0733 79.4732 28.8647 79.4732ZM25.4489 59.0432L33.3496 65.1043C33.6625 65.3656 33.8189 65.7836 33.6885 66.1754L30.6899 75.894L38.4602 69.9375C38.7992 69.6762 39.2946 69.6762 39.6596 69.9375L47.4299 75.894L44.4313 66.1754C44.3009 65.7836 44.4574 65.3656 44.7703 65.1043L52.6709 59.0432H42.945C42.5279 59.0432 42.1367 58.7559 42.0064 58.364L39.0338 48.7499L36.0613 58.364C35.931 58.782 35.5659 59.0432 35.1226 59.0432H25.4489Z" fill="black"/>
<path d="M92.487 45.4058L96.3982 58.0504H109.018L98.7971 65.8619L102.708 78.5065L92.487 70.695L82.2918 78.5065L86.203 65.8619L75.9817 58.0504H88.6018L92.487 45.4058Z" fill="#ACD4F7"/>
<path d="M82.2917 79.4732C82.1092 79.4732 81.9006 79.421 81.7441 79.2903C81.4052 79.0552 81.2487 78.6111 81.3791 78.1931L85.0817 66.2016L75.408 58.8081C75.069 58.5469 74.9387 58.1027 75.069 57.7108C75.1994 57.319 75.5644 57.0577 76.0077 57.0577H87.8978L91.5743 45.1185C91.7047 44.7005 92.0697 44.4392 92.513 44.4392C92.9302 44.4392 93.3213 44.7266 93.4517 45.1185L97.1282 57.0577H109.018C109.435 57.0577 109.801 57.319 109.957 57.7108C110.087 58.1027 109.957 58.5469 109.618 58.8081L99.9443 66.2016L103.647 78.1931C103.777 78.6111 103.621 79.0552 103.282 79.2903C102.943 79.5255 102.474 79.5255 102.135 79.2642L92.513 71.8969L82.8914 79.2642C82.7089 79.421 82.5003 79.4732 82.2917 79.4732ZM78.8759 59.0432L86.7766 65.1043C87.0895 65.3656 87.2459 65.7836 87.1155 66.1754L84.1169 75.894L91.8872 69.9375C92.2262 69.6762 92.7216 69.6762 93.0866 69.9375L100.857 75.894L97.8583 66.1754C97.7279 65.7836 97.8844 65.3656 98.1973 65.1043L106.098 59.0432H96.3721C95.9549 59.0432 95.5637 58.7559 95.4334 58.364L92.4608 48.7499L89.4883 58.364C89.358 58.782 88.9929 59.0432 88.5496 59.0432H78.8759Z" fill="black"/>
<path d="M145.914 45.4058L149.825 58.0504H162.445L152.224 65.8619L156.135 78.5065L145.914 70.695L135.719 78.5065L139.604 65.8619L129.409 58.0504H142.029L145.914 45.4058Z" fill="#ACD4F7"/>
<path d="M135.719 79.4732C135.51 79.4732 135.328 79.421 135.171 79.2903C134.832 79.0552 134.676 78.6111 134.806 78.1931L138.509 66.2016L128.835 58.8081C128.496 58.5469 128.366 58.1027 128.496 57.7108C128.626 57.319 128.991 57.0577 129.435 57.0577H141.325L145.001 45.1185C145.132 44.7005 145.497 44.4392 145.94 44.4392C146.357 44.4392 146.748 44.7266 146.879 45.1185L150.555 57.0577H162.445C162.862 57.0577 163.228 57.319 163.384 57.7108C163.514 58.1027 163.384 58.5469 163.045 58.8081L153.371 66.2016L157.074 78.1931C157.204 78.6111 157.048 79.0552 156.709 79.2903C156.37 79.5255 155.901 79.5255 155.562 79.2642L145.94 71.8969L136.318 79.2642C136.136 79.421 135.927 79.4732 135.719 79.4732ZM132.303 59.0432L140.204 65.1043C140.516 65.3656 140.673 65.7836 140.543 66.1754L137.544 75.894L145.314 69.9375C145.653 69.6762 146.149 69.6762 146.514 69.9375L154.284 75.894L151.285 66.1754C151.155 65.7836 151.311 65.3656 151.624 65.1043L159.525 59.0432H149.799C149.382 59.0432 148.991 58.7559 148.86 58.364L145.888 48.7499L142.915 58.364C142.785 58.782 142.42 59.0432 141.977 59.0432H132.303Z" fill="black"/>
<g opacity="0.1294">
<path d="M3.96338 102.829C5.26712 103.952 8.50038 106.408 12.1769 108.969C12.8288 109.125 12.6723 109.282 13.246 109.648C12.2551 108.89 15.1234 111.032 15.6188 111.294C20.8598 114.742 28.3954 115.892 31.2636 122.057C32.8802 124.827 32.1762 128.954 31.2897 133.605C31.0289 136.06 30.4813 138.307 30.5856 139.378C30.5856 139.561 30.6117 139.875 30.6378 140.084C30.6639 140.162 30.6639 140.24 30.6899 140.319C30.716 140.371 30.716 140.423 30.7421 140.476C30.7942 140.554 30.8464 140.632 30.8985 140.711C30.9507 140.763 30.9768 140.815 31.0289 140.841C31.055 140.841 31.1071 140.868 31.1593 140.894C31.2897 140.946 31.4461 140.972 31.5765 140.998C32.5413 140.972 32.5152 140.946 34.888 139.195C34.9923 139.091 35.0966 139.039 35.2009 138.96C36.8175 137.236 38.4081 135.512 39.8943 133.657C43.5187 128.772 48.8119 123.337 52.2277 121.274C55.0176 119.523 58.3031 118.922 61.5363 118.557C82.3439 117.172 103.152 119.471 123.959 119.471C132.616 119.236 142.968 120.229 149.512 118.844C152.667 118.243 155.796 117.459 158.847 116.414C160.672 115.944 162.55 114.873 164.401 114.925C164.479 114.925 164.531 114.951 164.61 114.977C164.636 114.951 164.688 114.951 164.714 114.925C164.766 114.899 164.818 114.899 164.844 114.873C165.548 114.585 166.252 114.246 166.956 113.958C168.051 113.488 172.901 111.503 171.754 111.999C171.963 111.921 172.302 111.764 172.562 111.659C172.954 111.477 173.345 111.294 173.736 111.111C175.717 110.118 177.621 108.995 179.55 107.924C178.872 108.838 178.195 109.726 177.517 110.614C176.526 111.764 175.457 112.861 174.414 113.906C172.797 115.526 171.076 117.067 169.277 118.478C167.478 119.314 165.653 120.046 163.801 120.699C163.827 120.882 163.853 121.065 163.827 121.247C160.959 122.214 158.013 122.998 155.04 123.599C152.589 124.095 150.138 124.539 147.661 124.748C147.635 124.513 147.609 124.304 147.609 124.069C147.531 124.069 147.452 124.095 147.374 124.095C141.195 124.853 134.989 124.382 128.783 124.591C112.226 125.192 95.6942 123.834 79.1367 123.573C72.0966 123.782 62.7097 123.599 58.0945 124.565C55.3305 125.375 54.9916 125.715 52.4623 128.092C49.542 130.966 46.8302 134.049 44.3531 137.314C41.3806 141.129 37.8605 144.447 34.8358 148.183C32.098 152.18 29.2558 155.707 26.0747 159.364C25.6054 159.939 25.9965 159.443 24.9796 160.827C24.6406 161.454 24.0931 161.872 23.4673 162.055C20.6512 162.656 19.2692 159.521 21.1205 157.431C21.3291 157.091 21.5638 156.778 21.7985 156.438C21.7985 156.255 21.8246 156.072 21.8767 155.89C23.8845 149.149 24.7449 142.095 25.9444 135.172C26.6484 130.705 27.0656 128.327 27.1699 126.002C27.1699 125.845 27.1438 125.689 27.1438 125.532C27.0656 125.192 26.9352 124.618 26.8309 124.356C26.7527 124.095 26.5962 123.808 26.4137 123.494C26.3355 123.468 26.2833 123.468 26.2051 123.442C20.8337 122.214 12.1248 115.813 10.117 113.723C9.77804 113.462 9.41299 113.227 9.07402 112.966C8.55253 111.947 8.13533 110.902 7.63991 109.857C6.85767 108.185 5.73646 106.67 4.92815 104.997C4.5631 104.24 4.19805 103.508 3.83301 102.751C3.85908 102.751 3.91123 102.803 3.96338 102.829Z" fill="black"/>
</g>
</g>
<defs>
<clipPath id="clip0_4_431">
<rect width="185" height="166" fill="white"/>
</clipPath>
</defs>
</svg>
