<svg width="143" height="83" viewBox="0 0 143 83" fill="none" xmlns="http://www.w3.org/2000/svg">
<g clip-path="url(#clip0_4_490)">
<path d="M125.44 29.4628C124.897 29.4628 124.393 29.1527 124.161 28.6875L109.896 2.13212C109.508 1.43431 109.779 0.542672 110.477 0.155003C111.175 -0.232666 112.066 0.0387021 112.454 0.736507L125.518 25.0434L140.287 0.658973C140.713 -6.48145e-05 141.605 -0.193899 142.302 0.19377C143 0.620206 143.194 1.51185 142.806 2.20965L126.719 28.765C126.448 29.1914 125.944 29.4628 125.44 29.4628Z" fill="black"/>
<path d="M88.8468 17.2901H1.47303C0.658986 17.2901 0 16.6311 0 15.8557C0 15.0416 0.658986 14.3826 1.47303 14.3826H88.8468C89.6609 14.3826 90.3199 15.0416 90.3199 15.8557C90.2811 16.6311 89.6221 17.2901 88.8468 17.2901Z" fill="black"/>
<path d="M125.44 83C124.897 83 124.393 82.6898 124.161 82.2246L109.896 55.6693C109.508 54.9715 109.779 54.0798 110.477 53.6922C111.175 53.3045 112.066 53.5759 112.454 54.2737L125.518 78.5805L140.287 54.1961C140.713 53.4983 141.605 53.3045 142.302 53.6922C143 54.1186 143.194 55.0102 142.806 55.6693L126.719 82.2246C126.448 82.7286 125.944 83 125.44 83Z" fill="black"/>
<path d="M88.8468 70.8272H1.47303C0.658986 70.8272 0 70.1682 0 69.3928C0 68.5787 0.658986 67.9197 1.47303 67.9197H88.8468C89.6609 67.9197 90.3199 68.5787 90.3199 69.3928C90.2811 70.1682 89.6221 70.8272 88.8468 70.8272Z" fill="black"/>
<path d="M125.44 29.4628C124.897 29.4628 124.393 29.1527 124.161 28.6875L109.896 2.13212C109.508 1.43431 109.779 0.542672 110.477 0.155003C111.175 -0.232666 112.066 0.0387021 112.454 0.736507L125.518 25.0434L140.287 0.658973C140.713 -6.48145e-05 141.605 -0.193899 142.302 0.19377C143 0.620206 143.194 1.51185 142.806 2.20965L126.719 28.765C126.448 29.1914 125.944 29.4628 125.44 29.4628Z" fill="black"/>
<path d="M125.44 83C124.897 83 124.393 82.6898 124.161 82.2246L109.896 55.6693C109.508 54.9715 109.779 54.0798 110.477 53.6922C111.175 53.3045 112.066 53.5759 112.454 54.2737L125.518 78.5805L140.287 54.1961C140.713 53.4983 141.605 53.3045 142.302 53.6922C143 54.1186 143.194 55.0102 142.806 55.6693L126.719 82.2246C126.448 82.7286 125.944 83 125.44 83Z" fill="black"/>
<path d="M88.8468 70.8272H1.47303C0.658986 70.8272 0 70.1682 0 69.3928C0 68.5787 0.658986 67.9197 1.47303 67.9197H88.8468C89.6609 67.9197 90.3199 68.5787 90.3199 69.3928C90.2811 70.1682 89.6221 70.8272 88.8468 70.8272Z" fill="black"/>
</g>
<defs>
<clipPath id="clip0_4_490">
<rect width="143" height="83" fill="white"/>
</clipPath>
</defs>
</svg>
