<svg width="121" height="191" viewBox="0 0 121 191" fill="none" xmlns="http://www.w3.org/2000/svg">
<g clip-path="url(#clip0_4_309)">
<path d="M75.4584 137.676C87.2679 121.091 83.3532 98.0803 66.6502 86.3314L-13.6675 29.6968L6.62402 1.20093L89.3232 59.5233C121.816 82.4368 129.515 127.225 106.483 159.551C83.4511 191.876 38.4314 199.536 5.93893 176.622L-76.7603 118.3L-56.4688 89.8042L23.8489 146.439C40.5193 158.188 63.6489 154.293 75.4584 137.676Z" fill="#79E777"/>
<path d="M47.5331 191C32.8854 191 18.0746 186.651 5.22118 177.596L-77.478 119.306C-77.739 119.111 -77.9347 118.852 -77.9674 118.527C-78.0326 118.203 -77.9347 117.878 -77.7716 117.618L-57.4801 89.1226C-57.0887 88.5709 -56.3383 88.441 -55.7837 88.8305L24.534 145.465C32.3308 150.95 41.8241 153.125 51.2522 151.502C60.6802 149.912 68.9012 144.751 74.4471 136.994C85.8651 120.961 82.0482 98.6969 65.9325 87.3376L-14.3852 30.7029C-14.9398 30.3134 -15.0703 29.5669 -14.6788 29.0152L5.61265 0.51937C5.80839 0.259727 6.06937 0.0649945 6.39561 0.0325391C6.72183 -0.0323717 7.04806 0.0649945 7.30904 0.227271L90.0082 58.5496C105.993 69.8116 116.596 86.5911 119.891 105.805C123.186 125.018 118.749 144.362 107.429 160.265C93.2053 180.29 70.5323 191 47.5331 191ZM-75.0639 118.008L6.65659 175.616C38.5618 198.108 82.8964 190.578 105.504 158.837C128.112 127.095 120.543 82.9885 88.6381 60.4969L6.91757 2.92107L-11.9711 29.4371L67.3679 85.3578C84.5602 97.4961 88.6381 121.286 76.4697 138.39C70.5649 146.666 61.7567 152.183 51.7089 153.904C41.6284 155.624 31.5153 153.319 23.1638 147.445L-56.1752 91.5243L-75.0639 118.008Z" fill="black"/>
<path d="M31.0165 18.4111L6.63525 1.22168L-13.6609 29.7145L10.7203 46.9039L31.0165 18.4111Z" fill="#ACD4F7"/>
<path d="M10.7018 48.099C10.4408 48.099 10.2124 48.0341 9.98407 47.8718L-14.3853 30.7029C-14.9399 30.3134 -15.0704 29.5669 -14.6789 29.0152L5.61259 0.51937C5.80833 0.259727 6.06932 0.0649945 6.39555 0.0325391C6.72178 -0.0323717 7.048 0.0649945 7.30899 0.227271L31.6783 17.3962C31.9393 17.5909 32.1351 17.8506 32.1677 18.1751C32.2329 18.4997 32.135 18.8242 31.9719 19.0839L11.6805 47.5797C11.4847 47.8393 11.2237 48.0341 10.8975 48.0665C10.8323 48.099 10.767 48.099 10.7018 48.099ZM-11.9712 29.4371L10.4082 45.2105L29.2969 18.6944L6.91751 2.92107L-11.9712 29.4371Z" fill="black"/>
<path d="M105.406 162.245C105.145 162.245 104.917 162.18 104.689 162.017L73.7293 140.078C73.1748 139.688 73.0443 138.942 73.4357 138.39C73.8272 137.838 74.5775 137.708 75.1321 138.098L106.091 160.038C106.646 160.427 106.776 161.174 106.385 161.725C106.157 162.082 105.765 162.245 105.406 162.245Z" fill="black"/>
<path d="M113.595 131.412C113.431 131.412 113.268 131.314 113.203 131.152L87.8551 65.1055C87.7898 64.9107 87.8877 64.6511 88.0835 64.5862C88.2792 64.5213 88.5402 64.6186 88.6054 64.8134L113.953 130.86C114.019 131.055 113.921 131.314 113.725 131.379C113.692 131.379 113.66 131.412 113.595 131.412Z" fill="black"/>
<path d="M110.561 142.122C110.398 142.122 110.234 142.025 110.169 141.863L78.1008 58.2251C78.0356 58.0304 78.1334 57.7707 78.3292 57.7058C78.5249 57.6409 78.7859 57.7383 78.8512 57.933L110.92 141.571C110.985 141.765 110.887 142.025 110.691 142.09C110.659 142.122 110.593 142.122 110.561 142.122Z" fill="black"/>
<path d="M105.961 150.463C105.798 150.463 105.635 150.366 105.569 150.204L67.5636 51.1497C67.4983 50.9549 67.5962 50.6953 67.7919 50.6304C67.9877 50.5655 68.2487 50.6628 68.3139 50.8576L106.32 149.911C106.385 150.106 106.287 150.366 106.091 150.431C106.059 150.463 105.993 150.463 105.961 150.463Z" fill="black"/>
<path d="M98.2292 150.463C98.066 150.463 97.9029 150.366 97.8377 150.204L86.5501 121.318C86.4523 121.124 86.5827 120.864 86.7785 120.799C86.9742 120.702 87.2352 120.831 87.3005 121.026L98.588 149.911C98.6859 150.106 98.5554 150.366 98.3596 150.431C98.327 150.463 98.2944 150.463 98.2292 150.463Z" fill="black"/>
<path d="M88.2792 143.388C88.1161 143.388 87.953 143.291 87.8877 143.128L84.1035 133.424C84.0056 133.229 84.1361 132.97 84.3318 132.905C84.5276 132.808 84.7886 132.937 84.8538 133.132L88.6381 142.836C88.7359 143.031 88.6054 143.291 88.4097 143.356C88.3771 143.388 88.3118 143.388 88.2792 143.388Z" fill="black"/>
<path d="M113.856 112.783C113.692 112.783 113.529 112.685 113.464 112.523L100.545 78.8342C100.48 78.6395 100.578 78.3799 100.774 78.3149C100.969 78.25 101.23 78.3474 101.296 78.5421L114.214 112.231C114.28 112.426 114.182 112.685 113.986 112.75C113.953 112.75 113.888 112.783 113.856 112.783Z" fill="black"/>
<path d="M72.0003 84.4166C71.8372 84.4166 71.6741 84.3192 71.6089 84.1245C67.0743 70.2336 62.1156 56.2778 56.8307 42.6465C56.7654 42.4518 56.8633 42.1921 57.059 42.1272C57.2548 42.0623 57.5158 42.1597 57.581 42.3544C62.8333 56.0181 67.8246 69.9739 72.3592 83.8648C72.4244 84.092 72.3266 84.3192 72.0982 84.3841C72.0982 84.4166 72.033 84.4166 72.0003 84.4166Z" fill="black"/>
<path d="M61.5936 77.2439C61.4305 77.2439 61.2674 77.1466 61.2022 76.9518L47.6636 36.4799C47.5984 36.2528 47.6963 36.0256 47.9246 35.9607C48.153 35.8957 48.3813 35.9931 48.4466 36.2203L61.9851 76.6922C62.0504 76.9194 61.9525 77.1466 61.7241 77.2115C61.6589 77.2439 61.6263 77.2439 61.5936 77.2439Z" fill="black"/>
<path d="M51.7414 70.2659C51.5783 70.2659 51.4152 70.1685 51.35 69.9738L37.4526 29.0151C37.3873 28.7879 37.4852 28.5607 37.7136 28.4958C37.9419 28.4309 38.1703 28.5283 38.2355 28.7555L52.1329 69.7142C52.1982 69.9414 52.1003 70.1685 51.8719 70.2335C51.8067 70.2659 51.7741 70.2659 51.7414 70.2659Z" fill="black"/>
<path d="M41.2695 62.9311C41.1064 62.9311 40.9433 62.8337 40.878 62.639C37.4526 51.5717 33.6031 40.4395 29.4274 29.5994C29.3621 29.4046 29.46 29.145 29.6557 29.0801C29.8515 29.0152 30.1124 29.1125 30.1777 29.3073C34.3208 40.1474 38.2029 51.2796 41.6283 62.3793C41.6936 62.6065 41.5631 62.8337 41.3674 62.8986C41.3347 62.9311 41.3021 62.9311 41.2695 62.9311Z" fill="black"/>
<path d="M30.6345 56.1154C30.4713 56.1154 30.3082 56.0181 30.243 55.8233C28.3835 49.6893 26.3282 43.5228 24.1751 37.486C24.1099 37.2913 24.2077 37.0317 24.4361 36.9668C24.6645 36.9019 24.8928 36.9992 24.9581 37.2264C27.1438 43.2631 29.1991 49.4621 31.0586 55.5962C31.1238 55.8233 30.9933 56.0505 30.7976 56.1154C30.7323 56.1154 30.6997 56.1154 30.6345 56.1154Z" fill="black"/>
<path d="M21.9893 49.8515C21.8262 49.8515 21.6631 49.7541 21.5978 49.5918L19.6731 44.4314C19.6078 44.2367 19.7057 43.977 19.9014 43.9121C20.0972 43.8472 20.3582 43.9446 20.4234 44.1393L22.3482 49.2997C22.4134 49.4944 22.3155 49.7541 22.1198 49.819C22.0872 49.819 22.0219 49.8515 21.9893 49.8515Z" fill="black"/>
<g opacity="0.1294">
<path d="M-73.5959 121.513C-75.5859 120.831 -78.0652 118.04 -75.2923 114.567C-73.3023 112.458 -69.6159 113.367 -68.4741 115.768C-67.006 116.969 -66.6798 117.456 -65.9947 117.91C-61.7537 120.929 -57.317 123.59 -52.9782 126.479C-41.2665 134.138 -29.5875 142.512 -22.5083 147.899C-11.9385 155.786 -2.1516 163.543 11.0933 171.072C20.0973 176.298 34.3535 181.296 42.3787 182.172C44.0425 182.399 42.6397 182.269 46.163 182.464C49.6863 182.626 53.2422 182.367 56.7655 182.172C59.7668 182.01 62.7681 181.75 65.802 181.75C66.7807 181.815 67.8573 181.588 68.7707 182.075C72.3592 183.438 71.2827 189.053 67.3679 188.988C59.0164 188.923 50.7302 190.318 42.3787 190.383C35.9846 190.059 29.8189 188.306 23.8489 186.099C6.5261 180.16 -8.18684 169.06 -22.4757 157.96C-29.8811 152.151 -48.7372 139.169 -56.3057 133.392C-61.036 129.692 -66.3536 125.83 -71.769 122.422C-72.0952 122.259 -72.4214 122.065 -72.7477 121.902C-72.9434 121.837 -72.9434 121.805 -72.8455 121.837C-72.8455 121.837 -72.8455 121.837 -72.8782 121.837C-72.8782 121.837 -72.8455 121.837 -72.8455 121.87C-72.8129 121.87 -72.7803 121.902 -72.7477 121.902C-73.0087 121.74 -73.3023 121.643 -73.5959 121.513Z" fill="black"/>
</g>
</g>
<defs>
<clipPath id="clip0_4_309">
<rect width="199" height="191" fill="white" transform="translate(-78)"/>
</clipPath>
</defs>
</svg>
