<svg width="449" height="66" viewBox="0 0 449 66" fill="none" xmlns="http://www.w3.org/2000/svg">
<rect x="0.5" y="0.5" width="210" height="65" rx="32.5" fill="#79E777"/>
<path d="M59.2689 41.11C58.2422 41.11 57.2816 40.89 56.3869 40.45C55.5069 39.9953 54.7369 39.394 54.0769 38.646C53.4169 37.8833 52.9036 37.0327 52.5369 36.094C52.1702 35.1407 51.9869 34.158 51.9869 33.146C51.9869 32.09 52.1702 31.0927 52.5369 30.154C52.9036 29.2007 53.4096 28.3573 54.0549 27.624C54.7149 26.8907 55.4849 26.3187 56.3649 25.908C57.2596 25.4827 58.2276 25.27 59.2689 25.27C60.7796 25.27 62.0262 25.5853 63.0089 26.216C63.9916 26.8467 64.7322 27.668 65.2309 28.68L63.7129 29.736C63.2582 28.8267 62.6349 28.152 61.8429 27.712C61.0509 27.272 60.1782 27.052 59.2249 27.052C58.4329 27.052 57.7142 27.2207 57.0689 27.558C56.4236 27.8953 55.8662 28.3573 55.3969 28.944C54.9422 29.516 54.5902 30.1687 54.3409 30.902C54.1062 31.6353 53.9889 32.398 53.9889 33.19C53.9889 34.026 54.1209 34.818 54.3849 35.566C54.6636 36.2993 55.0522 36.952 55.5509 37.524C56.0496 38.0813 56.6289 38.5213 57.2889 38.844C57.9489 39.1667 58.6602 39.328 59.4229 39.328C60.3176 39.328 61.1682 39.1007 61.9749 38.646C62.7816 38.1913 63.5442 37.4947 64.2629 36.556V38.602C62.8549 40.274 61.1902 41.11 59.2689 41.11ZM64.0209 34.708H60.6549V33.212H65.6929V41H64.0209V34.708ZM73.478 41.22C72.6127 41.22 71.8207 41.066 71.102 40.758C70.398 40.4353 69.782 40.0027 69.254 39.46C68.7407 38.9027 68.3373 38.2647 68.044 37.546C67.7653 36.8273 67.626 36.0647 67.626 35.258C67.626 34.1727 67.8753 33.1827 68.374 32.288C68.8727 31.3933 69.562 30.6747 70.442 30.132C71.3367 29.5893 72.356 29.318 73.5 29.318C74.6587 29.318 75.6633 29.5967 76.514 30.154C77.3793 30.6967 78.0467 31.4153 78.516 32.31C79 33.19 79.242 34.1433 79.242 35.17C79.242 35.3167 79.2347 35.4633 79.22 35.61C79.22 35.742 79.2127 35.8447 79.198 35.918H69.672C69.7307 36.666 69.936 37.3333 70.288 37.92C70.6547 38.492 71.124 38.9467 71.696 39.284C72.268 39.6067 72.884 39.768 73.544 39.768C74.248 39.768 74.908 39.592 75.524 39.24C76.1547 38.888 76.5873 38.426 76.822 37.854L78.494 38.316C78.2447 38.8733 77.8707 39.372 77.372 39.812C76.888 40.252 76.3087 40.5967 75.634 40.846C74.974 41.0953 74.2553 41.22 73.478 41.22ZM69.606 34.576H77.438C77.3793 33.828 77.1667 33.168 76.8 32.596C76.4333 32.024 75.964 31.5767 75.392 31.254C74.82 30.9313 74.1893 30.77 73.5 30.77C72.8253 30.77 72.202 30.9313 71.63 31.254C71.058 31.5767 70.5887 32.024 70.222 32.596C69.87 33.168 69.6647 33.828 69.606 34.576ZM87.2266 40.428C87.0653 40.5013 86.8453 40.5967 86.5666 40.714C86.2879 40.8313 85.9653 40.934 85.5986 41.022C85.2319 41.11 84.8433 41.154 84.4326 41.154C83.9633 41.154 83.5306 41.0733 83.1346 40.912C82.7386 40.736 82.4233 40.472 82.1886 40.12C81.9539 39.7533 81.8366 39.2987 81.8366 38.756V31.034H80.2746V29.516H81.8366V25.688H83.7726V29.516H86.3466V31.034H83.7726V38.162C83.8019 38.5727 83.9413 38.8807 84.1906 39.086C84.4399 39.2767 84.7333 39.372 85.0706 39.372C85.4519 39.372 85.8039 39.306 86.1266 39.174C86.4493 39.042 86.6619 38.9467 86.7646 38.888L87.2266 40.428ZM104.067 28.658C103.891 28.4527 103.657 28.2547 103.363 28.064C103.07 27.8733 102.74 27.7047 102.373 27.558C102.007 27.3967 101.603 27.272 101.163 27.184C100.738 27.0813 100.291 27.03 99.8214 27.03C98.6188 27.03 97.7314 27.2573 97.1594 27.712C96.5874 28.1667 96.3014 28.79 96.3014 29.582C96.3014 30.1393 96.4481 30.5793 96.7414 30.902C97.0348 31.2247 97.4821 31.4887 98.0834 31.694C98.6994 31.8993 99.4768 32.112 100.415 32.332C101.501 32.5667 102.439 32.8527 103.231 33.19C104.023 33.5273 104.632 33.982 105.057 34.554C105.483 35.1113 105.695 35.8593 105.695 36.798C105.695 37.546 105.549 38.1987 105.255 38.756C104.977 39.2987 104.581 39.7533 104.067 40.12C103.554 40.472 102.953 40.736 102.263 40.912C101.574 41.0733 100.826 41.154 100.019 41.154C99.2274 41.154 98.4501 41.0733 97.6874 40.912C96.9394 40.736 96.2281 40.4867 95.5534 40.164C94.8788 39.8413 94.2481 39.438 93.6614 38.954L94.6074 37.282C94.8421 37.5313 95.1428 37.7807 95.5094 38.03C95.8908 38.2647 96.3161 38.4847 96.7854 38.69C97.2694 38.8953 97.7901 39.064 98.3474 39.196C98.9048 39.3133 99.4768 39.372 100.063 39.372C101.178 39.372 102.043 39.174 102.659 38.778C103.275 38.3673 103.583 37.7733 103.583 36.996C103.583 36.4093 103.407 35.94 103.055 35.588C102.718 35.236 102.212 34.9427 101.537 34.708C100.863 34.4733 100.041 34.2387 99.0734 34.004C98.0174 33.74 97.1301 33.454 96.4114 33.146C95.6928 32.8233 95.1501 32.4053 94.7834 31.892C94.4314 31.3787 94.2554 30.7113 94.2554 29.89C94.2554 28.8927 94.4974 28.0493 94.9814 27.36C95.4654 26.6707 96.1328 26.15 96.9834 25.798C97.8341 25.446 98.7948 25.27 99.8654 25.27C100.569 25.27 101.222 25.3433 101.823 25.49C102.439 25.6367 103.011 25.842 103.539 26.106C104.067 26.37 104.551 26.6853 104.991 27.052L104.067 28.658ZM113.717 40.428C113.556 40.5013 113.336 40.5967 113.057 40.714C112.778 40.8313 112.456 40.934 112.089 41.022C111.722 41.11 111.334 41.154 110.923 41.154C110.454 41.154 110.021 41.0733 109.625 40.912C109.229 40.736 108.914 40.472 108.679 40.12C108.444 39.7533 108.327 39.2987 108.327 38.756V31.034H106.765V29.516H108.327V25.688H110.263V29.516H112.837V31.034H110.263V38.162C110.292 38.5727 110.432 38.8807 110.681 39.086C110.93 39.2767 111.224 39.372 111.561 39.372C111.942 39.372 112.294 39.306 112.617 39.174C112.94 39.042 113.152 38.9467 113.255 38.888L113.717 40.428ZM114.609 37.678C114.609 36.9447 114.815 36.314 115.225 35.786C115.651 35.2433 116.23 34.8253 116.963 34.532C117.697 34.2387 118.547 34.092 119.515 34.092C120.029 34.092 120.571 34.136 121.143 34.224C121.715 34.2973 122.221 34.4147 122.661 34.576V33.74C122.661 32.86 122.397 32.1707 121.869 31.672C121.341 31.1587 120.593 30.902 119.625 30.902C118.995 30.902 118.386 31.0193 117.799 31.254C117.227 31.474 116.619 31.7967 115.973 32.222L115.269 30.858C116.017 30.3447 116.765 29.9633 117.513 29.714C118.261 29.45 119.039 29.318 119.845 29.318C121.312 29.318 122.471 29.7287 123.321 30.55C124.172 31.3567 124.597 32.486 124.597 33.938V38.8C124.597 39.0347 124.641 39.2107 124.729 39.328C124.832 39.4307 124.993 39.4893 125.213 39.504V41C125.023 41.0293 124.854 41.0513 124.707 41.066C124.575 41.0807 124.465 41.088 124.377 41.088C123.923 41.088 123.578 40.9633 123.343 40.714C123.123 40.4647 122.999 40.2007 122.969 39.922L122.925 39.196C122.427 39.8413 121.774 40.34 120.967 40.692C120.161 41.044 119.361 41.22 118.569 41.22C117.807 41.22 117.125 41.066 116.523 40.758C115.922 40.4353 115.453 40.01 115.115 39.482C114.778 38.9393 114.609 38.338 114.609 37.678ZM122.089 38.492C122.265 38.2867 122.405 38.0813 122.507 37.876C122.61 37.656 122.661 37.4727 122.661 37.326V35.896C122.207 35.72 121.73 35.588 121.231 35.5C120.733 35.3973 120.241 35.346 119.757 35.346C118.775 35.346 117.975 35.544 117.359 35.94C116.758 36.3213 116.457 36.8493 116.457 37.524C116.457 37.8907 116.553 38.25 116.743 38.602C116.949 38.9393 117.242 39.218 117.623 39.438C118.019 39.658 118.503 39.768 119.075 39.768C119.677 39.768 120.249 39.6507 120.791 39.416C121.334 39.1667 121.767 38.8587 122.089 38.492ZM133.765 31.21C132.797 31.2247 131.939 31.474 131.191 31.958C130.458 32.4273 129.937 33.08 129.629 33.916V41H127.693V29.516H129.497V32.178C129.893 31.386 130.414 30.748 131.059 30.264C131.719 29.7653 132.408 29.4867 133.127 29.428C133.274 29.428 133.398 29.428 133.501 29.428C133.604 29.428 133.692 29.4353 133.765 29.45V31.21ZM141.625 40.428C141.464 40.5013 141.244 40.5967 140.965 40.714C140.686 40.8313 140.364 40.934 139.997 41.022C139.63 41.11 139.242 41.154 138.831 41.154C138.362 41.154 137.929 41.0733 137.533 40.912C137.137 40.736 136.822 40.472 136.587 40.12C136.352 39.7533 136.235 39.2987 136.235 38.756V31.034H134.673V29.516H136.235V25.688H138.171V29.516H140.745V31.034H138.171V38.162C138.2 38.5727 138.34 38.8807 138.589 39.086C138.838 39.2767 139.132 39.372 139.469 39.372C139.85 39.372 140.202 39.306 140.525 39.174C140.848 39.042 141.06 38.9467 141.163 38.888L141.625 40.428ZM148.351 41.22C147.486 41.22 146.694 41.066 145.975 40.758C145.271 40.4353 144.655 40.0027 144.127 39.46C143.614 38.9027 143.21 38.2647 142.917 37.546C142.638 36.8273 142.499 36.0647 142.499 35.258C142.499 34.1727 142.748 33.1827 143.247 32.288C143.746 31.3933 144.435 30.6747 145.315 30.132C146.21 29.5893 147.229 29.318 148.373 29.318C149.532 29.318 150.536 29.5967 151.387 30.154C152.252 30.6967 152.92 31.4153 153.389 32.31C153.873 33.19 154.115 34.1433 154.115 35.17C154.115 35.3167 154.108 35.4633 154.093 35.61C154.093 35.742 154.086 35.8447 154.071 35.918H144.545C144.604 36.666 144.809 37.3333 145.161 37.92C145.528 38.492 145.997 38.9467 146.569 39.284C147.141 39.6067 147.757 39.768 148.417 39.768C149.121 39.768 149.781 39.592 150.397 39.24C151.028 38.888 151.46 38.426 151.695 37.854L153.367 38.316C153.118 38.8733 152.744 39.372 152.245 39.812C151.761 40.252 151.182 40.5967 150.507 40.846C149.847 41.0953 149.128 41.22 148.351 41.22ZM144.479 34.576H152.311C152.252 33.828 152.04 33.168 151.673 32.596C151.306 32.024 150.837 31.5767 150.265 31.254C149.693 30.9313 149.062 30.77 148.373 30.77C147.698 30.77 147.075 30.9313 146.503 31.254C145.931 31.5767 145.462 32.024 145.095 32.596C144.743 33.168 144.538 33.828 144.479 34.576ZM155.519 35.28C155.519 34.1947 155.739 33.2047 156.179 32.31C156.634 31.4007 157.25 30.6747 158.027 30.132C158.819 29.5893 159.721 29.318 160.733 29.318C161.657 29.318 162.486 29.56 163.219 30.044C163.952 30.528 164.524 31.1147 164.935 31.804V24.94H166.871V38.8C166.871 39.0347 166.915 39.2107 167.003 39.328C167.106 39.4307 167.267 39.4893 167.487 39.504V41C167.12 41.0587 166.834 41.088 166.629 41.088C166.248 41.088 165.91 40.956 165.617 40.692C165.338 40.428 165.199 40.1347 165.199 39.812V38.844C164.744 39.5773 164.136 40.1567 163.373 40.582C162.61 41.0073 161.818 41.22 160.997 41.22C160.205 41.22 159.472 41.066 158.797 40.758C158.137 40.4353 157.558 39.9953 157.059 39.438C156.575 38.8807 156.194 38.25 155.915 37.546C155.651 36.8273 155.519 36.072 155.519 35.28ZM164.935 36.974V33.674C164.759 33.1753 164.473 32.728 164.077 32.332C163.681 31.9213 163.234 31.5987 162.735 31.364C162.251 31.1147 161.767 30.99 161.283 30.99C160.711 30.99 160.19 31.1147 159.721 31.364C159.266 31.5987 158.87 31.9213 158.533 32.332C158.21 32.728 157.961 33.1827 157.785 33.696C157.609 34.2093 157.521 34.7447 157.521 35.302C157.521 35.874 157.616 36.4167 157.807 36.93C158.012 37.4433 158.291 37.898 158.643 38.294C159.01 38.69 159.428 38.998 159.897 39.218C160.381 39.438 160.902 39.548 161.459 39.548C161.811 39.548 162.17 39.482 162.537 39.35C162.918 39.218 163.278 39.0347 163.615 38.8C163.952 38.5653 164.238 38.294 164.473 37.986C164.708 37.6633 164.862 37.326 164.935 36.974Z" fill="black"/>
<rect x="0.5" y="0.5" width="210" height="65" rx="32.5" stroke="black"/>
<rect x="238" width="211" height="66" rx="33" fill="black"/>
<path d="M290.474 39.24V41H279.87V25.38H290.276V27.14H281.85V32.2H289.176V33.85H281.85V39.24H290.474ZM293.74 29.516L296.776 33.74L296.952 34.092L297.15 33.74L300.164 29.516H302.32L298.074 35.28L302.342 41H300.186L297.15 36.798L296.952 36.468L296.776 36.798L293.74 41H291.584L295.852 35.28L291.606 29.516H293.74ZM310.344 41.22C309.405 41.22 308.569 40.9853 307.836 40.516C307.102 40.0467 306.523 39.4527 306.098 38.734V45.686H304.162V29.516H305.878V31.672C306.332 30.968 306.926 30.4033 307.66 29.978C308.393 29.538 309.192 29.318 310.058 29.318C310.85 29.318 311.576 29.4793 312.236 29.802C312.896 30.1247 313.468 30.5647 313.952 31.122C314.436 31.6793 314.81 32.3173 315.074 33.036C315.352 33.74 315.492 34.4807 315.492 35.258C315.492 36.3433 315.272 37.3407 314.832 38.25C314.406 39.1593 313.805 39.8853 313.028 40.428C312.25 40.956 311.356 41.22 310.344 41.22ZM309.75 39.548C310.322 39.548 310.835 39.4307 311.29 39.196C311.759 38.9467 312.155 38.624 312.478 38.228C312.815 37.8173 313.072 37.3553 313.248 36.842C313.424 36.3287 313.512 35.8007 313.512 35.258C313.512 34.686 313.409 34.1433 313.204 33.63C313.013 33.1167 312.734 32.662 312.368 32.266C312.016 31.87 311.598 31.562 311.114 31.342C310.644 31.1073 310.131 30.99 309.574 30.99C309.222 30.99 308.855 31.056 308.474 31.188C308.107 31.32 307.755 31.5107 307.418 31.76C307.08 31.9947 306.794 32.266 306.56 32.574C306.325 32.882 306.171 33.212 306.098 33.564V36.842C306.318 37.3407 306.611 37.7953 306.978 38.206C307.344 38.6167 307.77 38.9467 308.254 39.196C308.738 39.4307 309.236 39.548 309.75 39.548ZM317.913 24.94H319.849V38.03C319.849 38.6607 319.937 39.0493 320.113 39.196C320.289 39.3427 320.501 39.416 320.751 39.416C321.059 39.416 321.352 39.3867 321.631 39.328C321.909 39.2547 322.144 39.1813 322.335 39.108L322.643 40.692C322.32 40.824 321.939 40.934 321.499 41.022C321.059 41.11 320.67 41.154 320.333 41.154C319.585 41.154 318.991 40.9413 318.551 40.516C318.125 40.0907 317.913 39.4967 317.913 38.734V24.94ZM329.18 41.22C328.314 41.22 327.53 41.066 326.826 40.758C326.122 40.4353 325.513 40.0027 325 39.46C324.486 38.9027 324.09 38.2647 323.812 37.546C323.533 36.8273 323.394 36.072 323.394 35.28C323.394 34.4733 323.533 33.7107 323.812 32.992C324.09 32.2733 324.486 31.6427 325 31.1C325.513 30.5427 326.122 30.11 326.826 29.802C327.544 29.4793 328.329 29.318 329.18 29.318C330.045 29.318 330.83 29.4793 331.534 29.802C332.238 30.11 332.846 30.5427 333.36 31.1C333.888 31.6427 334.291 32.2733 334.57 32.992C334.848 33.7107 334.988 34.4733 334.988 35.28C334.988 36.072 334.848 36.8273 334.57 37.546C334.291 38.2647 333.895 38.9027 333.382 39.46C332.868 40.0027 332.252 40.4353 331.534 40.758C330.83 41.066 330.045 41.22 329.18 41.22ZM325.374 35.302C325.374 36.094 325.542 36.8127 325.88 37.458C326.232 38.1033 326.694 38.6167 327.266 38.998C327.838 39.3647 328.476 39.548 329.18 39.548C329.884 39.548 330.522 39.3573 331.094 38.976C331.68 38.5947 332.142 38.0813 332.48 37.436C332.832 36.776 333.008 36.05 333.008 35.258C333.008 34.466 332.832 33.7473 332.48 33.102C332.142 32.4567 331.68 31.9433 331.094 31.562C330.522 31.1807 329.884 30.99 329.18 30.99C328.476 30.99 327.838 31.188 327.266 31.584C326.694 31.9653 326.232 32.4787 325.88 33.124C325.542 33.7693 325.374 34.4953 325.374 35.302ZM343.405 31.21C342.437 31.2247 341.579 31.474 340.831 31.958C340.098 32.4273 339.577 33.08 339.269 33.916V41H337.333V29.516H339.137V32.178C339.533 31.386 340.054 30.748 340.699 30.264C341.359 29.7653 342.049 29.4867 342.767 29.428C342.914 29.428 343.039 29.428 343.141 29.428C343.244 29.428 343.332 29.4353 343.405 29.45V31.21ZM350.128 41.22C349.263 41.22 348.471 41.066 347.752 40.758C347.048 40.4353 346.432 40.0027 345.904 39.46C345.391 38.9027 344.988 38.2647 344.694 37.546C344.416 36.8273 344.276 36.0647 344.276 35.258C344.276 34.1727 344.526 33.1827 345.024 32.288C345.523 31.3933 346.212 30.6747 347.092 30.132C347.987 29.5893 349.006 29.318 350.15 29.318C351.309 29.318 352.314 29.5967 353.164 30.154C354.03 30.6967 354.697 31.4153 355.166 32.31C355.65 33.19 355.892 34.1433 355.892 35.17C355.892 35.3167 355.885 35.4633 355.87 35.61C355.87 35.742 355.863 35.8447 355.848 35.918H346.322C346.381 36.666 346.586 37.3333 346.938 37.92C347.305 38.492 347.774 38.9467 348.346 39.284C348.918 39.6067 349.534 39.768 350.194 39.768C350.898 39.768 351.558 39.592 352.174 39.24C352.805 38.888 353.238 38.426 353.472 37.854L355.144 38.316C354.895 38.8733 354.521 39.372 354.022 39.812C353.538 40.252 352.959 40.5967 352.284 40.846C351.624 41.0953 350.906 41.22 350.128 41.22ZM346.256 34.576H354.088C354.03 33.828 353.817 33.168 353.45 32.596C353.084 32.024 352.614 31.5767 352.042 31.254C351.47 30.9313 350.84 30.77 350.15 30.77C349.476 30.77 348.852 30.9313 348.28 31.254C347.708 31.5767 347.239 32.024 346.872 32.596C346.52 33.168 346.315 33.828 346.256 34.576ZM377.425 41V29.076L372.277 38.25H371.067L365.897 29.076V41H363.917V25.38H366.007L371.661 35.522L377.337 25.38H379.405V41H377.425ZM387.66 41.22C386.795 41.22 386.01 41.066 385.306 40.758C384.602 40.4353 383.993 40.0027 383.48 39.46C382.967 38.9027 382.571 38.2647 382.292 37.546C382.013 36.8273 381.874 36.072 381.874 35.28C381.874 34.4733 382.013 33.7107 382.292 32.992C382.571 32.2733 382.967 31.6427 383.48 31.1C383.993 30.5427 384.602 30.11 385.306 29.802C386.025 29.4793 386.809 29.318 387.66 29.318C388.525 29.318 389.31 29.4793 390.014 29.802C390.718 30.11 391.327 30.5427 391.84 31.1C392.368 31.6427 392.771 32.2733 393.05 32.992C393.329 33.7107 393.468 34.4733 393.468 35.28C393.468 36.072 393.329 36.8273 393.05 37.546C392.771 38.2647 392.375 38.9027 391.862 39.46C391.349 40.0027 390.733 40.4353 390.014 40.758C389.31 41.066 388.525 41.22 387.66 41.22ZM383.854 35.302C383.854 36.094 384.023 36.8127 384.36 37.458C384.712 38.1033 385.174 38.6167 385.746 38.998C386.318 39.3647 386.956 39.548 387.66 39.548C388.364 39.548 389.002 39.3573 389.574 38.976C390.161 38.5947 390.623 38.0813 390.96 37.436C391.312 36.776 391.488 36.05 391.488 35.258C391.488 34.466 391.312 33.7473 390.96 33.102C390.623 32.4567 390.161 31.9433 389.574 31.562C389.002 31.1807 388.364 30.99 387.66 30.99C386.956 30.99 386.318 31.188 385.746 31.584C385.174 31.9653 384.712 32.4787 384.36 33.124C384.023 33.7693 383.854 34.4953 383.854 35.302ZM401.886 31.21C400.918 31.2247 400.06 31.474 399.312 31.958C398.579 32.4273 398.058 33.08 397.75 33.916V41H395.814V29.516H397.618V32.178C398.014 31.386 398.535 30.748 399.18 30.264C399.84 29.7653 400.529 29.4867 401.248 29.428C401.395 29.428 401.519 29.428 401.622 29.428C401.725 29.428 401.813 29.4353 401.886 29.45V31.21ZM408.609 41.22C407.744 41.22 406.952 41.066 406.233 40.758C405.529 40.4353 404.913 40.0027 404.385 39.46C403.872 38.9027 403.468 38.2647 403.175 37.546C402.896 36.8273 402.757 36.0647 402.757 35.258C402.757 34.1727 403.006 33.1827 403.505 32.288C404.004 31.3933 404.693 30.6747 405.573 30.132C406.468 29.5893 407.487 29.318 408.631 29.318C409.79 29.318 410.794 29.5967 411.645 30.154C412.51 30.6967 413.178 31.4153 413.647 32.31C414.131 33.19 414.373 34.1433 414.373 35.17C414.373 35.3167 414.366 35.4633 414.351 35.61C414.351 35.742 414.344 35.8447 414.329 35.918H404.803C404.862 36.666 405.067 37.3333 405.419 37.92C405.786 38.492 406.255 38.9467 406.827 39.284C407.399 39.6067 408.015 39.768 408.675 39.768C409.379 39.768 410.039 39.592 410.655 39.24C411.286 38.888 411.718 38.426 411.953 37.854L413.625 38.316C413.376 38.8733 413.002 39.372 412.503 39.812C412.019 40.252 411.44 40.5967 410.765 40.846C410.105 41.0953 409.386 41.22 408.609 41.22ZM404.737 34.576H412.569C412.51 33.828 412.298 33.168 411.931 32.596C411.564 32.024 411.095 31.5767 410.523 31.254C409.951 30.9313 409.32 30.77 408.631 30.77C407.956 30.77 407.333 30.9313 406.761 31.254C406.189 31.5767 405.72 32.024 405.353 32.596C405.001 33.168 404.796 33.828 404.737 34.576Z" fill="white"/>
</svg>
