<svg width="78" height="78" viewBox="0 0 78 78" fill="none" xmlns="http://www.w3.org/2000/svg">
<path d="M58.5 58.4998C69.2696 47.7302 69.2696 30.2693 58.5 19.4998C47.7304 8.7302 30.2696 8.7302 19.5 19.4998C8.73045 30.2693 8.73045 47.7302 19.5 58.4998C30.2696 69.2693 47.7304 69.2693 58.5 58.4998Z" fill="#79E777"/>
<path d="M39.0029 67.3938C23.3526 67.3938 10.6245 54.6441 10.6245 38.9938C10.6245 23.3435 23.3526 10.6155 39.0029 10.6155C54.6532 10.6155 67.3812 23.3435 67.3812 38.9938C67.3812 54.6441 54.6532 67.3938 39.0029 67.3938ZM39.0029 12.239C24.2617 12.239 12.248 24.2527 12.248 38.9938C12.248 53.735 24.2617 65.7703 39.0029 65.7703C53.7657 65.7703 65.7577 53.7566 65.7577 39.0155C65.7577 24.2743 53.7657 12.239 39.0029 12.239Z" fill="black"/>
<path d="M39.3277 51.0943L28.8942 36.3748C27.1625 33.9288 27.7036 30.5303 30.0847 28.7553C32.4658 26.9803 35.7993 27.5215 37.5094 29.9675L39.3277 32.5218L41.146 29.9675C42.8777 27.5215 46.1896 26.9803 48.5707 28.7553C50.9518 30.5303 51.4713 33.9288 49.7612 36.3748L39.3277 51.0943Z" fill="#79E777"/>
<path d="M39.3275 51.9169C39.0678 51.9169 38.808 51.7871 38.6565 51.5706L28.2229 36.8511C26.2531 34.0587 26.8592 30.1407 29.5867 28.1276C30.9071 27.1535 32.5306 26.7422 34.1324 27.002C35.7559 27.2618 37.1845 28.1493 38.1586 29.513L39.3059 31.1364L40.4531 29.513C41.4272 28.1493 42.8559 27.2618 44.4793 27.002C46.1028 26.7422 47.7046 27.1535 49.0251 28.1276C51.7525 30.1624 52.3586 34.0587 50.3888 36.8511L39.9553 51.5706C39.847 51.7871 39.6089 51.9169 39.3275 51.9169ZM33.2016 28.5389C32.2708 28.5389 31.34 28.8419 30.5607 29.4264C28.526 30.92 28.0931 33.8422 29.565 35.9203L39.3275 49.709L49.09 35.9203C50.562 33.8422 50.1074 30.9416 48.0943 29.4264C47.1202 28.7121 45.9513 28.409 44.7607 28.6038C43.5702 28.7986 42.5095 29.448 41.7952 30.4654L39.9769 33.0197C39.8254 33.2361 39.5873 33.366 39.3059 33.366C39.0461 33.366 38.7864 33.2361 38.6348 33.0197L36.8165 30.4654C36.1022 29.4697 35.0632 28.7986 33.851 28.6038C33.6778 28.5605 33.4397 28.5389 33.2016 28.5389Z" fill="black"/>
</svg>
