<svg width="105" height="105" viewBox="0 0 105 105" fill="none" xmlns="http://www.w3.org/2000/svg">
<path d="M60.2155 96.5638C84.6969 92.178 100.986 68.7838 96.5988 44.3113C92.2114 19.8388 68.8087 3.55533 44.3274 7.94113C19.846 12.3269 3.55668 35.7212 7.94407 60.1937C12.3315 84.6661 35.7342 100.95 60.2155 96.5638Z" fill="#79E777"/>
<path d="M52.282 98.0399C27.0366 98.0399 6.49634 77.507 6.49634 52.2708C6.49634 27.0346 27.0366 6.50171 52.282 6.50171C77.5274 6.50171 98.0677 27.0346 98.0677 52.2708C98.0677 77.507 77.5274 98.0399 52.282 98.0399ZM52.282 7.98387C27.8472 7.98387 7.97903 27.8448 7.97903 52.2708C7.97903 76.6968 27.8472 96.5577 52.282 96.5577C76.7168 96.5577 96.585 76.6968 96.585 52.2708C96.585 27.8448 76.7168 7.98387 52.282 7.98387Z" fill="black"/>
<path d="M51.0366 97.1111C47.7747 97.1111 44.5523 96.6961 41.409 95.8266C40.1437 95.4708 38.8785 95.0558 37.6528 94.542C39.0169 85.7084 41.0927 77.0525 43.7813 68.5944C45.0466 64.6222 47.063 60.1164 51.1157 59.2073C53.8439 58.5947 56.7104 59.899 58.6478 61.9148C60.5852 63.9305 61.7318 66.5391 62.7203 69.1477C65.745 77.0328 67.7416 85.2934 68.6906 93.6725C63.1354 95.8266 56.9476 97.1111 51.0366 97.1111Z" fill="#CBE7FF"/>
<path d="M37.0596 95.0362C36.9608 95.0362 36.862 95.0164 36.7631 94.9769C36.7236 94.9571 36.6643 94.9374 36.6247 94.9176L36.5654 94.8978C36.2689 94.7595 36.1107 94.4433 36.1503 94.1271C37.376 85.6491 39.3529 77.3886 42.002 69.6221C43.4847 65.2942 46.0152 59.405 50.9377 58.2786C53.9229 57.5869 57.3232 58.9703 59.8536 61.8753C62.1073 64.4642 63.4121 67.7842 64.5192 70.9857C66.9904 78.1791 68.6312 85.8072 69.4022 93.6528C69.4418 94.0678 69.1452 94.4235 68.7301 94.463C68.3347 94.5026 67.9591 94.2061 67.9195 93.7911C67.1683 86.0641 65.5472 78.5545 63.1156 71.4599C62.0678 68.3968 60.8224 65.2546 58.7268 62.8437C56.572 60.3536 53.7252 59.1679 51.2738 59.7212C47.0629 60.6896 44.7697 66.1044 43.4056 70.0964C40.8356 77.6455 38.8982 85.6689 37.6725 93.9097C37.8109 94.1073 37.8306 94.384 37.7318 94.6211C37.6132 94.8583 37.3562 95.0362 37.0596 95.0362Z" fill="black"/>
<g opacity="0.1294">
<path d="M41.3101 41.5202C41.745 40.2752 43.623 40.1764 44.2359 41.3226C44.8092 42.7059 44.2161 44.2869 44.3743 45.7493C44.2952 46.0062 45.0069 48.6741 45.4418 49.2274C45.5802 49.4843 45.3232 49.1088 45.2243 48.9903C45.343 49.1286 45.5407 49.4053 45.6593 49.5634C45.7186 49.6424 45.7779 49.7017 45.8372 49.7808C46.8257 50.7689 47.8537 51.6977 48.8817 52.6463C50.7202 53.6937 50.3051 53.4368 51.8669 53.9901C52.282 54.1087 52.6774 54.2075 53.0925 54.2865C53.1321 54.2865 53.1518 54.2865 53.1914 54.2865C54.5752 54.2272 55.9591 54.3656 57.3429 54.247C57.4022 54.247 57.4418 54.2272 57.4813 54.2272C58.2128 54.1087 58.964 53.9308 59.6164 54.3458C61.1584 55.1758 60.8223 57.6658 59.1221 58.0809C57.2441 58.5354 55.3265 59.148 53.3891 58.9702C50.9772 58.7528 48.763 57.6066 46.707 56.4208C41.0926 53.5356 39.6494 46.1445 41.3101 41.5202Z" fill="black"/>
</g>
<path d="M52.5588 59.2271C50.6214 59.2271 48.7434 58.8911 47.0432 58.2192C43.4057 56.7963 40.5786 53.753 39.6495 50.3144C39.3727 49.2472 39.2146 48.0615 39.2343 46.6781C39.2343 43.2 40.124 40.0183 41.7846 37.4492C43.8999 34.2082 46.8653 32.153 49.9295 31.8566C53.0531 31.5404 56.3743 32.568 59.0629 34.6628C61.4155 36.5006 63.254 39.1488 64.4204 42.2909C65.1123 44.1486 65.4089 45.8284 65.3693 47.4291C65.3298 48.7334 65.0728 50.097 64.539 51.6187C63.689 54.0494 62.5028 55.7885 60.9212 56.9149C60.1502 57.4683 59.2408 57.903 58.0744 58.2983C56.2557 58.9307 54.3973 59.2271 52.5588 59.2271ZM50.0679 33.3387C46.3711 33.7142 43.8999 36.9157 43.0301 38.2792C41.5276 40.5914 40.717 43.4964 40.717 46.6979C40.717 47.9429 40.8356 49.0101 41.0926 49.9586C41.9032 52.9625 44.3941 55.5909 47.5968 56.8556C50.5819 58.0414 54.2392 58.0611 57.6 56.9347C58.628 56.579 59.4188 56.2035 60.0514 55.7489C61.3759 54.8004 62.3841 53.2984 63.1354 51.1641C63.6098 49.8006 63.8668 48.5753 63.8866 47.4291C63.9262 46.026 63.6296 44.5241 63.0168 42.8245C61.9492 39.9195 60.2688 37.5085 58.1338 35.8485C55.7614 33.9711 52.8158 33.062 50.0679 33.3387Z" fill="black"/>
<g opacity="0.1294">
<path d="M17.2509 80.3725C18.8325 79.088 19.8802 80.8666 21.4025 81.7361C24.0318 83.6135 26.6611 85.5107 29.5474 86.9533C32.0186 88.2971 34.47 88.9493 38.068 89.7793C42.1998 90.9057 44.1372 91.1626 47.9131 91.4986C50.6808 91.795 51.9065 92.1112 53.745 92.2495C54.0613 92.2891 54.3974 92.2891 54.7533 92.2891C55.544 92.1903 56.3348 92.0915 57.1058 92.0124C58.5094 91.8345 59.9328 91.6567 61.3364 91.4788C66.7532 90.4512 71.5571 89.3247 75.7482 86.558C78.1996 85.1154 78.9113 84.4435 80.8685 82.9218C81.7383 82.329 82.5686 81.4594 83.6164 81.2421C85.3166 80.9259 86.1864 83.4159 84.6642 84.2657C81.3825 86.3604 77.2111 90.2733 72.4665 92.21C71.656 92.5657 70.8454 92.8819 70.0151 93.1586C69.8372 93.5539 69.5209 93.87 69.1255 94.0479C68.9871 94.3048 68.7697 94.542 68.4533 94.7198C64.025 97.5458 58.5687 98.0003 53.4485 98.356C50.5622 98.5734 47.5375 98.6525 44.8093 97.5656C44.5721 97.4865 43.979 97.2296 43.7615 97.1308C43.8011 97.1506 43.8604 97.1703 43.9395 97.2098C43.5243 97.0913 43.1487 96.8146 42.9312 96.4391C42.9114 96.4193 42.9115 96.3996 42.9115 96.3798C42.3975 96.3403 41.8637 96.281 41.3497 96.2217C39.4123 96.0241 37.5144 95.5498 35.7352 94.7198C35.0235 94.3443 34.1141 94.1665 33.6001 93.5341C33.3036 93.1981 33.2245 92.7634 33.2838 92.3681C29.923 91.3405 26.7995 89.6607 23.8934 87.724C22.4107 86.7359 18.9115 84.1076 18.6743 83.7716C18.0812 83.238 17.2312 82.8428 16.8951 82.0918C16.6381 81.5385 16.816 80.8073 17.2509 80.3725Z" fill="black"/>
</g>
</svg>
