<svg width="247" height="156" viewBox="0 0 247 156" fill="none" xmlns="http://www.w3.org/2000/svg">
<g opacity="0.9294">
<path d="M212.678 94.1863C212.678 60.9069 185.693 33.9119 152.382 33.9119H61.0278C27.7363 33.9119 0.731445 60.8872 0.731445 94.1863C0.731445 127.466 27.7165 154.461 61.0278 154.461H152.382C185.693 154.461 212.678 127.466 212.678 94.1863Z" fill="#79E777"/>
<path d="M195.222 155.192H18.2075C8.16471 155.192 0 147.03 0 136.991V51.3618C0 41.3227 8.16471 33.1609 18.2075 33.1609H195.222C205.264 33.1609 213.429 41.3227 213.429 51.3618V136.991C213.429 147.03 205.264 155.192 195.222 155.192ZM18.2075 34.6628C8.99502 34.6628 1.4827 42.1527 1.4827 51.3816V137.011C1.4827 146.22 8.97525 153.73 18.2075 153.73H195.222C204.434 153.73 211.946 146.24 211.946 137.011V51.3816C211.946 42.1724 204.454 34.6628 195.222 34.6628H18.2075Z" fill="black"/>
<path d="M182.332 62.0532H101.219C100.804 62.0532 100.468 61.7172 100.468 61.3022C100.468 60.8872 100.804 60.5513 101.219 60.5513H182.312C182.728 60.5513 183.064 60.8872 183.064 61.3022C183.064 61.7172 182.747 62.0532 182.332 62.0532Z" fill="black"/>
<path d="M182.332 82.3291H117.904C117.489 82.3291 117.153 81.9931 117.153 81.5781C117.153 81.1631 117.489 80.8271 117.904 80.8271H182.332C182.747 80.8271 183.083 81.1631 183.083 81.5781C183.064 81.9931 182.747 82.3291 182.332 82.3291Z" fill="black"/>
<path d="M182.332 102.625H90.6026C90.1874 102.625 89.8513 102.289 89.8513 101.874C89.8513 101.459 90.1874 101.123 90.6026 101.123H182.332C182.747 101.123 183.083 101.459 183.083 101.874C183.063 102.289 182.747 102.625 182.332 102.625Z" fill="black"/>
<path d="M182.332 122.901H117.904C117.489 122.901 117.153 122.565 117.153 122.15C117.153 121.735 117.489 121.399 117.904 121.399H182.332C182.747 121.399 183.083 121.735 183.083 122.15C183.064 122.565 182.747 122.901 182.332 122.901Z" fill="black"/>
<path d="M90.6027 122.901H31.0972C30.682 122.901 30.3459 122.565 30.3459 122.15C30.3459 121.735 30.682 121.399 31.0972 121.399H90.6225C91.0376 121.399 91.3737 121.735 91.3737 122.15C91.354 122.565 91.0179 122.901 90.6027 122.901Z" fill="black"/>
<path d="M65.6341 102.625H31.0972C30.682 102.625 30.3459 102.289 30.3459 101.874C30.3459 101.459 30.682 101.123 31.0972 101.123H65.6341C66.0493 101.123 66.3853 101.459 66.3853 101.874C66.3656 102.289 66.0295 102.625 65.6341 102.625Z" fill="black"/>
<path d="M90.6027 82.3291H31.0972C30.682 82.3291 30.3459 81.9931 30.3459 81.5781C30.3459 81.1631 30.682 80.8271 31.0972 80.8271H90.6225C91.0376 80.8271 91.3737 81.1631 91.3737 81.5781C91.354 81.9931 91.0179 82.3291 90.6027 82.3291Z" fill="black"/>
<path d="M77.6143 62.0532H31.0972C30.682 62.0532 30.3459 61.7172 30.3459 61.3022C30.3459 60.8872 30.682 60.5513 31.0972 60.5513H77.6341C78.0492 60.5513 78.3853 60.8872 78.3853 61.3022C78.3655 61.7172 78.0294 62.0532 77.6143 62.0532Z" fill="black"/>
</g>
<path d="M205.284 81.578C227.612 81.578 245.712 63.4843 245.712 41.1645C245.712 18.8447 227.612 0.750977 205.284 0.750977C182.956 0.750977 164.856 18.8447 164.856 41.1645C164.856 63.4843 182.956 81.578 205.284 81.578Z" fill="#79E777"/>
<path d="M205.284 82.329C182.569 82.329 164.105 63.8712 164.105 41.1645C164.105 18.4578 182.569 0 205.284 0C227.999 0 246.464 18.4578 246.464 41.1645C246.464 63.8712 227.999 82.329 205.284 82.329ZM205.284 1.48216C183.4 1.48216 165.587 19.2878 165.587 41.1645C165.587 63.0412 183.4 80.8468 205.284 80.8468C227.169 80.8468 244.981 63.0412 244.981 41.1645C244.981 19.2878 227.169 1.48216 205.284 1.48216Z" fill="black"/>
<path d="M220.981 50.4724C218.905 48.2393 215.544 48.0022 213.429 49.9586C211.334 51.8953 211.294 55.2944 213.37 57.5275C215.446 59.7606 218.806 59.9978 220.922 58.0413C223.017 56.0849 223.057 52.7056 220.981 50.4724Z" fill="#79E777"/>
<path d="M217.521 60.0966C217.383 60.0966 217.245 60.0966 217.086 60.0769C215.465 59.9583 213.963 59.2271 212.836 58.0216C210.503 55.492 210.543 51.6384 212.935 49.4251C215.327 47.2117 219.182 47.4686 221.535 49.9982C222.661 51.2234 223.274 52.7846 223.254 54.4051C223.235 56.0454 222.582 57.5275 221.416 58.6145C220.368 59.563 218.984 60.0966 217.521 60.0966ZM216.849 49.3856C215.782 49.3856 214.754 49.761 213.943 50.512C212.144 52.172 212.144 55.0968 213.923 57.0335C214.793 57.9821 215.96 58.5354 217.185 58.6342C218.411 58.7133 219.558 58.318 220.408 57.5275C221.278 56.7371 221.752 55.6106 221.772 54.3854C221.772 53.1404 221.317 51.9546 220.427 51.006C219.459 49.9191 218.134 49.3856 216.849 49.3856Z" fill="black"/>
<path d="M220.961 36.1649L209.297 23.5764C205.502 19.4856 199.314 19.0509 195.459 22.6081L193.185 20.1576C191.288 18.1023 188.184 17.9047 186.266 19.6833C184.348 21.4618 184.309 24.5645 186.207 26.6198L188.48 29.0703C184.625 32.6274 184.586 38.8328 188.362 42.9235L200.026 55.512L202.2 67.8238L233.06 39.2675L220.961 36.1649Z" fill="#CBE7FF"/>
<path d="M202.22 68.5747C202.141 68.5747 202.062 68.5549 201.983 68.5351C201.726 68.4561 201.528 68.2189 201.489 67.962L199.353 55.8676L187.848 43.4372C185.891 41.3227 184.823 38.6153 184.843 35.7893C184.863 33.2202 185.792 30.8488 187.472 29.0504L185.673 27.1137C184.625 25.9873 184.052 24.5446 184.072 23.0427C184.092 21.521 184.685 20.1377 185.772 19.1298C187.986 17.0746 191.564 17.3117 193.739 19.6436L195.538 21.5803C199.709 18.28 205.976 18.8729 209.851 23.0625L221.357 35.4929L233.258 38.556C233.515 38.6153 233.732 38.8326 233.792 39.0896C233.851 39.3465 233.772 39.6231 233.574 39.8208L202.714 68.377C202.576 68.5154 202.398 68.5747 202.22 68.5747ZM189.409 19.2089C188.461 19.2089 187.512 19.5448 186.78 20.2167C186.009 20.9479 185.574 21.936 185.554 23.0427C185.554 24.1692 185.97 25.2561 186.76 26.1058L189.034 28.5564C189.311 28.8528 189.291 29.3271 188.994 29.6037C187.274 31.1847 186.325 33.3783 186.306 35.7893C186.286 38.22 187.215 40.5717 188.915 42.4096L200.579 54.9981C200.678 55.0969 200.737 55.2352 200.757 55.3736L202.694 66.3415L231.558 39.6231L220.764 36.8564C220.625 36.8169 220.507 36.7379 220.408 36.6391L208.744 24.0506C205.245 20.2563 199.512 19.861 195.953 23.1415C195.657 23.4182 195.182 23.3984 194.905 23.102L192.632 20.6515C191.762 19.7029 190.576 19.2089 189.409 19.2089Z" fill="black"/>
<g opacity="0.1294">
<path d="M182.233 75.59C179.189 72.6059 176.223 69.5428 173.337 66.4006C173.179 66.2228 173.021 66.0449 172.863 65.8868C172.111 64.4837 171.321 63.1004 170.53 61.717C169.581 59.7606 168.592 57.8041 167.624 55.8477C168.217 56.3022 168.672 57.0729 169.106 57.7844C169.265 58.061 170.055 59.1282 170.372 59.5629C172.764 62.4284 175.354 65.1556 178.26 67.5073C180.553 69.6811 186.207 72.9024 188.935 73.8114C193.66 75.1552 193.344 74.8193 197.732 75.1948C201.508 75.4912 205.264 75.9655 209.06 75.6888C214.2 75.4122 220.625 73.6928 225.409 70.9854C227.96 69.5428 230.609 68.278 233.119 66.7563C234.918 65.5706 236.362 64.3651 237.765 63.2189C239.347 61.7368 239.248 61.4799 240.889 59.1875C241.284 58.4365 241.759 57.6262 242.648 57.4089C242.965 57.3101 243.301 57.2903 243.597 57.3496C242.233 59.5234 240.889 61.6972 239.544 63.8908C237.508 66.2228 235.373 68.4757 233.179 70.6297C232.091 71.7166 230.965 72.7838 229.838 73.8312C225.647 76.1829 221.297 78.3765 216.573 79.4041C211.136 80.6294 205.541 80.7479 200.006 80.1353C197.021 79.8784 194.016 79.8784 191.09 79.2065C187.986 78.5741 185.1 77.1908 182.372 75.6295C182.312 75.6493 182.273 75.6098 182.233 75.59Z" fill="black"/>
</g>
</svg>
