<svg width="79" height="79" viewBox="0 0 79 79" fill="none" xmlns="http://www.w3.org/2000/svg">
<path d="M59.25 59.25C70.1576 48.3424 70.1576 30.6576 59.25 19.75C48.3424 8.84239 30.6576 8.84238 19.75 19.75C8.84238 30.6576 8.84238 48.3424 19.75 59.25C30.6576 70.1576 48.3424 70.1576 59.25 59.25Z" fill="#79E777"/>
<path d="M39.4972 68.2404C23.6462 68.2404 10.755 55.3492 10.755 39.4983C10.755 23.6473 23.6462 10.7561 39.4972 10.7561C55.3481 10.7561 68.2393 23.6473 68.2393 39.4983C68.2613 55.3492 55.3481 68.2404 39.4972 68.2404ZM39.4972 12.4004C24.5451 12.4004 12.3993 24.5681 12.3993 39.4983C12.3993 54.4503 24.567 66.5961 39.4972 66.5961C54.4492 66.5961 66.595 54.4284 66.595 39.4983C66.617 24.5462 54.4492 12.4004 39.4972 12.4004Z" fill="black"/>
<path d="M27.9652 54.0334V27.0452H49.5821V54.0334L39.4972 45.1543L27.9652 54.0334Z" fill="#79E777"/>
<path d="M49.5821 54.8664C49.3848 54.8664 49.1875 54.8006 49.0341 54.6691L39.4753 46.2284L28.4695 54.7129C28.2283 54.9102 27.8775 54.9322 27.6145 54.8006C27.3294 54.6691 27.1541 54.3841 27.1541 54.0552V27.045C27.1541 26.5846 27.5268 26.2119 27.9872 26.2119H49.6041C50.0645 26.2119 50.4372 26.5846 50.4372 27.045V54.0333C50.4372 54.3621 50.2399 54.6471 49.9549 54.7787C49.8014 54.8445 49.6918 54.8664 49.5821 54.8664ZM28.7764 27.8781V52.3671L38.9929 44.4964C39.2999 44.2552 39.7383 44.2772 40.0453 44.5403L48.749 52.2355V27.9001H28.7764V27.8781Z" fill="black"/>
</svg>
