<svg width="63" height="63" viewBox="0 0 63 63" fill="none" xmlns="http://www.w3.org/2000/svg">
<path d="M56.9564 37.5437C60.2942 23.4845 51.6028 9.38144 37.5436 6.04365C23.4844 2.70586 9.3814 11.3973 6.04361 25.4564C2.70581 39.5156 11.3972 53.6187 25.4564 56.9564C39.5156 60.2942 53.6186 51.6028 56.9564 37.5437Z" fill="#79E777"/>
<path d="M31.4921 58.4187C16.6446 58.4187 4.56946 46.3436 4.56946 31.4961C4.56946 16.6486 16.6446 4.57349 31.4921 4.57349C46.3396 4.57349 58.4147 16.6486 58.4147 31.4961C58.4147 46.3436 46.3396 58.4187 31.4921 58.4187ZM31.4921 6.11368C17.4866 6.11368 6.10965 17.5111 6.10965 31.4961C6.10965 45.4811 17.5071 56.8785 31.4921 56.8785C45.4976 56.8785 56.8745 45.4811 56.8745 31.4961C56.8745 17.5111 45.4976 6.11368 31.4921 6.11368Z" fill="black"/>
<path d="M31.8413 47.4932C31.5538 47.4932 31.2868 47.3289 31.1431 47.062L25.7832 36.1779L15.2688 29.4216C15.0224 29.2573 14.8786 28.9698 14.9197 28.6618C14.9608 28.3537 15.1866 28.1073 15.4742 28.0252L42.1914 20.2626C42.4789 20.1804 42.787 20.2626 42.9718 20.4885C43.1771 20.7144 43.2182 21.0224 43.1155 21.2894L32.5601 46.9798C32.4368 47.2673 32.1699 47.4522 31.8824 47.4522C31.8618 47.4932 31.8413 47.4932 31.8413 47.4932ZM17.5277 29.052L26.7895 35.0074C26.9127 35.0895 26.9948 35.1922 27.0564 35.3154L31.7592 44.8441L41.0619 22.2135L17.5277 29.052Z" fill="black"/>
<path d="M26.3786 36.4243C26.1733 36.4243 25.9679 36.3422 25.8036 36.1779C25.5161 35.8699 25.5366 35.377 25.8447 35.0895L40.4047 21.8028C40.7127 21.5153 41.2056 21.5358 41.4931 21.8438C41.7806 22.1519 41.76 22.6447 41.452 22.9322L26.892 36.219C26.7483 36.3422 26.5634 36.4243 26.3786 36.4243Z" fill="black"/>
</svg>
