<svg width="755" height="30" viewBox="0 0 755 30" fill="none" xmlns="http://www.w3.org/2000/svg">
<path d="M1.58 15V0.999999H3.98V6.88H10.94V0.999999H13.34V15H10.94V9.02H3.98V15H1.58ZM20.3019 15.18C19.3552 15.18 18.4952 14.9533 17.7219 14.5C16.9619 14.0467 16.3619 13.4333 15.9219 12.66C15.4819 11.8733 15.2619 10.9867 15.2619 10C15.2619 9.01333 15.4819 8.13333 15.9219 7.36C16.3619 6.57333 16.9619 5.95333 17.7219 5.5C18.4819 5.04667 19.3419 4.82 20.3019 4.82C21.2619 4.82 22.1152 5.04667 22.8619 5.5C23.6219 5.95333 24.2219 6.57333 24.6619 7.36C25.1019 8.13333 25.3219 9.01333 25.3219 10C25.3219 10.9867 25.1019 11.8733 24.6619 12.66C24.2219 13.4333 23.6219 14.0467 22.8619 14.5C22.1152 14.9533 21.2619 15.18 20.3019 15.18ZM20.3019 13.26C20.8485 13.26 21.3285 13.12 21.7419 12.84C22.1685 12.56 22.5019 12.1733 22.7419 11.68C22.9819 11.1733 23.1019 10.6133 23.1019 10C23.1019 9.37333 22.9819 8.82 22.7419 8.34C22.5019 7.84667 22.1685 7.46 21.7419 7.18C21.3285 6.88667 20.8485 6.74 20.3019 6.74C19.7552 6.74 19.2685 6.88667 18.8419 7.18C18.4152 7.46 18.0819 7.84667 17.8419 8.34C17.6019 8.82 17.4819 9.37333 17.4819 10C17.4819 10.6267 17.6019 11.1867 17.8419 11.68C18.0819 12.1733 18.4152 12.56 18.8419 12.84C19.2685 13.12 19.7552 13.26 20.3019 13.26ZM27.0555 15V4.98H29.3155V6.56C29.6888 5.98667 30.1221 5.55333 30.6155 5.26C31.1221 4.96667 31.6755 4.82 32.2755 4.82C32.9688 4.82 33.5688 4.99333 34.0755 5.34C34.5955 5.68667 34.9821 6.15333 35.2355 6.74C35.6355 6.11333 36.1088 5.64 36.6555 5.32C37.2155 4.98667 37.8488 4.82 38.5555 4.82C39.1955 4.82 39.7621 4.97333 40.2555 5.28C40.7621 5.58667 41.1488 6.01333 41.4155 6.56C41.6955 7.10667 41.8355 7.73333 41.8355 8.44V15H39.5755V8.94C39.5755 8.23333 39.3955 7.67333 39.0355 7.26C38.6755 6.84667 38.1821 6.64 37.5555 6.64C37.1555 6.64 36.7821 6.74 36.4355 6.94C36.1021 7.14 35.8088 7.44 35.5555 7.84C35.5688 7.93333 35.5755 8.03333 35.5755 8.14C35.5888 8.23333 35.5955 8.33333 35.5955 8.44V15H33.3155V8.94C33.3155 8.23333 33.1355 7.67333 32.7755 7.26C32.4155 6.84667 31.9221 6.64 31.2955 6.64C30.4821 6.64 29.8221 7.02667 29.3155 7.8V15H27.0555ZM48.635 15.2C47.675 15.2 46.8083 14.9733 46.035 14.52C45.2617 14.0533 44.6483 13.4333 44.195 12.66C43.7417 11.8733 43.515 10.9867 43.515 10C43.515 9.01333 43.7283 8.13333 44.155 7.36C44.5817 6.58667 45.1617 5.97333 45.895 5.52C46.6417 5.05333 47.4683 4.82 48.375 4.82C49.3083 4.82 50.1283 5.04667 50.835 5.5C51.555 5.95333 52.115 6.56667 52.515 7.34C52.9283 8.11333 53.135 9 53.135 10V10.54H45.735C45.815 11.0867 45.9883 11.5733 46.255 12C46.535 12.4133 46.8883 12.74 47.315 12.98C47.755 13.22 48.2283 13.34 48.735 13.34C49.2017 13.34 49.6417 13.26 50.055 13.1C50.4817 12.9267 50.835 12.6933 51.115 12.4L52.595 13.74C51.9817 14.2467 51.355 14.62 50.715 14.86C50.0883 15.0867 49.395 15.2 48.635 15.2ZM45.755 9.14H50.995C50.915 8.66 50.7483 8.23333 50.495 7.86C50.255 7.48667 49.9483 7.19333 49.575 6.98C49.215 6.76667 48.815 6.66 48.375 6.66C47.935 6.66 47.5283 6.76667 47.155 6.98C46.795 7.18 46.495 7.46667 46.255 7.84C46.015 8.21333 45.8483 8.64667 45.755 9.14Z" fill="white"/>
<path d="M150.12 16L155.62 2H158.4L163.82 16H161.24L159.8 12.08H154.06L152.62 16H150.12ZM154.76 10.2H159.14L156.94 4.28L154.76 10.2ZM164.745 16V1.72L167.005 1.34V7.32C167.365 6.86667 167.805 6.52 168.325 6.28C168.859 6.02667 169.445 5.9 170.085 5.9C170.939 5.9 171.705 6.12667 172.385 6.58C173.065 7.03333 173.605 7.64667 174.005 8.42C174.405 9.19333 174.605 10.0533 174.605 11C174.605 11.9467 174.399 12.8067 173.985 13.58C173.572 14.3533 173.012 14.9667 172.305 15.42C171.599 15.8733 170.812 16.1 169.945 16.1C169.345 16.1 168.792 15.98 168.285 15.74C167.779 15.5 167.339 15.16 166.965 14.72V16H164.745ZM169.405 14.22C169.979 14.22 170.485 14.08 170.925 13.8C171.379 13.52 171.732 13.14 171.985 12.66C172.252 12.1667 172.385 11.6133 172.385 11C172.385 10.3867 172.252 9.84 171.985 9.36C171.732 8.88 171.379 8.5 170.925 8.22C170.485 7.94 169.979 7.8 169.405 7.8C168.912 7.8 168.459 7.9 168.045 8.1C167.632 8.28667 167.285 8.56 167.005 8.92V13.1C167.299 13.4467 167.652 13.72 168.065 13.92C168.479 14.12 168.925 14.22 169.405 14.22ZM180.952 16.18C180.005 16.18 179.145 15.9533 178.372 15.5C177.612 15.0467 177.012 14.4333 176.572 13.66C176.132 12.8733 175.912 11.9867 175.912 11C175.912 10.0133 176.132 9.13333 176.572 8.36C177.012 7.57333 177.612 6.95333 178.372 6.5C179.132 6.04667 179.992 5.82 180.952 5.82C181.912 5.82 182.765 6.04667 183.512 6.5C184.272 6.95333 184.872 7.57333 185.312 8.36C185.752 9.13333 185.972 10.0133 185.972 11C185.972 11.9867 185.752 12.8733 185.312 13.66C184.872 14.4333 184.272 15.0467 183.512 15.5C182.765 15.9533 181.912 16.18 180.952 16.18ZM180.952 14.26C181.499 14.26 181.979 14.12 182.392 13.84C182.819 13.56 183.152 13.1733 183.392 12.68C183.632 12.1733 183.752 11.6133 183.752 11C183.752 10.3733 183.632 9.82 183.392 9.34C183.152 8.84667 182.819 8.46 182.392 8.18C181.979 7.88667 181.499 7.74 180.952 7.74C180.405 7.74 179.919 7.88667 179.492 8.18C179.065 8.46 178.732 8.84667 178.492 9.34C178.252 9.82 178.132 10.3733 178.132 11C178.132 11.6267 178.252 12.1867 178.492 12.68C178.732 13.1733 179.065 13.56 179.492 13.84C179.919 14.12 180.405 14.26 180.952 14.26ZM191.125 16.16C190.432 16.16 189.825 16.0067 189.305 15.7C188.785 15.3933 188.372 14.9733 188.065 14.44C187.772 13.9067 187.625 13.2867 187.625 12.58V5.98H189.905V11.92C189.905 12.6667 190.099 13.26 190.485 13.7C190.885 14.1267 191.425 14.34 192.105 14.34C192.559 14.34 192.965 14.24 193.325 14.04C193.699 13.84 194.019 13.54 194.285 13.14V5.98H196.545V16H194.285V14.38C193.899 14.9667 193.439 15.4133 192.905 15.72C192.372 16.0133 191.779 16.16 191.125 16.16ZM203.066 16.2C202.053 16.2 201.286 15.9667 200.766 15.5C200.246 15.02 199.986 14.32 199.986 13.4V7.78H197.986V5.98H199.986V3.22L202.246 2.74V5.98H205.026V7.78H202.246V12.9C202.246 13.3933 202.353 13.7467 202.566 13.96C202.779 14.16 203.139 14.26 203.646 14.26C203.873 14.26 204.079 14.2467 204.266 14.22C204.466 14.18 204.713 14.1133 205.006 14.02V15.92C204.726 16.0133 204.406 16.08 204.046 16.12C203.699 16.1733 203.373 16.2 203.066 16.2ZM216.2 16.22C215.013 16.22 213.973 15.9667 213.08 15.46C212.2 14.9533 211.52 14.2333 211.04 13.3C210.56 12.3667 210.32 11.2667 210.32 10V2H212.72V10C212.72 10.8267 212.86 11.54 213.14 12.14C213.433 12.74 213.84 13.2133 214.36 13.56C214.88 13.8933 215.493 14.06 216.2 14.06C216.906 14.06 217.52 13.8933 218.04 13.56C218.573 13.2133 218.98 12.74 219.26 12.14C219.54 11.54 219.68 10.8267 219.68 10V2H222.08V10C222.08 11.2667 221.84 12.3667 221.36 13.3C220.893 14.2333 220.22 14.9533 219.34 15.46C218.46 15.9667 217.413 16.22 216.2 16.22ZM227.768 16.2C226.915 16.2 226.115 16.0867 225.368 15.86C224.635 15.62 224.001 15.28 223.468 14.84L224.528 13.34C225.195 13.7533 225.768 14.0467 226.248 14.22C226.741 14.3933 227.241 14.48 227.748 14.48C228.348 14.48 228.835 14.3533 229.208 14.1C229.581 13.8467 229.768 13.52 229.768 13.12C229.768 12.8133 229.655 12.5733 229.428 12.4C229.215 12.2133 228.861 12.0733 228.368 11.98L226.608 11.68C225.635 11.4933 224.908 11.1733 224.428 10.72C223.948 10.2667 223.708 9.66667 223.708 8.92C223.708 8.29333 223.868 7.75333 224.188 7.3C224.521 6.83333 224.975 6.47333 225.548 6.22C226.135 5.95333 226.815 5.82 227.588 5.82C228.281 5.82 228.955 5.92 229.608 6.12C230.261 6.32 230.901 6.62 231.528 7.02L230.468 8.52C229.961 8.18667 229.455 7.94667 228.948 7.8C228.455 7.64 227.955 7.56 227.448 7.56C226.928 7.56 226.508 7.66667 226.188 7.88C225.881 8.08 225.728 8.36 225.728 8.72C225.728 9.04 225.828 9.28667 226.028 9.46C226.241 9.62 226.608 9.74 227.128 9.82L228.908 10.16C229.908 10.3333 230.648 10.6533 231.128 11.12C231.621 11.5733 231.868 12.18 231.868 12.94C231.868 13.5533 231.688 14.1067 231.328 14.6C230.968 15.0933 230.481 15.4867 229.868 15.78C229.255 16.06 228.555 16.2 227.768 16.2Z" fill="#686868"/>
<path d="M308.26 18.22C307.247 18.22 306.3 18.04 305.42 17.68C304.54 17.3067 303.767 16.7933 303.1 16.14C302.447 15.4733 301.933 14.7067 301.56 13.84C301.2 12.96 301.02 12.0133 301.02 11C301.02 9.98667 301.2 9.04667 301.56 8.18C301.933 7.3 302.447 6.53333 303.1 5.88C303.767 5.21333 304.54 4.7 305.42 4.34C306.3 3.96667 307.247 3.78 308.26 3.78C308.98 3.78 309.673 3.88 310.34 4.08C311.007 4.28 311.627 4.56667 312.2 4.94C312.787 5.3 313.293 5.74667 313.72 6.28L312.12 7.84C311.627 7.21333 311.047 6.74 310.38 6.42C309.713 6.1 309.007 5.94 308.26 5.94C307.58 5.94 306.947 6.06667 306.36 6.32C305.787 6.57333 305.28 6.93333 304.84 7.4C304.413 7.85333 304.08 8.38667 303.84 9C303.6 9.61333 303.48 10.28 303.48 11C303.48 11.72 303.6 12.3867 303.84 13C304.08 13.6133 304.413 14.1533 304.84 14.62C305.28 15.0733 305.787 15.4267 306.36 15.68C306.947 15.9333 307.58 16.06 308.26 16.06C309.007 16.06 309.713 15.9 310.38 15.58C311.047 15.2467 311.627 14.7733 312.12 14.16L313.72 15.72C313.293 16.24 312.787 16.6867 312.2 17.06C311.627 17.4333 311.007 17.72 310.34 17.92C309.673 18.12 308.98 18.22 308.26 18.22ZM319.54 18.18C318.593 18.18 317.733 17.9533 316.96 17.5C316.2 17.0467 315.6 16.4333 315.16 15.66C314.72 14.8733 314.5 13.9867 314.5 13C314.5 12.0133 314.72 11.1333 315.16 10.36C315.6 9.57333 316.2 8.95333 316.96 8.5C317.72 8.04667 318.58 7.82 319.54 7.82C320.5 7.82 321.353 8.04667 322.1 8.5C322.86 8.95333 323.46 9.57333 323.9 10.36C324.34 11.1333 324.56 12.0133 324.56 13C324.56 13.9867 324.34 14.8733 323.9 15.66C323.46 16.4333 322.86 17.0467 322.1 17.5C321.353 17.9533 320.5 18.18 319.54 18.18ZM319.54 16.26C320.087 16.26 320.567 16.12 320.98 15.84C321.407 15.56 321.74 15.1733 321.98 14.68C322.22 14.1733 322.34 13.6133 322.34 13C322.34 12.3733 322.22 11.82 321.98 11.34C321.74 10.8467 321.407 10.46 320.98 10.18C320.567 9.88667 320.087 9.74 319.54 9.74C318.993 9.74 318.507 9.88667 318.08 10.18C317.653 10.46 317.32 10.8467 317.08 11.34C316.84 11.82 316.72 12.3733 316.72 13C316.72 13.6267 316.84 14.1867 317.08 14.68C317.32 15.1733 317.653 15.56 318.08 15.84C318.507 16.12 318.993 16.26 319.54 16.26ZM326.294 18V3.66L328.554 3.26V18H326.294ZM330.733 18V3.66L332.993 3.26V18H330.733ZM339.832 18.2C338.872 18.2 338.005 17.9733 337.232 17.52C336.459 17.0533 335.845 16.4333 335.392 15.66C334.939 14.8733 334.712 13.9867 334.712 13C334.712 12.0133 334.925 11.1333 335.352 10.36C335.779 9.58667 336.359 8.97333 337.092 8.52C337.839 8.05333 338.665 7.82 339.572 7.82C340.505 7.82 341.325 8.04667 342.032 8.5C342.752 8.95333 343.312 9.56667 343.712 10.34C344.125 11.1133 344.332 12 344.332 13V13.54H336.932C337.012 14.0867 337.185 14.5733 337.452 15C337.732 15.4133 338.085 15.74 338.512 15.98C338.952 16.22 339.425 16.34 339.932 16.34C340.399 16.34 340.839 16.26 341.252 16.1C341.679 15.9267 342.032 15.6933 342.312 15.4L343.792 16.74C343.179 17.2467 342.552 17.62 341.912 17.86C341.285 18.0867 340.592 18.2 339.832 18.2ZM336.952 12.14H342.192C342.112 11.66 341.945 11.2333 341.692 10.86C341.452 10.4867 341.145 10.1933 340.772 9.98C340.412 9.76667 340.012 9.66 339.572 9.66C339.132 9.66 338.725 9.76667 338.352 9.98C337.992 10.18 337.692 10.4667 337.452 10.84C337.212 11.2133 337.045 11.6467 336.952 12.14ZM350.676 18.18C349.729 18.18 348.869 17.9533 348.096 17.5C347.336 17.0333 346.729 16.4067 346.276 15.62C345.836 14.8333 345.616 13.96 345.616 13C345.616 12.0267 345.836 11.1533 346.276 10.38C346.729 9.59333 347.336 8.97333 348.096 8.52C348.869 8.05333 349.729 7.82 350.676 7.82C351.449 7.82 352.182 7.96667 352.876 8.26C353.582 8.55333 354.182 8.97333 354.676 9.52L353.276 10.98C352.929 10.5933 352.542 10.3 352.116 10.1C351.689 9.9 351.236 9.8 350.756 9.8C350.209 9.8 349.716 9.94667 349.276 10.24C348.849 10.52 348.509 10.9 348.256 11.38C348.002 11.86 347.876 12.4 347.876 13C347.876 13.6 348.002 14.1467 348.256 14.64C348.509 15.12 348.849 15.5 349.276 15.78C349.716 16.06 350.209 16.2 350.756 16.2C351.236 16.2 351.689 16.1 352.116 15.9C352.542 15.7 352.929 15.4133 353.276 15.04L354.676 16.48C354.182 17.0267 353.582 17.4467 352.876 17.74C352.182 18.0333 351.449 18.18 350.676 18.18ZM360.46 18.2C359.447 18.2 358.68 17.9667 358.16 17.5C357.64 17.02 357.38 16.32 357.38 15.4V9.78H355.38V7.98H357.38V5.22L359.64 4.74V7.98H362.42V9.78H359.64V14.9C359.64 15.3933 359.747 15.7467 359.96 15.96C360.173 16.16 360.533 16.26 361.04 16.26C361.267 16.26 361.473 16.2467 361.66 16.22C361.86 16.18 362.107 16.1133 362.4 16.02V17.92C362.12 18.0133 361.8 18.08 361.44 18.12C361.093 18.1733 360.767 18.2 360.46 18.2ZM363.801 18V7.98H366.061V18H363.801ZM364.941 5.94C364.554 5.94 364.221 5.80667 363.941 5.54C363.674 5.26 363.541 4.93333 363.541 4.56C363.541 4.17333 363.674 3.84667 363.941 3.58C364.221 3.3 364.554 3.16 364.941 3.16C365.328 3.16 365.654 3.3 365.921 3.58C366.201 3.84667 366.341 4.16667 366.341 4.54C366.341 4.92667 366.201 5.26 365.921 5.54C365.654 5.80667 365.328 5.94 364.941 5.94ZM372.84 18.18C371.893 18.18 371.033 17.9533 370.26 17.5C369.5 17.0467 368.9 16.4333 368.46 15.66C368.02 14.8733 367.8 13.9867 367.8 13C367.8 12.0133 368.02 11.1333 368.46 10.36C368.9 9.57333 369.5 8.95333 370.26 8.5C371.02 8.04667 371.88 7.82 372.84 7.82C373.8 7.82 374.653 8.04667 375.4 8.5C376.16 8.95333 376.76 9.57333 377.2 10.36C377.64 11.1333 377.86 12.0133 377.86 13C377.86 13.9867 377.64 14.8733 377.2 15.66C376.76 16.4333 376.16 17.0467 375.4 17.5C374.653 17.9533 373.8 18.18 372.84 18.18ZM372.84 16.26C373.387 16.26 373.867 16.12 374.28 15.84C374.707 15.56 375.04 15.1733 375.28 14.68C375.52 14.1733 375.64 13.6133 375.64 13C375.64 12.3733 375.52 11.82 375.28 11.34C375.04 10.8467 374.707 10.46 374.28 10.18C373.867 9.88667 373.387 9.74 372.84 9.74C372.293 9.74 371.807 9.88667 371.38 10.18C370.953 10.46 370.62 10.8467 370.38 11.34C370.14 11.82 370.02 12.3733 370.02 13C370.02 13.6267 370.14 14.1867 370.38 14.68C370.62 15.1733 370.953 15.56 371.38 15.84C371.807 16.12 372.293 16.26 372.84 16.26ZM379.594 18V7.98H381.854V9.62C382.24 9.02 382.7 8.57333 383.234 8.28C383.767 7.97333 384.36 7.82 385.014 7.82C385.707 7.82 386.314 7.97333 386.834 8.28C387.354 8.57333 387.76 8.98667 388.054 9.52C388.36 10.0533 388.514 10.68 388.514 11.4V18H386.234V12.04C386.234 11.3067 386.034 10.7267 385.634 10.3C385.234 9.86 384.7 9.64 384.034 9.64C383.58 9.64 383.167 9.74667 382.794 9.96C382.434 10.16 382.12 10.46 381.854 10.86V18H379.594Z" fill="#686868"/>
<path d="M477.26 17.22C476.247 17.22 475.3 17.04 474.42 16.68C473.54 16.3067 472.767 15.7933 472.1 15.14C471.447 14.4733 470.933 13.7067 470.56 12.84C470.2 11.96 470.02 11.0133 470.02 10C470.02 8.98667 470.2 8.04667 470.56 7.18C470.933 6.3 471.447 5.53333 472.1 4.88C472.767 4.21333 473.54 3.7 474.42 3.34C475.3 2.96667 476.247 2.78 477.26 2.78C477.98 2.78 478.673 2.88 479.34 3.08C480.007 3.28 480.627 3.56667 481.2 3.94C481.787 4.3 482.293 4.74667 482.72 5.28L481.12 6.84C480.627 6.21333 480.047 5.74 479.38 5.42C478.713 5.1 478.007 4.94 477.26 4.94C476.58 4.94 475.947 5.06667 475.36 5.32C474.787 5.57333 474.28 5.93333 473.84 6.4C473.413 6.85333 473.08 7.38667 472.84 8C472.6 8.61333 472.48 9.28 472.48 10C472.48 10.72 472.6 11.3867 472.84 12C473.08 12.6133 473.413 13.1533 473.84 13.62C474.28 14.0733 474.787 14.4267 475.36 14.68C475.947 14.9333 476.58 15.06 477.26 15.06C478.007 15.06 478.713 14.9 479.38 14.58C480.047 14.2467 480.627 13.7733 481.12 13.16L482.72 14.72C482.293 15.24 481.787 15.6867 481.2 16.06C480.627 16.4333 480.007 16.72 479.34 16.92C478.673 17.12 477.98 17.22 477.26 17.22ZM488.54 17.18C487.593 17.18 486.733 16.9533 485.96 16.5C485.2 16.0467 484.6 15.4333 484.16 14.66C483.72 13.8733 483.5 12.9867 483.5 12C483.5 11.0133 483.72 10.1333 484.16 9.36C484.6 8.57333 485.2 7.95333 485.96 7.5C486.72 7.04667 487.58 6.82 488.54 6.82C489.5 6.82 490.353 7.04667 491.1 7.5C491.86 7.95333 492.46 8.57333 492.9 9.36C493.34 10.1333 493.56 11.0133 493.56 12C493.56 12.9867 493.34 13.8733 492.9 14.66C492.46 15.4333 491.86 16.0467 491.1 16.5C490.353 16.9533 489.5 17.18 488.54 17.18ZM488.54 15.26C489.087 15.26 489.567 15.12 489.98 14.84C490.407 14.56 490.74 14.1733 490.98 13.68C491.22 13.1733 491.34 12.6133 491.34 12C491.34 11.3733 491.22 10.82 490.98 10.34C490.74 9.84667 490.407 9.46 489.98 9.18C489.567 8.88667 489.087 8.74 488.54 8.74C487.993 8.74 487.507 8.88667 487.08 9.18C486.653 9.46 486.32 9.84667 486.08 10.34C485.84 10.82 485.72 11.3733 485.72 12C485.72 12.6267 485.84 13.1867 486.08 13.68C486.32 14.1733 486.653 14.56 487.08 14.84C487.507 15.12 487.993 15.26 488.54 15.26ZM498.714 17.16C498.02 17.16 497.414 17.0067 496.894 16.7C496.374 16.3933 495.96 15.9733 495.654 15.44C495.36 14.9067 495.214 14.2867 495.214 13.58V6.98H497.494V12.92C497.494 13.6667 497.687 14.26 498.074 14.7C498.474 15.1267 499.014 15.34 499.694 15.34C500.147 15.34 500.554 15.24 500.914 15.04C501.287 14.84 501.607 14.54 501.874 14.14V6.98H504.134V17H501.874V15.38C501.487 15.9667 501.027 16.4133 500.494 16.72C499.96 17.0133 499.367 17.16 498.714 17.16ZM506.334 17V6.98H508.594V9.14C508.888 8.38 509.268 7.8 509.734 7.4C510.201 7 510.741 6.8 511.354 6.8C511.541 6.81333 511.708 6.83333 511.854 6.86C512.001 6.87333 512.161 6.92 512.334 7V8.98C512.161 8.9 511.961 8.84 511.734 8.8C511.521 8.76 511.308 8.74 511.094 8.74C510.548 8.74 510.054 8.88667 509.614 9.18C509.188 9.47333 508.848 9.88 508.594 10.4V17H506.334ZM517.025 17.2C516.172 17.2 515.372 17.0867 514.625 16.86C513.892 16.62 513.258 16.28 512.725 15.84L513.785 14.34C514.452 14.7533 515.025 15.0467 515.505 15.22C515.998 15.3933 516.498 15.48 517.005 15.48C517.605 15.48 518.092 15.3533 518.465 15.1C518.838 14.8467 519.025 14.52 519.025 14.12C519.025 13.8133 518.912 13.5733 518.685 13.4C518.472 13.2133 518.118 13.0733 517.625 12.98L515.865 12.68C514.892 12.4933 514.165 12.1733 513.685 11.72C513.205 11.2667 512.965 10.6667 512.965 9.92C512.965 9.29333 513.125 8.75333 513.445 8.3C513.778 7.83333 514.232 7.47333 514.805 7.22C515.392 6.95333 516.072 6.82 516.845 6.82C517.538 6.82 518.212 6.92 518.865 7.12C519.518 7.32 520.158 7.62 520.785 8.02L519.725 9.52C519.218 9.18667 518.712 8.94667 518.205 8.8C517.712 8.64 517.212 8.56 516.705 8.56C516.185 8.56 515.765 8.66667 515.445 8.88C515.138 9.08 514.985 9.36 514.985 9.72C514.985 10.04 515.085 10.2867 515.285 10.46C515.498 10.62 515.865 10.74 516.385 10.82L518.165 11.16C519.165 11.3333 519.905 11.6533 520.385 12.12C520.878 12.5733 521.125 13.18 521.125 13.94C521.125 14.5533 520.945 15.1067 520.585 15.6C520.225 16.0933 519.738 16.4867 519.125 16.78C518.512 17.06 517.812 17.2 517.025 17.2ZM527.353 17.2C526.393 17.2 525.526 16.9733 524.753 16.52C523.98 16.0533 523.366 15.4333 522.913 14.66C522.46 13.8733 522.233 12.9867 522.233 12C522.233 11.0133 522.446 10.1333 522.873 9.36C523.3 8.58667 523.88 7.97333 524.613 7.52C525.36 7.05333 526.186 6.82 527.093 6.82C528.026 6.82 528.846 7.04667 529.553 7.5C530.273 7.95333 530.833 8.56667 531.233 9.34C531.646 10.1133 531.853 11 531.853 12V12.54H524.453C524.533 13.0867 524.706 13.5733 524.973 14C525.253 14.4133 525.606 14.74 526.033 14.98C526.473 15.22 526.946 15.34 527.453 15.34C527.92 15.34 528.36 15.26 528.773 15.1C529.2 14.9267 529.553 14.6933 529.833 14.4L531.313 15.74C530.7 16.2467 530.073 16.62 529.433 16.86C528.806 17.0867 528.113 17.2 527.353 17.2ZM524.473 11.14H529.713C529.633 10.66 529.466 10.2333 529.213 9.86C528.973 9.48667 528.666 9.19333 528.293 8.98C527.933 8.76667 527.533 8.66 527.093 8.66C526.653 8.66 526.246 8.76667 525.873 8.98C525.513 9.18 525.213 9.46667 524.973 9.84C524.733 10.2133 524.566 10.6467 524.473 11.14ZM537.055 17.2C536.202 17.2 535.402 17.0867 534.655 16.86C533.922 16.62 533.289 16.28 532.755 15.84L533.815 14.34C534.482 14.7533 535.055 15.0467 535.535 15.22C536.029 15.3933 536.529 15.48 537.035 15.48C537.635 15.48 538.122 15.3533 538.495 15.1C538.869 14.8467 539.055 14.52 539.055 14.12C539.055 13.8133 538.942 13.5733 538.715 13.4C538.502 13.2133 538.149 13.0733 537.655 12.98L535.895 12.68C534.922 12.4933 534.195 12.1733 533.715 11.72C533.235 11.2667 532.995 10.6667 532.995 9.92C532.995 9.29333 533.155 8.75333 533.475 8.3C533.809 7.83333 534.262 7.47333 534.835 7.22C535.422 6.95333 536.102 6.82 536.875 6.82C537.569 6.82 538.242 6.92 538.895 7.12C539.549 7.32 540.189 7.62 540.815 8.02L539.755 9.52C539.249 9.18667 538.742 8.94667 538.235 8.8C537.742 8.64 537.242 8.56 536.735 8.56C536.215 8.56 535.795 8.66667 535.475 8.88C535.169 9.08 535.015 9.36 535.015 9.72C535.015 10.04 535.115 10.2867 535.315 10.46C535.529 10.62 535.895 10.74 536.415 10.82L538.195 11.16C539.195 11.3333 539.935 11.6533 540.415 12.12C540.909 12.5733 541.155 13.18 541.155 13.94C541.155 14.5533 540.975 15.1067 540.615 15.6C540.255 16.0933 539.769 16.4867 539.155 16.78C538.542 17.06 537.842 17.2 537.055 17.2Z" fill="#686868"/>
<path d="M603.8 15L600.74 0.999999H603.18L605.26 11.26L608.26 0.999999H610.54L613.54 11.24L615.62 0.999999H617.98L614.92 15H612.42L609.36 4.42L606.3 15H603.8ZM619.511 15V0.66L621.771 0.259999V6.62C622.158 6.02 622.618 5.57333 623.151 5.28C623.684 4.97333 624.278 4.82 624.931 4.82C625.624 4.82 626.231 4.97333 626.751 5.28C627.271 5.57333 627.678 5.98667 627.971 6.52C628.278 7.05333 628.431 7.68 628.431 8.4V15H626.151V9.04C626.151 8.30667 625.951 7.72667 625.551 7.3C625.151 6.86 624.618 6.64 623.951 6.64C623.498 6.64 623.084 6.74667 622.711 6.96C622.351 7.16 622.038 7.46 621.771 7.86V15H619.511ZM633.592 15.18C632.898 15.18 632.278 15.0533 631.732 14.8C631.198 14.5333 630.778 14.1733 630.472 13.72C630.178 13.2533 630.032 12.72 630.032 12.12C630.032 11.52 630.185 11 630.492 10.56C630.812 10.12 631.258 9.78 631.832 9.54C632.405 9.3 633.085 9.18 633.872 9.18C634.338 9.18 634.798 9.23333 635.252 9.34C635.705 9.43333 636.145 9.59333 636.572 9.82V8.7C636.572 8.03333 636.378 7.53333 635.992 7.2C635.618 6.86667 635.045 6.7 634.272 6.7C633.858 6.7 633.412 6.76667 632.932 6.9C632.465 7.02 631.938 7.21333 631.352 7.48L630.552 5.84C632.018 5.16 633.405 4.82 634.712 4.82C636.018 4.82 637.025 5.14 637.732 5.78C638.452 6.40667 638.812 7.3 638.812 8.46V15H636.572V13.96C636.145 14.3733 635.685 14.68 635.192 14.88C634.698 15.08 634.165 15.18 633.592 15.18ZM632.152 12.08C632.152 12.5467 632.338 12.9133 632.712 13.18C633.085 13.4467 633.585 13.58 634.212 13.58C634.665 13.58 635.085 13.5133 635.472 13.38C635.872 13.2333 636.238 13.02 636.572 12.74V11.12C636.225 10.96 635.865 10.84 635.492 10.76C635.118 10.68 634.712 10.64 634.272 10.64C633.618 10.64 633.098 10.7667 632.712 11.02C632.338 11.2733 632.152 11.6267 632.152 12.08ZM644.975 15.2C643.961 15.2 643.195 14.9667 642.675 14.5C642.155 14.02 641.895 13.32 641.895 12.4V6.78H639.895V4.98H641.895V2.22L644.155 1.74V4.98H646.935V6.78H644.155V11.9C644.155 12.3933 644.261 12.7467 644.475 12.96C644.688 13.16 645.048 13.26 645.555 13.26C645.781 13.26 645.988 13.2467 646.175 13.22C646.375 13.18 646.621 13.1133 646.915 13.02V14.92C646.635 15.0133 646.315 15.08 645.955 15.12C645.608 15.1733 645.281 15.2 644.975 15.2ZM648.147 5.28L649.487 -1.19209e-06H651.767L649.827 5.28H648.147ZM656.175 15.2C655.322 15.2 654.522 15.0867 653.775 14.86C653.042 14.62 652.408 14.28 651.875 13.84L652.935 12.34C653.602 12.7533 654.175 13.0467 654.655 13.22C655.148 13.3933 655.648 13.48 656.155 13.48C656.755 13.48 657.242 13.3533 657.615 13.1C657.988 12.8467 658.175 12.52 658.175 12.12C658.175 11.8133 658.062 11.5733 657.835 11.4C657.622 11.2133 657.268 11.0733 656.775 10.98L655.015 10.68C654.042 10.4933 653.315 10.1733 652.835 9.72C652.355 9.26667 652.115 8.66667 652.115 7.92C652.115 7.29333 652.275 6.75333 652.595 6.3C652.928 5.83333 653.382 5.47333 653.955 5.22C654.542 4.95333 655.222 4.82 655.995 4.82C656.688 4.82 657.362 4.92 658.015 5.12C658.668 5.32 659.308 5.62 659.935 6.02L658.875 7.52C658.368 7.18667 657.862 6.94667 657.355 6.8C656.862 6.64 656.362 6.56 655.855 6.56C655.335 6.56 654.915 6.66667 654.595 6.88C654.288 7.08 654.135 7.36 654.135 7.72C654.135 8.04 654.235 8.28667 654.435 8.46C654.648 8.62 655.015 8.74 655.535 8.82L657.315 9.16C658.315 9.33333 659.055 9.65333 659.535 10.12C660.028 10.5733 660.275 11.18 660.275 11.94C660.275 12.5533 660.095 13.1067 659.735 13.6C659.375 14.0933 658.888 14.4867 658.275 14.78C657.662 15.06 656.962 15.2 656.175 15.2ZM665.918 15V0.999999H668.258L675.558 11.18L675.518 0.999999H677.778V15H675.638L668.138 4.54L668.178 15H665.918ZM684.912 15.2C683.952 15.2 683.086 14.9733 682.312 14.52C681.539 14.0533 680.926 13.4333 680.472 12.66C680.019 11.8733 679.792 10.9867 679.792 10C679.792 9.01333 680.006 8.13333 680.432 7.36C680.859 6.58667 681.439 5.97333 682.172 5.52C682.919 5.05333 683.746 4.82 684.652 4.82C685.586 4.82 686.406 5.04667 687.112 5.5C687.832 5.95333 688.392 6.56667 688.792 7.34C689.206 8.11333 689.412 9 689.412 10V10.54H682.012C682.092 11.0867 682.266 11.5733 682.532 12C682.812 12.4133 683.166 12.74 683.592 12.98C684.032 13.22 684.506 13.34 685.012 13.34C685.479 13.34 685.919 13.26 686.332 13.1C686.759 12.9267 687.112 12.6933 687.392 12.4L688.872 13.74C688.259 14.2467 687.632 14.62 686.992 14.86C686.366 15.0867 685.672 15.2 684.912 15.2ZM682.032 9.14H687.272C687.192 8.66 687.026 8.23333 686.772 7.86C686.532 7.48667 686.226 7.19333 685.852 6.98C685.492 6.76667 685.092 6.66 684.652 6.66C684.212 6.66 683.806 6.76667 683.432 6.98C683.072 7.18 682.772 7.46667 682.532 7.84C682.292 8.21333 682.126 8.64667 682.032 9.14ZM692.682 15L689.982 4.98H692.142L693.902 12.04L695.982 4.98H697.882L699.942 12.04L701.702 4.98H703.802L701.102 15H698.942L696.902 7.94L694.882 15H692.682Z" fill="#686868"/>
<path d="M0 29H64" stroke="white" stroke-width="2"/>
</svg>
