<svg width="547" height="43" viewBox="0 0 547 43" fill="none" xmlns="http://www.w3.org/2000/svg">
<path d="M9.0293 13.9746V15H1.65625V13.9746H9.0293ZM2.00781 0.78125V15H0.806641V0.78125H2.00781ZM11.6355 9.88281V9.56055C11.6355 8.79232 11.7462 8.08268 11.9676 7.43164C12.1889 6.7806 12.5047 6.21745 12.9148 5.74219C13.3315 5.26693 13.8296 4.89909 14.409 4.63867C14.9884 4.37174 15.6329 4.23828 16.3426 4.23828C17.0587 4.23828 17.7065 4.37174 18.2859 4.63867C18.8654 4.89909 19.3634 5.26693 19.7801 5.74219C20.1967 6.21745 20.5158 6.7806 20.7371 7.43164C20.9585 8.08268 21.0691 8.79232 21.0691 9.56055V9.88281C21.0691 10.651 20.9585 11.3607 20.7371 12.0117C20.5158 12.6562 20.1967 13.2161 19.7801 13.6914C19.3699 14.1667 18.8751 14.5378 18.2957 14.8047C17.7163 15.0651 17.0717 15.1953 16.3621 15.1953C15.646 15.1953 14.9982 15.0651 14.4187 14.8047C13.8393 14.5378 13.3413 14.1667 12.9246 13.6914C12.5079 13.2161 12.1889 12.6562 11.9676 12.0117C11.7462 11.3607 11.6355 10.651 11.6355 9.88281ZM12.7977 9.56055V9.88281C12.7977 10.4622 12.8758 11.0124 13.032 11.5332C13.1883 12.0475 13.4161 12.5065 13.7156 12.9102C14.0151 13.3073 14.3862 13.6198 14.8289 13.8477C15.2716 14.0755 15.7827 14.1895 16.3621 14.1895C16.935 14.1895 17.4396 14.0755 17.8758 13.8477C18.3185 13.6198 18.6896 13.3073 18.9891 12.9102C19.2885 12.5065 19.5132 12.0475 19.6629 11.5332C19.8191 11.0124 19.8973 10.4622 19.8973 9.88281V9.56055C19.8973 8.98763 19.8191 8.44401 19.6629 7.92969C19.5132 7.41536 19.2853 6.95638 18.9793 6.55273C18.6798 6.14909 18.3087 5.83008 17.866 5.5957C17.4233 5.36133 16.9155 5.24414 16.3426 5.24414C15.7697 5.24414 15.2618 5.36133 14.8191 5.5957C14.3829 5.83008 14.0118 6.14909 13.7059 6.55273C13.4064 6.95638 13.1785 7.41536 13.0223 7.92969C12.8725 8.44401 12.7977 8.98763 12.7977 9.56055ZM25.8531 6.18164V15H24.691V4.43359H25.8238L25.8531 6.18164ZM29.5934 4.35547L29.5641 5.42969C29.4339 5.41016 29.3069 5.39388 29.1832 5.38086C29.0595 5.36784 28.926 5.36133 28.7828 5.36133C28.275 5.36133 27.829 5.45573 27.4449 5.64453C27.0673 5.82682 26.7483 6.08398 26.4879 6.41602C26.2275 6.74154 26.0289 7.12565 25.8922 7.56836C25.7555 8.00456 25.6773 8.47331 25.6578 8.97461L25.2281 9.14062C25.2281 8.45052 25.2997 7.80924 25.443 7.2168C25.5862 6.62435 25.8043 6.10677 26.0973 5.66406C26.3967 5.21484 26.7711 4.86654 27.2203 4.61914C27.676 4.36523 28.2099 4.23828 28.8219 4.23828C28.9716 4.23828 29.1181 4.2513 29.2613 4.27734C29.4111 4.29688 29.5217 4.32292 29.5934 4.35547ZM36.516 15.1953C35.8259 15.1953 35.1911 15.0684 34.6117 14.8145C34.0388 14.5605 33.5375 14.2025 33.1078 13.7402C32.6846 13.278 32.3559 12.7311 32.1215 12.0996C31.8936 11.4616 31.7797 10.765 31.7797 10.0098V9.58984C31.7797 8.77604 31.9001 8.04036 32.141 7.38281C32.3819 6.72526 32.7139 6.16211 33.1371 5.69336C33.5603 5.22461 34.0421 4.86654 34.5824 4.61914C35.1293 4.36523 35.7022 4.23828 36.3012 4.23828C36.9717 4.23828 37.5674 4.35872 38.0883 4.59961C38.6091 4.83398 39.0453 5.16927 39.3969 5.60547C39.7549 6.03516 40.0251 6.54622 40.2074 7.13867C40.3897 7.72461 40.4809 8.3724 40.4809 9.08203V9.79492H32.4828V8.79883H39.3188V8.66211C39.3057 8.06966 39.1853 7.51628 38.9574 7.00195C38.7361 6.48112 38.404 6.05794 37.9613 5.73242C37.5186 5.4069 36.9652 5.24414 36.3012 5.24414C35.8064 5.24414 35.3507 5.34831 34.934 5.55664C34.5238 5.76497 34.169 6.06445 33.8695 6.45508C33.5766 6.83919 33.3487 7.29818 33.1859 7.83203C33.0297 8.35938 32.9516 8.94531 32.9516 9.58984V10.0098C32.9516 10.5957 33.0362 11.1426 33.2055 11.6504C33.3813 12.1517 33.6286 12.5944 33.9477 12.9785C34.2732 13.3626 34.6573 13.6621 35.1 13.877C35.5427 14.0918 36.031 14.1992 36.5648 14.1992C37.1898 14.1992 37.7432 14.0853 38.225 13.8574C38.7068 13.623 39.1397 13.2552 39.5238 12.7539L40.2563 13.3203C40.0284 13.6589 39.7419 13.9714 39.3969 14.2578C39.0583 14.5443 38.6514 14.7721 38.1762 14.9414C37.7009 15.1107 37.1475 15.1953 36.516 15.1953ZM45.0891 6.62109V15H43.9172V4.43359H45.0402L45.0891 6.62109ZM44.8742 9.0625L44.3078 8.76953C44.3469 8.14453 44.4641 7.55859 44.6594 7.01172C44.8612 6.46484 45.1411 5.98307 45.4992 5.56641C45.8573 5.14974 46.287 4.82422 46.7883 4.58984C47.2896 4.35547 47.8592 4.23828 48.4973 4.23828C49.0116 4.23828 49.4771 4.3099 49.8937 4.45312C50.3169 4.58984 50.675 4.80794 50.968 5.10742C51.2674 5.40039 51.4986 5.78451 51.6613 6.25977C51.8241 6.73503 51.9055 7.30469 51.9055 7.96875V15H50.7434V8.00781C50.7434 7.30469 50.6327 6.75456 50.4113 6.35742C50.1965 5.96029 49.8937 5.67708 49.5031 5.50781C49.119 5.33854 48.673 5.25391 48.1652 5.25391C47.5663 5.25391 47.0585 5.3776 46.6418 5.625C46.2316 5.86589 45.8964 6.18164 45.6359 6.57227C45.382 6.95638 45.1932 7.36979 45.0695 7.8125C44.9458 8.2487 44.8807 8.66536 44.8742 9.0625ZM51.8957 8.14453L51.1145 8.16406C51.147 7.64974 51.2642 7.1582 51.466 6.68945C51.6743 6.2207 51.9576 5.80404 52.3156 5.43945C52.6737 5.06836 53.1001 4.77539 53.5949 4.56055C54.0962 4.3457 54.6594 4.23828 55.2844 4.23828C55.8312 4.23828 56.3195 4.31315 56.7492 4.46289C57.1789 4.60612 57.5402 4.83724 57.8332 5.15625C58.1327 5.46875 58.3605 5.86914 58.5168 6.35742C58.673 6.8457 58.7512 7.43164 58.7512 8.11523V15H57.5793V8.10547C57.5793 7.35677 57.4686 6.77734 57.2473 6.36719C57.0324 5.95052 56.7329 5.66081 56.3488 5.49805C55.9647 5.33529 55.5155 5.25391 55.0012 5.25391C54.4934 5.26042 54.0474 5.35482 53.6633 5.53711C53.2792 5.71289 52.9569 5.94727 52.6965 6.24023C52.4426 6.52669 52.2473 6.83594 52.1105 7.16797C51.9803 7.5 51.9087 7.82552 51.8957 8.14453ZM70.3016 4.43359V15H69.1395V4.43359H70.3016ZM68.9344 1.37695C68.9344 1.1556 69.0027 0.970052 69.1395 0.820312C69.2827 0.664062 69.478 0.585938 69.7254 0.585938C69.9728 0.585938 70.1681 0.664062 70.3113 0.820312C70.4611 0.970052 70.5359 1.1556 70.5359 1.37695C70.5359 1.5918 70.4611 1.77734 70.3113 1.93359C70.1681 2.08333 69.9728 2.1582 69.7254 2.1582C69.478 2.1582 69.2827 2.08333 69.1395 1.93359C69.0027 1.77734 68.9344 1.5918 68.9344 1.37695ZM75.8473 6.46484V19.0625H74.6754V4.43359H75.7691L75.8473 6.46484ZM83.191 9.61914V9.82422C83.191 10.612 83.0999 11.3346 82.9176 11.9922C82.7353 12.6497 82.4716 13.2194 82.1266 13.7012C81.788 14.1764 81.3681 14.5443 80.8668 14.8047C80.3655 15.0651 79.7958 15.1953 79.1578 15.1953C78.5263 15.1953 77.9632 15.0977 77.4684 14.9023C76.9736 14.707 76.5471 14.4303 76.1891 14.0723C75.8375 13.7077 75.5543 13.2845 75.3395 12.8027C75.1311 12.3145 74.9846 11.7806 74.9 11.2012V8.49609C74.9977 7.85807 75.1572 7.27865 75.3785 6.75781C75.5999 6.23698 75.8831 5.78776 76.2281 5.41016C76.5797 5.03255 76.9964 4.74284 77.4781 4.54102C77.9599 4.33919 78.51 4.23828 79.1285 4.23828C79.773 4.23828 80.346 4.36523 80.8473 4.61914C81.3551 4.86654 81.7815 5.22786 82.1266 5.70312C82.4781 6.17188 82.7418 6.73828 82.9176 7.40234C83.0999 8.0599 83.191 8.79883 83.191 9.61914ZM82.0191 9.82422V9.61914C82.0191 9.00065 81.954 8.42773 81.8238 7.90039C81.7001 7.37305 81.5081 6.91406 81.2477 6.52344C80.9938 6.1263 80.6682 5.81706 80.2711 5.5957C79.8805 5.37435 79.415 5.26367 78.8746 5.26367C78.3147 5.26367 77.8362 5.35807 77.4391 5.54688C77.0484 5.72917 76.7229 5.97331 76.4625 6.2793C76.2021 6.57878 75.997 6.90755 75.8473 7.26562C75.6975 7.6237 75.5869 7.97526 75.5152 8.32031V11.4355C75.6389 11.9303 75.8375 12.3893 76.1109 12.8125C76.3844 13.2292 76.749 13.5645 77.2047 13.8184C77.6669 14.0658 78.2301 14.1895 78.8941 14.1895C79.428 14.1895 79.8902 14.0788 80.2809 13.8574C80.6715 13.6361 80.9938 13.3268 81.2477 12.9297C81.5081 12.5326 81.7001 12.0703 81.8238 11.543C81.954 11.0156 82.0191 10.4427 82.0191 9.82422ZM93.3168 12.3047C93.3168 12.0182 93.2452 11.735 93.102 11.4551C92.9587 11.1751 92.682 10.918 92.2719 10.6836C91.8682 10.4492 91.2725 10.2507 90.4848 10.0879C89.8988 9.95768 89.3747 9.8112 88.9125 9.64844C88.4568 9.48568 88.0727 9.29036 87.7602 9.0625C87.4477 8.83464 87.21 8.5612 87.0473 8.24219C86.8845 7.92318 86.8031 7.54557 86.8031 7.10938C86.8031 6.71875 86.8878 6.35091 87.057 6.00586C87.2328 5.6543 87.4802 5.34831 87.7992 5.08789C88.1247 4.82096 88.5154 4.61263 88.9711 4.46289C89.4333 4.31315 89.9509 4.23828 90.5238 4.23828C91.3376 4.23828 92.0342 4.37826 92.6137 4.6582C93.1996 4.93164 93.6456 5.30599 93.9516 5.78125C94.2641 6.25651 94.4203 6.79362 94.4203 7.39258H93.2582C93.2582 7.02799 93.1508 6.68294 92.9359 6.35742C92.7276 6.0319 92.4184 5.76497 92.0082 5.55664C91.6046 5.34831 91.1098 5.24414 90.5238 5.24414C89.9184 5.24414 89.4268 5.33529 89.0492 5.51758C88.6716 5.69987 88.3949 5.93099 88.2191 6.21094C88.0499 6.49089 87.9652 6.7806 87.9652 7.08008C87.9652 7.31445 88.001 7.5293 88.0727 7.72461C88.1508 7.91341 88.2875 8.08919 88.4828 8.25195C88.6846 8.41471 88.9711 8.56771 89.3422 8.71094C89.7133 8.85417 90.1951 8.99414 90.7875 9.13086C91.6404 9.31966 92.337 9.55078 92.8773 9.82422C93.4242 10.0911 93.8279 10.4232 94.0883 10.8203C94.3487 11.2109 94.4789 11.6862 94.4789 12.2461C94.4789 12.6823 94.3878 13.0827 94.2055 13.4473C94.0232 13.8053 93.7595 14.1146 93.4145 14.375C93.0759 14.6354 92.6658 14.8372 92.184 14.9805C91.7087 15.1237 91.1749 15.1953 90.5824 15.1953C89.6905 15.1953 88.9353 15.0488 88.3168 14.7559C87.7048 14.4564 87.2393 14.0658 86.9203 13.584C86.6078 13.0957 86.4516 12.5781 86.4516 12.0312H87.6137C87.6527 12.5781 87.8253 13.0111 88.1312 13.3301C88.4372 13.6426 88.8116 13.8639 89.2543 13.9941C89.7035 14.1243 90.1462 14.1895 90.5824 14.1895C91.1814 14.1895 91.6827 14.1016 92.0863 13.9258C92.49 13.75 92.796 13.5189 93.0043 13.2324C93.2126 12.946 93.3168 12.6367 93.3168 12.3047ZM105.093 12.5586V4.43359H106.265V15H105.142L105.093 12.5586ZM105.308 10.6055L105.913 10.5859C105.913 11.25 105.835 11.862 105.679 12.4219C105.523 12.9818 105.279 13.4701 104.946 13.8867C104.614 14.3034 104.185 14.6257 103.657 14.8535C103.13 15.0814 102.495 15.1953 101.753 15.1953C101.239 15.1953 100.767 15.1237 100.337 14.9805C99.9139 14.8307 99.5494 14.5964 99.2434 14.2773C98.9374 13.9583 98.6997 13.5449 98.5305 13.0371C98.3677 12.5293 98.2863 11.9141 98.2863 11.1914V4.43359H99.4484V11.2109C99.4484 11.7773 99.5103 12.2493 99.634 12.627C99.7642 13.0046 99.94 13.3073 100.161 13.5352C100.389 13.763 100.65 13.9258 100.943 14.0234C101.236 14.1211 101.551 14.1699 101.89 14.1699C102.749 14.1699 103.426 14.0039 103.921 13.6719C104.422 13.3398 104.777 12.9036 104.986 12.3633C105.2 11.8164 105.308 11.2305 105.308 10.6055ZM111.625 6.62109V15H110.453V4.43359H111.576L111.625 6.62109ZM111.41 9.0625L110.844 8.76953C110.883 8.14453 111 7.55859 111.195 7.01172C111.397 6.46484 111.677 5.98307 112.035 5.56641C112.393 5.14974 112.823 4.82422 113.324 4.58984C113.826 4.35547 114.395 4.23828 115.033 4.23828C115.548 4.23828 116.013 4.3099 116.43 4.45312C116.853 4.58984 117.211 4.80794 117.504 5.10742C117.803 5.40039 118.035 5.78451 118.197 6.25977C118.36 6.73503 118.441 7.30469 118.441 7.96875V15H117.279V8.00781C117.279 7.30469 117.169 6.75456 116.947 6.35742C116.732 5.96029 116.43 5.67708 116.039 5.50781C115.655 5.33854 115.209 5.25391 114.701 5.25391C114.102 5.25391 113.594 5.3776 113.178 5.625C112.768 5.86589 112.432 6.18164 112.172 6.57227C111.918 6.95638 111.729 7.36979 111.605 7.8125C111.482 8.2487 111.417 8.66536 111.41 9.0625ZM118.432 8.14453L117.65 8.16406C117.683 7.64974 117.8 7.1582 118.002 6.68945C118.21 6.2207 118.493 5.80404 118.852 5.43945C119.21 5.06836 119.636 4.77539 120.131 4.56055C120.632 4.3457 121.195 4.23828 121.82 4.23828C122.367 4.23828 122.855 4.31315 123.285 4.46289C123.715 4.60612 124.076 4.83724 124.369 5.15625C124.669 5.46875 124.896 5.86914 125.053 6.35742C125.209 6.8457 125.287 7.43164 125.287 8.11523V15H124.115V8.10547C124.115 7.35677 124.005 6.77734 123.783 6.36719C123.568 5.95052 123.269 5.66081 122.885 5.49805C122.501 5.33529 122.051 5.25391 121.537 5.25391C121.029 5.26042 120.583 5.35482 120.199 5.53711C119.815 5.71289 119.493 5.94727 119.232 6.24023C118.979 6.52669 118.783 6.83594 118.646 7.16797C118.516 7.5 118.445 7.82552 118.432 8.14453ZM142.404 12.9492V0H143.576V15H142.482L142.404 12.9492ZM135.07 9.82422V9.61914C135.07 8.79883 135.164 8.0599 135.353 7.40234C135.542 6.73828 135.812 6.17188 136.164 5.70312C136.522 5.22786 136.951 4.86654 137.453 4.61914C137.954 4.36523 138.52 4.23828 139.152 4.23828C139.77 4.23828 140.317 4.33919 140.793 4.54102C141.268 4.74284 141.675 5.03255 142.013 5.41016C142.358 5.78776 142.635 6.23698 142.843 6.75781C143.058 7.27865 143.214 7.85807 143.312 8.49609V11.1035C143.234 11.7025 143.091 12.2526 142.882 12.7539C142.674 13.2487 142.397 13.6816 142.052 14.0527C141.707 14.4173 141.291 14.7005 140.802 14.9023C140.321 15.0977 139.764 15.1953 139.132 15.1953C138.507 15.1953 137.944 15.0651 137.443 14.8047C136.942 14.5443 136.515 14.1764 136.164 13.7012C135.812 13.2194 135.542 12.6497 135.353 11.9922C135.164 11.3346 135.07 10.612 135.07 9.82422ZM136.242 9.61914V9.82422C136.242 10.4427 136.304 11.0156 136.427 11.543C136.551 12.0703 136.74 12.5293 136.994 12.9199C137.248 13.3105 137.57 13.6165 137.961 13.8379C138.351 14.0592 138.813 14.1699 139.347 14.1699C140.018 14.1699 140.581 14.043 141.037 13.7891C141.492 13.5286 141.857 13.1868 142.13 12.7637C142.404 12.334 142.602 11.8652 142.726 11.3574V8.32031C142.648 7.97526 142.534 7.6237 142.384 7.26562C142.235 6.90755 142.03 6.57878 141.769 6.2793C141.515 5.97331 141.19 5.72917 140.793 5.54688C140.402 5.35807 139.927 5.26367 139.367 5.26367C138.826 5.26367 138.361 5.37435 137.97 5.5957C137.58 5.81706 137.254 6.1263 136.994 6.52344C136.74 6.91406 136.551 7.37305 136.427 7.90039C136.304 8.42773 136.242 9.00065 136.242 9.61914ZM147.207 9.88281V9.56055C147.207 8.79232 147.318 8.08268 147.539 7.43164C147.761 6.7806 148.077 6.21745 148.487 5.74219C148.903 5.26693 149.401 4.89909 149.981 4.63867C150.56 4.37174 151.205 4.23828 151.914 4.23828C152.631 4.23828 153.278 4.37174 153.858 4.63867C154.437 4.89909 154.935 5.26693 155.352 5.74219C155.769 6.21745 156.088 6.7806 156.309 7.43164C156.53 8.08268 156.641 8.79232 156.641 9.56055V9.88281C156.641 10.651 156.53 11.3607 156.309 12.0117C156.088 12.6562 155.769 13.2161 155.352 13.6914C154.942 14.1667 154.447 14.5378 153.868 14.8047C153.288 15.0651 152.644 15.1953 151.934 15.1953C151.218 15.1953 150.57 15.0651 149.991 14.8047C149.411 14.5378 148.913 14.1667 148.496 13.6914C148.08 13.2161 147.761 12.6562 147.539 12.0117C147.318 11.3607 147.207 10.651 147.207 9.88281ZM148.37 9.56055V9.88281C148.37 10.4622 148.448 11.0124 148.604 11.5332C148.76 12.0475 148.988 12.5065 149.288 12.9102C149.587 13.3073 149.958 13.6198 150.401 13.8477C150.843 14.0755 151.355 14.1895 151.934 14.1895C152.507 14.1895 153.011 14.0755 153.448 13.8477C153.89 13.6198 154.261 13.3073 154.561 12.9102C154.86 12.5065 155.085 12.0475 155.235 11.5332C155.391 11.0124 155.469 10.4622 155.469 9.88281V9.56055C155.469 8.98763 155.391 8.44401 155.235 7.92969C155.085 7.41536 154.857 6.95638 154.551 6.55273C154.252 6.14909 153.881 5.83008 153.438 5.5957C152.995 5.36133 152.487 5.24414 151.914 5.24414C151.342 5.24414 150.834 5.36133 150.391 5.5957C149.955 5.83008 149.584 6.14909 149.278 6.55273C148.978 6.95638 148.75 7.41536 148.594 7.92969C148.444 8.44401 148.37 8.98763 148.37 9.56055ZM161.562 0V15H160.4V0H161.562ZM165.311 9.88281V9.56055C165.311 8.79232 165.421 8.08268 165.643 7.43164C165.864 6.7806 166.18 6.21745 166.59 5.74219C167.007 5.26693 167.505 4.89909 168.084 4.63867C168.663 4.37174 169.308 4.23828 170.018 4.23828C170.734 4.23828 171.382 4.37174 171.961 4.63867C172.54 4.89909 173.038 5.26693 173.455 5.74219C173.872 6.21745 174.191 6.7806 174.412 7.43164C174.633 8.08268 174.744 8.79232 174.744 9.56055V9.88281C174.744 10.651 174.633 11.3607 174.412 12.0117C174.191 12.6562 173.872 13.2161 173.455 13.6914C173.045 14.1667 172.55 14.5378 171.971 14.8047C171.391 15.0651 170.747 15.1953 170.037 15.1953C169.321 15.1953 168.673 15.0651 168.094 14.8047C167.514 14.5378 167.016 14.1667 166.6 13.6914C166.183 13.2161 165.864 12.6562 165.643 12.0117C165.421 11.3607 165.311 10.651 165.311 9.88281ZM166.473 9.56055V9.88281C166.473 10.4622 166.551 11.0124 166.707 11.5332C166.863 12.0475 167.091 12.5065 167.391 12.9102C167.69 13.3073 168.061 13.6198 168.504 13.8477C168.947 14.0755 169.458 14.1895 170.037 14.1895C170.61 14.1895 171.115 14.0755 171.551 13.8477C171.993 13.6198 172.365 13.3073 172.664 12.9102C172.964 12.5065 173.188 12.0475 173.338 11.5332C173.494 11.0124 173.572 10.4622 173.572 9.88281V9.56055C173.572 8.98763 173.494 8.44401 173.338 7.92969C173.188 7.41536 172.96 6.95638 172.654 6.55273C172.355 6.14909 171.984 5.83008 171.541 5.5957C171.098 5.36133 170.59 5.24414 170.018 5.24414C169.445 5.24414 168.937 5.36133 168.494 5.5957C168.058 5.83008 167.687 6.14909 167.381 6.55273C167.081 6.95638 166.854 7.41536 166.697 7.92969C166.548 8.44401 166.473 8.98763 166.473 9.56055ZM179.528 6.18164V15H178.366V4.43359H179.499L179.528 6.18164ZM183.268 4.35547L183.239 5.42969C183.109 5.41016 182.982 5.39388 182.858 5.38086C182.735 5.36784 182.601 5.36133 182.458 5.36133C181.95 5.36133 181.504 5.45573 181.12 5.64453C180.742 5.82682 180.423 6.08398 180.163 6.41602C179.902 6.74154 179.704 7.12565 179.567 7.56836C179.43 8.00456 179.352 8.47331 179.333 8.97461L178.903 9.14062C178.903 8.45052 178.975 7.80924 179.118 7.2168C179.261 6.62435 179.479 6.10677 179.772 5.66406C180.072 5.21484 180.446 4.86654 180.895 4.61914C181.351 4.36523 181.885 4.23828 182.497 4.23828C182.647 4.23828 182.793 4.2513 182.936 4.27734C183.086 4.29688 183.197 4.32292 183.268 4.35547ZM198.715 12.3047C198.715 12.0182 198.644 11.735 198.5 11.4551C198.357 11.1751 198.08 10.918 197.67 10.6836C197.267 10.4492 196.671 10.2507 195.883 10.0879C195.297 9.95768 194.773 9.8112 194.311 9.64844C193.855 9.48568 193.471 9.29036 193.159 9.0625C192.846 8.83464 192.608 8.5612 192.446 8.24219C192.283 7.92318 192.202 7.54557 192.202 7.10938C192.202 6.71875 192.286 6.35091 192.455 6.00586C192.631 5.6543 192.879 5.34831 193.198 5.08789C193.523 4.82096 193.914 4.61263 194.37 4.46289C194.832 4.31315 195.349 4.23828 195.922 4.23828C196.736 4.23828 197.433 4.37826 198.012 4.6582C198.598 4.93164 199.044 5.30599 199.35 5.78125C199.663 6.25651 199.819 6.79362 199.819 7.39258H198.657C198.657 7.02799 198.549 6.68294 198.334 6.35742C198.126 6.0319 197.817 5.76497 197.407 5.55664C197.003 5.34831 196.508 5.24414 195.922 5.24414C195.317 5.24414 194.825 5.33529 194.448 5.51758C194.07 5.69987 193.793 5.93099 193.618 6.21094C193.448 6.49089 193.364 6.7806 193.364 7.08008C193.364 7.31445 193.399 7.5293 193.471 7.72461C193.549 7.91341 193.686 8.08919 193.881 8.25195C194.083 8.41471 194.37 8.56771 194.741 8.71094C195.112 8.85417 195.593 8.99414 196.186 9.13086C197.039 9.31966 197.735 9.55078 198.276 9.82422C198.823 10.0911 199.226 10.4232 199.487 10.8203C199.747 11.2109 199.877 11.6862 199.877 12.2461C199.877 12.6823 199.786 13.0827 199.604 13.4473C199.422 13.8053 199.158 14.1146 198.813 14.375C198.474 14.6354 198.064 14.8372 197.582 14.9805C197.107 15.1237 196.573 15.1953 195.981 15.1953C195.089 15.1953 194.334 15.0488 193.715 14.7559C193.103 14.4564 192.638 14.0658 192.319 13.584C192.006 13.0957 191.85 12.5781 191.85 12.0312H193.012C193.051 12.5781 193.224 13.0111 193.53 13.3301C193.836 13.6426 194.21 13.8639 194.653 13.9941C195.102 14.1243 195.545 14.1895 195.981 14.1895C196.58 14.1895 197.081 14.1016 197.485 13.9258C197.888 13.75 198.194 13.5189 198.403 13.2324C198.611 12.946 198.715 12.6367 198.715 12.3047ZM205.023 4.43359V15H203.861V4.43359H205.023ZM203.655 1.37695C203.655 1.1556 203.724 0.970052 203.861 0.820312C204.004 0.664062 204.199 0.585938 204.446 0.585938C204.694 0.585938 204.889 0.664062 205.032 0.820312C205.182 0.970052 205.257 1.1556 205.257 1.37695C205.257 1.5918 205.182 1.77734 205.032 1.93359C204.889 2.08333 204.694 2.1582 204.446 2.1582C204.199 2.1582 204.004 2.08333 203.861 1.93359C203.724 1.77734 203.655 1.5918 203.655 1.37695ZM213.41 4.43359V5.39062H208.117V4.43359H213.41ZM210.061 1.71875H211.223V12.4316C211.223 12.9199 211.288 13.2878 211.418 13.5352C211.548 13.7826 211.717 13.9486 211.926 14.0332C212.134 14.1178 212.359 14.1602 212.6 14.1602C212.775 14.1602 212.945 14.1504 213.107 14.1309C213.27 14.1048 213.417 14.0788 213.547 14.0527L213.596 15.0391C213.452 15.0846 213.267 15.1204 213.039 15.1465C212.811 15.179 212.583 15.1953 212.355 15.1953C211.906 15.1953 211.509 15.1139 211.164 14.9512C210.819 14.7819 210.549 14.4954 210.354 14.0918C210.158 13.6816 210.061 13.125 210.061 12.4219V1.71875ZM229.57 13.1055V7.65625C229.57 7.15495 229.466 6.72201 229.257 6.35742C229.049 5.99284 228.743 5.71289 228.339 5.51758C227.936 5.32227 227.438 5.22461 226.845 5.22461C226.298 5.22461 225.81 5.32227 225.38 5.51758C224.957 5.70638 224.622 5.96354 224.375 6.28906C224.134 6.60807 224.013 6.96289 224.013 7.35352L222.841 7.34375C222.841 6.94661 222.939 6.5625 223.134 6.19141C223.33 5.82031 223.606 5.48828 223.964 5.19531C224.323 4.90234 224.749 4.67122 225.244 4.50195C225.745 4.32617 226.295 4.23828 226.894 4.23828C227.649 4.23828 228.313 4.36523 228.886 4.61914C229.466 4.87305 229.918 5.25391 230.244 5.76172C230.569 6.26953 230.732 6.90755 230.732 7.67578V12.7832C230.732 13.1478 230.758 13.5254 230.81 13.916C230.869 14.3066 230.95 14.6289 231.054 14.8828V15H229.814C229.736 14.7656 229.674 14.4727 229.629 14.1211C229.589 13.763 229.57 13.4245 229.57 13.1055ZM229.843 8.84766L229.863 9.74609H227.568C226.969 9.74609 226.432 9.80143 225.957 9.91211C225.488 10.0163 225.091 10.1725 224.765 10.3809C224.44 10.5827 224.189 10.8268 224.013 11.1133C223.844 11.3997 223.759 11.7253 223.759 12.0898C223.759 12.4674 223.854 12.8125 224.043 13.125C224.238 13.4375 224.511 13.6882 224.863 13.877C225.221 14.0592 225.644 14.1504 226.132 14.1504C226.783 14.1504 227.356 14.0299 227.851 13.7891C228.352 13.5482 228.766 13.2324 229.091 12.8418C229.417 12.4512 229.635 12.0247 229.746 11.5625L230.254 12.2363C230.169 12.5618 230.013 12.8971 229.785 13.2422C229.563 13.5807 229.274 13.8997 228.916 14.1992C228.558 14.4922 228.134 14.7331 227.646 14.9219C227.164 15.1042 226.617 15.1953 226.005 15.1953C225.315 15.1953 224.713 15.0651 224.199 14.8047C223.691 14.5443 223.294 14.1895 223.007 13.7402C222.727 13.2845 222.587 12.7702 222.587 12.1973C222.587 11.6764 222.698 11.2109 222.92 10.8008C223.141 10.3841 223.46 10.0326 223.877 9.74609C224.3 9.45312 224.808 9.23177 225.4 9.08203C225.999 8.92578 226.67 8.84766 227.412 8.84766H229.843ZM236.17 6.62109V15H234.998V4.43359H236.121L236.17 6.62109ZM235.955 9.0625L235.389 8.76953C235.428 8.14453 235.545 7.55859 235.741 7.01172C235.942 6.46484 236.222 5.98307 236.58 5.56641C236.939 5.14974 237.368 4.82422 237.87 4.58984C238.371 4.35547 238.941 4.23828 239.579 4.23828C240.093 4.23828 240.558 4.3099 240.975 4.45312C241.398 4.58984 241.756 4.80794 242.049 5.10742C242.349 5.40039 242.58 5.78451 242.743 6.25977C242.905 6.73503 242.987 7.30469 242.987 7.96875V15H241.825V8.00781C241.825 7.30469 241.714 6.75456 241.493 6.35742C241.278 5.96029 240.975 5.67708 240.584 5.50781C240.2 5.33854 239.754 5.25391 239.246 5.25391C238.648 5.25391 238.14 5.3776 237.723 5.625C237.313 5.86589 236.978 6.18164 236.717 6.57227C236.463 6.95638 236.274 7.36979 236.151 7.8125C236.027 8.2487 235.962 8.66536 235.955 9.0625ZM242.977 8.14453L242.196 8.16406C242.228 7.64974 242.345 7.1582 242.547 6.68945C242.756 6.2207 243.039 5.80404 243.397 5.43945C243.755 5.06836 244.181 4.77539 244.676 4.56055C245.177 4.3457 245.741 4.23828 246.366 4.23828C246.913 4.23828 247.401 4.31315 247.83 4.46289C248.26 4.60612 248.621 4.83724 248.914 5.15625C249.214 5.46875 249.442 5.86914 249.598 6.35742C249.754 6.8457 249.832 7.43164 249.832 8.11523V15H248.661V8.10547C248.661 7.35677 248.55 6.77734 248.329 6.36719C248.114 5.95052 247.814 5.66081 247.43 5.49805C247.046 5.33529 246.597 5.25391 246.082 5.25391C245.575 5.26042 245.129 5.35482 244.745 5.53711C244.36 5.71289 244.038 5.94727 243.778 6.24023C243.524 6.52669 243.329 6.83594 243.192 7.16797C243.062 7.5 242.99 7.82552 242.977 8.14453ZM258.083 15.1953C257.393 15.1953 256.758 15.0684 256.179 14.8145C255.606 14.5605 255.105 14.2025 254.675 13.7402C254.252 13.278 253.923 12.7311 253.689 12.0996C253.461 11.4616 253.347 10.765 253.347 10.0098V9.58984C253.347 8.77604 253.467 8.04036 253.708 7.38281C253.949 6.72526 254.281 6.16211 254.704 5.69336C255.127 5.22461 255.609 4.86654 256.15 4.61914C256.696 4.36523 257.269 4.23828 257.868 4.23828C258.539 4.23828 259.135 4.35872 259.655 4.59961C260.176 4.83398 260.613 5.16927 260.964 5.60547C261.322 6.03516 261.592 6.54622 261.775 7.13867C261.957 7.72461 262.048 8.3724 262.048 9.08203V9.79492H254.05V8.79883H260.886V8.66211C260.873 8.06966 260.752 7.51628 260.525 7.00195C260.303 6.48112 259.971 6.05794 259.529 5.73242C259.086 5.4069 258.532 5.24414 257.868 5.24414C257.374 5.24414 256.918 5.34831 256.501 5.55664C256.091 5.76497 255.736 6.06445 255.437 6.45508C255.144 6.83919 254.916 7.29818 254.753 7.83203C254.597 8.35938 254.519 8.94531 254.519 9.58984V10.0098C254.519 10.5957 254.603 11.1426 254.773 11.6504C254.948 12.1517 255.196 12.5944 255.515 12.9785C255.84 13.3626 256.224 13.6621 256.667 13.877C257.11 14.0918 257.598 14.1992 258.132 14.1992C258.757 14.1992 259.31 14.0853 259.792 13.8574C260.274 13.623 260.707 13.2552 261.091 12.7539L261.823 13.3203C261.596 13.6589 261.309 13.9714 260.964 14.2578C260.626 14.5443 260.219 14.7721 259.743 14.9414C259.268 15.1107 258.715 15.1953 258.083 15.1953ZM269.547 4.43359V5.39062H264.254V4.43359H269.547ZM266.197 1.71875H267.359V12.4316C267.359 12.9199 267.424 13.2878 267.555 13.5352C267.685 13.7826 267.854 13.9486 268.062 14.0332C268.271 14.1178 268.495 14.1602 268.736 14.1602C268.912 14.1602 269.081 14.1504 269.244 14.1309C269.407 14.1048 269.553 14.0788 269.684 14.0527L269.732 15.0391C269.589 15.0846 269.404 15.1204 269.176 15.1465C268.948 15.179 268.72 15.1953 268.492 15.1953C268.043 15.1953 267.646 15.1139 267.301 14.9512C266.956 14.7819 266.686 14.4954 266.49 14.0918C266.295 13.6816 266.197 13.125 266.197 12.4219V1.71875ZM274.321 13.1543V14.5215C274.321 15.1204 274.197 15.6966 273.95 16.25C273.703 16.8099 273.367 17.2819 272.944 17.666L272.261 17.1582C272.462 16.8848 272.632 16.6113 272.768 16.3379C272.905 16.071 273.006 15.791 273.071 15.498C273.143 15.2051 273.179 14.8893 273.179 14.5508V13.1543H274.321ZM288.225 14.1895C288.72 14.1895 289.182 14.0983 289.612 13.916C290.048 13.7272 290.406 13.4505 290.686 13.0859C290.972 12.7148 291.135 12.2624 291.174 11.7285H292.288C292.255 12.3991 292.05 12.998 291.672 13.5254C291.301 14.0462 290.813 14.4564 290.207 14.7559C289.608 15.0488 288.948 15.1953 288.225 15.1953C287.489 15.1953 286.838 15.0618 286.272 14.7949C285.712 14.528 285.243 14.1569 284.866 13.6816C284.488 13.1999 284.202 12.64 284.006 12.002C283.817 11.3574 283.723 10.6641 283.723 9.92188V9.51172C283.723 8.76953 283.817 8.07943 284.006 7.44141C284.202 6.79688 284.488 6.23698 284.866 5.76172C285.243 5.27995 285.712 4.9056 286.272 4.63867C286.832 4.37174 287.48 4.23828 288.215 4.23828C288.97 4.23828 289.648 4.39128 290.246 4.69727C290.852 5.00326 291.334 5.4362 291.692 5.99609C292.056 6.55599 292.255 7.22005 292.288 7.98828H291.174C291.142 7.42188 290.992 6.93359 290.725 6.52344C290.458 6.11328 290.107 5.79753 289.67 5.57617C289.234 5.35482 288.749 5.24414 288.215 5.24414C287.616 5.24414 287.105 5.36133 286.682 5.5957C286.259 5.82357 285.914 6.13932 285.647 6.54297C285.386 6.9401 285.194 7.39583 285.071 7.91016C284.947 8.41797 284.885 8.95182 284.885 9.51172V9.92188C284.885 10.4883 284.944 11.0286 285.061 11.543C285.185 12.0508 285.377 12.5033 285.637 12.9004C285.904 13.2975 286.249 13.6133 286.672 13.8477C287.102 14.0755 287.62 14.1895 288.225 14.1895ZM295.196 9.88281V9.56055C295.196 8.79232 295.307 8.08268 295.529 7.43164C295.75 6.7806 296.066 6.21745 296.476 5.74219C296.892 5.26693 297.39 4.89909 297.97 4.63867C298.549 4.37174 299.194 4.23828 299.904 4.23828C300.62 4.23828 301.267 4.37174 301.847 4.63867C302.426 4.89909 302.924 5.26693 303.341 5.74219C303.758 6.21745 304.077 6.7806 304.298 7.43164C304.519 8.08268 304.63 8.79232 304.63 9.56055V9.88281C304.63 10.651 304.519 11.3607 304.298 12.0117C304.077 12.6562 303.758 13.2161 303.341 13.6914C302.931 14.1667 302.436 14.5378 301.857 14.8047C301.277 15.0651 300.633 15.1953 299.923 15.1953C299.207 15.1953 298.559 15.0651 297.98 14.8047C297.4 14.5378 296.902 14.1667 296.486 13.6914C296.069 13.2161 295.75 12.6562 295.529 12.0117C295.307 11.3607 295.196 10.651 295.196 9.88281ZM296.359 9.56055V9.88281C296.359 10.4622 296.437 11.0124 296.593 11.5332C296.749 12.0475 296.977 12.5065 297.277 12.9102C297.576 13.3073 297.947 13.6198 298.39 13.8477C298.833 14.0755 299.344 14.1895 299.923 14.1895C300.496 14.1895 301.001 14.0755 301.437 13.8477C301.879 13.6198 302.251 13.3073 302.55 12.9102C302.849 12.5065 303.074 12.0475 303.224 11.5332C303.38 11.0124 303.458 10.4622 303.458 9.88281V9.56055C303.458 8.98763 303.38 8.44401 303.224 7.92969C303.074 7.41536 302.846 6.95638 302.54 6.55273C302.241 6.14909 301.87 5.83008 301.427 5.5957C300.984 5.36133 300.476 5.24414 299.904 5.24414C299.331 5.24414 298.823 5.36133 298.38 5.5957C297.944 5.83008 297.573 6.14909 297.267 6.55273C296.967 6.95638 296.739 7.41536 296.583 7.92969C296.433 8.44401 296.359 8.98763 296.359 9.56055ZM309.414 6.68945V15H308.252V4.43359H309.365L309.414 6.68945ZM309.15 9.0625L308.633 8.76953C308.672 8.14453 308.799 7.55859 309.014 7.01172C309.229 6.46484 309.518 5.98307 309.883 5.56641C310.254 5.14974 310.687 4.82422 311.182 4.58984C311.683 4.35547 312.236 4.23828 312.842 4.23828C313.369 4.23828 313.841 4.3099 314.258 4.45312C314.674 4.59635 315.029 4.82422 315.322 5.13672C315.615 5.44922 315.837 5.84961 315.986 6.33789C316.143 6.82617 316.221 7.42188 316.221 8.125V15H315.049V8.11523C315.049 7.38607 314.948 6.81641 314.746 6.40625C314.544 5.98958 314.258 5.69336 313.887 5.51758C313.516 5.3418 313.076 5.25391 312.568 5.25391C312.008 5.25391 311.517 5.3776 311.094 5.625C310.677 5.86589 310.326 6.18164 310.039 6.57227C309.759 6.95638 309.544 7.36979 309.395 7.8125C309.245 8.2487 309.163 8.66536 309.15 9.0625ZM326.776 12.3047C326.776 12.0182 326.705 11.735 326.561 11.4551C326.418 11.1751 326.141 10.918 325.731 10.6836C325.328 10.4492 324.732 10.2507 323.944 10.0879C323.358 9.95768 322.834 9.8112 322.372 9.64844C321.916 9.48568 321.532 9.29036 321.22 9.0625C320.907 8.83464 320.669 8.5612 320.507 8.24219C320.344 7.92318 320.263 7.54557 320.263 7.10938C320.263 6.71875 320.347 6.35091 320.516 6.00586C320.692 5.6543 320.94 5.34831 321.259 5.08789C321.584 4.82096 321.975 4.61263 322.43 4.46289C322.893 4.31315 323.41 4.23828 323.983 4.23828C324.797 4.23828 325.494 4.37826 326.073 4.6582C326.659 4.93164 327.105 5.30599 327.411 5.78125C327.723 6.25651 327.88 6.79362 327.88 7.39258H326.718C326.718 7.02799 326.61 6.68294 326.395 6.35742C326.187 6.0319 325.878 5.76497 325.468 5.55664C325.064 5.34831 324.569 5.24414 323.983 5.24414C323.378 5.24414 322.886 5.33529 322.509 5.51758C322.131 5.69987 321.854 5.93099 321.679 6.21094C321.509 6.49089 321.425 6.7806 321.425 7.08008C321.425 7.31445 321.46 7.5293 321.532 7.72461C321.61 7.91341 321.747 8.08919 321.942 8.25195C322.144 8.41471 322.43 8.56771 322.802 8.71094C323.173 8.85417 323.654 8.99414 324.247 9.13086C325.1 9.31966 325.796 9.55078 326.337 9.82422C326.884 10.0911 327.287 10.4232 327.548 10.8203C327.808 11.2109 327.938 11.6862 327.938 12.2461C327.938 12.6823 327.847 13.0827 327.665 13.4473C327.483 13.8053 327.219 14.1146 326.874 14.375C326.535 14.6354 326.125 14.8372 325.643 14.9805C325.168 15.1237 324.634 15.1953 324.042 15.1953C323.15 15.1953 322.395 15.0488 321.776 14.7559C321.164 14.4564 320.699 14.0658 320.38 13.584C320.067 13.0957 319.911 12.5781 319.911 12.0312H321.073C321.112 12.5781 321.285 13.0111 321.591 13.3301C321.897 13.6426 322.271 13.8639 322.714 13.9941C323.163 14.1243 323.606 14.1895 324.042 14.1895C324.641 14.1895 325.142 14.1016 325.546 13.9258C325.949 13.75 326.255 13.5189 326.464 13.2324C326.672 12.946 326.776 12.6367 326.776 12.3047ZM335.867 15.1953C335.177 15.1953 334.542 15.0684 333.962 14.8145C333.39 14.5605 332.888 14.2025 332.459 13.7402C332.035 13.278 331.707 12.7311 331.472 12.0996C331.244 11.4616 331.13 10.765 331.13 10.0098V9.58984C331.13 8.77604 331.251 8.04036 331.492 7.38281C331.733 6.72526 332.065 6.16211 332.488 5.69336C332.911 5.22461 333.393 4.86654 333.933 4.61914C334.48 4.36523 335.053 4.23828 335.652 4.23828C336.323 4.23828 336.918 4.35872 337.439 4.59961C337.96 4.83398 338.396 5.16927 338.748 5.60547C339.106 6.03516 339.376 6.54622 339.558 7.13867C339.74 7.72461 339.832 8.3724 339.832 9.08203V9.79492H331.834V8.79883H338.67V8.66211C338.657 8.06966 338.536 7.51628 338.308 7.00195C338.087 6.48112 337.755 6.05794 337.312 5.73242C336.869 5.4069 336.316 5.24414 335.652 5.24414C335.157 5.24414 334.701 5.34831 334.285 5.55664C333.875 5.76497 333.52 6.06445 333.22 6.45508C332.927 6.83919 332.699 7.29818 332.537 7.83203C332.38 8.35938 332.302 8.94531 332.302 9.58984V10.0098C332.302 10.5957 332.387 11.1426 332.556 11.6504C332.732 12.1517 332.979 12.5944 333.298 12.9785C333.624 13.3626 334.008 13.6621 334.451 13.877C334.893 14.0918 335.382 14.1992 335.916 14.1992C336.541 14.1992 337.094 14.0853 337.576 13.8574C338.058 13.623 338.49 13.2552 338.875 12.7539L339.607 13.3203C339.379 13.6589 339.093 13.9714 338.748 14.2578C338.409 14.5443 338.002 14.7721 337.527 14.9414C337.052 15.1107 336.498 15.1953 335.867 15.1953ZM347.233 14.1895C347.728 14.1895 348.19 14.0983 348.62 13.916C349.056 13.7272 349.414 13.4505 349.694 13.0859C349.98 12.7148 350.143 12.2624 350.182 11.7285H351.295C351.263 12.3991 351.058 12.998 350.68 13.5254C350.309 14.0462 349.821 14.4564 349.215 14.7559C348.616 15.0488 347.955 15.1953 347.233 15.1953C346.497 15.1953 345.846 15.0618 345.28 14.7949C344.72 14.528 344.251 14.1569 343.873 13.6816C343.496 13.1999 343.209 12.64 343.014 12.002C342.825 11.3574 342.731 10.6641 342.731 9.92188V9.51172C342.731 8.76953 342.825 8.07943 343.014 7.44141C343.209 6.79688 343.496 6.23698 343.873 5.76172C344.251 5.27995 344.72 4.9056 345.28 4.63867C345.84 4.37174 346.487 4.23828 347.223 4.23828C347.978 4.23828 348.655 4.39128 349.254 4.69727C349.86 5.00326 350.342 5.4362 350.7 5.99609C351.064 6.55599 351.263 7.22005 351.295 7.98828H350.182C350.149 7.42188 350 6.93359 349.733 6.52344C349.466 6.11328 349.114 5.79753 348.678 5.57617C348.242 5.35482 347.757 5.24414 347.223 5.24414C346.624 5.24414 346.113 5.36133 345.69 5.5957C345.267 5.82357 344.922 6.13932 344.655 6.54297C344.394 6.9401 344.202 7.39583 344.079 7.91016C343.955 8.41797 343.893 8.95182 343.893 9.51172V9.92188C343.893 10.4883 343.952 11.0286 344.069 11.543C344.192 12.0508 344.385 12.5033 344.645 12.9004C344.912 13.2975 345.257 13.6133 345.68 13.8477C346.11 14.0755 346.627 14.1895 347.233 14.1895ZM358.843 4.43359V5.39062H353.55V4.43359H358.843ZM355.493 1.71875H356.655V12.4316C356.655 12.9199 356.721 13.2878 356.851 13.5352C356.981 13.7826 357.15 13.9486 357.359 14.0332C357.567 14.1178 357.792 14.1602 358.032 14.1602C358.208 14.1602 358.377 14.1504 358.54 14.1309C358.703 14.1048 358.849 14.0788 358.98 14.0527L359.029 15.0391C358.885 15.0846 358.7 15.1204 358.472 15.1465C358.244 15.179 358.016 15.1953 357.788 15.1953C357.339 15.1953 356.942 15.1139 356.597 14.9512C356.252 14.7819 355.982 14.4954 355.786 14.0918C355.591 13.6816 355.493 13.125 355.493 12.4219V1.71875ZM366.576 15.1953C365.886 15.1953 365.251 15.0684 364.672 14.8145C364.099 14.5605 363.598 14.2025 363.168 13.7402C362.745 13.278 362.416 12.7311 362.182 12.0996C361.954 11.4616 361.84 10.765 361.84 10.0098V9.58984C361.84 8.77604 361.96 8.04036 362.201 7.38281C362.442 6.72526 362.774 6.16211 363.197 5.69336C363.62 5.22461 364.102 4.86654 364.643 4.61914C365.189 4.36523 365.762 4.23828 366.361 4.23828C367.032 4.23828 367.628 4.35872 368.148 4.59961C368.669 4.83398 369.105 5.16927 369.457 5.60547C369.815 6.03516 370.085 6.54622 370.268 7.13867C370.45 7.72461 370.541 8.3724 370.541 9.08203V9.79492H362.543V8.79883H369.379V8.66211C369.366 8.06966 369.245 7.51628 369.018 7.00195C368.796 6.48112 368.464 6.05794 368.021 5.73242C367.579 5.4069 367.025 5.24414 366.361 5.24414C365.867 5.24414 365.411 5.34831 364.994 5.55664C364.584 5.76497 364.229 6.06445 363.93 6.45508C363.637 6.83919 363.409 7.29818 363.246 7.83203C363.09 8.35938 363.012 8.94531 363.012 9.58984V10.0098C363.012 10.5957 363.096 11.1426 363.266 11.6504C363.441 12.1517 363.689 12.5944 364.008 12.9785C364.333 13.3626 364.717 13.6621 365.16 13.877C365.603 14.0918 366.091 14.1992 366.625 14.1992C367.25 14.1992 367.803 14.0853 368.285 13.8574C368.767 13.623 369.2 13.2552 369.584 12.7539L370.316 13.3203C370.089 13.6589 369.802 13.9714 369.457 14.2578C369.118 14.5443 368.712 14.7721 368.236 14.9414C367.761 15.1107 367.208 15.1953 366.576 15.1953ZM378.04 4.43359V5.39062H372.747V4.43359H378.04ZM374.69 1.71875H375.852V12.4316C375.852 12.9199 375.917 13.2878 376.048 13.5352C376.178 13.7826 376.347 13.9486 376.555 14.0332C376.764 14.1178 376.988 14.1602 377.229 14.1602C377.405 14.1602 377.574 14.1504 377.737 14.1309C377.9 14.1048 378.046 14.0788 378.177 14.0527L378.225 15.0391C378.082 15.0846 377.897 15.1204 377.669 15.1465C377.441 15.179 377.213 15.1953 376.985 15.1953C376.536 15.1953 376.139 15.1139 375.794 14.9512C375.449 14.7819 375.179 14.4954 374.983 14.0918C374.788 13.6816 374.69 13.125 374.69 12.4219V1.71875ZM388.459 12.5586V4.43359H389.63V15H388.507L388.459 12.5586ZM388.673 10.6055L389.279 10.5859C389.279 11.25 389.201 11.862 389.045 12.4219C388.888 12.9818 388.644 13.4701 388.312 13.8867C387.98 14.3034 387.55 14.6257 387.023 14.8535C386.496 15.0814 385.861 15.1953 385.119 15.1953C384.604 15.1953 384.132 15.1237 383.703 14.9805C383.28 14.8307 382.915 14.5964 382.609 14.2773C382.303 13.9583 382.065 13.5449 381.896 13.0371C381.733 12.5293 381.652 11.9141 381.652 11.1914V4.43359H382.814V11.2109C382.814 11.7773 382.876 12.2493 383 12.627C383.13 13.0046 383.306 13.3073 383.527 13.5352C383.755 13.763 384.015 13.9258 384.308 14.0234C384.601 14.1211 384.917 14.1699 385.255 14.1699C386.115 14.1699 386.792 14.0039 387.287 13.6719C387.788 13.3398 388.143 12.9036 388.351 12.3633C388.566 11.8164 388.673 11.2305 388.673 10.6055ZM395.049 6.18164V15H393.887V4.43359H395.02L395.049 6.18164ZM398.789 4.35547L398.76 5.42969C398.63 5.41016 398.503 5.39388 398.379 5.38086C398.256 5.36784 398.122 5.36133 397.979 5.36133C397.471 5.36133 397.025 5.45573 396.641 5.64453C396.263 5.82682 395.944 6.08398 395.684 6.41602C395.424 6.74154 395.225 7.12565 395.088 7.56836C394.952 8.00456 394.873 8.47331 394.854 8.97461L394.424 9.14062C394.424 8.45052 394.496 7.80924 394.639 7.2168C394.782 6.62435 395 6.10677 395.293 5.66406C395.593 5.21484 395.967 4.86654 396.416 4.61914C396.872 4.36523 397.406 4.23828 398.018 4.23828C398.168 4.23828 398.314 4.2513 398.457 4.27734C398.607 4.29688 398.718 4.32292 398.789 4.35547ZM414.334 13.1055V7.65625C414.334 7.15495 414.23 6.72201 414.021 6.35742C413.813 5.99284 413.507 5.71289 413.104 5.51758C412.7 5.32227 412.202 5.22461 411.609 5.22461C411.062 5.22461 410.574 5.32227 410.145 5.51758C409.721 5.70638 409.386 5.96354 409.139 6.28906C408.898 6.60807 408.777 6.96289 408.777 7.35352L407.605 7.34375C407.605 6.94661 407.703 6.5625 407.898 6.19141C408.094 5.82031 408.37 5.48828 408.729 5.19531C409.087 4.90234 409.513 4.67122 410.008 4.50195C410.509 4.32617 411.059 4.23828 411.658 4.23828C412.413 4.23828 413.077 4.36523 413.65 4.61914C414.23 4.87305 414.682 5.25391 415.008 5.76172C415.333 6.26953 415.496 6.90755 415.496 7.67578V12.7832C415.496 13.1478 415.522 13.5254 415.574 13.916C415.633 14.3066 415.714 14.6289 415.818 14.8828V15H414.578C414.5 14.7656 414.438 14.4727 414.393 14.1211C414.354 13.763 414.334 13.4245 414.334 13.1055ZM414.607 8.84766L414.627 9.74609H412.332C411.733 9.74609 411.196 9.80143 410.721 9.91211C410.252 10.0163 409.855 10.1725 409.529 10.3809C409.204 10.5827 408.953 10.8268 408.777 11.1133C408.608 11.3997 408.523 11.7253 408.523 12.0898C408.523 12.4674 408.618 12.8125 408.807 13.125C409.002 13.4375 409.275 13.6882 409.627 13.877C409.985 14.0592 410.408 14.1504 410.896 14.1504C411.548 14.1504 412.12 14.0299 412.615 13.7891C413.117 13.5482 413.53 13.2324 413.855 12.8418C414.181 12.4512 414.399 12.0247 414.51 11.5625L415.018 12.2363C414.933 12.5618 414.777 12.8971 414.549 13.2422C414.327 13.5807 414.038 13.8997 413.68 14.1992C413.322 14.4922 412.898 14.7331 412.41 14.9219C411.928 15.1042 411.382 15.1953 410.77 15.1953C410.079 15.1953 409.477 15.0651 408.963 14.8047C408.455 14.5443 408.058 14.1895 407.771 13.7402C407.492 13.2845 407.352 12.7702 407.352 12.1973C407.352 11.6764 407.462 11.2109 407.684 10.8008C407.905 10.3841 408.224 10.0326 408.641 9.74609C409.064 9.45312 409.572 9.23177 410.164 9.08203C410.763 8.92578 411.434 8.84766 412.176 8.84766H414.607ZM426.696 12.9492V0H427.868V15H426.774L426.696 12.9492ZM419.362 9.82422V9.61914C419.362 8.79883 419.457 8.0599 419.645 7.40234C419.834 6.73828 420.104 6.17188 420.456 5.70312C420.814 5.22786 421.244 4.86654 421.745 4.61914C422.246 4.36523 422.813 4.23828 423.444 4.23828C424.063 4.23828 424.61 4.33919 425.085 4.54102C425.56 4.74284 425.967 5.03255 426.305 5.41016C426.651 5.78776 426.927 6.23698 427.136 6.75781C427.35 7.27865 427.507 7.85807 427.604 8.49609V11.1035C427.526 11.7025 427.383 12.2526 427.175 12.7539C426.966 13.2487 426.69 13.6816 426.345 14.0527C425.999 14.4173 425.583 14.7005 425.095 14.9023C424.613 15.0977 424.056 15.1953 423.425 15.1953C422.8 15.1953 422.236 15.0651 421.735 14.8047C421.234 14.5443 420.807 14.1764 420.456 13.7012C420.104 13.2194 419.834 12.6497 419.645 11.9922C419.457 11.3346 419.362 10.612 419.362 9.82422ZM420.534 9.61914V9.82422C420.534 10.4427 420.596 11.0156 420.72 11.543C420.843 12.0703 421.032 12.5293 421.286 12.9199C421.54 13.3105 421.862 13.6165 422.253 13.8379C422.643 14.0592 423.106 14.1699 423.639 14.1699C424.31 14.1699 424.873 14.043 425.329 13.7891C425.785 13.5286 426.149 13.1868 426.423 12.7637C426.696 12.334 426.895 11.8652 427.018 11.3574V8.32031C426.94 7.97526 426.826 7.6237 426.677 7.26562C426.527 6.90755 426.322 6.57878 426.061 6.2793C425.807 5.97331 425.482 5.72917 425.085 5.54688C424.694 5.35807 424.219 5.26367 423.659 5.26367C423.119 5.26367 422.653 5.37435 422.263 5.5957C421.872 5.81706 421.546 6.1263 421.286 6.52344C421.032 6.91406 420.843 7.37305 420.72 7.90039C420.596 8.42773 420.534 9.00065 420.534 9.61914ZM433.443 4.43359V15H432.281V4.43359H433.443ZM432.076 1.37695C432.076 1.1556 432.144 0.970052 432.281 0.820312C432.424 0.664062 432.619 0.585938 432.867 0.585938C433.114 0.585938 433.309 0.664062 433.453 0.820312C433.602 0.970052 433.677 1.1556 433.677 1.37695C433.677 1.5918 433.602 1.77734 433.453 1.93359C433.309 2.08333 433.114 2.1582 432.867 2.1582C432.619 2.1582 432.424 2.08333 432.281 1.93359C432.144 1.77734 432.076 1.5918 432.076 1.37695ZM438.989 6.46484V19.0625H437.817V4.43359H438.911L438.989 6.46484ZM446.332 9.61914V9.82422C446.332 10.612 446.241 11.3346 446.059 11.9922C445.877 12.6497 445.613 13.2194 445.268 13.7012C444.929 14.1764 444.51 14.5443 444.008 14.8047C443.507 15.0651 442.937 15.1953 442.299 15.1953C441.668 15.1953 441.105 15.0977 440.61 14.9023C440.115 14.707 439.689 14.4303 439.33 14.0723C438.979 13.7077 438.696 13.2845 438.481 12.8027C438.273 12.3145 438.126 11.7806 438.041 11.2012V8.49609C438.139 7.85807 438.299 7.27865 438.52 6.75781C438.741 6.23698 439.024 5.78776 439.37 5.41016C439.721 5.03255 440.138 4.74284 440.62 4.54102C441.101 4.33919 441.651 4.23828 442.27 4.23828C442.914 4.23828 443.487 4.36523 443.989 4.61914C444.496 4.86654 444.923 5.22786 445.268 5.70312C445.62 6.17188 445.883 6.73828 446.059 7.40234C446.241 8.0599 446.332 8.79883 446.332 9.61914ZM445.161 9.82422V9.61914C445.161 9.00065 445.095 8.42773 444.965 7.90039C444.842 7.37305 444.649 6.91406 444.389 6.52344C444.135 6.1263 443.81 5.81706 443.413 5.5957C443.022 5.37435 442.556 5.26367 442.016 5.26367C441.456 5.26367 440.978 5.35807 440.58 5.54688C440.19 5.72917 439.864 5.97331 439.604 6.2793C439.343 6.57878 439.138 6.90755 438.989 7.26562C438.839 7.6237 438.728 7.97526 438.657 8.32031V11.4355C438.78 11.9303 438.979 12.3893 439.252 12.8125C439.526 13.2292 439.89 13.5645 440.346 13.8184C440.808 14.0658 441.371 14.1895 442.036 14.1895C442.569 14.1895 443.032 14.0788 443.422 13.8574C443.813 13.6361 444.135 13.3268 444.389 12.9297C444.649 12.5326 444.842 12.0703 444.965 11.543C445.095 11.0156 445.161 10.4427 445.161 9.82422ZM451.429 4.43359V15H450.267V4.43359H451.429ZM450.062 1.37695C450.062 1.1556 450.13 0.970052 450.267 0.820312C450.41 0.664062 450.605 0.585938 450.853 0.585938C451.1 0.585938 451.295 0.664062 451.439 0.820312C451.588 0.970052 451.663 1.1556 451.663 1.37695C451.663 1.5918 451.588 1.77734 451.439 1.93359C451.295 2.08333 451.1 2.1582 450.853 2.1582C450.605 2.1582 450.41 2.08333 450.267 1.93359C450.13 1.77734 450.062 1.5918 450.062 1.37695ZM462.15 12.3047C462.15 12.0182 462.079 11.735 461.936 11.4551C461.792 11.1751 461.516 10.918 461.105 10.6836C460.702 10.4492 460.106 10.2507 459.318 10.0879C458.732 9.95768 458.208 9.8112 457.746 9.64844C457.29 9.48568 456.906 9.29036 456.594 9.0625C456.281 8.83464 456.044 8.5612 455.881 8.24219C455.718 7.92318 455.637 7.54557 455.637 7.10938C455.637 6.71875 455.721 6.35091 455.891 6.00586C456.066 5.6543 456.314 5.34831 456.633 5.08789C456.958 4.82096 457.349 4.61263 457.805 4.46289C458.267 4.31315 458.785 4.23828 459.357 4.23828C460.171 4.23828 460.868 4.37826 461.447 4.6582C462.033 4.93164 462.479 5.30599 462.785 5.78125C463.098 6.25651 463.254 6.79362 463.254 7.39258H462.092C462.092 7.02799 461.984 6.68294 461.77 6.35742C461.561 6.0319 461.252 5.76497 460.842 5.55664C460.438 5.34831 459.943 5.24414 459.357 5.24414C458.752 5.24414 458.26 5.33529 457.883 5.51758C457.505 5.69987 457.229 5.93099 457.053 6.21094C456.883 6.49089 456.799 6.7806 456.799 7.08008C456.799 7.31445 456.835 7.5293 456.906 7.72461C456.984 7.91341 457.121 8.08919 457.316 8.25195C457.518 8.41471 457.805 8.56771 458.176 8.71094C458.547 8.85417 459.029 8.99414 459.621 9.13086C460.474 9.31966 461.171 9.55078 461.711 9.82422C462.258 10.0911 462.661 10.4232 462.922 10.8203C463.182 11.2109 463.312 11.6862 463.312 12.2461C463.312 12.6823 463.221 13.0827 463.039 13.4473C462.857 13.8053 462.593 14.1146 462.248 14.375C461.91 14.6354 461.499 14.8372 461.018 14.9805C460.542 15.1237 460.008 15.1953 459.416 15.1953C458.524 15.1953 457.769 15.0488 457.15 14.7559C456.538 14.4564 456.073 14.0658 455.754 13.584C455.441 13.0957 455.285 12.5781 455.285 12.0312H456.447C456.486 12.5781 456.659 13.0111 456.965 13.3301C457.271 13.6426 457.645 13.8639 458.088 13.9941C458.537 14.1243 458.98 14.1895 459.416 14.1895C460.015 14.1895 460.516 14.1016 460.92 13.9258C461.324 13.75 461.63 13.5189 461.838 13.2324C462.046 12.946 462.15 12.6367 462.15 12.3047ZM471.055 14.1895C471.55 14.1895 472.013 14.0983 472.442 13.916C472.878 13.7272 473.236 13.4505 473.516 13.0859C473.803 12.7148 473.966 12.2624 474.005 11.7285H475.118C475.085 12.3991 474.88 12.998 474.503 13.5254C474.132 14.0462 473.643 14.4564 473.038 14.7559C472.439 15.0488 471.778 15.1953 471.055 15.1953C470.32 15.1953 469.669 15.0618 469.102 14.7949C468.542 14.528 468.074 14.1569 467.696 13.6816C467.319 13.1999 467.032 12.64 466.837 12.002C466.648 11.3574 466.554 10.6641 466.554 9.92188V9.51172C466.554 8.76953 466.648 8.07943 466.837 7.44141C467.032 6.79688 467.319 6.23698 467.696 5.76172C468.074 5.27995 468.542 4.9056 469.102 4.63867C469.662 4.37174 470.31 4.23828 471.046 4.23828C471.801 4.23828 472.478 4.39128 473.077 4.69727C473.682 5.00326 474.164 5.4362 474.522 5.99609C474.887 6.55599 475.085 7.22005 475.118 7.98828H474.005C473.972 7.42188 473.822 6.93359 473.555 6.52344C473.289 6.11328 472.937 5.79753 472.501 5.57617C472.065 5.35482 471.58 5.24414 471.046 5.24414C470.447 5.24414 469.936 5.36133 469.513 5.5957C469.089 5.82357 468.744 6.13932 468.477 6.54297C468.217 6.9401 468.025 7.39583 467.901 7.91016C467.777 8.41797 467.716 8.95182 467.716 9.51172V9.92188C467.716 10.4883 467.774 11.0286 467.891 11.543C468.015 12.0508 468.207 12.5033 468.468 12.9004C468.735 13.2975 469.08 13.6133 469.503 13.8477C469.932 14.0755 470.45 14.1895 471.055 14.1895ZM479.97 4.43359V15H478.808V4.43359H479.97ZM478.603 1.37695C478.603 1.1556 478.671 0.970052 478.808 0.820312C478.951 0.664062 479.147 0.585938 479.394 0.585938C479.642 0.585938 479.837 0.664062 479.98 0.820312C480.13 0.970052 480.205 1.1556 480.205 1.37695C480.205 1.5918 480.13 1.77734 479.98 1.93359C479.837 2.08333 479.642 2.1582 479.394 2.1582C479.147 2.1582 478.951 2.08333 478.808 1.93359C478.671 1.77734 478.603 1.5918 478.603 1.37695ZM485.526 6.68945V15H484.364V4.43359H485.477L485.526 6.68945ZM485.262 9.0625L484.745 8.76953C484.784 8.14453 484.911 7.55859 485.125 7.01172C485.34 6.46484 485.63 5.98307 485.995 5.56641C486.366 5.14974 486.799 4.82422 487.293 4.58984C487.795 4.35547 488.348 4.23828 488.954 4.23828C489.481 4.23828 489.953 4.3099 490.37 4.45312C490.786 4.59635 491.141 4.82422 491.434 5.13672C491.727 5.44922 491.948 5.84961 492.098 6.33789C492.254 6.82617 492.332 7.42188 492.332 8.125V15H491.161V8.11523C491.161 7.38607 491.06 6.81641 490.858 6.40625C490.656 5.98958 490.37 5.69336 489.998 5.51758C489.627 5.3418 489.188 5.25391 488.68 5.25391C488.12 5.25391 487.629 5.3776 487.205 5.625C486.789 5.86589 486.437 6.18164 486.151 6.57227C485.871 6.95638 485.656 7.36979 485.506 7.8125C485.357 8.2487 485.275 8.66536 485.262 9.0625ZM503.513 4.43359H504.597V14.8145C504.597 15.7324 504.421 16.5202 504.07 17.1777C503.724 17.8353 503.233 18.3398 502.595 18.6914C501.963 19.043 501.218 19.2188 500.359 19.2188C499.922 19.2188 499.473 19.1504 499.011 19.0137C498.555 18.8835 498.122 18.6816 497.712 18.4082C497.308 18.1413 496.963 17.8092 496.677 17.4121L497.331 16.6992C497.761 17.2201 498.22 17.6009 498.708 17.8418C499.196 18.0892 499.724 18.2129 500.29 18.2129C500.961 18.2129 501.527 18.0794 501.989 17.8125C502.458 17.5456 502.813 17.1615 503.054 16.6602C503.301 16.1589 503.425 15.5566 503.425 14.8535V6.75781L503.513 4.43359ZM496.091 9.82422V9.61914C496.091 8.79883 496.182 8.0599 496.364 7.40234C496.553 6.73828 496.823 6.17188 497.175 5.70312C497.527 5.22786 497.953 4.86654 498.454 4.61914C498.962 4.36523 499.535 4.23828 500.173 4.23828C500.785 4.23828 501.329 4.33919 501.804 4.54102C502.279 4.74284 502.689 5.03255 503.034 5.41016C503.379 5.78776 503.656 6.23698 503.864 6.75781C504.079 7.27865 504.236 7.85807 504.333 8.49609V11.1035C504.255 11.7025 504.112 12.2526 503.904 12.7539C503.695 13.2487 503.418 13.6816 503.073 14.0527C502.728 14.4173 502.312 14.7005 501.823 14.9023C501.342 15.0977 500.785 15.1953 500.154 15.1953C499.522 15.1953 498.956 15.0651 498.454 14.8047C497.953 14.5443 497.527 14.1764 497.175 13.7012C496.823 13.2194 496.553 12.6497 496.364 11.9922C496.182 11.3346 496.091 10.612 496.091 9.82422ZM497.263 9.61914V9.82422C497.263 10.4427 497.325 11.0156 497.448 11.543C497.572 12.0703 497.761 12.5293 498.015 12.9199C498.269 13.3105 498.591 13.6165 498.982 13.8379C499.372 14.0592 499.831 14.1699 500.359 14.1699C501.029 14.1699 501.592 14.043 502.048 13.7891C502.504 13.5286 502.865 13.1868 503.132 12.7637C503.399 12.334 503.594 11.8652 503.718 11.3574V8.32031C503.646 7.97526 503.536 7.6237 503.386 7.26562C503.243 6.90755 503.041 6.57878 502.78 6.2793C502.527 5.97331 502.201 5.72917 501.804 5.54688C501.413 5.35807 500.938 5.26367 500.378 5.26367C499.844 5.26367 499.379 5.37435 498.982 5.5957C498.591 5.81706 498.269 6.1263 498.015 6.52344C497.761 6.91406 497.572 7.37305 497.448 7.90039C497.325 8.42773 497.263 9.00065 497.263 9.61914ZM519.018 15.1953C518.328 15.1953 517.694 15.0684 517.114 14.8145C516.541 14.5605 516.04 14.2025 515.61 13.7402C515.187 13.278 514.858 12.7311 514.624 12.0996C514.396 11.4616 514.282 10.765 514.282 10.0098V9.58984C514.282 8.77604 514.402 8.04036 514.643 7.38281C514.884 6.72526 515.216 6.16211 515.639 5.69336C516.063 5.22461 516.544 4.86654 517.085 4.61914C517.632 4.36523 518.205 4.23828 518.804 4.23828C519.474 4.23828 520.07 4.35872 520.591 4.59961C521.111 4.83398 521.548 5.16927 521.899 5.60547C522.257 6.03516 522.527 6.54622 522.71 7.13867C522.892 7.72461 522.983 8.3724 522.983 9.08203V9.79492H514.985V8.79883H521.821V8.66211C521.808 8.06966 521.688 7.51628 521.46 7.00195C521.238 6.48112 520.906 6.05794 520.464 5.73242C520.021 5.4069 519.468 5.24414 518.804 5.24414C518.309 5.24414 517.853 5.34831 517.436 5.55664C517.026 5.76497 516.671 6.06445 516.372 6.45508C516.079 6.83919 515.851 7.29818 515.688 7.83203C515.532 8.35938 515.454 8.94531 515.454 9.58984V10.0098C515.454 10.5957 515.539 11.1426 515.708 11.6504C515.884 12.1517 516.131 12.5944 516.45 12.9785C516.776 13.3626 517.16 13.6621 517.602 13.877C518.045 14.0918 518.533 14.1992 519.067 14.1992C519.692 14.1992 520.246 14.0853 520.727 13.8574C521.209 13.623 521.642 13.2552 522.026 12.7539L522.759 13.3203C522.531 13.6589 522.244 13.9714 521.899 14.2578C521.561 14.5443 521.154 14.7721 520.679 14.9414C520.203 15.1107 519.65 15.1953 519.018 15.1953ZM527.787 0V15H526.625V0H527.787ZM533.479 4.43359V15H532.317V4.43359H533.479ZM532.112 1.37695C532.112 1.1556 532.18 0.970052 532.317 0.820312C532.46 0.664062 532.655 0.585938 532.903 0.585938C533.15 0.585938 533.345 0.664062 533.489 0.820312C533.638 0.970052 533.713 1.1556 533.713 1.37695C533.713 1.5918 533.638 1.77734 533.489 1.93359C533.345 2.08333 533.15 2.1582 532.903 2.1582C532.655 2.1582 532.46 2.08333 532.317 1.93359C532.18 1.77734 532.112 1.5918 532.112 1.37695ZM541.866 4.43359V5.39062H536.573V4.43359H541.866ZM538.517 1.71875H539.679V12.4316C539.679 12.9199 539.744 13.2878 539.874 13.5352C540.004 13.7826 540.174 13.9486 540.382 14.0332C540.59 14.1178 540.815 14.1602 541.056 14.1602C541.232 14.1602 541.401 14.1504 541.564 14.1309C541.726 14.1048 541.873 14.0788 542.003 14.0527L542.052 15.0391C541.909 15.0846 541.723 15.1204 541.495 15.1465C541.267 15.179 541.04 15.1953 540.812 15.1953C540.362 15.1953 539.965 15.1139 539.62 14.9512C539.275 14.7819 539.005 14.4954 538.81 14.0918C538.614 13.6816 538.517 13.125 538.517 12.4219V1.71875ZM546.641 13.1543V14.5215C546.641 15.1204 546.517 15.6966 546.27 16.25C546.022 16.8099 545.687 17.2819 545.264 17.666L544.58 17.1582C544.782 16.8848 544.951 16.6113 545.088 16.3379C545.225 16.071 545.326 15.791 545.391 15.498C545.462 15.2051 545.498 14.8893 545.498 14.5508V13.1543H546.641ZM6.86133 35.3047C6.86133 35.0182 6.78971 34.735 6.64648 34.4551C6.50326 34.1751 6.22656 33.918 5.81641 33.6836C5.41276 33.4492 4.81706 33.2507 4.0293 33.0879C3.44336 32.9577 2.91927 32.8112 2.45703 32.6484C2.0013 32.4857 1.61719 32.2904 1.30469 32.0625C0.992188 31.8346 0.754557 31.5612 0.591797 31.2422C0.429036 30.9232 0.347656 30.5456 0.347656 30.1094C0.347656 29.7188 0.432292 29.3509 0.601562 29.0059C0.777344 28.6543 1.02474 28.3483 1.34375 28.0879C1.66927 27.821 2.0599 27.6126 2.51562 27.4629C2.97786 27.3132 3.49544 27.2383 4.06836 27.2383C4.88216 27.2383 5.57878 27.3783 6.1582 27.6582C6.74414 27.9316 7.1901 28.306 7.49609 28.7812C7.80859 29.2565 7.96484 29.7936 7.96484 30.3926H6.80273C6.80273 30.028 6.69531 29.6829 6.48047 29.3574C6.27214 29.0319 5.96289 28.765 5.55273 28.5566C5.14909 28.3483 4.6543 28.2441 4.06836 28.2441C3.46289 28.2441 2.97135 28.3353 2.59375 28.5176C2.21615 28.6999 1.93945 28.931 1.76367 29.2109C1.5944 29.4909 1.50977 29.7806 1.50977 30.0801C1.50977 30.3145 1.54557 30.5293 1.61719 30.7246C1.69531 30.9134 1.83203 31.0892 2.02734 31.252C2.22917 31.4147 2.51562 31.5677 2.88672 31.7109C3.25781 31.8542 3.73958 31.9941 4.33203 32.1309C5.1849 32.3197 5.88151 32.5508 6.42188 32.8242C6.96875 33.0911 7.3724 33.4232 7.63281 33.8203C7.89323 34.2109 8.02344 34.6862 8.02344 35.2461C8.02344 35.6823 7.93229 36.0827 7.75 36.4473C7.56771 36.8053 7.30404 37.1146 6.95898 37.375C6.62044 37.6354 6.21029 37.8372 5.72852 37.9805C5.25326 38.1237 4.7194 38.1953 4.12695 38.1953C3.23503 38.1953 2.47982 38.0488 1.86133 37.7559C1.24935 37.4564 0.783854 37.0658 0.464844 36.584C0.152344 36.0957 -0.00390625 35.5781 -0.00390625 35.0312H1.1582C1.19727 35.5781 1.36979 36.0111 1.67578 36.3301C1.98177 36.6426 2.35612 36.8639 2.79883 36.9941C3.24805 37.1243 3.69076 37.1895 4.12695 37.1895C4.72591 37.1895 5.22721 37.1016 5.63086 36.9258C6.03451 36.75 6.34049 36.5189 6.54883 36.2324C6.75716 35.946 6.86133 35.6367 6.86133 35.3047ZM15.952 38.1953C15.2618 38.1953 14.6271 38.0684 14.0477 37.8145C13.4747 37.5605 12.9734 37.2025 12.5437 36.7402C12.1206 36.278 11.7918 35.7311 11.5574 35.0996C11.3296 34.4616 11.2156 33.765 11.2156 33.0098V32.5898C11.2156 31.776 11.3361 31.0404 11.577 30.3828C11.8178 29.7253 12.1499 29.1621 12.573 28.6934C12.9962 28.2246 13.478 27.8665 14.0184 27.6191C14.5652 27.3652 15.1382 27.2383 15.7371 27.2383C16.4077 27.2383 17.0034 27.3587 17.5242 27.5996C18.0451 27.834 18.4812 28.1693 18.8328 28.6055C19.1909 29.0352 19.4611 29.5462 19.6434 30.1387C19.8257 30.7246 19.9168 31.3724 19.9168 32.082V32.7949H11.9187V31.7988H18.7547V31.6621C18.7417 31.0697 18.6212 30.5163 18.3934 30.002C18.172 29.4811 17.84 29.0579 17.3973 28.7324C16.9546 28.4069 16.4012 28.2441 15.7371 28.2441C15.2423 28.2441 14.7866 28.3483 14.3699 28.5566C13.9598 28.765 13.6049 29.0645 13.3055 29.4551C13.0125 29.8392 12.7846 30.2982 12.6219 30.832C12.4656 31.3594 12.3875 31.9453 12.3875 32.5898V33.0098C12.3875 33.5957 12.4721 34.1426 12.6414 34.6504C12.8172 35.1517 13.0646 35.5944 13.3836 35.9785C13.7091 36.3626 14.0932 36.6621 14.5359 36.877C14.9786 37.0918 15.4669 37.1992 16.0008 37.1992C16.6258 37.1992 17.1792 37.0853 17.6609 36.8574C18.1427 36.623 18.5757 36.2552 18.9598 35.7539L19.6922 36.3203C19.4643 36.6589 19.1779 36.9714 18.8328 37.2578C18.4943 37.5443 18.0874 37.7721 17.6121 37.9414C17.1368 38.1107 16.5835 38.1953 15.952 38.1953ZM30.2867 35.9492V23H31.4586V38H30.3648L30.2867 35.9492ZM22.9527 32.8242V32.6191C22.9527 31.7988 23.0471 31.0599 23.2359 30.4023C23.4247 29.7383 23.6949 29.1719 24.0465 28.7031C24.4046 28.2279 24.8342 27.8665 25.3355 27.6191C25.8368 27.3652 26.4033 27.2383 27.0348 27.2383C27.6533 27.2383 28.2001 27.3392 28.6754 27.541C29.1507 27.7428 29.5576 28.0326 29.8961 28.4102C30.2411 28.7878 30.5178 29.237 30.7262 29.7578C30.941 30.2786 31.0973 30.8581 31.1949 31.4961V34.1035C31.1168 34.7025 30.9736 35.2526 30.7652 35.7539C30.5569 36.2487 30.2802 36.6816 29.9352 37.0527C29.5901 37.4173 29.1734 37.7005 28.6852 37.9023C28.2034 38.0977 27.6467 38.1953 27.0152 38.1953C26.3902 38.1953 25.8271 38.0651 25.3258 37.8047C24.8245 37.5443 24.398 37.1764 24.0465 36.7012C23.6949 36.2194 23.4247 35.6497 23.2359 34.9922C23.0471 34.3346 22.9527 33.612 22.9527 32.8242ZM24.1246 32.6191V32.8242C24.1246 33.4427 24.1865 34.0156 24.3102 34.543C24.4339 35.0703 24.6227 35.5293 24.8766 35.9199C25.1305 36.3105 25.4527 36.6165 25.8434 36.8379C26.234 37.0592 26.6962 37.1699 27.2301 37.1699C27.9007 37.1699 28.4638 37.043 28.9195 36.7891C29.3753 36.5286 29.7398 36.1868 30.0133 35.7637C30.2867 35.334 30.4853 34.8652 30.609 34.3574V31.3203C30.5309 30.9753 30.4169 30.6237 30.2672 30.2656C30.1174 29.9076 29.9124 29.5788 29.652 29.2793C29.398 28.9733 29.0725 28.7292 28.6754 28.5469C28.2848 28.3581 27.8095 28.2637 27.2496 28.2637C26.7092 28.2637 26.2437 28.3743 25.8531 28.5957C25.4625 28.8171 25.137 29.1263 24.8766 29.5234C24.6227 29.9141 24.4339 30.373 24.3102 30.9004C24.1865 31.4277 24.1246 32.0007 24.1246 32.6191ZM48.6828 35.9492V23H49.8547V38H48.7609L48.6828 35.9492ZM41.3488 32.8242V32.6191C41.3488 31.7988 41.4432 31.0599 41.632 30.4023C41.8208 29.7383 42.091 29.1719 42.4426 28.7031C42.8007 28.2279 43.2303 27.8665 43.7316 27.6191C44.2329 27.3652 44.7993 27.2383 45.4309 27.2383C46.0493 27.2383 46.5962 27.3392 47.0715 27.541C47.5467 27.7428 47.9536 28.0326 48.2922 28.4102C48.6372 28.7878 48.9139 29.237 49.1223 29.7578C49.3371 30.2786 49.4934 30.8581 49.591 31.4961V34.1035C49.5129 34.7025 49.3697 35.2526 49.1613 35.7539C48.953 36.2487 48.6763 36.6816 48.3312 37.0527C47.9862 37.4173 47.5695 37.7005 47.0812 37.9023C46.5995 38.0977 46.0428 38.1953 45.4113 38.1953C44.7863 38.1953 44.2232 38.0651 43.7219 37.8047C43.2206 37.5443 42.7941 37.1764 42.4426 36.7012C42.091 36.2194 41.8208 35.6497 41.632 34.9922C41.4432 34.3346 41.3488 33.612 41.3488 32.8242ZM42.5207 32.6191V32.8242C42.5207 33.4427 42.5826 34.0156 42.7062 34.543C42.8299 35.0703 43.0187 35.5293 43.2727 35.9199C43.5266 36.3105 43.8488 36.6165 44.2395 36.8379C44.6301 37.0592 45.0923 37.1699 45.6262 37.1699C46.2967 37.1699 46.8599 37.043 47.3156 36.7891C47.7714 36.5286 48.1359 36.1868 48.4094 35.7637C48.6828 35.334 48.8814 34.8652 49.0051 34.3574V31.3203C48.927 30.9753 48.813 30.6237 48.6633 30.2656C48.5135 29.9076 48.3085 29.5788 48.048 29.2793C47.7941 28.9733 47.4686 28.7292 47.0715 28.5469C46.6809 28.3581 46.2056 28.2637 45.6457 28.2637C45.1053 28.2637 44.6398 28.3743 44.2492 28.5957C43.8586 28.8171 43.5331 29.1263 43.2727 29.5234C43.0187 29.9141 42.8299 30.373 42.7062 30.9004C42.5826 31.4277 42.5207 32.0007 42.5207 32.6191ZM53.4863 32.8828V32.5605C53.4863 31.7923 53.597 31.0827 53.8184 30.4316C54.0397 29.7806 54.3555 29.2174 54.7656 28.7422C55.1823 28.2669 55.6803 27.8991 56.2598 27.6387C56.8392 27.3717 57.4837 27.2383 58.1934 27.2383C58.9095 27.2383 59.5573 27.3717 60.1367 27.6387C60.7161 27.8991 61.2142 28.2669 61.6309 28.7422C62.0475 29.2174 62.3665 29.7806 62.5879 30.4316C62.8092 31.0827 62.9199 31.7923 62.9199 32.5605V32.8828C62.9199 33.651 62.8092 34.3607 62.5879 35.0117C62.3665 35.6562 62.0475 36.2161 61.6309 36.6914C61.2207 37.1667 60.7259 37.5378 60.1465 37.8047C59.5671 38.0651 58.9225 38.1953 58.2129 38.1953C57.4967 38.1953 56.849 38.0651 56.2695 37.8047C55.6901 37.5378 55.1921 37.1667 54.7754 36.6914C54.3587 36.2161 54.0397 35.6562 53.8184 35.0117C53.597 34.3607 53.4863 33.651 53.4863 32.8828ZM54.6484 32.5605V32.8828C54.6484 33.4622 54.7266 34.0124 54.8828 34.5332C55.0391 35.0475 55.2669 35.5065 55.5664 35.9102C55.8659 36.3073 56.237 36.6198 56.6797 36.8477C57.1224 37.0755 57.6335 37.1895 58.2129 37.1895C58.7858 37.1895 59.2904 37.0755 59.7266 36.8477C60.1693 36.6198 60.5404 36.3073 60.8398 35.9102C61.1393 35.5065 61.3639 35.0475 61.5137 34.5332C61.6699 34.0124 61.748 33.4622 61.748 32.8828V32.5605C61.748 31.9876 61.6699 31.444 61.5137 30.9297C61.3639 30.4154 61.1361 29.9564 60.8301 29.5527C60.5306 29.1491 60.1595 28.8301 59.7168 28.5957C59.2741 28.3613 58.7663 28.2441 58.1934 28.2441C57.6204 28.2441 57.1126 28.3613 56.6699 28.5957C56.2337 28.8301 55.8626 29.1491 55.5566 29.5527C55.2572 29.9564 55.0293 30.4154 54.873 30.9297C54.7233 31.444 54.6484 31.9876 54.6484 32.5605ZM76.7066 38.1953C76.0165 38.1953 75.3818 38.0684 74.8023 37.8145C74.2294 37.5605 73.7281 37.2025 73.2984 36.7402C72.8753 36.278 72.5465 35.7311 72.3121 35.0996C72.0842 34.4616 71.9703 33.765 71.9703 33.0098V32.5898C71.9703 31.776 72.0908 31.0404 72.3316 30.3828C72.5725 29.7253 72.9046 29.1621 73.3277 28.6934C73.7509 28.2246 74.2327 27.8665 74.773 27.6191C75.3199 27.3652 75.8928 27.2383 76.4918 27.2383C77.1624 27.2383 77.7581 27.3587 78.2789 27.5996C78.7997 27.834 79.2359 28.1693 79.5875 28.6055C79.9456 29.0352 80.2158 29.5462 80.398 30.1387C80.5803 30.7246 80.6715 31.3724 80.6715 32.082V32.7949H72.6734V31.7988H79.5094V31.6621C79.4964 31.0697 79.3759 30.5163 79.148 30.002C78.9267 29.4811 78.5947 29.0579 78.152 28.7324C77.7092 28.4069 77.1559 28.2441 76.4918 28.2441C75.997 28.2441 75.5413 28.3483 75.1246 28.5566C74.7145 28.765 74.3596 29.0645 74.0602 29.4551C73.7672 29.8392 73.5393 30.2982 73.3766 30.832C73.2203 31.3594 73.1422 31.9453 73.1422 32.5898V33.0098C73.1422 33.5957 73.2268 34.1426 73.3961 34.6504C73.5719 35.1517 73.8193 35.5944 74.1383 35.9785C74.4638 36.3626 74.8479 36.6621 75.2906 36.877C75.7333 37.0918 76.2216 37.1992 76.7555 37.1992C77.3805 37.1992 77.9339 37.0853 78.4156 36.8574C78.8974 36.623 79.3303 36.2552 79.7145 35.7539L80.4469 36.3203C80.219 36.6589 79.9326 36.9714 79.5875 37.2578C79.249 37.5443 78.8421 37.7721 78.3668 37.9414C77.8915 38.1107 77.3382 38.1953 76.7066 38.1953ZM85.475 27.4336V38H84.3129V27.4336H85.475ZM84.1078 24.377C84.1078 24.1556 84.1762 23.9701 84.3129 23.8203C84.4561 23.6641 84.6514 23.5859 84.8988 23.5859C85.1462 23.5859 85.3415 23.6641 85.4848 23.8203C85.6345 23.9701 85.7094 24.1556 85.7094 24.377C85.7094 24.5918 85.6345 24.7773 85.4848 24.9336C85.3415 25.0833 85.1462 25.1582 84.8988 25.1582C84.6514 25.1582 84.4561 25.0833 84.3129 24.9336C84.1762 24.7773 84.1078 24.5918 84.1078 24.377ZM96.6359 35.5586V27.4336H97.8078V38H96.6848L96.6359 35.5586ZM96.8508 33.6055L97.4563 33.5859C97.4563 34.25 97.3781 34.862 97.2219 35.4219C97.0656 35.9818 96.8215 36.4701 96.4895 36.8867C96.1574 37.3034 95.7277 37.6257 95.2004 37.8535C94.673 38.0814 94.0383 38.1953 93.2961 38.1953C92.7818 38.1953 92.3098 38.1237 91.8801 37.9805C91.4569 37.8307 91.0923 37.5964 90.7863 37.2773C90.4803 36.9583 90.2427 36.5449 90.0734 36.0371C89.9107 35.5293 89.8293 34.9141 89.8293 34.1914V27.4336H90.9914V34.2109C90.9914 34.7773 91.0533 35.2493 91.177 35.627C91.3072 36.0046 91.4829 36.3073 91.7043 36.5352C91.9322 36.763 92.1926 36.9258 92.4855 37.0234C92.7785 37.1211 93.0943 37.1699 93.4328 37.1699C94.2922 37.1699 94.9693 37.0039 95.4641 36.6719C95.9654 36.3398 96.3202 35.9036 96.5285 35.3633C96.7434 34.8164 96.8508 34.2305 96.8508 33.6055ZM108.393 35.3047C108.393 35.0182 108.321 34.735 108.178 34.4551C108.035 34.1751 107.758 33.918 107.348 33.6836C106.944 33.4492 106.348 33.2507 105.561 33.0879C104.975 32.9577 104.451 32.8112 103.988 32.6484C103.533 32.4857 103.148 32.2904 102.836 32.0625C102.523 31.8346 102.286 31.5612 102.123 31.2422C101.96 30.9232 101.879 30.5456 101.879 30.1094C101.879 29.7188 101.964 29.3509 102.133 29.0059C102.309 28.6543 102.556 28.3483 102.875 28.0879C103.201 27.821 103.591 27.6126 104.047 27.4629C104.509 27.3132 105.027 27.2383 105.6 27.2383C106.413 27.2383 107.11 27.3783 107.689 27.6582C108.275 27.9316 108.721 28.306 109.027 28.7812C109.34 29.2565 109.496 29.7936 109.496 30.3926H108.334C108.334 30.028 108.227 29.6829 108.012 29.3574C107.803 29.0319 107.494 28.765 107.084 28.5566C106.68 28.3483 106.186 28.2441 105.6 28.2441C104.994 28.2441 104.503 28.3353 104.125 28.5176C103.747 28.6999 103.471 28.931 103.295 29.2109C103.126 29.4909 103.041 29.7806 103.041 30.0801C103.041 30.3145 103.077 30.5293 103.148 30.7246C103.227 30.9134 103.363 31.0892 103.559 31.252C103.76 31.4147 104.047 31.5677 104.418 31.7109C104.789 31.8542 105.271 31.9941 105.863 32.1309C106.716 32.3197 107.413 32.5508 107.953 32.8242C108.5 33.0911 108.904 33.4232 109.164 33.8203C109.424 34.2109 109.555 34.6862 109.555 35.2461C109.555 35.6823 109.464 36.0827 109.281 36.4473C109.099 36.8053 108.835 37.1146 108.49 37.375C108.152 37.6354 107.742 37.8372 107.26 37.9805C106.785 38.1237 106.251 38.1953 105.658 38.1953C104.766 38.1953 104.011 38.0488 103.393 37.7559C102.781 37.4564 102.315 37.0658 101.996 36.584C101.684 36.0957 101.527 35.5781 101.527 35.0312H102.689C102.729 35.5781 102.901 36.0111 103.207 36.3301C103.513 36.6426 103.887 36.8639 104.33 36.9941C104.779 37.1243 105.222 37.1895 105.658 37.1895C106.257 37.1895 106.758 37.1016 107.162 36.9258C107.566 36.75 107.872 36.5189 108.08 36.2324C108.288 35.946 108.393 35.6367 108.393 35.3047ZM114.505 29.6211V38H113.333V27.4336H114.456L114.505 29.6211ZM114.29 32.0625L113.723 31.7695C113.762 31.1445 113.88 30.5586 114.075 30.0117C114.277 29.4648 114.557 28.9831 114.915 28.5664C115.273 28.1497 115.703 27.8242 116.204 27.5898C116.705 27.3555 117.275 27.2383 117.913 27.2383C118.427 27.2383 118.893 27.3099 119.309 27.4531C119.733 27.5898 120.091 27.8079 120.384 28.1074C120.683 28.4004 120.914 28.7845 121.077 29.2598C121.24 29.735 121.321 30.3047 121.321 30.9688V38H120.159V31.0078C120.159 30.3047 120.048 29.7546 119.827 29.3574C119.612 28.9603 119.309 28.6771 118.919 28.5078C118.535 28.3385 118.089 28.2539 117.581 28.2539C116.982 28.2539 116.474 28.3776 116.057 28.625C115.647 28.8659 115.312 29.1816 115.052 29.5723C114.798 29.9564 114.609 30.3698 114.485 30.8125C114.361 31.2487 114.296 31.6654 114.29 32.0625ZM121.311 31.1445L120.53 31.1641C120.563 30.6497 120.68 30.1582 120.882 29.6895C121.09 29.2207 121.373 28.804 121.731 28.4395C122.089 28.0684 122.516 27.7754 123.011 27.5605C123.512 27.3457 124.075 27.2383 124.7 27.2383C125.247 27.2383 125.735 27.3132 126.165 27.4629C126.595 27.6061 126.956 27.8372 127.249 28.1562C127.548 28.4688 127.776 28.8691 127.932 29.3574C128.089 29.8457 128.167 30.4316 128.167 31.1152V38H126.995V31.1055C126.995 30.3568 126.884 29.7773 126.663 29.3672C126.448 28.9505 126.149 28.6608 125.764 28.498C125.38 28.3353 124.931 28.2539 124.417 28.2539C123.909 28.2604 123.463 28.3548 123.079 28.5371C122.695 28.7129 122.373 28.9473 122.112 29.2402C121.858 29.5267 121.663 29.8359 121.526 30.168C121.396 30.5 121.324 30.8255 121.311 31.1445ZM131.691 32.8828V32.5605C131.691 31.7923 131.802 31.0827 132.023 30.4316C132.244 29.7806 132.56 29.2174 132.97 28.7422C133.387 28.2669 133.885 27.8991 134.464 27.6387C135.044 27.3717 135.688 27.2383 136.398 27.2383C137.114 27.2383 137.762 27.3717 138.341 27.6387C138.921 27.8991 139.419 28.2669 139.836 28.7422C140.252 29.2174 140.571 29.7806 140.793 30.4316C141.014 31.0827 141.125 31.7923 141.125 32.5605V32.8828C141.125 33.651 141.014 34.3607 140.793 35.0117C140.571 35.6562 140.252 36.2161 139.836 36.6914C139.425 37.1667 138.931 37.5378 138.351 37.8047C137.772 38.0651 137.127 38.1953 136.418 38.1953C135.701 38.1953 135.054 38.0651 134.474 37.8047C133.895 37.5378 133.397 37.1667 132.98 36.6914C132.563 36.2161 132.244 35.6562 132.023 35.0117C131.802 34.3607 131.691 33.651 131.691 32.8828ZM132.853 32.5605V32.8828C132.853 33.4622 132.931 34.0124 133.087 34.5332C133.244 35.0475 133.472 35.5065 133.771 35.9102C134.071 36.3073 134.442 36.6198 134.884 36.8477C135.327 37.0755 135.838 37.1895 136.418 37.1895C136.99 37.1895 137.495 37.0755 137.931 36.8477C138.374 36.6198 138.745 36.3073 139.045 35.9102C139.344 35.5065 139.569 35.0475 139.718 34.5332C139.875 34.0124 139.953 33.4622 139.953 32.8828V32.5605C139.953 31.9876 139.875 31.444 139.718 30.9297C139.569 30.4154 139.341 29.9564 139.035 29.5527C138.735 29.1491 138.364 28.8301 137.921 28.5957C137.479 28.3613 136.971 28.2441 136.398 28.2441C135.825 28.2441 135.317 28.3613 134.875 28.5957C134.438 28.8301 134.067 29.1491 133.761 29.5527C133.462 29.9564 133.234 30.4154 133.078 30.9297C132.928 31.444 132.853 31.9876 132.853 32.5605ZM151.612 35.9492V23H152.784V38H151.69L151.612 35.9492ZM144.278 32.8242V32.6191C144.278 31.7988 144.372 31.0599 144.561 30.4023C144.75 29.7383 145.02 29.1719 145.371 28.7031C145.73 28.2279 146.159 27.8665 146.661 27.6191C147.162 27.3652 147.728 27.2383 148.36 27.2383C148.978 27.2383 149.525 27.3392 150 27.541C150.476 27.7428 150.883 28.0326 151.221 28.4102C151.566 28.7878 151.843 29.237 152.051 29.7578C152.266 30.2786 152.422 30.8581 152.52 31.4961V34.1035C152.442 34.7025 152.299 35.2526 152.09 35.7539C151.882 36.2487 151.605 36.6816 151.26 37.0527C150.915 37.4173 150.498 37.7005 150.01 37.9023C149.528 38.0977 148.972 38.1953 148.34 38.1953C147.715 38.1953 147.152 38.0651 146.651 37.8047C146.149 37.5443 145.723 37.1764 145.371 36.7012C145.02 36.2194 144.75 35.6497 144.561 34.9922C144.372 34.3346 144.278 33.612 144.278 32.8242ZM145.45 32.6191V32.8242C145.45 33.4427 145.511 34.0156 145.635 34.543C145.759 35.0703 145.948 35.5293 146.202 35.9199C146.455 36.3105 146.778 36.6165 147.168 36.8379C147.559 37.0592 148.021 37.1699 148.555 37.1699C149.226 37.1699 149.789 37.043 150.245 36.7891C150.7 36.5286 151.065 36.1868 151.338 35.7637C151.612 35.334 151.81 34.8652 151.934 34.3574V31.3203C151.856 30.9753 151.742 30.6237 151.592 30.2656C151.442 29.9076 151.237 29.5788 150.977 29.2793C150.723 28.9733 150.398 28.7292 150 28.5469C149.61 28.3581 149.135 28.2637 148.575 28.2637C148.034 28.2637 147.569 28.3743 147.178 28.5957C146.788 28.8171 146.462 29.1263 146.202 29.5234C145.948 29.9141 145.759 30.373 145.635 30.9004C145.511 31.4277 145.45 32.0007 145.45 32.6191ZM167.137 27.4336V28.3906H161.844V27.4336H167.137ZM163.787 24.7188H164.949V35.4316C164.949 35.9199 165.014 36.2878 165.145 36.5352C165.275 36.7826 165.444 36.9486 165.652 37.0332C165.861 37.1178 166.085 37.1602 166.326 37.1602C166.502 37.1602 166.671 37.1504 166.834 37.1309C166.997 37.1048 167.143 37.0788 167.273 37.0527L167.322 38.0391C167.179 38.0846 166.993 38.1204 166.766 38.1465C166.538 38.179 166.31 38.1953 166.082 38.1953C165.633 38.1953 165.236 38.1139 164.891 37.9512C164.546 37.7819 164.275 37.4954 164.08 37.0918C163.885 36.6816 163.787 36.125 163.787 35.4219V24.7188ZM174.87 38.1953C174.18 38.1953 173.545 38.0684 172.966 37.8145C172.393 37.5605 171.891 37.2025 171.462 36.7402C171.039 36.278 170.71 35.7311 170.475 35.0996C170.248 34.4616 170.134 33.765 170.134 33.0098V32.5898C170.134 31.776 170.254 31.0404 170.495 30.3828C170.736 29.7253 171.068 29.1621 171.491 28.6934C171.914 28.2246 172.396 27.8665 172.936 27.6191C173.483 27.3652 174.056 27.2383 174.655 27.2383C175.326 27.2383 175.921 27.3587 176.442 27.5996C176.963 27.834 177.399 28.1693 177.751 28.6055C178.109 29.0352 178.379 29.5462 178.561 30.1387C178.744 30.7246 178.835 31.3724 178.835 32.082V32.7949H170.837V31.7988H177.673V31.6621C177.66 31.0697 177.539 30.5163 177.311 30.002C177.09 29.4811 176.758 29.0579 176.315 28.7324C175.873 28.4069 175.319 28.2441 174.655 28.2441C174.16 28.2441 173.705 28.3483 173.288 28.5566C172.878 28.765 172.523 29.0645 172.223 29.4551C171.93 29.8392 171.703 30.2982 171.54 30.832C171.384 31.3594 171.305 31.9453 171.305 32.5898V33.0098C171.305 33.5957 171.39 34.1426 171.559 34.6504C171.735 35.1517 171.983 35.5944 172.302 35.9785C172.627 36.3626 173.011 36.6621 173.454 36.877C173.897 37.0918 174.385 37.1992 174.919 37.1992C175.544 37.1992 176.097 37.0853 176.579 36.8574C177.061 36.623 177.494 36.2552 177.878 35.7539L178.61 36.3203C178.382 36.6589 178.096 36.9714 177.751 37.2578C177.412 37.5443 177.005 37.7721 176.53 37.9414C176.055 38.1107 175.501 38.1953 174.87 38.1953ZM183.443 29.6211V38H182.271V27.4336H183.394L183.443 29.6211ZM183.228 32.0625L182.662 31.7695C182.701 31.1445 182.818 30.5586 183.013 30.0117C183.215 29.4648 183.495 28.9831 183.853 28.5664C184.211 28.1497 184.641 27.8242 185.142 27.5898C185.643 27.3555 186.213 27.2383 186.851 27.2383C187.365 27.2383 187.831 27.3099 188.248 27.4531C188.671 27.5898 189.029 27.8079 189.322 28.1074C189.621 28.4004 189.852 28.7845 190.015 29.2598C190.178 29.735 190.259 30.3047 190.259 30.9688V38H189.097V31.0078C189.097 30.3047 188.987 29.7546 188.765 29.3574C188.55 28.9603 188.248 28.6771 187.857 28.5078C187.473 28.3385 187.027 28.2539 186.519 28.2539C185.92 28.2539 185.412 28.3776 184.996 28.625C184.586 28.8659 184.25 29.1816 183.99 29.5723C183.736 29.9564 183.547 30.3698 183.423 30.8125C183.3 31.2487 183.235 31.6654 183.228 32.0625ZM190.25 31.1445L189.468 31.1641C189.501 30.6497 189.618 30.1582 189.82 29.6895C190.028 29.2207 190.311 28.804 190.67 28.4395C191.028 28.0684 191.454 27.7754 191.949 27.5605C192.45 27.3457 193.013 27.2383 193.638 27.2383C194.185 27.2383 194.673 27.3132 195.103 27.4629C195.533 27.6061 195.894 27.8372 196.187 28.1562C196.487 28.4688 196.714 28.8691 196.871 29.3574C197.027 29.8457 197.105 30.4316 197.105 31.1152V38H195.933V31.1055C195.933 30.3568 195.823 29.7773 195.601 29.3672C195.386 28.9505 195.087 28.6608 194.703 28.498C194.319 28.3353 193.869 28.2539 193.355 28.2539C192.847 28.2604 192.401 28.3548 192.017 28.5371C191.633 28.7129 191.311 28.9473 191.05 29.2402C190.796 29.5267 190.601 29.8359 190.464 30.168C190.334 30.5 190.263 30.8255 190.25 31.1445ZM202.426 29.4648V42.0625H201.254V27.4336H202.348L202.426 29.4648ZM209.77 32.6191V32.8242C209.77 33.612 209.679 34.3346 209.496 34.9922C209.314 35.6497 209.051 36.2194 208.705 36.7012C208.367 37.1764 207.947 37.5443 207.446 37.8047C206.944 38.0651 206.375 38.1953 205.737 38.1953C205.105 38.1953 204.542 38.0977 204.047 37.9023C203.552 37.707 203.126 37.4303 202.768 37.0723C202.416 36.7077 202.133 36.2845 201.918 35.8027C201.71 35.3145 201.564 34.7806 201.479 34.2012V31.4961C201.577 30.8581 201.736 30.2786 201.957 29.7578C202.179 29.237 202.462 28.7878 202.807 28.4102C203.159 28.0326 203.575 27.7428 204.057 27.541C204.539 27.3392 205.089 27.2383 205.707 27.2383C206.352 27.2383 206.925 27.3652 207.426 27.6191C207.934 27.8665 208.36 28.2279 208.705 28.7031C209.057 29.1719 209.321 29.7383 209.496 30.4023C209.679 31.0599 209.77 31.7988 209.77 32.6191ZM208.598 32.8242V32.6191C208.598 32.0007 208.533 31.4277 208.403 30.9004C208.279 30.373 208.087 29.9141 207.827 29.5234C207.573 29.1263 207.247 28.8171 206.85 28.5957C206.459 28.3743 205.994 28.2637 205.454 28.2637C204.894 28.2637 204.415 28.3581 204.018 28.5469C203.627 28.7292 203.302 28.9733 203.041 29.2793C202.781 29.5788 202.576 29.9076 202.426 30.2656C202.276 30.6237 202.166 30.9753 202.094 31.3203V34.4355C202.218 34.9303 202.416 35.3893 202.69 35.8125C202.963 36.2292 203.328 36.5645 203.784 36.8184C204.246 37.0658 204.809 37.1895 205.473 37.1895C206.007 37.1895 206.469 37.0788 206.86 36.8574C207.25 36.6361 207.573 36.3268 207.827 35.9297C208.087 35.5326 208.279 35.0703 208.403 34.543C208.533 34.0156 208.598 33.4427 208.598 32.8242ZM212.923 32.8828V32.5605C212.923 31.7923 213.034 31.0827 213.255 30.4316C213.476 29.7806 213.792 29.2174 214.202 28.7422C214.619 28.2669 215.117 27.8991 215.696 27.6387C216.276 27.3717 216.92 27.2383 217.63 27.2383C218.346 27.2383 218.994 27.3717 219.573 27.6387C220.153 27.8991 220.651 28.2669 221.068 28.7422C221.484 29.2174 221.803 29.7806 222.025 30.4316C222.246 31.0827 222.357 31.7923 222.357 32.5605V32.8828C222.357 33.651 222.246 34.3607 222.025 35.0117C221.803 35.6562 221.484 36.2161 221.068 36.6914C220.657 37.1667 220.163 37.5378 219.583 37.8047C219.004 38.0651 218.359 38.1953 217.65 38.1953C216.933 38.1953 216.286 38.0651 215.706 37.8047C215.127 37.5378 214.629 37.1667 214.212 36.6914C213.795 36.2161 213.476 35.6562 213.255 35.0117C213.034 34.3607 212.923 33.651 212.923 32.8828ZM214.085 32.5605V32.8828C214.085 33.4622 214.163 34.0124 214.32 34.5332C214.476 35.0475 214.704 35.5065 215.003 35.9102C215.303 36.3073 215.674 36.6198 216.116 36.8477C216.559 37.0755 217.07 37.1895 217.65 37.1895C218.223 37.1895 218.727 37.0755 219.163 36.8477C219.606 36.6198 219.977 36.3073 220.277 35.9102C220.576 35.5065 220.801 35.0475 220.95 34.5332C221.107 34.0124 221.185 33.4622 221.185 32.8828V32.5605C221.185 31.9876 221.107 31.444 220.95 30.9297C220.801 30.4154 220.573 29.9564 220.267 29.5527C219.967 29.1491 219.596 28.8301 219.154 28.5957C218.711 28.3613 218.203 28.2441 217.63 28.2441C217.057 28.2441 216.549 28.3613 216.107 28.5957C215.67 28.8301 215.299 29.1491 214.993 29.5527C214.694 29.9564 214.466 30.4154 214.31 30.9297C214.16 31.444 214.085 31.9876 214.085 32.5605ZM227.141 29.1816V38H225.979V27.4336H227.111L227.141 29.1816ZM230.881 27.3555L230.852 28.4297C230.721 28.4102 230.594 28.3939 230.471 28.3809C230.347 28.3678 230.214 28.3613 230.07 28.3613C229.562 28.3613 229.117 28.4557 228.732 28.6445C228.355 28.8268 228.036 29.084 227.775 29.416C227.515 29.7415 227.316 30.1257 227.18 30.5684C227.043 31.0046 226.965 31.4733 226.945 31.9746L226.516 32.1406C226.516 31.4505 226.587 30.8092 226.73 30.2168C226.874 29.6243 227.092 29.1068 227.385 28.6641C227.684 28.2148 228.059 27.8665 228.508 27.6191C228.964 27.3652 229.497 27.2383 230.109 27.2383C230.259 27.2383 230.406 27.2513 230.549 27.2773C230.699 27.2969 230.809 27.3229 230.881 27.3555ZM241.298 27.4336V38H240.136V27.4336H241.298ZM239.931 24.377C239.931 24.1556 240 23.9701 240.136 23.8203C240.28 23.6641 240.475 23.5859 240.722 23.5859C240.97 23.5859 241.165 23.6641 241.308 23.8203C241.458 23.9701 241.533 24.1556 241.533 24.377C241.533 24.5918 241.458 24.7773 241.308 24.9336C241.165 25.0833 240.97 25.1582 240.722 25.1582C240.475 25.1582 240.28 25.0833 240.136 24.9336C240 24.7773 239.931 24.5918 239.931 24.377ZM246.854 29.6895V38H245.692V27.4336H246.805L246.854 29.6895ZM246.59 32.0625L246.073 31.7695C246.112 31.1445 246.239 30.5586 246.454 30.0117C246.668 29.4648 246.958 28.9831 247.323 28.5664C247.694 28.1497 248.127 27.8242 248.621 27.5898C249.123 27.3555 249.676 27.2383 250.282 27.2383C250.809 27.2383 251.281 27.3099 251.698 27.4531C252.114 27.5964 252.469 27.8242 252.762 28.1367C253.055 28.4492 253.276 28.8496 253.426 29.3379C253.582 29.8262 253.661 30.4219 253.661 31.125V38H252.489V31.1152C252.489 30.3861 252.388 29.8164 252.186 29.4062C251.984 28.9896 251.698 28.6934 251.327 28.5176C250.955 28.3418 250.516 28.2539 250.008 28.2539C249.448 28.2539 248.957 28.3776 248.534 28.625C248.117 28.8659 247.765 29.1816 247.479 29.5723C247.199 29.9564 246.984 30.3698 246.834 30.8125C246.685 31.2487 246.603 31.6654 246.59 32.0625ZM261.784 37.1895C262.279 37.1895 262.741 37.0983 263.171 36.916C263.607 36.7272 263.965 36.4505 264.245 36.0859C264.532 35.7148 264.695 35.2624 264.734 34.7285H265.847C265.814 35.3991 265.609 35.998 265.232 36.5254C264.861 37.0462 264.372 37.4564 263.767 37.7559C263.168 38.0488 262.507 38.1953 261.784 38.1953C261.049 38.1953 260.398 38.0618 259.831 37.7949C259.271 37.528 258.803 37.1569 258.425 36.6816C258.047 36.1999 257.761 35.64 257.566 35.002C257.377 34.3574 257.282 33.6641 257.282 32.9219V32.5117C257.282 31.7695 257.377 31.0794 257.566 30.4414C257.761 29.7969 258.047 29.237 258.425 28.7617C258.803 28.2799 259.271 27.9056 259.831 27.6387C260.391 27.3717 261.039 27.2383 261.775 27.2383C262.53 27.2383 263.207 27.3913 263.806 27.6973C264.411 28.0033 264.893 28.4362 265.251 28.9961C265.616 29.556 265.814 30.2201 265.847 30.9883H264.734C264.701 30.4219 264.551 29.9336 264.284 29.5234C264.017 29.1133 263.666 28.7975 263.23 28.5762C262.793 28.3548 262.308 28.2441 261.775 28.2441C261.176 28.2441 260.665 28.3613 260.241 28.5957C259.818 28.8236 259.473 29.1393 259.206 29.543C258.946 29.9401 258.754 30.3958 258.63 30.9102C258.506 31.418 258.445 31.9518 258.445 32.5117V32.9219C258.445 33.4883 258.503 34.0286 258.62 34.543C258.744 35.0508 258.936 35.5033 259.196 35.9004C259.463 36.2975 259.808 36.6133 260.232 36.8477C260.661 37.0755 261.179 37.1895 261.784 37.1895ZM270.699 27.4336V38H269.537V27.4336H270.699ZM269.332 24.377C269.332 24.1556 269.4 23.9701 269.537 23.8203C269.68 23.6641 269.876 23.5859 270.123 23.5859C270.37 23.5859 270.566 23.6641 270.709 23.8203C270.859 23.9701 270.934 24.1556 270.934 24.377C270.934 24.5918 270.859 24.7773 270.709 24.9336C270.566 25.0833 270.37 25.1582 270.123 25.1582C269.876 25.1582 269.68 25.0833 269.537 24.9336C269.4 24.7773 269.332 24.5918 269.332 24.377ZM281.958 35.9492V23H283.13V38H282.036L281.958 35.9492ZM274.624 32.8242V32.6191C274.624 31.7988 274.718 31.0599 274.907 30.4023C275.096 29.7383 275.366 29.1719 275.718 28.7031C276.076 28.2279 276.505 27.8665 277.007 27.6191C277.508 27.3652 278.074 27.2383 278.706 27.2383C279.324 27.2383 279.871 27.3392 280.346 27.541C280.822 27.7428 281.229 28.0326 281.567 28.4102C281.912 28.7878 282.189 29.237 282.397 29.7578C282.612 30.2786 282.768 30.8581 282.866 31.4961V34.1035C282.788 34.7025 282.645 35.2526 282.436 35.7539C282.228 36.2487 281.951 36.6816 281.606 37.0527C281.261 37.4173 280.845 37.7005 280.356 37.9023C279.874 38.0977 279.318 38.1953 278.686 38.1953C278.061 38.1953 277.498 38.0651 276.997 37.8047C276.496 37.5443 276.069 37.1764 275.718 36.7012C275.366 36.2194 275.096 35.6497 274.907 34.9922C274.718 34.3346 274.624 33.612 274.624 32.8242ZM275.796 32.6191V32.8242C275.796 33.4427 275.858 34.0156 275.981 34.543C276.105 35.0703 276.294 35.5293 276.548 35.9199C276.802 36.3105 277.124 36.6165 277.514 36.8379C277.905 37.0592 278.367 37.1699 278.901 37.1699C279.572 37.1699 280.135 37.043 280.591 36.7891C281.046 36.5286 281.411 36.1868 281.684 35.7637C281.958 35.334 282.156 34.8652 282.28 34.3574V31.3203C282.202 30.9753 282.088 30.6237 281.938 30.2656C281.789 29.9076 281.583 29.5788 281.323 29.2793C281.069 28.9733 280.744 28.7292 280.346 28.5469C279.956 28.3581 279.481 28.2637 278.921 28.2637C278.38 28.2637 277.915 28.3743 277.524 28.5957C277.134 28.8171 276.808 29.1263 276.548 29.5234C276.294 29.9141 276.105 30.373 275.981 30.9004C275.858 31.4277 275.796 32.0007 275.796 32.6191ZM288.705 27.4336V38H287.543V27.4336H288.705ZM287.337 24.377C287.337 24.1556 287.406 23.9701 287.543 23.8203C287.686 23.6641 287.881 23.5859 288.129 23.5859C288.376 23.5859 288.571 23.6641 288.714 23.8203C288.864 23.9701 288.939 24.1556 288.939 24.377C288.939 24.5918 288.864 24.7773 288.714 24.9336C288.571 25.0833 288.376 25.1582 288.129 25.1582C287.881 25.1582 287.686 25.0833 287.543 24.9336C287.406 24.7773 287.337 24.5918 287.337 24.377ZM299.963 35.9492V23H301.135V38H300.041L299.963 35.9492ZM292.629 32.8242V32.6191C292.629 31.7988 292.724 31.0599 292.913 30.4023C293.101 29.7383 293.371 29.1719 293.723 28.7031C294.081 28.2279 294.511 27.8665 295.012 27.6191C295.513 27.3652 296.08 27.2383 296.711 27.2383C297.33 27.2383 297.877 27.3392 298.352 27.541C298.827 27.7428 299.234 28.0326 299.573 28.4102C299.918 28.7878 300.194 29.237 300.403 29.7578C300.618 30.2786 300.774 30.8581 300.871 31.4961V34.1035C300.793 34.7025 300.65 35.2526 300.442 35.7539C300.233 36.2487 299.957 36.6816 299.612 37.0527C299.267 37.4173 298.85 37.7005 298.362 37.9023C297.88 38.0977 297.323 38.1953 296.692 38.1953C296.067 38.1953 295.504 38.0651 295.002 37.8047C294.501 37.5443 294.075 37.1764 293.723 36.7012C293.371 36.2194 293.101 35.6497 292.913 34.9922C292.724 34.3346 292.629 33.612 292.629 32.8242ZM293.801 32.6191V32.8242C293.801 33.4427 293.863 34.0156 293.987 34.543C294.11 35.0703 294.299 35.5293 294.553 35.9199C294.807 36.3105 295.129 36.6165 295.52 36.8379C295.911 37.0592 296.373 37.1699 296.907 37.1699C297.577 37.1699 298.14 37.043 298.596 36.7891C299.052 36.5286 299.416 36.1868 299.69 35.7637C299.963 35.334 300.162 34.8652 300.286 34.3574V31.3203C300.207 30.9753 300.093 30.6237 299.944 30.2656C299.794 29.9076 299.589 29.5788 299.329 29.2793C299.075 28.9733 298.749 28.7292 298.352 28.5469C297.961 28.3581 297.486 28.2637 296.926 28.2637C296.386 28.2637 295.92 28.3743 295.53 28.5957C295.139 28.8171 294.814 29.1263 294.553 29.5234C294.299 29.9141 294.11 30.373 293.987 30.9004C293.863 31.4277 293.801 32.0007 293.801 32.6191ZM312.179 35.5586V27.4336H313.351V38H312.228L312.179 35.5586ZM312.394 33.6055L312.999 33.5859C312.999 34.25 312.921 34.862 312.765 35.4219C312.609 35.9818 312.364 36.4701 312.032 36.8867C311.7 37.3034 311.271 37.6257 310.743 37.8535C310.216 38.0814 309.581 38.1953 308.839 38.1953C308.325 38.1953 307.853 38.1237 307.423 37.9805C307 37.8307 306.635 37.5964 306.329 37.2773C306.023 36.9583 305.786 36.5449 305.616 36.0371C305.454 35.5293 305.372 34.9141 305.372 34.1914V27.4336H306.534V34.2109C306.534 34.7773 306.596 35.2493 306.72 35.627C306.85 36.0046 307.026 36.3073 307.247 36.5352C307.475 36.763 307.736 36.9258 308.029 37.0234C308.321 37.1211 308.637 37.1699 308.976 37.1699C309.835 37.1699 310.512 37.0039 311.007 36.6719C311.508 36.3398 311.863 35.9036 312.071 35.3633C312.286 34.8164 312.394 34.2305 312.394 33.6055ZM318.77 29.6895V38H317.607V27.4336H318.721L318.77 29.6895ZM318.506 32.0625L317.988 31.7695C318.027 31.1445 318.154 30.5586 318.369 30.0117C318.584 29.4648 318.874 28.9831 319.238 28.5664C319.609 28.1497 320.042 27.8242 320.537 27.5898C321.038 27.3555 321.592 27.2383 322.197 27.2383C322.725 27.2383 323.197 27.3099 323.613 27.4531C324.03 27.5964 324.385 27.8242 324.678 28.1367C324.971 28.4492 325.192 28.8496 325.342 29.3379C325.498 29.8262 325.576 30.4219 325.576 31.125V38H324.404V31.1152C324.404 30.3861 324.303 29.8164 324.102 29.4062C323.9 28.9896 323.613 28.6934 323.242 28.5176C322.871 28.3418 322.432 28.2539 321.924 28.2539C321.364 28.2539 320.872 28.3776 320.449 28.625C320.033 28.8659 319.681 29.1816 319.395 29.5723C319.115 29.9564 318.9 30.3698 318.75 30.8125C318.6 31.2487 318.519 31.6654 318.506 32.0625ZM333.798 27.4336V28.3906H328.505V27.4336H333.798ZM330.448 24.7188H331.61V35.4316C331.61 35.9199 331.675 36.2878 331.805 36.5352C331.936 36.7826 332.105 36.9486 332.313 37.0332C332.522 37.1178 332.746 37.1602 332.987 37.1602C333.163 37.1602 333.332 37.1504 333.495 37.1309C333.658 37.1048 333.804 37.0788 333.934 37.0527L333.983 38.0391C333.84 38.0846 333.654 38.1204 333.427 38.1465C333.199 38.179 332.971 38.1953 332.743 38.1953C332.294 38.1953 331.897 38.1139 331.552 37.9512C331.207 37.7819 330.936 37.4954 330.741 37.0918C330.546 36.6816 330.448 36.125 330.448 35.4219V24.7188ZM345.945 36.9746V38H338.572V36.9746H345.945ZM338.923 23.7812V38H337.722V23.7812H338.923ZM348.551 32.8828V32.5605C348.551 31.7923 348.662 31.0827 348.883 30.4316C349.105 29.7806 349.42 29.2174 349.83 28.7422C350.247 28.2669 350.745 27.8991 351.325 27.6387C351.904 27.3717 352.549 27.2383 353.258 27.2383C353.974 27.2383 354.622 27.3717 355.202 27.6387C355.781 27.8991 356.279 28.2669 356.696 28.7422C357.112 29.2174 357.431 29.7806 357.653 30.4316C357.874 31.0827 357.985 31.7923 357.985 32.5605V32.8828C357.985 33.651 357.874 34.3607 357.653 35.0117C357.431 35.6562 357.112 36.2161 356.696 36.6914C356.286 37.1667 355.791 37.5378 355.211 37.8047C354.632 38.0651 353.987 38.1953 353.278 38.1953C352.562 38.1953 351.914 38.0651 351.334 37.8047C350.755 37.5378 350.257 37.1667 349.84 36.6914C349.424 36.2161 349.105 35.6562 348.883 35.0117C348.662 34.3607 348.551 33.651 348.551 32.8828ZM349.713 32.5605V32.8828C349.713 33.4622 349.791 34.0124 349.948 34.5332C350.104 35.0475 350.332 35.5065 350.631 35.9102C350.931 36.3073 351.302 36.6198 351.745 36.8477C352.187 37.0755 352.698 37.1895 353.278 37.1895C353.851 37.1895 354.355 37.0755 354.791 36.8477C355.234 36.6198 355.605 36.3073 355.905 35.9102C356.204 35.5065 356.429 35.0475 356.579 34.5332C356.735 34.0124 356.813 33.4622 356.813 32.8828V32.5605C356.813 31.9876 356.735 31.444 356.579 30.9297C356.429 30.4154 356.201 29.9564 355.895 29.5527C355.595 29.1491 355.224 28.8301 354.782 28.5957C354.339 28.3613 353.831 28.2441 353.258 28.2441C352.685 28.2441 352.177 28.3613 351.735 28.5957C351.299 28.8301 350.927 29.1491 350.621 29.5527C350.322 29.9564 350.094 30.4154 349.938 30.9297C349.788 31.444 349.713 31.9876 349.713 32.5605ZM362.769 29.1816V38H361.607V27.4336H362.739L362.769 29.1816ZM366.509 27.3555L366.48 28.4297C366.349 28.4102 366.223 28.3939 366.099 28.3809C365.975 28.3678 365.842 28.3613 365.698 28.3613C365.191 28.3613 364.745 28.4557 364.361 28.6445C363.983 28.8268 363.664 29.084 363.404 29.416C363.143 29.7415 362.945 30.1257 362.808 30.5684C362.671 31.0046 362.593 31.4733 362.573 31.9746L362.144 32.1406C362.144 31.4505 362.215 30.8092 362.359 30.2168C362.502 29.6243 362.72 29.1068 363.013 28.6641C363.312 28.2148 363.687 27.8665 364.136 27.6191C364.592 27.3652 365.126 27.2383 365.737 27.2383C365.887 27.2383 366.034 27.2513 366.177 27.2773C366.327 27.2969 366.437 27.3229 366.509 27.3555ZM373.432 38.1953C372.742 38.1953 372.107 38.0684 371.527 37.8145C370.954 37.5605 370.453 37.2025 370.023 36.7402C369.6 36.278 369.271 35.7311 369.037 35.0996C368.809 34.4616 368.695 33.765 368.695 33.0098V32.5898C368.695 31.776 368.816 31.0404 369.057 30.3828C369.298 29.7253 369.63 29.1621 370.053 28.6934C370.476 28.2246 370.958 27.8665 371.498 27.6191C372.045 27.3652 372.618 27.2383 373.217 27.2383C373.887 27.2383 374.483 27.3587 375.004 27.5996C375.525 27.834 375.961 28.1693 376.312 28.6055C376.671 29.0352 376.941 29.5462 377.123 30.1387C377.305 30.7246 377.396 31.3724 377.396 32.082V32.7949H369.398V31.7988H376.234V31.6621C376.221 31.0697 376.101 30.5163 375.873 30.002C375.652 29.4811 375.32 29.0579 374.877 28.7324C374.434 28.4069 373.881 28.2441 373.217 28.2441C372.722 28.2441 372.266 28.3483 371.85 28.5566C371.439 28.765 371.085 29.0645 370.785 29.4551C370.492 29.8392 370.264 30.2982 370.102 30.832C369.945 31.3594 369.867 31.9453 369.867 32.5898V33.0098C369.867 33.5957 369.952 34.1426 370.121 34.6504C370.297 35.1517 370.544 35.5944 370.863 35.9785C371.189 36.3626 371.573 36.6621 372.016 36.877C372.458 37.0918 372.947 37.1992 373.48 37.1992C374.105 37.1992 374.659 37.0853 375.141 36.8574C375.622 36.623 376.055 36.2552 376.439 35.7539L377.172 36.3203C376.944 36.6589 376.658 36.9714 376.312 37.2578C375.974 37.5443 375.567 37.7721 375.092 37.9414C374.617 38.1107 374.063 38.1953 373.432 38.1953ZM382.005 29.6211V38H380.833V27.4336H381.956L382.005 29.6211ZM381.79 32.0625L381.223 31.7695C381.263 31.1445 381.38 30.5586 381.575 30.0117C381.777 29.4648 382.057 28.9831 382.415 28.5664C382.773 28.1497 383.203 27.8242 383.704 27.5898C384.205 27.3555 384.775 27.2383 385.413 27.2383C385.927 27.2383 386.393 27.3099 386.809 27.4531C387.233 27.5898 387.591 27.8079 387.884 28.1074C388.183 28.4004 388.414 28.7845 388.577 29.2598C388.74 29.735 388.821 30.3047 388.821 30.9688V38H387.659V31.0078C387.659 30.3047 387.548 29.7546 387.327 29.3574C387.112 28.9603 386.809 28.6771 386.419 28.5078C386.035 28.3385 385.589 28.2539 385.081 28.2539C384.482 28.2539 383.974 28.3776 383.557 28.625C383.147 28.8659 382.812 29.1816 382.552 29.5723C382.298 29.9564 382.109 30.3698 381.985 30.8125C381.861 31.2487 381.796 31.6654 381.79 32.0625ZM388.811 31.1445L388.03 31.1641C388.063 30.6497 388.18 30.1582 388.382 29.6895C388.59 29.2207 388.873 28.804 389.231 28.4395C389.589 28.0684 390.016 27.7754 390.511 27.5605C391.012 27.3457 391.575 27.2383 392.2 27.2383C392.747 27.2383 393.235 27.3132 393.665 27.4629C394.095 27.6061 394.456 27.8372 394.749 28.1562C395.048 28.4688 395.276 28.8691 395.432 29.3574C395.589 29.8457 395.667 30.4316 395.667 31.1152V38H394.495V31.1055C394.495 30.3568 394.384 29.7773 394.163 29.3672C393.948 28.9505 393.649 28.6608 393.264 28.498C392.88 28.3353 392.431 28.2539 391.917 28.2539C391.409 28.2604 390.963 28.3548 390.579 28.5371C390.195 28.7129 389.873 28.9473 389.612 29.2402C389.358 29.5267 389.163 29.8359 389.026 30.168C388.896 30.5 388.824 30.8255 388.811 31.1445Z" fill="black"/>
</svg>
