<svg width="61" height="61" viewBox="0 0 61 61" fill="none" xmlns="http://www.w3.org/2000/svg">
<path d="M0.0488744 23V0.279999H9.84087C10.9502 0.279999 11.9742 0.503999 12.9129 0.952C13.8515 1.4 14.6622 2.008 15.3449 2.776C16.0275 3.52267 16.5502 4.36533 16.9129 5.304C17.2969 6.24267 17.4889 7.192 17.4889 8.152C17.4889 9.496 17.1689 10.7653 16.5289 11.96C15.9102 13.1547 15.0355 14.136 13.9049 14.904C12.7955 15.6507 11.4942 16.024 10.0009 16.024H6.28887V23H0.0488744ZM6.28887 10.584H9.58488C9.84087 10.584 10.0862 10.5093 10.3209 10.36C10.5555 10.2107 10.7475 9.95467 10.8969 9.592C11.0675 9.22933 11.1529 8.74933 11.1529 8.152C11.1529 7.512 11.0569 7.02133 10.8649 6.68C10.6942 6.31733 10.4702 6.072 10.1929 5.944C9.93688 5.79467 9.68087 5.72 9.42487 5.72H6.28887V10.584ZM48.6264 23.192C46.8984 23.192 45.3304 22.872 43.9224 22.232C42.5144 21.5707 41.2984 20.696 40.2744 19.608C39.2717 18.4987 38.493 17.2613 37.9384 15.896C37.405 14.5093 37.1384 13.08 37.1384 11.608C37.1384 10.0933 37.4264 8.65333 38.0024 7.288C38.5784 5.92267 39.3784 4.70667 40.4024 3.64C41.4477 2.552 42.6744 1.69867 44.0824 1.08C45.5117 0.461332 47.069 0.151999 48.7544 0.151999C50.4824 0.151999 52.0504 0.482665 53.4584 1.144C54.8664 1.784 56.0717 2.65867 57.0744 3.768C58.077 4.87733 58.845 6.12533 59.3784 7.512C59.933 8.87733 60.2104 10.2853 60.2104 11.736C60.2104 13.2293 59.9224 14.6587 59.3464 16.024C58.7917 17.3893 57.9917 18.616 56.9464 19.704C55.9224 20.7707 54.7064 21.624 53.2984 22.264C51.8904 22.8827 50.333 23.192 48.6264 23.192ZM43.4744 11.672C43.4744 12.44 43.581 13.1867 43.7944 13.912C44.0077 14.616 44.3277 15.256 44.7544 15.832C45.181 16.3867 45.7144 16.8347 46.3544 17.176C47.0157 17.496 47.7944 17.656 48.6904 17.656C49.5864 17.656 50.365 17.4853 51.0264 17.144C51.6877 16.8027 52.221 16.344 52.6264 15.768C53.053 15.1707 53.3624 14.52 53.5544 13.816C53.7677 13.0907 53.8744 12.3547 53.8744 11.608C53.8744 10.84 53.7677 10.104 53.5544 9.4C53.341 8.696 53.021 8.06667 52.5944 7.512C52.1677 6.936 51.6237 6.488 50.9624 6.168C50.301 5.848 49.533 5.688 48.6584 5.688C47.7624 5.688 46.9837 5.85867 46.3224 6.2C45.6824 6.54133 45.149 7 44.7224 7.576C44.2957 8.13067 43.9757 8.77067 43.7624 9.496C43.5704 10.2 43.4744 10.9253 43.4744 11.672ZM39.1636 43.72H32.6356V61H26.3956V43.72H19.8356V38.28H39.1636V43.72Z" fill="white"/>
<path d="M0.0488744 23H-0.951126V24H0.0488744V23ZM0.0488744 0.279999V-0.720001H-0.951126V0.279999H0.0488744ZM12.9129 0.952L12.4821 1.85448H12.4821L12.9129 0.952ZM15.3449 2.776L14.5974 3.44043L14.6068 3.45077L15.3449 2.776ZM16.9129 5.304L15.9801 5.6644L15.9836 5.67355L15.9873 5.68263L16.9129 5.304ZM16.5289 11.96L15.6473 11.4877L15.6409 11.5001L16.5289 11.96ZM13.9049 14.904L14.4633 15.7336L14.4668 15.7312L13.9049 14.904ZM6.28887 16.024V15.024H5.28887V16.024H6.28887ZM6.28887 23V24H7.28887V23H6.28887ZM6.28887 10.584H5.28887V11.584H6.28887V10.584ZM10.3209 10.36L10.8577 11.2037H10.8578L10.3209 10.36ZM10.8969 9.592L9.99206 9.1662L9.98157 9.18848L9.9722 9.21125L10.8969 9.592ZM10.8649 6.68L9.96006 7.1058L9.97551 7.13863L9.9933 7.17026L10.8649 6.68ZM10.1929 5.944L9.689 6.80778L9.73035 6.8319L9.77381 6.85196L10.1929 5.944ZM6.28887 5.72V4.72H5.28887V5.72H6.28887ZM1.04887 23V0.279999H-0.951126V23H1.04887ZM0.0488744 1.28H9.84087V-0.720001H0.0488744V1.28ZM9.84087 1.28C10.8113 1.28 11.6868 1.47491 12.4821 1.85448L13.3436 0.0495191C12.2616 -0.466907 11.0891 -0.720001 9.84087 -0.720001V1.28ZM12.4821 1.85448C13.3019 2.24574 14.0045 2.7733 14.5975 3.44036L16.0923 2.11164C15.3199 1.24269 14.4011 0.554254 13.3436 0.0495186L12.4821 1.85448ZM14.6068 3.45077C15.2061 4.10617 15.6625 4.84236 15.9801 5.6644L17.8457 4.9436C17.4379 3.88831 16.849 2.93916 16.0829 2.10123L14.6068 3.45077ZM15.9873 5.68263C16.325 6.508 16.4889 7.32908 16.4889 8.152H18.4889C18.4889 7.05492 18.2688 5.97733 17.8384 4.92537L15.9873 5.68263ZM16.4889 8.152C16.4889 9.32979 16.2103 10.4371 15.6474 11.4878L17.4104 12.4322C18.1275 11.0936 18.4889 9.66221 18.4889 8.152H16.4889ZM15.6409 11.5001C15.0999 12.5447 14.3384 13.4007 13.343 14.0768L14.4668 15.7312C15.7327 14.8713 16.7205 13.7646 17.4169 12.4199L15.6409 11.5001ZM13.3465 14.0744C12.4211 14.6973 11.3194 15.024 10.0009 15.024V17.024C11.669 17.024 13.17 16.6041 14.4633 15.7336L13.3465 14.0744ZM10.0009 15.024H6.28887V17.024H10.0009V15.024ZM5.28887 16.024V23H7.28887V16.024H5.28887ZM6.28887 22H0.0488744V24H6.28887V22ZM6.28887 11.584H9.58488V9.584H6.28887V11.584ZM9.58488 11.584C10.0475 11.584 10.4771 11.4459 10.8577 11.2037L9.784 9.51634C9.69534 9.57276 9.63427 9.584 9.58488 9.584V11.584ZM10.8578 11.2037C11.3244 10.9067 11.6248 10.4505 11.8216 9.97275L9.9722 9.21125C9.87025 9.45884 9.78669 9.51463 9.784 9.51634L10.8578 11.2037ZM11.8017 10.0178C12.0581 9.47293 12.1529 8.83056 12.1529 8.152H10.1529C10.1529 8.66811 10.077 8.98574 9.99206 9.1662L11.8017 10.0178ZM12.1529 8.152C12.1529 7.43745 12.0501 6.74727 11.7365 6.18974L9.9933 7.17026C10.0637 7.29539 10.1529 7.58655 10.1529 8.152H12.1529ZM11.7697 6.2542C11.5305 5.74601 11.1619 5.28986 10.6119 5.03604L9.77381 6.85196C9.77854 6.85414 9.85787 6.88866 9.96006 7.1058L11.7697 6.2542ZM10.6967 5.08022C10.3122 4.85592 9.88422 4.72 9.42487 4.72V6.72C9.47753 6.72 9.56151 6.73341 9.689 6.80778L10.6967 5.08022ZM9.42487 4.72H6.28887V6.72H9.42487V4.72ZM5.28887 5.72V10.584H7.28887V5.72H5.28887ZM43.9224 22.232L43.4972 23.1372L43.5086 23.1424L43.9224 22.232ZM40.2744 19.608L39.5325 20.2785L39.5393 20.286L39.5462 20.2934L40.2744 19.608ZM37.9384 15.896L37.005 16.255L37.0084 16.2637L37.0119 16.2724L37.9384 15.896ZM38.0024 7.288L37.081 6.8993L38.0024 7.288ZM40.4024 3.64L39.6813 2.94717L39.681 2.94747L40.4024 3.64ZM44.0824 1.08L43.6851 0.162262L43.6801 0.164479L44.0824 1.08ZM53.4584 1.144L53.0332 2.0492L53.0446 2.05437L53.4584 1.144ZM57.0744 3.768L56.3325 4.43854V4.43854L57.0744 3.768ZM59.3784 7.512L58.445 7.87098L58.4484 7.87971L58.4519 7.88838L59.3784 7.512ZM59.3464 16.024L58.4249 15.6353L58.4199 15.6476L59.3464 16.024ZM56.9464 19.704L56.2253 19.0112L56.225 19.0115L56.9464 19.704ZM53.2984 22.264L53.7007 23.1796L53.7122 23.1744L53.2984 22.264ZM43.7944 13.912L42.835 14.1942L42.8374 14.202L43.7944 13.912ZM44.7544 15.832L43.9508 16.4272L43.9562 16.4345L43.9618 16.4417L44.7544 15.832ZM46.3544 17.176L45.8838 18.0584L45.9011 18.0676L45.9188 18.0762L46.3544 17.176ZM51.0264 17.144L51.485 18.0326L51.0264 17.144ZM52.6264 15.768L51.8126 15.1867L51.8086 15.1925L52.6264 15.768ZM53.5544 13.816L52.595 13.5338L52.5922 13.5433L52.5896 13.5529L53.5544 13.816ZM53.5544 9.4L52.5974 9.69001L53.5544 9.4ZM52.5944 7.512L51.7908 8.10723L51.7962 8.11452L51.8018 8.12171L52.5944 7.512ZM50.9624 6.168L51.3979 5.26784V5.26784L50.9624 6.168ZM46.3224 6.2L45.8637 5.3113L45.8518 5.31765L46.3224 6.2ZM44.7224 7.576L45.515 8.18571L45.5205 8.17852L45.5259 8.17123L44.7224 7.576ZM43.7624 9.496L42.803 9.21383L42.8002 9.22333L42.7976 9.23288L43.7624 9.496ZM48.6264 22.192C47.0243 22.192 45.5997 21.896 44.3362 21.3216L43.5086 23.1424C45.061 23.848 46.7724 24.192 48.6264 24.192V22.192ZM44.3475 21.3269C43.0487 20.7168 41.9368 19.9152 41.0026 18.9226L39.5462 20.2934C40.66 21.4768 41.9801 22.4245 43.4972 23.1371L44.3475 21.3269ZM41.0163 18.9375C40.0906 17.9134 39.375 16.7753 38.8648 15.5196L37.0119 16.2724C37.6111 17.7474 38.4528 19.084 39.5325 20.2785L41.0163 18.9375ZM38.8717 15.537C38.382 14.2638 38.1384 12.9561 38.1384 11.608H36.1384C36.1384 13.2039 36.4281 14.7548 37.005 16.255L38.8717 15.537ZM38.1384 11.608C38.1384 10.2238 38.4008 8.91625 38.9237 7.6767L37.081 6.8993C36.452 8.39041 36.1384 9.96284 36.1384 11.608H38.1384ZM38.9237 7.6767C39.4523 6.42377 40.1846 5.3108 41.1238 4.33253L39.681 2.94747C38.5721 4.10253 37.7044 5.42157 37.081 6.8993L38.9237 7.6767ZM41.1235 4.33283C42.0764 3.34105 43.1941 2.56258 44.4846 1.99552L43.6801 0.164479C42.1546 0.834756 40.8191 1.76294 39.6813 2.94717L41.1235 4.33283ZM44.4796 1.99772C45.7735 1.43766 47.1943 1.152 48.7544 1.152V-0.848001C46.9437 -0.848001 45.2499 -0.514996 43.6852 0.162276L44.4796 1.99772ZM48.7544 1.152C50.3518 1.152 51.7724 1.4569 53.0332 2.04913L53.8835 0.23887C52.3284 -0.491569 50.6129 -0.848001 48.7544 -0.848001V1.152ZM53.0446 2.05437C54.3323 2.63971 55.4248 3.43427 56.3325 4.43854L57.8162 3.09746C56.7186 1.88306 55.4004 0.928288 53.8722 0.233633L53.0446 2.05437ZM56.3325 4.43854C57.2533 5.45728 57.9561 6.59981 58.445 7.87098L60.3117 7.15302C59.734 5.65086 58.9008 4.29739 57.8162 3.09746L56.3325 4.43854ZM58.4519 7.88838C58.9588 9.13611 59.2104 10.4164 59.2104 11.736H61.2104C61.2104 10.1542 60.9073 8.61855 60.3048 7.13562L58.4519 7.88838ZM59.2104 11.736C59.2104 13.0969 58.9487 14.394 58.425 15.6353L60.2677 16.4127C60.896 14.9234 61.2104 13.3618 61.2104 11.736H59.2104ZM58.4199 15.6476C57.9142 16.8926 57.1848 18.0124 56.2253 19.0112L57.6675 20.3968C58.7986 19.2196 59.6693 17.8861 60.2728 16.4004L58.4199 15.6476ZM56.225 19.0115C55.2928 19.9825 54.1826 20.7636 52.8846 21.3536L53.7122 23.1744C55.2302 22.4844 56.552 21.5588 57.6678 20.3965L56.225 19.0115ZM52.8961 21.3485C51.6282 21.9056 50.2098 22.192 48.6264 22.192V24.192C50.4563 24.192 52.1526 23.8597 53.7006 23.1795L52.8961 21.3485ZM42.4744 11.672C42.4744 12.534 42.5943 13.3757 42.835 14.1942L44.7537 13.6298C44.5678 12.9976 44.4744 12.346 44.4744 11.672H42.4744ZM42.8374 14.202C43.0831 15.0129 43.4541 15.7566 43.9508 16.4272L45.5579 15.2368C45.2013 14.7554 44.9324 14.2191 44.7514 13.622L42.8374 14.202ZM43.9618 16.4417C44.4783 17.1133 45.123 17.6526 45.8838 18.0584L46.825 16.2936C46.3058 16.0167 45.8837 15.6601 45.547 15.2223L43.9618 16.4417ZM45.9188 18.0762C46.7425 18.4747 47.6761 18.656 48.6904 18.656V16.656C47.9127 16.656 47.2889 16.5173 46.7899 16.2758L45.9188 18.0762ZM48.6904 18.656C49.7137 18.656 50.6558 18.4606 51.485 18.0326L50.5677 16.2554C50.0743 16.51 49.459 16.656 48.6904 16.656V18.656ZM51.485 18.0326C52.2812 17.6217 52.9408 17.0588 53.4442 16.3435L51.8086 15.1925C51.5012 15.6292 51.0942 15.9836 50.5677 16.2554L51.485 18.0326ZM53.4401 16.3492C53.9351 15.6562 54.2958 14.898 54.5191 14.0791L52.5896 13.5529C52.4289 14.142 52.171 14.6851 51.8126 15.1868L53.4401 16.3492ZM54.5137 14.0982C54.7537 13.2824 54.8744 12.4514 54.8744 11.608H52.8744C52.8744 12.2579 52.7817 12.899 52.595 13.5338L54.5137 14.0982ZM54.8744 11.608C54.8744 10.7461 54.7545 9.9121 54.5114 9.10999L52.5974 9.69001C52.781 10.2959 52.8744 10.9339 52.8744 11.608H54.8744ZM54.5114 9.10999C54.2648 8.29636 53.8911 7.55756 53.387 6.90229L51.8018 8.12171C52.151 8.57578 52.4172 9.09564 52.5974 9.69001L54.5114 9.10999ZM53.3979 6.91677C52.8726 6.20756 52.201 5.65642 51.3979 5.26784L50.5268 7.06816C51.0464 7.31957 51.4628 7.66444 51.7908 8.10723L53.3979 6.91677ZM51.3979 5.26784C50.5773 4.87077 49.6554 4.688 48.6584 4.688V6.688C49.4106 6.688 50.0248 6.82523 50.5268 7.06816L51.3979 5.26784ZM48.6584 4.688C47.635 4.688 46.693 4.88337 45.8637 5.31138L46.781 7.08862C47.2744 6.83396 47.8897 6.688 48.6584 6.688V4.688ZM45.8518 5.31765C45.0825 5.72794 44.4349 6.28409 43.9188 6.98077L45.5259 8.17123C45.8632 7.71591 46.2823 7.35472 46.793 7.08235L45.8518 5.31765ZM43.9298 6.96629C43.4219 7.62652 43.0484 8.37954 42.803 9.21383L44.7217 9.77817C44.903 9.16179 45.1695 8.63482 45.515 8.18571L43.9298 6.96629ZM42.7976 9.23288C42.5817 10.0246 42.4744 10.8385 42.4744 11.672H44.4744C44.4744 11.0121 44.5591 10.3754 44.7271 9.75912L42.7976 9.23288ZM39.1636 43.72V44.72H40.1636V43.72H39.1636ZM32.6356 43.72V42.72H31.6356V43.72H32.6356ZM32.6356 61V62H33.6356V61H32.6356ZM26.3956 61H25.3956V62H26.3956V61ZM26.3956 43.72H27.3956V42.72H26.3956V43.72ZM19.8356 43.72H18.8356V44.72H19.8356V43.72ZM19.8356 38.28V37.28H18.8356V38.28H19.8356ZM39.1636 38.28H40.1636V37.28H39.1636V38.28ZM39.1636 42.72H32.6356V44.72H39.1636V42.72ZM31.6356 43.72V61H33.6356V43.72H31.6356ZM32.6356 60H26.3956V62H32.6356V60ZM27.3956 61V43.72H25.3956V61H27.3956ZM26.3956 42.72H19.8356V44.72H26.3956V42.72ZM20.8356 43.72V38.28H18.8356V43.72H20.8356ZM19.8356 39.28H39.1636V37.28H19.8356V39.28ZM38.1636 38.28V43.72H40.1636V38.28H38.1636Z" fill="black"/>
</svg>
