<svg width="70" height="20" viewBox="0 0 70 20" fill="none" xmlns="http://www.w3.org/2000/svg">
<path d="M10.08 3.46C9.88 3.23333 9.64667 3.03333 9.38 2.86C9.11333 2.67333 8.81333 2.51333 8.48 2.38C8.14667 2.24667 7.78667 2.14 7.4 2.06C7.02667 1.98 6.62667 1.94 6.2 1.94C4.96 1.94 4.04667 2.18 3.46 2.66C2.88667 3.12667 2.6 3.76667 2.6 4.58C2.6 5.14 2.73333 5.58 3 5.9C3.28 6.22 3.71333 6.48 4.3 6.68C4.88667 6.88 5.63333 7.08667 6.54 7.3C7.55333 7.51333 8.42667 7.76667 9.16 8.06C9.89333 8.35333 10.46 8.75333 10.86 9.26C11.26 9.75333 11.46 10.4267 11.46 11.28C11.46 11.9333 11.3333 12.5 11.08 12.98C10.8267 13.46 10.4733 13.86 10.02 14.18C9.56667 14.5 9.02667 14.74 8.4 14.9C7.77333 15.0467 7.08667 15.12 6.34 15.12C5.60667 15.12 4.9 15.0467 4.22 14.9C3.55333 14.74 2.92 14.5133 2.32 14.22C1.72 13.9133 1.16 13.5267 0.64 13.06L1.34 11.92C1.59333 12.1867 1.89333 12.44 2.24 12.68C2.6 12.9067 2.99333 13.1133 3.42 13.3C3.86 13.4867 4.32667 13.6333 4.82 13.74C5.32667 13.8333 5.84667 13.88 6.38 13.88C7.51333 13.88 8.39333 13.6733 9.02 13.26C9.66 12.8467 9.98 12.2333 9.98 11.42C9.98 10.8333 9.82 10.3667 9.5 10.02C9.18 9.66 8.7 9.36667 8.06 9.14C7.42 8.91333 6.63333 8.69333 5.7 8.48C4.71333 8.25333 3.88 8 3.2 7.72C2.52 7.44 2.00667 7.07333 1.66 6.62C1.32667 6.15333 1.16 5.54 1.16 4.78C1.16 3.9 1.37333 3.16 1.8 2.56C2.24 1.94667 2.84 1.48667 3.6 1.18C4.36 0.859999 5.23333 0.699999 6.22 0.699999C6.84667 0.699999 7.42667 0.766666 7.96 0.899999C8.50667 1.02 9.00667 1.2 9.46 1.44C9.92667 1.68 10.36 1.98 10.76 2.34L10.08 3.46ZM13.6484 15V4.58H15.0084V15H13.6484ZM13.6484 2.4V0.4H15.0084V2.4H13.6484ZM22.1839 15.14C21.4772 15.14 20.8239 14.9933 20.2239 14.7C19.6239 14.4067 19.1039 14.0133 18.6639 13.52C18.2372 13.0133 17.9039 12.44 17.6639 11.8C17.4239 11.16 17.3039 10.5 17.3039 9.82C17.3039 9.08667 17.4172 8.4 17.6439 7.76C17.8839 7.10667 18.2172 6.52667 18.6439 6.02C19.0839 5.51333 19.5972 5.12 20.1839 4.84C20.7706 4.54667 21.4239 4.4 22.1439 4.4C23.0372 4.4 23.8106 4.62667 24.4639 5.08C25.1306 5.53333 25.6906 6.09333 26.1439 6.76V4.58H27.3639V15.04C27.3639 16 27.1306 16.8067 26.6639 17.46C26.2106 18.1267 25.5906 18.6267 24.8039 18.96C24.0306 19.2933 23.1839 19.46 22.2639 19.46C21.0772 19.46 20.1172 19.2467 19.3839 18.82C18.6506 18.3933 18.0506 17.82 17.5839 17.1L18.4239 16.44C18.8372 17.0933 19.3839 17.58 20.0639 17.9C20.7572 18.22 21.4906 18.38 22.2639 18.38C22.9439 18.38 23.5639 18.2533 24.1239 18C24.6972 17.76 25.1506 17.3933 25.4839 16.9C25.8306 16.4067 26.0039 15.7867 26.0039 15.04V12.98C25.6039 13.6333 25.0572 14.16 24.3639 14.56C23.6706 14.9467 22.9439 15.14 22.1839 15.14ZM22.5639 14C22.9772 14 23.3706 13.9267 23.7439 13.78C24.1306 13.6333 24.4839 13.44 24.8039 13.2C25.1239 12.9467 25.3906 12.6667 25.6039 12.36C25.8172 12.0533 25.9506 11.74 26.0039 11.42V8.2C25.8039 7.69333 25.5172 7.24667 25.1439 6.86C24.7706 6.46 24.3439 6.15333 23.8639 5.94C23.3972 5.71333 22.9106 5.6 22.4039 5.6C21.8172 5.6 21.2906 5.72667 20.8239 5.98C20.3706 6.22 19.9839 6.54667 19.6639 6.96C19.3572 7.36 19.1172 7.81333 18.9439 8.32C18.7706 8.82667 18.6839 9.33333 18.6839 9.84C18.6839 10.4 18.7839 10.9333 18.9839 11.44C19.1839 11.9333 19.4572 12.38 19.8039 12.78C20.1639 13.1667 20.5772 13.4667 21.0439 13.68C21.5239 13.8933 22.0306 14 22.5639 14ZM39.1272 15H37.7672V9.18C37.7672 7.95333 37.5872 7.06 37.2272 6.5C36.8672 5.92667 36.3005 5.64 35.5272 5.64C34.9939 5.64 34.4672 5.77333 33.9472 6.04C33.4272 6.29333 32.9672 6.64667 32.5672 7.1C32.1805 7.54 31.9005 8.04667 31.7272 8.62V15H30.3672V4.58H31.6072V6.94C31.8872 6.43333 32.2539 5.99333 32.7072 5.62C33.1605 5.23333 33.6739 4.93333 34.2472 4.72C34.8205 4.50667 35.4139 4.4 36.0272 4.4C36.6005 4.4 37.0872 4.50667 37.4872 4.72C37.8872 4.93333 38.2072 5.24 38.4472 5.64C38.6872 6.02667 38.8605 6.5 38.9672 7.06C39.0739 7.60667 39.1272 8.22 39.1272 8.9V15ZM47.025 10.7V4.58H48.385V10.46C48.385 11.6467 48.585 12.5333 48.985 13.12C49.3983 13.7067 50.005 14 50.805 14C51.3383 14 51.8517 13.8867 52.345 13.66C52.8517 13.42 53.2983 13.0867 53.685 12.66C54.0717 12.22 54.365 11.7133 54.565 11.14V4.58H55.925V13.36C55.925 13.5467 55.965 13.6867 56.045 13.78C56.125 13.86 56.245 13.9067 56.405 13.92V15C56.245 15.0133 56.1183 15.02 56.025 15.02C55.9317 15.0333 55.845 15.04 55.765 15.04C55.4983 15.0133 55.265 14.9067 55.065 14.72C54.8783 14.5333 54.7783 14.3067 54.765 14.04L54.725 12.64C54.2717 13.44 53.6517 14.0667 52.865 14.52C52.0917 14.9733 51.2517 15.2 50.345 15.2C49.2517 15.2 48.425 14.82 47.865 14.06C47.305 13.3 47.025 12.18 47.025 10.7ZM64.32 15.2C63.4533 15.2 62.6733 14.9733 61.98 14.52C61.3 14.0667 60.76 13.5067 60.36 12.84V19.26H59V4.58H60.22V6.6C60.6333 5.94667 61.1867 5.42 61.88 5.02C62.5733 4.60667 63.3133 4.4 64.1 4.4C64.82 4.4 65.48 4.55333 66.08 4.86C66.68 5.15333 67.2 5.55333 67.64 6.06C68.08 6.56667 68.42 7.14667 68.66 7.8C68.9133 8.44 69.04 9.10667 69.04 9.8C69.04 10.7733 68.84 11.6733 68.44 12.5C68.0533 13.3133 67.5067 13.9667 66.8 14.46C66.0933 14.9533 65.2667 15.2 64.32 15.2ZM63.94 14C64.5133 14 65.0267 13.8867 65.48 13.66C65.9333 13.42 66.32 13.1 66.64 12.7C66.9733 12.3 67.2267 11.8533 67.4 11.36C67.5733 10.8533 67.66 10.3333 67.66 9.8C67.66 9.24 67.56 8.70667 67.36 8.2C67.1733 7.69333 66.9 7.24667 66.54 6.86C66.18 6.47333 65.7667 6.16667 65.3 5.94C64.8333 5.71333 64.3267 5.6 63.78 5.6C63.4333 5.6 63.0733 5.66667 62.7 5.8C62.3267 5.93333 61.9667 6.12667 61.62 6.38C61.2867 6.62 61.0067 6.89333 60.78 7.2C60.5533 7.50667 60.4133 7.83333 60.36 8.18V11.38C60.5733 11.8733 60.86 12.32 61.22 12.72C61.58 13.1067 61.9933 13.42 62.46 13.66C62.94 13.8867 63.4333 14 63.94 14Z" fill="white"/>
</svg>
