<svg width="714" height="378" viewBox="0 0 714 378" fill="none" xmlns="http://www.w3.org/2000/svg">
<path d="M35.7 118.5C28.7 118.5 22.15 117.7 16.05 116.1C9.95 114.5 4.65 112.15 0.15 109.05L10.8 92.85C16.4 95.75 21 97.8 24.6 99C28.3 100.1 32 100.65 35.7 100.65C39.2 100.65 41.9 100.1 43.8 99C45.8 97.8 46.8 96.25 46.8 94.35C46.8 92.85 46.2 91.65 45 90.75C43.9 89.85 42.1 89.2 39.6 88.8L24.75 86.1C17.25 84.7 11.55 82.1 7.65 78.3C3.85 74.5 1.95 69.6 1.95 63.6C1.95 58.3 3.25 53.8 5.85 50.1C8.45 46.3 12.15 43.4 16.95 41.4C21.85 39.4 27.65 38.4 34.35 38.4C39.75 38.4 45.1 39.15 50.4 40.65C55.7 42.15 60.85 44.35 65.85 47.25L54.75 62.7C50.85 60.4 47.05 58.75 43.35 57.75C39.75 56.65 36.15 56.1 32.55 56.1C29.65 56.1 27.35 56.55 25.65 57.45C24.05 58.35 23.25 59.65 23.25 61.35C23.25 62.95 23.8 64.15 24.9 64.95C26.1 65.75 28.2 66.4 31.2 66.9L45.75 69.6C53.45 71 59.25 73.6 63.15 77.4C67.05 81.2 69 86.05 69 91.95C69 96.95 67.55 101.5 64.65 105.6C61.75 109.6 57.8 112.75 52.8 115.05C47.8 117.35 42.1 118.5 35.7 118.5ZM116.344 118.5C108.644 118.5 101.744 116.75 95.6438 113.25C89.5438 109.75 84.6938 105 81.0938 99C77.5938 92.9 75.8438 86.05 75.8438 78.45C75.8438 70.85 77.5938 64.05 81.0938 58.05C84.6938 51.95 89.5438 47.15 95.6438 43.65C101.744 40.15 108.594 38.4 116.194 38.4C123.894 38.4 130.744 40.15 136.744 43.65C142.844 47.15 147.644 51.95 151.144 58.05C154.744 64.05 156.544 70.85 156.544 78.45C156.544 86.05 154.744 92.9 151.144 99C147.644 105 142.844 109.75 136.744 113.25C130.744 116.75 123.944 118.5 116.344 118.5ZM116.194 98.25C119.494 98.25 122.394 97.4 124.894 95.7C127.394 94 129.344 91.65 130.744 88.65C132.144 85.65 132.844 82.25 132.844 78.45C132.844 74.55 132.144 71.15 130.744 68.25C129.344 65.25 127.394 62.9 124.894 61.2C122.394 59.5 119.494 58.65 116.194 58.65C112.994 58.65 110.094 59.5 107.494 61.2C104.994 62.9 103.044 65.25 101.644 68.25C100.244 71.15 99.5438 74.55 99.5438 78.45C99.5438 82.25 100.244 85.65 101.644 88.65C103.044 91.65 104.994 94 107.494 95.7C110.094 97.4 112.994 98.25 116.194 98.25ZM204.118 118.5C196.618 118.5 189.818 116.75 183.718 113.25C177.718 109.65 172.918 104.85 169.318 98.85C165.818 92.75 164.068 85.95 164.068 78.45C164.068 70.85 165.818 64.05 169.318 58.05C172.918 52.05 177.718 47.3 183.718 43.8C189.818 40.2 196.618 38.4 204.118 38.4C210.518 38.4 216.518 39.65 222.118 42.15C227.718 44.55 232.468 48.05 236.368 52.65L221.518 67.5C219.018 64.6 216.468 62.5 213.868 61.2C211.268 59.8 208.318 59.1 205.018 59.1C201.818 59.1 198.918 59.95 196.318 61.65C193.818 63.35 191.818 65.65 190.318 68.55C188.918 71.45 188.218 74.75 188.218 78.45C188.218 82.15 188.918 85.45 190.318 88.35C191.818 91.25 193.818 93.55 196.318 95.25C198.918 96.95 201.818 97.8 205.018 97.8C208.318 97.8 211.268 97.15 213.868 95.85C216.468 94.45 219.018 92.3 221.518 89.4L236.368 104.25C232.468 108.85 227.718 112.4 222.118 114.9C216.518 117.3 210.518 118.5 204.118 118.5ZM243.878 117V39.6H268.178V117H243.878ZM256.028 27.75C252.328 27.75 249.128 26.4 246.428 23.7C243.728 21 242.378 17.8 242.378 14.1C242.378 10.3 243.728 7.09999 246.428 4.49999C249.128 1.8 252.328 0.449998 256.028 0.449998C259.828 0.449998 263.028 1.8 265.628 4.49999C268.328 7.09999 269.678 10.3 269.678 14.1C269.678 17.8 268.328 21 265.628 23.7C263.028 26.4 259.828 27.75 256.028 27.75ZM305.691 118.2C300.491 118.2 295.841 117.2 291.741 115.2C287.741 113.2 284.591 110.45 282.291 106.95C280.091 103.45 278.991 99.4 278.991 94.8C278.991 90 280.191 85.95 282.591 82.65C284.991 79.25 288.441 76.7 292.941 75C297.441 73.2 302.841 72.3 309.141 72.3C311.941 72.3 314.791 72.6 317.691 73.2C320.591 73.7 323.741 74.6 327.141 75.9V69.6C327.141 65.8 325.891 63 323.391 61.2C320.891 59.3 317.041 58.35 311.841 58.35C308.941 58.35 305.691 58.8 302.091 59.7C298.591 60.5 294.591 61.85 290.091 63.75L281.691 46.8C294.191 41.2 306.041 38.4 317.241 38.4C327.941 38.4 336.241 40.95 342.141 46.05C348.141 51.15 351.141 58.3 351.141 67.5V117H327.141V110.25C323.741 113.05 320.341 115.1 316.941 116.4C313.541 117.6 309.791 118.2 305.691 118.2ZM301.341 94.35C301.341 96.85 302.391 98.8 304.491 100.2C306.591 101.5 309.491 102.15 313.191 102.15C315.791 102.15 318.241 101.85 320.541 101.25C322.841 100.55 325.041 99.55 327.141 98.25V88.35C324.941 87.85 322.741 87.45 320.541 87.15C318.341 86.85 316.091 86.7 313.791 86.7C309.791 86.7 306.691 87.35 304.491 88.65C302.391 89.95 301.341 91.85 301.341 94.35ZM364.956 117V10.2L389.256 6.44999V117H364.956ZM6.45 231V153.6H30.75V165.9C33.65 161.5 37 158.15 40.8 155.85C44.7 153.55 49 152.4 53.7 152.4C58.7 152.4 63.1 153.7 66.9 156.3C70.7 158.9 73.55 162.4 75.45 166.8C78.45 162.1 82.1 158.55 86.4 156.15C90.7 153.65 95.5 152.4 100.8 152.4C105.6 152.4 109.8 153.55 113.4 155.85C117.1 158.15 119.95 161.35 121.95 165.45C124.05 169.55 125.1 174.25 125.1 179.55V231H100.8V184.35C100.8 180.45 99.75 177.35 97.65 175.05C95.55 172.65 92.75 171.45 89.25 171.45C87.05 171.45 85 171.95 83.1 172.95C81.3 173.85 79.6 175.3 78 177.3C78 177.7 78 178.1 78 178.5C78 178.8 78 179.15 78 179.55V231H53.7V184.35C53.7 180.45 52.65 177.35 50.55 175.05C48.45 172.65 45.65 171.45 42.15 171.45C37.65 171.45 33.85 173.45 30.75 177.45V231H6.45ZM176.263 232.5C168.663 232.5 161.763 230.75 155.563 227.25C149.463 223.65 144.563 218.85 140.863 212.85C137.263 206.75 135.463 199.95 135.463 192.45C135.463 184.85 137.163 178.05 140.563 172.05C143.963 166.05 148.613 161.3 154.513 157.8C160.413 154.2 167.063 152.4 174.463 152.4C181.963 152.4 188.563 154.15 194.263 157.65C199.963 161.15 204.413 166 207.613 172.2C210.913 178.3 212.563 185.35 212.563 193.35V198.6H159.313C160.113 201.5 161.363 204.05 163.063 206.25C164.763 208.45 166.863 210.15 169.363 211.35C171.863 212.55 174.563 213.15 177.463 213.15C180.663 213.15 183.563 212.6 186.163 211.5C188.863 210.4 191.063 208.8 192.763 206.7L208.813 220.05C203.813 224.45 198.763 227.65 193.663 229.65C188.563 231.55 182.763 232.5 176.263 232.5ZM159.313 184.8H190.063C189.363 182 188.263 179.6 186.763 177.6C185.263 175.6 183.463 174.05 181.363 172.95C179.263 171.85 176.913 171.3 174.313 171.3C171.813 171.3 169.513 171.85 167.413 172.95C165.413 173.95 163.713 175.45 162.313 177.45C161.013 179.45 160.013 181.9 159.313 184.8ZM254.665 231.45C248.365 231.45 242.615 229.7 237.415 226.2C232.215 222.6 228.065 217.85 224.965 211.95C221.965 205.95 220.465 199.35 220.465 192.15C220.465 184.85 222.065 178.3 225.265 172.5C228.465 166.6 232.765 161.9 238.165 158.4C243.665 154.9 249.765 153.15 256.465 153.15C260.565 153.15 264.365 153.95 267.865 155.55C271.465 157.15 274.565 159.45 277.165 162.45V124.2L301.465 120.45V231H277.465V220.95C274.965 224.15 271.665 226.7 267.565 228.6C263.565 230.5 259.265 231.45 254.665 231.45ZM262.765 211.35C265.665 211.35 268.315 210.85 270.715 209.85C273.115 208.75 275.265 207.2 277.165 205.2V179.1C275.265 177.1 273.065 175.6 270.565 174.6C268.165 173.6 265.565 173.1 262.765 173.1C259.265 173.1 256.115 173.95 253.315 175.65C250.515 177.25 248.315 179.5 246.715 182.4C245.115 185.3 244.315 188.6 244.315 192.3C244.315 195.9 245.115 199.15 246.715 202.05C248.315 204.95 250.515 207.25 253.315 208.95C256.115 210.55 259.265 211.35 262.765 211.35ZM315.802 231V153.6H340.102V231H315.802ZM327.952 141.75C324.252 141.75 321.052 140.4 318.352 137.7C315.652 135 314.302 131.8 314.302 128.1C314.302 124.3 315.652 121.1 318.352 118.5C321.052 115.8 324.252 114.45 327.952 114.45C331.752 114.45 334.952 115.8 337.552 118.5C340.252 121.1 341.602 124.3 341.602 128.1C341.602 131.8 340.252 135 337.552 137.7C334.952 140.4 331.752 141.75 327.952 141.75ZM377.614 232.2C372.414 232.2 367.764 231.2 363.664 229.2C359.664 227.2 356.514 224.45 354.214 220.95C352.014 217.45 350.914 213.4 350.914 208.8C350.914 204 352.114 199.95 354.514 196.65C356.914 193.25 360.364 190.7 364.864 189C369.364 187.2 374.764 186.3 381.064 186.3C383.864 186.3 386.714 186.6 389.614 187.2C392.514 187.7 395.664 188.6 399.064 189.9V183.6C399.064 179.8 397.814 177 395.314 175.2C392.814 173.3 388.964 172.35 383.764 172.35C380.864 172.35 377.614 172.8 374.014 173.7C370.514 174.5 366.514 175.85 362.014 177.75L353.614 160.8C366.114 155.2 377.964 152.4 389.164 152.4C399.864 152.4 408.164 154.95 414.064 160.05C420.064 165.15 423.064 172.3 423.064 181.5V231H399.064V224.25C395.664 227.05 392.264 229.1 388.864 230.4C385.464 231.6 381.714 232.2 377.614 232.2ZM373.264 208.35C373.264 210.85 374.314 212.8 376.414 214.2C378.514 215.5 381.414 216.15 385.114 216.15C387.714 216.15 390.164 215.85 392.464 215.25C394.764 214.55 396.964 213.55 399.064 212.25V202.35C396.864 201.85 394.664 201.45 392.464 201.15C390.264 200.85 388.014 200.7 385.714 200.7C381.714 200.7 378.614 201.35 376.414 202.65C374.314 203.95 373.264 205.85 373.264 208.35Z" fill="#41403C"/>
<path d="M6.45 345V267.6H30.75V279.9C33.65 275.5 37 272.15 40.8 269.85C44.7 267.55 49 266.4 53.7 266.4C58.7 266.4 63.1 267.7 66.9 270.3C70.7 272.9 73.55 276.4 75.45 280.8C78.45 276.1 82.1 272.55 86.4 270.15C90.7 267.65 95.5 266.4 100.8 266.4C105.6 266.4 109.8 267.55 113.4 269.85C117.1 272.15 119.95 275.35 121.95 279.45C124.05 283.55 125.1 288.25 125.1 293.55V345H100.8V298.35C100.8 294.45 99.75 291.35 97.65 289.05C95.55 286.65 92.75 285.45 89.25 285.45C87.05 285.45 85 285.95 83.1 286.95C81.3 287.85 79.6 289.3 78 291.3C78 291.7 78 292.1 78 292.5C78 292.8 78 293.15 78 293.55V345H53.7V298.35C53.7 294.45 52.65 291.35 50.55 289.05C48.45 286.65 45.65 285.45 42.15 285.45C37.65 285.45 33.85 287.45 30.75 291.45V345H6.45ZM162.013 346.2C156.813 346.2 152.163 345.2 148.063 343.2C144.063 341.2 140.913 338.45 138.613 334.95C136.413 331.45 135.313 327.4 135.313 322.8C135.313 318 136.513 313.95 138.913 310.65C141.313 307.25 144.763 304.7 149.263 303C153.763 301.2 159.163 300.3 165.463 300.3C168.263 300.3 171.113 300.6 174.013 301.2C176.913 301.7 180.063 302.6 183.463 303.9V297.6C183.463 293.8 182.213 291 179.713 289.2C177.213 287.3 173.363 286.35 168.163 286.35C165.263 286.35 162.013 286.8 158.413 287.7C154.913 288.5 150.913 289.85 146.413 291.75L138.013 274.8C150.513 269.2 162.363 266.4 173.563 266.4C184.263 266.4 192.563 268.95 198.463 274.05C204.463 279.15 207.463 286.3 207.463 295.5V345H183.463V338.25C180.063 341.05 176.663 343.1 173.263 344.4C169.863 345.6 166.113 346.2 162.013 346.2ZM157.663 322.35C157.663 324.85 158.713 326.8 160.813 328.2C162.913 329.5 165.813 330.15 169.513 330.15C172.113 330.15 174.563 329.85 176.863 329.25C179.163 328.55 181.363 327.55 183.463 326.25V316.35C181.263 315.85 179.063 315.45 176.863 315.15C174.663 314.85 172.413 314.7 170.113 314.7C166.113 314.7 163.013 315.35 160.813 316.65C158.713 317.95 157.663 319.85 157.663 322.35ZM221.278 345V267.6H245.578V285.15C248.078 278.65 251.028 273.85 254.428 270.75C257.928 267.65 261.978 266.1 266.578 266.1C268.278 266.2 269.678 266.35 270.778 266.55C271.878 266.75 273.178 267.25 274.678 268.05V288.9C273.178 288.1 271.428 287.5 269.428 287.1C267.428 286.7 265.378 286.5 263.278 286.5C259.678 286.5 256.328 287.4 253.228 289.2C250.128 290.9 247.578 293.2 245.578 296.1V345H221.278ZM283.136 345V237.75L307.436 234V298.35L334.436 267.6H361.286L329.786 302.25L363.536 345H333.236L307.436 310.8V345H283.136ZM400.507 346.5C392.907 346.5 386.007 344.75 379.807 341.25C373.707 337.65 368.807 332.85 365.107 326.85C361.507 320.75 359.707 313.95 359.707 306.45C359.707 298.85 361.407 292.05 364.807 286.05C368.207 280.05 372.857 275.3 378.757 271.8C384.657 268.2 391.307 266.4 398.707 266.4C406.207 266.4 412.807 268.15 418.507 271.65C424.207 275.15 428.657 280 431.857 286.2C435.157 292.3 436.807 299.35 436.807 307.35V312.6H383.557C384.357 315.5 385.607 318.05 387.307 320.25C389.007 322.45 391.107 324.15 393.607 325.35C396.107 326.55 398.807 327.15 401.707 327.15C404.907 327.15 407.807 326.6 410.407 325.5C413.107 324.4 415.307 322.8 417.007 320.7L433.057 334.05C428.057 338.45 423.007 341.65 417.907 343.65C412.807 345.55 407.007 346.5 400.507 346.5ZM383.557 298.8H414.307C413.607 296 412.507 293.6 411.007 291.6C409.507 289.6 407.707 288.05 405.607 286.95C403.507 285.85 401.157 285.3 398.557 285.3C396.057 285.3 393.757 285.85 391.657 286.95C389.657 287.95 387.957 289.45 386.557 291.45C385.257 293.45 384.257 295.9 383.557 298.8ZM483.179 346.5C474.079 346.5 467.179 344.4 462.479 340.2C457.779 336 455.429 329.8 455.429 321.6V286.35H440.429V267.6H455.429V246.15L479.729 241.2V267.6H500.429V286.35H479.729V316.8C479.729 320.2 480.479 322.6 481.979 324C483.579 325.4 486.229 326.1 489.929 326.1C491.329 326.1 492.729 326 494.129 325.8C495.529 325.6 497.429 325.15 499.829 324.45V344.1C497.629 344.8 494.929 345.35 491.729 345.75C488.529 346.25 485.679 346.5 483.179 346.5ZM509.43 345V267.6H533.73V345H509.43ZM521.58 255.75C517.88 255.75 514.68 254.4 511.98 251.7C509.28 249 507.93 245.8 507.93 242.1C507.93 238.3 509.28 235.1 511.98 232.5C514.68 229.8 517.88 228.45 521.58 228.45C525.38 228.45 528.58 229.8 531.18 232.5C533.88 235.1 535.23 238.3 535.23 242.1C535.23 245.8 533.88 249 531.18 251.7C528.58 254.4 525.38 255.75 521.58 255.75ZM548.143 345V267.6H572.443V280.2C575.443 275.7 578.993 272.3 583.093 270C587.293 267.6 591.893 266.4 596.893 266.4C601.893 266.4 606.293 267.55 610.093 269.85C613.993 272.05 617.043 275.15 619.243 279.15C621.443 283.05 622.543 287.6 622.543 292.8V345H598.243V299.85C598.243 295.45 597.043 291.95 594.643 289.35C592.343 286.75 589.243 285.45 585.343 285.45C582.743 285.45 580.343 286 578.143 287.1C576.043 288.1 574.143 289.7 572.443 291.9V345H548.143ZM672.968 377.85C667.168 377.85 661.518 377.25 656.018 376.05C650.618 374.85 645.568 373.15 640.868 370.95L648.368 353.4C652.668 355.4 656.768 356.9 660.668 357.9C664.568 358.9 668.368 359.4 672.068 359.4C677.868 359.4 682.218 358.2 685.118 355.8C688.118 353.4 689.618 349.85 689.618 345.15V334.65C687.118 337.75 683.868 340.25 679.868 342.15C675.868 343.95 671.618 344.85 667.118 344.85C660.818 344.85 655.068 343.1 649.868 339.6C644.668 336.1 640.518 331.4 637.418 325.5C634.418 319.6 632.918 313.05 632.918 305.85C632.918 298.65 634.518 292.15 637.718 286.35C640.918 280.45 645.218 275.8 650.618 272.4C656.118 268.9 662.218 267.15 668.918 267.15C673.018 267.15 676.868 268 680.468 269.7C684.168 271.3 687.318 273.7 689.918 276.9V267.6H713.768V345.45C713.768 355.85 710.268 363.85 703.268 369.45C696.268 375.05 686.168 377.85 672.968 377.85ZM675.218 325.05C678.118 325.05 680.768 324.55 683.168 323.55C685.568 322.45 687.718 320.9 689.618 318.9V293.1C687.718 291.1 685.518 289.6 683.018 288.6C680.618 287.6 678.018 287.1 675.218 287.1C671.718 287.1 668.568 287.95 665.768 289.65C662.968 291.25 660.768 293.45 659.168 296.25C657.568 299.05 656.768 302.3 656.768 306C656.768 309.6 657.568 312.85 659.168 315.75C660.768 318.65 662.968 320.95 665.768 322.65C668.568 324.25 671.718 325.05 675.218 325.05Z" fill="white"/>
</svg>
